<svg width="144" height="39" viewBox="0 0 144 39" fill="none" xmlns="http://www.w3.org/2000/svg">
<g filter="url(#filter0_dd_2101_4522)">
<mask id="mask0_2101_4522" style="mask-type:luminance" maskUnits="userSpaceOnUse" x="3" y="2" width="32" height="33">
<path d="M27 2.22656H11C6.58172 2.22656 3 5.80828 3 10.2266V26.2266C3 30.6448 6.58172 34.2266 11 34.2266H27C31.4183 34.2266 35 30.6448 35 26.2266V10.2266C35 5.80828 31.4183 2.22656 27 2.22656Z" fill="white"/>
</mask>
<g mask="url(#mask0_2101_4522)">
<path d="M27 2.22656H11C6.58172 2.22656 3 5.80828 3 10.2266V26.2266C3 30.6448 6.58172 34.2266 11 34.2266H27C31.4183 34.2266 35 30.6448 35 26.2266V10.2266C35 5.80828 31.4183 2.22656 27 2.22656Z" fill="white"/>
<mask id="mask1_2101_4522" style="mask-type:luminance" maskUnits="userSpaceOnUse" x="7" y="8" width="24" height="2">
<path d="M7.70117 8.05469H30.2984V9.23027H7.70117V8.05469Z" fill="white"/>
</mask>
<g mask="url(#mask1_2101_4522)">
<mask id="mask2_2101_4522" style="mask-type:luminance" maskUnits="userSpaceOnUse" x="7" y="5" width="24" height="26">
<path d="M14.7295 5.71289C14.6147 5.7134 14.5142 5.73075 14.4325 5.77463C13.8498 5.97311 12.8972 6.18435 12.8972 6.18435C12.8972 6.18435 12.5268 6.02566 11.7854 6.3961C11.0446 6.92572 10.8859 7.0844 10.8859 7.0844C10.8859 7.0844 10.6211 8.30233 9.82665 8.30233C9.3506 8.93707 8.29186 10.3137 8.02705 11.2663C7.49743 12.6424 7.70918 13.9659 8.29186 14.7599C9.13885 15.9247 9.87971 17.0365 11.6793 16.7187C13.5325 16.2952 13.6912 16.2421 14.0616 16.2421C14.6438 16.2952 15.4377 16.8773 15.4377 16.8773C16.0204 16.8773 16.3377 17.0891 16.3377 17.0891C16.3377 17.0891 16.0729 18.6244 16.1791 18.8361C16.3377 19.1009 17.2903 19.405 17.3434 20.5495C17.3965 21.6945 17.7138 22.3297 17.7138 22.3297C17.7138 22.3297 17.6613 22.965 17.1847 23.4941C16.7082 24.0237 17.5021 25.3998 17.82 25.7177C18.0317 26.2999 18.2435 27.1999 18.2965 27.6765C18.8501 28.2056 18.8501 28.4704 19.1966 29.6878C19.1966 29.6878 19.4083 30.3231 20.4135 29.8465C21.6314 29.6878 21.9488 29.8465 22.5309 28.9995C23.4841 27.9938 23.7489 27.8882 23.8019 27.3586C24.2249 26.6177 24.7545 26.406 24.7545 26.406C24.7545 25.7702 24.8076 25.1355 24.4897 24.9768C25.4954 24.5003 26.2893 23.9706 26.6603 23.7589C26.7659 22.965 26.6072 20.8873 26.2893 20.5495C25.972 20.0005 26.0245 20.2122 26.7394 19.3652C27.6129 18.3596 28.8834 16.9835 28.8834 16.9835C28.8834 16.9835 29.2543 16.3482 29.3599 15.713C30.1008 14.9191 30.8809 13.4899 29.4058 13.9659C28.7777 14.2308 28.2481 14.6374 27.7185 14.2308C27.5073 13.5424 27.0307 13.2781 26.6072 13.2781C25.7602 12.1133 25.125 11.2663 25.125 11.2663C25.125 11.2663 25.5852 10.5254 24.7199 9.94325C24.1193 9.14881 24.1193 9.09575 24.1193 9.09575C24.1193 9.09575 24.6484 7.19053 22.6901 7.56096C21.3666 7.5079 19.8757 7.13747 19.5139 7.77271C19.1522 8.09059 18.6139 8.00385 18.3496 7.35891C17.873 7.0844 17.1317 7.34105 17.1317 7.34105C17.1317 7.34105 16.5117 6.97878 16.8143 6.55529C17.1164 5.97311 17.026 5.7083 16.2852 5.86698C15.9714 5.88943 15.6586 5.84096 15.3729 5.79249C15.1412 5.75371 14.928 5.71391 14.7484 5.71289H14.7295Z" fill="white"/>
</mask>
<g mask="url(#mask2_2101_4522)">
<path d="M6.37402 8.0957L6.38677 9.16924H31.1601L31.1474 8.0957H6.37402Z" fill="#B3A168"/>
</g>
</g>
<mask id="mask3_2101_4522" style="mask-type:luminance" maskUnits="userSpaceOnUse" x="13" y="8" width="9" height="2">
<path d="M13.8398 8.05469H21.9383V9.23027H13.8398V8.05469Z" fill="white"/>
</mask>
<g mask="url(#mask3_2101_4522)">
<mask id="mask4_2101_4522" style="mask-type:luminance" maskUnits="userSpaceOnUse" x="9" y="8" width="16" height="2">
<path d="M10.3453 8.0957C10.2054 8.21867 10.0335 8.30235 9.82584 8.30235C9.66257 8.51971 9.43092 8.82432 9.18652 9.16924H24.1593C24.1185 9.10495 24.1185 9.09576 24.1185 9.09576C24.1185 9.09576 24.271 8.54726 24.1093 8.0957H10.3453Z" fill="white"/>
</mask>
<g mask="url(#mask4_2101_4522)">
<path d="M14.5103 7.8457L13.8643 9.47284H21.1995L21.8638 7.8457H14.5103Z" fill="#231F20"/>
</g>
</g>
<mask id="mask5_2101_4522" style="mask-type:luminance" maskUnits="userSpaceOnUse" x="7" y="6" width="20" height="2">
<path d="M7.70117 6.48828H26.3798V7.66386H7.70117V6.48828Z" fill="white"/>
</mask>
<g mask="url(#mask5_2101_4522)">
<mask id="mask6_2101_4522" style="mask-type:luminance" maskUnits="userSpaceOnUse" x="7" y="5" width="24" height="26">
<path d="M14.7295 5.71289C14.6147 5.7134 14.5142 5.73075 14.4325 5.77463C13.8498 5.97311 12.8972 6.18435 12.8972 6.18435C12.8972 6.18435 12.5268 6.02566 11.7854 6.3961C11.0446 6.92572 10.8859 7.0844 10.8859 7.0844C10.8859 7.0844 10.6211 8.30233 9.82665 8.30233C9.3506 8.93707 8.29186 10.3137 8.02705 11.2663C7.49743 12.6424 7.70918 13.9659 8.29186 14.7599C9.13885 15.9247 9.87971 17.0365 11.6793 16.7187C13.5325 16.2952 13.6912 16.2421 14.0616 16.2421C14.6438 16.2952 15.4377 16.8773 15.4377 16.8773C16.0204 16.8773 16.3377 17.0891 16.3377 17.0891C16.3377 17.0891 16.0729 18.6244 16.1791 18.8361C16.3377 19.1009 17.2903 19.405 17.3434 20.5495C17.3965 21.6945 17.7138 22.3297 17.7138 22.3297C17.7138 22.3297 17.6613 22.965 17.1847 23.4941C16.7082 24.0237 17.5021 25.3998 17.82 25.7177C18.0317 26.2999 18.2435 27.1999 18.2965 27.6765C18.8501 28.2056 18.8501 28.4704 19.1966 29.6878C19.1966 29.6878 19.4083 30.3231 20.4135 29.8465C21.6314 29.6878 21.9488 29.8465 22.5309 28.9995C23.4841 27.9938 23.7489 27.8882 23.8019 27.3586C24.2249 26.6177 24.7545 26.406 24.7545 26.406C24.7545 25.7702 24.8076 25.1355 24.4897 24.9768C25.4954 24.5003 26.2893 23.9706 26.6603 23.7589C26.7659 22.965 26.6072 20.8873 26.2893 20.5495C25.972 20.0005 26.0245 20.2122 26.7394 19.3652C27.6129 18.3596 28.8834 16.9835 28.8834 16.9835C28.8834 16.9835 29.2543 16.3482 29.3599 15.713C30.1008 14.9191 30.8809 13.4899 29.4058 13.9659C28.7777 14.2308 28.2481 14.6374 27.7185 14.2308C27.5073 13.5424 27.0307 13.2781 26.6072 13.2781C25.7602 12.1133 25.125 11.2663 25.125 11.2663C25.125 11.2663 25.5852 10.5254 24.7199 9.94325C24.1193 9.14881 24.1193 9.09575 24.1193 9.09575C24.1193 9.09575 24.6484 7.19053 22.6901 7.56096C21.3666 7.5079 19.8757 7.13747 19.5139 7.77271C19.1522 8.09059 18.6139 8.00385 18.3496 7.35891C17.873 7.0844 17.1317 7.34105 17.1317 7.34105C17.1317 7.34105 16.5117 6.97878 16.8143 6.55529C17.1164 5.97311 17.026 5.7083 16.2852 5.86698C15.9714 5.88943 15.6586 5.84096 15.3729 5.79249C15.1412 5.75371 14.928 5.71391 14.7484 5.71289H14.7295Z" fill="white"/>
</mask>
<g mask="url(#mask6_2101_4522)">
<path d="M6.38574 6.49805V7.58536H26.0476L26.3389 6.49805H6.38574Z" fill="#231F20"/>
</g>
</g>
<mask id="mask7_2101_4522" style="mask-type:luminance" maskUnits="userSpaceOnUse" x="10" y="6" width="4" height="2">
<path d="M10.7061 6.48828H13.1878V7.66386H10.7061V6.48828Z" fill="white"/>
</mask>
<g mask="url(#mask7_2101_4522)">
<mask id="mask8_2101_4522" style="mask-type:luminance" maskUnits="userSpaceOnUse" x="10" y="6" width="14" height="2">
<path d="M11.6433 6.49805C11.0233 6.94603 10.8856 7.08431 10.8856 7.08431C10.8856 7.08431 10.8335 7.32106 10.708 7.58536H18.4671C18.4238 7.51954 18.384 7.44402 18.3493 7.35881C17.8727 7.08431 17.1313 7.34096 17.1313 7.34096C17.1313 7.34096 16.5114 6.97869 16.814 6.55519C16.8242 6.53529 16.8339 6.51642 16.8425 6.49805H11.6433ZM19.6896 7.58536H23.6108C23.3919 7.50474 23.0939 7.48433 22.6898 7.56087C21.9586 7.53127 21.1765 7.40524 20.5616 7.40524C20.1968 7.40524 19.8912 7.44964 19.6896 7.58536Z" fill="white"/>
</mask>
<g mask="url(#mask8_2101_4522)">
<path d="M-4.28266 5.83594L-4.63574 7.80034H13.0831V5.83594H-4.28266Z" fill="#B3A168"/>
</g>
</g>
<mask id="mask9_2101_4522" style="mask-type:luminance" maskUnits="userSpaceOnUse" x="21" y="6" width="3" height="2">
<path d="M21.1553 6.48828H23.6371V7.66386H21.1553V6.48828Z" fill="white"/>
</mask>
<g mask="url(#mask9_2101_4522)">
<mask id="mask10_2101_4522" style="mask-type:luminance" maskUnits="userSpaceOnUse" x="10" y="6" width="14" height="2">
<path d="M11.6433 6.49805C11.0233 6.94603 10.8856 7.08431 10.8856 7.08431C10.8856 7.08431 10.8335 7.32106 10.708 7.58536H18.4671C18.4238 7.51954 18.384 7.44402 18.3493 7.35881C17.8727 7.08431 17.1313 7.34096 17.1313 7.34096C17.1313 7.34096 16.5114 6.97869 16.814 6.55519C16.8242 6.53529 16.8339 6.51642 16.8425 6.49805H11.6433ZM19.6896 7.58536H23.6108C23.3919 7.50474 23.0939 7.48433 22.6898 7.56087C21.9586 7.53127 21.1765 7.40524 20.5616 7.40524C20.1968 7.40524 19.8912 7.44964 19.6896 7.58536Z" fill="white"/>
</mask>
<g mask="url(#mask10_2101_4522)">
<path d="M21.5582 6.19336L21.2051 8.15776H38.9239V6.19336H21.5582Z" fill="#B3A168"/>
</g>
</g>
<mask id="mask11_2101_4522" style="mask-type:luminance" maskUnits="userSpaceOnUse" x="7" y="9" width="20" height="2">
<path d="M7.70117 9.62305H26.1185V10.7986H7.70117V9.62305Z" fill="white"/>
</mask>
<g mask="url(#mask11_2101_4522)">
<mask id="mask12_2101_4522" style="mask-type:luminance" maskUnits="userSpaceOnUse" x="7" y="5" width="24" height="26">
<path d="M14.7295 5.71289C14.6147 5.7134 14.5142 5.73075 14.4325 5.77463C13.8498 5.97311 12.8972 6.18435 12.8972 6.18435C12.8972 6.18435 12.5268 6.02566 11.7854 6.3961C11.0446 6.92572 10.8859 7.0844 10.8859 7.0844C10.8859 7.0844 10.6211 8.30233 9.82665 8.30233C9.3506 8.93707 8.29186 10.3137 8.02705 11.2663C7.49743 12.6424 7.70918 13.9659 8.29186 14.7599C9.13885 15.9247 9.87971 17.0365 11.6793 16.7187C13.5325 16.2952 13.6912 16.2421 14.0616 16.2421C14.6438 16.2952 15.4377 16.8773 15.4377 16.8773C16.0204 16.8773 16.3377 17.0891 16.3377 17.0891C16.3377 17.0891 16.0729 18.6244 16.1791 18.8361C16.3377 19.1009 17.2903 19.405 17.3434 20.5495C17.3965 21.6945 17.7138 22.3297 17.7138 22.3297C17.7138 22.3297 17.6613 22.965 17.1847 23.4941C16.7082 24.0237 17.5021 25.3998 17.82 25.7177C18.0317 26.2999 18.2435 27.1999 18.2965 27.6765C18.8501 28.2056 18.8501 28.4704 19.1966 29.6878C19.1966 29.6878 19.4083 30.3231 20.4135 29.8465C21.6314 29.6878 21.9488 29.8465 22.5309 28.9995C23.4841 27.9938 23.7489 27.8882 23.8019 27.3586C24.2249 26.6177 24.7545 26.406 24.7545 26.406C24.7545 25.7702 24.8076 25.1355 24.4897 24.9768C25.4954 24.5003 26.2893 23.9706 26.6603 23.7589C26.7659 22.965 26.6072 20.8873 26.2893 20.5495C25.972 20.0005 26.0245 20.2122 26.7394 19.3652C27.6129 18.3596 28.8834 16.9835 28.8834 16.9835C28.8834 16.9835 29.2543 16.3482 29.3599 15.713C30.1008 14.9191 30.8809 13.4899 29.4058 13.9659C28.7777 14.2308 28.2481 14.6374 27.7185 14.2308C27.5073 13.5424 27.0307 13.2781 26.6072 13.2781C25.7602 12.1133 25.125 11.2663 25.125 11.2663C25.125 11.2663 25.5852 10.5254 24.7199 9.94325C24.1193 9.14881 24.1193 9.09575 24.1193 9.09575C24.1193 9.09575 24.6484 7.19053 22.6901 7.56096C21.3666 7.5079 19.8757 7.13747 19.5139 7.77271C19.1522 8.09059 18.6139 8.00385 18.3496 7.35891C17.873 7.0844 17.1317 7.34105 17.1317 7.34105C17.1317 7.34105 16.5117 6.97878 16.8143 6.55529C17.1164 5.97311 17.026 5.7083 16.2852 5.86698C15.9714 5.88943 15.6586 5.84096 15.3729 5.79249C15.1412 5.75371 14.928 5.71391 14.7484 5.71289H14.7295Z" fill="white"/>
</mask>
<g mask="url(#mask12_2101_4522)">
<path d="M6.38574 10.7652H25.9945V9.70898H6.38574V10.7652Z" fill="#B3A168"/>
</g>
</g>
<mask id="mask13_2101_4522" style="mask-type:luminance" maskUnits="userSpaceOnUse" x="15" y="9" width="5" height="2">
<path d="M15.2773 9.62305H19.3266V10.7986H15.2773V9.62305Z" fill="white"/>
</mask>
<g mask="url(#mask13_2101_4522)">
<mask id="mask14_2101_4522" style="mask-type:luminance" maskUnits="userSpaceOnUse" x="8" y="9" width="18" height="2">
<path d="M8.81836 9.70898C8.58978 10.059 8.37395 10.4238 8.2168 10.7652H25.2463C25.2372 10.5167 25.1208 10.2126 24.7198 9.94318C24.6545 9.85644 24.5963 9.77889 24.5443 9.70898H8.81836Z" fill="white"/>
</mask>
<g mask="url(#mask14_2101_4522)">
<path d="M16.2456 9.55078L15.293 10.9269L19.26 10.9004V9.55078H16.2456Z" fill="#231F20"/>
</g>
</g>
<mask id="mask15_2101_4522" style="mask-type:luminance" maskUnits="userSpaceOnUse" x="7" y="12" width="24" height="3">
<path d="M7.70117 12.8887H30.2984V14.0643H7.70117V12.8887Z" fill="white"/>
</mask>
<g mask="url(#mask15_2101_4522)">
<mask id="mask16_2101_4522" style="mask-type:luminance" maskUnits="userSpaceOnUse" x="7" y="5" width="24" height="26">
<path d="M14.7295 5.71289C14.6147 5.7134 14.5142 5.73075 14.4325 5.77463C13.8498 5.97311 12.8972 6.18435 12.8972 6.18435C12.8972 6.18435 12.5268 6.02566 11.7854 6.3961C11.0446 6.92572 10.8859 7.0844 10.8859 7.0844C10.8859 7.0844 10.6211 8.30233 9.82665 8.30233C9.3506 8.93707 8.29186 10.3137 8.02705 11.2663C7.49743 12.6424 7.70918 13.9659 8.29186 14.7599C9.13885 15.9247 9.87971 17.0365 11.6793 16.7187C13.5325 16.2952 13.6912 16.2421 14.0616 16.2421C14.6438 16.2952 15.4377 16.8773 15.4377 16.8773C16.0204 16.8773 16.3377 17.0891 16.3377 17.0891C16.3377 17.0891 16.0729 18.6244 16.1791 18.8361C16.3377 19.1009 17.2903 19.405 17.3434 20.5495C17.3965 21.6945 17.7138 22.3297 17.7138 22.3297C17.7138 22.3297 17.6613 22.965 17.1847 23.4941C16.7082 24.0237 17.5021 25.3998 17.82 25.7177C18.0317 26.2999 18.2435 27.1999 18.2965 27.6765C18.8501 28.2056 18.8501 28.4704 19.1966 29.6878C19.1966 29.6878 19.4083 30.3231 20.4135 29.8465C21.6314 29.6878 21.9488 29.8465 22.5309 28.9995C23.4841 27.9938 23.7489 27.8882 23.8019 27.3586C24.2249 26.6177 24.7545 26.406 24.7545 26.406C24.7545 25.7702 24.8076 25.1355 24.4897 24.9768C25.4954 24.5003 26.2893 23.9706 26.6603 23.7589C26.7659 22.965 26.6072 20.8873 26.2893 20.5495C25.972 20.0005 26.0245 20.2122 26.7394 19.3652C27.6129 18.3596 28.8834 16.9835 28.8834 16.9835C28.8834 16.9835 29.2543 16.3482 29.3599 15.713C30.1008 14.9191 30.8809 13.4899 29.4058 13.9659C28.7777 14.2308 28.2481 14.6374 27.7185 14.2308C27.5073 13.5424 27.0307 13.2781 26.6072 13.2781C25.7602 12.1133 25.125 11.2663 25.125 11.2663C25.125 11.2663 25.5852 10.5254 24.7199 9.94325C24.1193 9.14881 24.1193 9.09575 24.1193 9.09575C24.1193 9.09575 24.6484 7.19053 22.6901 7.56096C21.3666 7.5079 19.8757 7.13747 19.5139 7.77271C19.1522 8.09059 18.6139 8.00385 18.3496 7.35891C17.873 7.0844 17.1317 7.34105 17.1317 7.34105C17.1317 7.34105 16.5117 6.97878 16.8143 6.55529C17.1164 5.97311 17.026 5.7083 16.2852 5.86698C15.9714 5.88943 15.6586 5.84096 15.3729 5.79249C15.1412 5.75371 14.928 5.71391 14.7484 5.71289H14.7295Z" fill="white"/>
</mask>
<g mask="url(#mask16_2101_4522)">
<path d="M6.45117 13.9977H31.2245V12.9043H6.45117V13.9977Z" fill="#319044"/>
</g>
</g>
<mask id="mask17_2101_4522" style="mask-type:luminance" maskUnits="userSpaceOnUse" x="12" y="12" width="7" height="3">
<path d="M12.665 12.8887H18.4123V14.0643H12.665V12.8887Z" fill="white"/>
</mask>
<g mask="url(#mask17_2101_4522)">
<mask id="mask18_2101_4522" style="mask-type:luminance" maskUnits="userSpaceOnUse" x="7" y="12" width="24" height="2">
<path d="M7.72461 12.9043C7.73022 13.2987 7.794 13.6681 7.90472 13.9977H27.6309C27.3926 13.4819 26.9798 13.2783 26.6078 13.2783C26.5145 13.1492 26.4231 13.0247 26.3354 12.9043H7.72461ZM29.4065 13.9661C29.382 13.9768 29.3575 13.987 29.333 13.9977H30.1973C30.1463 13.9176 30.0488 13.8712 29.8937 13.8712C29.7698 13.8712 29.6095 13.9003 29.4065 13.9661Z" fill="white"/>
</mask>
<g mask="url(#mask18_2101_4522)">
<path d="M14.0315 17.0308C14.0315 17.0308 13.9651 13.4066 18.3164 11.9805L17.2536 11.084C17.2536 11.084 13.1227 12.2147 12.7365 17.2298C12.3497 22.2122 14.0315 17.0308 14.0315 17.0308Z" fill="#00512C"/>
</g>
</g>
<mask id="mask19_2101_4522" style="mask-type:luminance" maskUnits="userSpaceOnUse" x="7" y="12" width="8" height="3">
<path d="M7.70117 12.8887H14.7546V14.0643H7.70117V12.8887Z" fill="white"/>
</mask>
<g mask="url(#mask19_2101_4522)">
<mask id="mask20_2101_4522" style="mask-type:luminance" maskUnits="userSpaceOnUse" x="7" y="12" width="24" height="2">
<path d="M7.72363 12.9043C7.72925 13.2987 7.79302 13.6681 7.90375 13.9977H27.6299C27.3916 13.4819 26.9788 13.2783 26.6068 13.2783C26.5135 13.1492 26.4221 13.0247 26.3344 12.9043H7.72363ZM29.4055 13.9661C29.381 13.9768 29.3565 13.987 29.332 13.9977H30.1963C30.1453 13.9176 30.0479 13.8712 29.8928 13.8712C29.7688 13.8712 29.6086 13.9003 29.4055 13.9661Z" fill="white"/>
</mask>
<g mask="url(#mask20_2101_4522)">
<path d="M6.37305 12.7148L6.40315 17.5059L12.6382 16.709L14.6312 12.723L6.37305 12.7148Z" fill="#B3A168"/>
</g>
</g>
<mask id="mask21_2101_4522" style="mask-type:luminance" maskUnits="userSpaceOnUse" x="21" y="12" width="10" height="3">
<path d="M21.1553 12.8887H30.2987V14.0643H21.1553V12.8887Z" fill="white"/>
</mask>
<g mask="url(#mask21_2101_4522)">
<mask id="mask22_2101_4522" style="mask-type:luminance" maskUnits="userSpaceOnUse" x="7" y="12" width="24" height="2">
<path d="M7.72363 12.9043C7.72925 13.2987 7.79302 13.6681 7.90375 13.9977H27.6299C27.3916 13.4819 26.9788 13.2783 26.6068 13.2783C26.5135 13.1492 26.4221 13.0247 26.3344 12.9043H7.72363ZM29.4055 13.9661C29.381 13.9768 29.3565 13.987 29.332 13.9977H30.1963C30.1453 13.9176 30.0479 13.8712 29.8928 13.8712C29.7688 13.8712 29.6086 13.9003 29.4055 13.9661Z" fill="white"/>
</mask>
<g mask="url(#mask22_2101_4522)">
<path d="M21.1631 14.419H45.9364V12.7148H21.1631V14.419Z" fill="#B3A168"/>
</g>
</g>
<mask id="mask23_2101_4522" style="mask-type:luminance" maskUnits="userSpaceOnUse" x="21" y="12" width="3" height="3">
<path d="M21.1553 12.8887H23.7677V14.0643H21.1553V12.8887Z" fill="white"/>
</mask>
<g mask="url(#mask23_2101_4522)">
<mask id="mask24_2101_4522" style="mask-type:luminance" maskUnits="userSpaceOnUse" x="21" y="12" width="10" height="2">
<path d="M21.1631 12.9043V13.9977H27.6303C27.392 13.4819 26.9792 13.2783 26.6073 13.2783C26.5139 13.1492 26.4226 13.0247 26.3348 12.9043H21.1631ZM29.4059 13.9661C29.3814 13.9768 29.3569 13.987 29.3324 13.9977H30.1968C30.1458 13.9176 30.0483 13.8712 29.8932 13.8712C29.7692 13.8712 29.609 13.9003 29.4059 13.9661Z" fill="white"/>
</mask>
<g mask="url(#mask24_2101_4522)">
<path d="M18.8471 10.3867C18.8471 10.3867 23.7632 12.5792 23.7632 16.8305C23.7632 21.0818 16.124 23.3406 16.124 23.3406L18.8471 10.3867Z" fill="#7D7246"/>
</g>
</g>
<mask id="mask25_2101_4522" style="mask-type:luminance" maskUnits="userSpaceOnUse" x="7" y="11" width="24" height="2">
<path d="M7.70117 11.3203H30.2984V12.4959H7.70117V11.3203Z" fill="white"/>
</mask>
<g mask="url(#mask25_2101_4522)">
<mask id="mask26_2101_4522" style="mask-type:luminance" maskUnits="userSpaceOnUse" x="7" y="5" width="24" height="26">
<path d="M14.7295 5.71289C14.6147 5.7134 14.5142 5.73075 14.4325 5.77463C13.8498 5.97311 12.8972 6.18435 12.8972 6.18435C12.8972 6.18435 12.5268 6.02566 11.7854 6.3961C11.0446 6.92572 10.8859 7.0844 10.8859 7.0844C10.8859 7.0844 10.6211 8.30233 9.82665 8.30233C9.3506 8.93707 8.29186 10.3137 8.02705 11.2663C7.49743 12.6424 7.70918 13.9659 8.29186 14.7599C9.13885 15.9247 9.87971 17.0365 11.6793 16.7187C13.5325 16.2952 13.6912 16.2421 14.0616 16.2421C14.6438 16.2952 15.4377 16.8773 15.4377 16.8773C16.0204 16.8773 16.3377 17.0891 16.3377 17.0891C16.3377 17.0891 16.0729 18.6244 16.1791 18.8361C16.3377 19.1009 17.2903 19.405 17.3434 20.5495C17.3965 21.6945 17.7138 22.3297 17.7138 22.3297C17.7138 22.3297 17.6613 22.965 17.1847 23.4941C16.7082 24.0237 17.5021 25.3998 17.82 25.7177C18.0317 26.2999 18.2435 27.1999 18.2965 27.6765C18.8501 28.2056 18.8501 28.4704 19.1966 29.6878C19.1966 29.6878 19.4083 30.3231 20.4135 29.8465C21.6314 29.6878 21.9488 29.8465 22.5309 28.9995C23.4841 27.9938 23.7489 27.8882 23.8019 27.3586C24.2249 26.6177 24.7545 26.406 24.7545 26.406C24.7545 25.7702 24.8076 25.1355 24.4897 24.9768C25.4954 24.5003 26.2893 23.9706 26.6603 23.7589C26.7659 22.965 26.6072 20.8873 26.2893 20.5495C25.972 20.0005 26.0245 20.2122 26.7394 19.3652C27.6129 18.3596 28.8834 16.9835 28.8834 16.9835C28.8834 16.9835 29.2543 16.3482 29.3599 15.713C30.1008 14.9191 30.8809 13.4899 29.4058 13.9659C28.7777 14.2308 28.2481 14.6374 27.7185 14.2308C27.5073 13.5424 27.0307 13.2781 26.6072 13.2781C25.7602 12.1133 25.125 11.2663 25.125 11.2663C25.125 11.2663 25.5852 10.5254 24.7199 9.94325C24.1193 9.14881 24.1193 9.09575 24.1193 9.09575C24.1193 9.09575 24.6484 7.19053 22.6901 7.56096C21.3666 7.5079 19.8757 7.13747 19.5139 7.77271C19.1522 8.09059 18.6139 8.00385 18.3496 7.35891C17.873 7.0844 17.1317 7.34105 17.1317 7.34105C17.1317 7.34105 16.5117 6.97878 16.8143 6.55529C17.1164 5.97311 17.026 5.7083 16.2852 5.86698C15.9714 5.88943 15.6586 5.84096 15.3729 5.79249C15.1412 5.75371 14.928 5.71391 14.7484 5.71289H14.7295Z" fill="white"/>
</mask>
<g mask="url(#mask26_2101_4522)">
<path d="M6.37402 11.3281L6.45157 12.3812H31.2249L31.1474 11.3281H6.37402Z" fill="#319044"/>
</g>
</g>
<mask id="mask27_2101_4522" style="mask-type:luminance" maskUnits="userSpaceOnUse" x="7" y="11" width="9" height="2">
<path d="M7.70117 11.3203H15.669V12.4959H7.70117V11.3203Z" fill="white"/>
</mask>
<g mask="url(#mask27_2101_4522)">
<mask id="mask28_2101_4522" style="mask-type:luminance" maskUnits="userSpaceOnUse" x="7" y="11" width="19" height="2">
<path d="M8.00405 11.3281C7.8719 11.6863 7.78976 12.0404 7.75098 12.3818H25.952C25.5632 11.8537 25.2785 11.4715 25.1719 11.3281H8.00405Z" fill="white"/>
</mask>
<g mask="url(#mask28_2101_4522)">
<path d="M5.84277 11.1426L5.87338 12.7371H15.5627L15.5321 11.1426H5.84277Z" fill="#B3A168"/>
</g>
</g>
<mask id="mask29_2101_4522" style="mask-type:luminance" maskUnits="userSpaceOnUse" x="18" y="11" width="8" height="2">
<path d="M18.6729 11.3203H25.9876V12.4959H18.6729V11.3203Z" fill="white"/>
</mask>
<g mask="url(#mask29_2101_4522)">
<mask id="mask30_2101_4522" style="mask-type:luminance" maskUnits="userSpaceOnUse" x="7" y="11" width="19" height="2">
<path d="M8.00307 11.3281C7.87092 11.6863 7.78878 12.0404 7.75 12.3818H25.951C25.5622 11.8537 25.2775 11.4715 25.1709 11.3281H8.00307Z" fill="white"/>
</mask>
<g mask="url(#mask30_2101_4522)">
<path d="M18.7383 11.0463L18.8189 12.7434L42.6192 12.6628L27.9914 10.7637L18.7383 11.0463Z" fill="#B3A168"/>
</g>
</g>
<mask id="mask31_2101_4522" style="mask-type:luminance" maskUnits="userSpaceOnUse" x="18" y="11" width="6" height="2">
<path d="M18.6729 11.3203H23.7671V12.4959H18.6729V11.3203Z" fill="white"/>
</mask>
<g mask="url(#mask31_2101_4522)">
<mask id="mask32_2101_4522" style="mask-type:luminance" maskUnits="userSpaceOnUse" x="18" y="11" width="8" height="2">
<path d="M18.751 11.3281L18.801 12.3818H25.9509C25.5621 11.8537 25.2774 11.4715 25.1707 11.3281H18.751Z" fill="white"/>
</mask>
<g mask="url(#mask32_2101_4522)">
<path d="M18.8461 10.3867C18.8461 10.3867 23.7622 12.5792 23.7622 16.8305C23.7622 21.0818 16.123 23.3406 16.123 23.3406L18.8461 10.3867Z" fill="#7D7246"/>
</g>
</g>
<mask id="mask33_2101_4522" style="mask-type:luminance" maskUnits="userSpaceOnUse" x="12" y="11" width="7" height="2">
<path d="M12.665 11.3203H18.4123V12.4959H12.665V11.3203Z" fill="white"/>
</mask>
<g mask="url(#mask33_2101_4522)">
<mask id="mask34_2101_4522" style="mask-type:luminance" maskUnits="userSpaceOnUse" x="7" y="11" width="19" height="2">
<path d="M8.00405 11.3281C7.8719 11.6863 7.78976 12.0404 7.75098 12.3818H25.952C25.5632 11.8537 25.2785 11.4715 25.1719 11.3281H8.00405Z" fill="white"/>
</mask>
<g mask="url(#mask34_2101_4522)">
<path d="M14.0315 17.0308C14.0315 17.0308 13.9651 13.4066 18.3164 11.9805L17.2536 11.084C17.2536 11.084 13.1227 12.2147 12.7365 17.2298C12.3497 22.2122 14.0315 17.0308 14.0315 17.0308Z" fill="#00512C"/>
</g>
</g>
<mask id="mask35_2101_4522" style="mask-type:luminance" maskUnits="userSpaceOnUse" x="7" y="14" width="24" height="2">
<path d="M7.70117 14.4551H30.2984V15.7613H7.70117V14.4551Z" fill="white"/>
</mask>
<g mask="url(#mask35_2101_4522)">
<mask id="mask36_2101_4522" style="mask-type:luminance" maskUnits="userSpaceOnUse" x="7" y="5" width="24" height="26">
<path d="M14.7295 5.71289C14.6147 5.7134 14.5142 5.73075 14.4325 5.77463C13.8498 5.97311 12.8972 6.18435 12.8972 6.18435C12.8972 6.18435 12.5268 6.02566 11.7854 6.3961C11.0446 6.92572 10.8859 7.0844 10.8859 7.0844C10.8859 7.0844 10.6211 8.30233 9.82665 8.30233C9.3506 8.93707 8.29186 10.3137 8.02705 11.2663C7.49743 12.6424 7.70918 13.9659 8.29186 14.7599C9.13885 15.9247 9.87971 17.0365 11.6793 16.7187C13.5325 16.2952 13.6912 16.2421 14.0616 16.2421C14.6438 16.2952 15.4377 16.8773 15.4377 16.8773C16.0204 16.8773 16.3377 17.0891 16.3377 17.0891C16.3377 17.0891 16.0729 18.6244 16.1791 18.8361C16.3377 19.1009 17.2903 19.405 17.3434 20.5495C17.3965 21.6945 17.7138 22.3297 17.7138 22.3297C17.7138 22.3297 17.6613 22.965 17.1847 23.4941C16.7082 24.0237 17.5021 25.3998 17.82 25.7177C18.0317 26.2999 18.2435 27.1999 18.2965 27.6765C18.8501 28.2056 18.8501 28.4704 19.1966 29.6878C19.1966 29.6878 19.4083 30.3231 20.4135 29.8465C21.6314 29.6878 21.9488 29.8465 22.5309 28.9995C23.4841 27.9938 23.7489 27.8882 23.8019 27.3586C24.2249 26.6177 24.7545 26.406 24.7545 26.406C24.7545 25.7702 24.8076 25.1355 24.4897 24.9768C25.4954 24.5003 26.2893 23.9706 26.6603 23.7589C26.7659 22.965 26.6072 20.8873 26.2893 20.5495C25.972 20.0005 26.0245 20.2122 26.7394 19.3652C27.6129 18.3596 28.8834 16.9835 28.8834 16.9835C28.8834 16.9835 29.2543 16.3482 29.3599 15.713C30.1008 14.9191 30.8809 13.4899 29.4058 13.9659C28.7777 14.2308 28.2481 14.6374 27.7185 14.2308C27.5073 13.5424 27.0307 13.2781 26.6072 13.2781C25.7602 12.1133 25.125 11.2663 25.125 11.2663C25.125 11.2663 25.5852 10.5254 24.7199 9.94325C24.1193 9.14881 24.1193 9.09575 24.1193 9.09575C24.1193 9.09575 24.6484 7.19053 22.6901 7.56096C21.3666 7.5079 19.8757 7.13747 19.5139 7.77271C19.1522 8.09059 18.6139 8.00385 18.3496 7.35891C17.873 7.0844 17.1317 7.34105 17.1317 7.34105C17.1317 7.34105 16.5117 6.97878 16.8143 6.55529C17.1164 5.97311 17.026 5.7083 16.2852 5.86698C15.9714 5.88943 15.6586 5.84096 15.3729 5.79249C15.1412 5.75371 14.928 5.71391 14.7484 5.71289H14.7295Z" fill="white"/>
</mask>
<g mask="url(#mask36_2101_4522)">
<path d="M6.45117 15.6516H31.2245V14.5684H6.45117V15.6516Z" fill="#319044"/>
</g>
</g>
<mask id="mask37_2101_4522" style="mask-type:luminance" maskUnits="userSpaceOnUse" x="8" y="14" width="6" height="2">
<path d="M8.09277 14.4551H13.1869V15.7613H8.09277V14.4551Z" fill="white"/>
</mask>
<g mask="url(#mask37_2101_4522)">
<mask id="mask38_2101_4522" style="mask-type:luminance" maskUnits="userSpaceOnUse" x="8" y="14" width="23" height="2">
<path d="M8.16504 14.5684C8.20535 14.6347 8.24719 14.6985 8.29209 14.7592C8.5171 15.0689 8.73497 15.375 8.96713 15.6511H29.4157C29.7076 15.3271 29.9964 14.9148 30.1428 14.5684H8.16504Z" fill="white"/>
</mask>
<g mask="url(#mask38_2101_4522)">
<path d="M3.37207 14.3164L3.40268 15.9109H13.092L13.0614 14.3164H3.37207Z" fill="#B3A168"/>
</g>
</g>
<mask id="mask39_2101_4522" style="mask-type:luminance" maskUnits="userSpaceOnUse" x="12" y="14" width="7" height="2">
<path d="M12.665 14.4551H18.4123V15.7613H12.665V14.4551Z" fill="white"/>
</mask>
<g mask="url(#mask39_2101_4522)">
<mask id="mask40_2101_4522" style="mask-type:luminance" maskUnits="userSpaceOnUse" x="8" y="14" width="23" height="2">
<path d="M8.16504 14.5684C8.20535 14.6347 8.24719 14.6985 8.29209 14.7592C8.5171 15.0689 8.73497 15.375 8.96713 15.6511H29.4157C29.7076 15.3271 29.9964 14.9148 30.1428 14.5684H8.16504Z" fill="white"/>
</mask>
<g mask="url(#mask40_2101_4522)">
<path d="M14.0305 17.0288C14.0305 17.0288 13.9641 13.4046 18.3154 11.9785L17.2526 11.082C17.2526 11.082 13.1218 12.2127 12.7355 17.2278C12.3487 22.2103 14.0305 17.0288 14.0305 17.0288Z" fill="#00512C"/>
</g>
</g>
<mask id="mask41_2101_4522" style="mask-type:luminance" maskUnits="userSpaceOnUse" x="21" y="14" width="10" height="2">
<path d="M21.9385 14.4551H30.1675V15.7613H21.9385V14.4551Z" fill="white"/>
</mask>
<g mask="url(#mask41_2101_4522)">
<mask id="mask42_2101_4522" style="mask-type:luminance" maskUnits="userSpaceOnUse" x="8" y="14" width="23" height="2">
<path d="M8.16406 14.5684C8.20437 14.6347 8.24621 14.6985 8.29111 14.7592C8.51612 15.0689 8.73399 15.375 8.96615 15.6511H29.4148C29.7066 15.3271 29.9954 14.9148 30.1418 14.5684H8.16406Z" fill="white"/>
</mask>
<g mask="url(#mask42_2101_4522)">
<path d="M21.9561 15.8934H42.6271V14.3984H21.9561V15.8934Z" fill="#B3A168"/>
</g>
</g>
<mask id="mask43_2101_4522" style="mask-type:luminance" maskUnits="userSpaceOnUse" x="21" y="14" width="3" height="2">
<path d="M21.9385 14.4551H23.7672V15.7613H21.9385V14.4551Z" fill="white"/>
</mask>
<g mask="url(#mask43_2101_4522)">
<mask id="mask44_2101_4522" style="mask-type:luminance" maskUnits="userSpaceOnUse" x="21" y="14" width="10" height="2">
<path d="M21.9561 14.5684V15.6511H29.4147C29.7066 15.3271 29.9954 14.9143 30.1418 14.5684H21.9561Z" fill="white"/>
</mask>
<g mask="url(#mask44_2101_4522)">
<path d="M18.8461 10.3867C18.8461 10.3867 23.7622 12.5792 23.7622 16.8305C23.7622 21.0818 16.123 23.3406 16.123 23.3406L18.8461 10.3867Z" fill="#7D7246"/>
</g>
</g>
<mask id="mask45_2101_4522" style="mask-type:luminance" maskUnits="userSpaceOnUse" x="7" y="17" width="24" height="2">
<path d="M7.70117 17.7207H30.2984V18.8963H7.70117V17.7207Z" fill="white"/>
</mask>
<g mask="url(#mask45_2101_4522)">
<mask id="mask46_2101_4522" style="mask-type:luminance" maskUnits="userSpaceOnUse" x="7" y="5" width="24" height="26">
<path d="M14.7295 5.71289C14.6147 5.7134 14.5142 5.73075 14.4325 5.77463C13.8498 5.97311 12.8972 6.18435 12.8972 6.18435C12.8972 6.18435 12.5268 6.02566 11.7854 6.3961C11.0446 6.92572 10.8859 7.0844 10.8859 7.0844C10.8859 7.0844 10.6211 8.30233 9.82665 8.30233C9.3506 8.93707 8.29186 10.3137 8.02705 11.2663C7.49743 12.6424 7.70918 13.9659 8.29186 14.7599C9.13885 15.9247 9.87971 17.0365 11.6793 16.7187C13.5325 16.2952 13.6912 16.2421 14.0616 16.2421C14.6438 16.2952 15.4377 16.8773 15.4377 16.8773C16.0204 16.8773 16.3377 17.0891 16.3377 17.0891C16.3377 17.0891 16.0729 18.6244 16.1791 18.8361C16.3377 19.1009 17.2903 19.405 17.3434 20.5495C17.3965 21.6945 17.7138 22.3297 17.7138 22.3297C17.7138 22.3297 17.6613 22.965 17.1847 23.4941C16.7082 24.0237 17.5021 25.3998 17.82 25.7177C18.0317 26.2999 18.2435 27.1999 18.2965 27.6765C18.8501 28.2056 18.8501 28.4704 19.1966 29.6878C19.1966 29.6878 19.4083 30.3231 20.4135 29.8465C21.6314 29.6878 21.9488 29.8465 22.5309 28.9995C23.4841 27.9938 23.7489 27.8882 23.8019 27.3586C24.2249 26.6177 24.7545 26.406 24.7545 26.406C24.7545 25.7702 24.8076 25.1355 24.4897 24.9768C25.4954 24.5003 26.2893 23.9706 26.6603 23.7589C26.7659 22.965 26.6072 20.8873 26.2893 20.5495C25.972 20.0005 26.0245 20.2122 26.7394 19.3652C27.6129 18.3596 28.8834 16.9835 28.8834 16.9835C28.8834 16.9835 29.2543 16.3482 29.3599 15.713C30.1008 14.9191 30.8809 13.4899 29.4058 13.9659C28.7777 14.2308 28.2481 14.6374 27.7185 14.2308C27.5073 13.5424 27.0307 13.2781 26.6072 13.2781C25.7602 12.1133 25.125 11.2663 25.125 11.2663C25.125 11.2663 25.5852 10.5254 24.7199 9.94325C24.1193 9.14881 24.1193 9.09575 24.1193 9.09575C24.1193 9.09575 24.6484 7.19053 22.6901 7.56096C21.3666 7.5079 19.8757 7.13747 19.5139 7.77271C19.1522 8.09059 18.6139 8.00385 18.3496 7.35891C17.873 7.0844 17.1317 7.34105 17.1317 7.34105C17.1317 7.34105 16.5117 6.97878 16.8143 6.55529C17.1164 5.97311 17.026 5.7083 16.2852 5.86698C15.9714 5.88943 15.6586 5.84096 15.3729 5.79249C15.1412 5.75371 14.928 5.71391 14.7484 5.71289H14.7295Z" fill="white"/>
</mask>
<g mask="url(#mask46_2101_4522)">
<path d="M6.45157 17.7539L6.37402 18.8473H31.1474L31.2249 17.7539H6.45157Z" fill="#319044"/>
</g>
</g>
<mask id="mask47_2101_4522" style="mask-type:luminance" maskUnits="userSpaceOnUse" x="21" y="17" width="8" height="2">
<path d="M21.9385 17.7207H28.2082V18.8963H21.9385V17.7207Z" fill="white"/>
</mask>
<g mask="url(#mask47_2101_4522)">
<mask id="mask48_2101_4522" style="mask-type:luminance" maskUnits="userSpaceOnUse" x="16" y="17" width="13" height="2">
<path d="M16.2355 17.752C16.1748 18.1959 16.1197 18.7178 16.1783 18.8352C16.1804 18.8388 16.1829 18.8423 16.1855 18.8459H27.1943C27.5315 18.4663 27.8836 18.0765 28.1785 17.752H16.2355Z" fill="white"/>
</mask>
<g mask="url(#mask48_2101_4522)">
<path d="M22.0273 18.9639H42.627V17.5898H22.0273V18.9639Z" fill="#B3A168"/>
</g>
</g>
<mask id="mask49_2101_4522" style="mask-type:luminance" maskUnits="userSpaceOnUse" x="21" y="17" width="3" height="2">
<path d="M21.9385 17.7207H23.7672V18.8963H21.9385V17.7207Z" fill="white"/>
</mask>
<g mask="url(#mask49_2101_4522)">
<mask id="mask50_2101_4522" style="mask-type:luminance" maskUnits="userSpaceOnUse" x="22" y="17" width="7" height="2">
<path d="M22.0273 17.752V18.8459H27.194C27.5312 18.4663 27.8833 18.0765 28.1782 17.752H22.0273Z" fill="white"/>
</mask>
<g mask="url(#mask50_2101_4522)">
<path d="M18.8453 10.3867C18.8453 10.3867 23.7614 12.5792 23.7614 16.8305C23.7614 21.0818 16.1221 23.3406 16.1221 23.3406L18.8453 10.3867Z" fill="#7D7246"/>
</g>
</g>
<mask id="mask51_2101_4522" style="mask-type:luminance" maskUnits="userSpaceOnUse" x="7" y="16" width="24" height="2">
<path d="M7.70117 16.1543H30.2984V17.3299H7.70117V16.1543Z" fill="white"/>
</mask>
<g mask="url(#mask51_2101_4522)">
<mask id="mask52_2101_4522" style="mask-type:luminance" maskUnits="userSpaceOnUse" x="7" y="5" width="24" height="26">
<path d="M14.7295 5.71289C14.6147 5.7134 14.5142 5.73075 14.4325 5.77463C13.8498 5.97311 12.8972 6.18435 12.8972 6.18435C12.8972 6.18435 12.5268 6.02566 11.7854 6.3961C11.0446 6.92572 10.8859 7.0844 10.8859 7.0844C10.8859 7.0844 10.6211 8.30233 9.82665 8.30233C9.3506 8.93707 8.29186 10.3137 8.02705 11.2663C7.49743 12.6424 7.70918 13.9659 8.29186 14.7599C9.13885 15.9247 9.87971 17.0365 11.6793 16.7187C13.5325 16.2952 13.6912 16.2421 14.0616 16.2421C14.6438 16.2952 15.4377 16.8773 15.4377 16.8773C16.0204 16.8773 16.3377 17.0891 16.3377 17.0891C16.3377 17.0891 16.0729 18.6244 16.1791 18.8361C16.3377 19.1009 17.2903 19.405 17.3434 20.5495C17.3965 21.6945 17.7138 22.3297 17.7138 22.3297C17.7138 22.3297 17.6613 22.965 17.1847 23.4941C16.7082 24.0237 17.5021 25.3998 17.82 25.7177C18.0317 26.2999 18.2435 27.1999 18.2965 27.6765C18.8501 28.2056 18.8501 28.4704 19.1966 29.6878C19.1966 29.6878 19.4083 30.3231 20.4135 29.8465C21.6314 29.6878 21.9488 29.8465 22.5309 28.9995C23.4841 27.9938 23.7489 27.8882 23.8019 27.3586C24.2249 26.6177 24.7545 26.406 24.7545 26.406C24.7545 25.7702 24.8076 25.1355 24.4897 24.9768C25.4954 24.5003 26.2893 23.9706 26.6603 23.7589C26.7659 22.965 26.6072 20.8873 26.2893 20.5495C25.972 20.0005 26.0245 20.2122 26.7394 19.3652C27.6129 18.3596 28.8834 16.9835 28.8834 16.9835C28.8834 16.9835 29.2543 16.3482 29.3599 15.713C30.1008 14.9191 30.8809 13.4899 29.4058 13.9659C28.7777 14.2308 28.2481 14.6374 27.7185 14.2308C27.5073 13.5424 27.0307 13.2781 26.6072 13.2781C25.7602 12.1133 25.125 11.2663 25.125 11.2663C25.125 11.2663 25.5852 10.5254 24.7199 9.94325C24.1193 9.14881 24.1193 9.09575 24.1193 9.09575C24.1193 9.09575 24.6484 7.19053 22.6901 7.56096C21.3666 7.5079 19.8757 7.13747 19.5139 7.77271C19.1522 8.09059 18.6139 8.00385 18.3496 7.35891C17.873 7.0844 17.1317 7.34105 17.1317 7.34105C17.1317 7.34105 16.5117 6.97878 16.8143 6.55529C17.1164 5.97311 17.026 5.7083 16.2852 5.86698C15.9714 5.88943 15.6586 5.84096 15.3729 5.79249C15.1412 5.75371 14.928 5.71391 14.7484 5.71289H14.7295Z" fill="white"/>
</mask>
<g mask="url(#mask52_2101_4522)">
<path d="M6.45117 17.2686H31.2245V16.1777H6.45117V17.2686Z" fill="#319044"/>
</g>
</g>
<mask id="mask53_2101_4522" style="mask-type:luminance" maskUnits="userSpaceOnUse" x="9" y="16" width="4" height="2">
<path d="M9.39941 16.1543H12.6649V17.3299H9.39941V16.1543Z" fill="white"/>
</mask>
<g mask="url(#mask53_2101_4522)">
<mask id="mask54_2101_4522" style="mask-type:luminance" maskUnits="userSpaceOnUse" x="9" y="16" width="21" height="2">
<path d="M9.47949 16.1777C10.0224 16.6369 10.6913 16.8936 11.6791 16.7191C13.5323 16.2956 13.691 16.2425 14.0614 16.2425C14.6436 16.2956 15.4375 16.8778 15.4375 16.8778C16.0202 16.8778 16.3375 17.0895 16.3375 17.0895C16.3375 17.0895 16.3258 17.1584 16.3079 17.2686H28.6214C28.7836 17.0916 28.8831 16.9839 28.8831 16.9839C28.8831 16.9839 29.0923 16.6252 29.2408 16.1777H9.47949Z" fill="white"/>
</mask>
<g mask="url(#mask54_2101_4522)">
<path d="M2.90723 15.8457L2.93733 17.4402H12.6267L12.5966 15.8457H2.90723Z" fill="#B3A168"/>
</g>
</g>
<mask id="mask55_2101_4522" style="mask-type:luminance" maskUnits="userSpaceOnUse" x="22" y="16" width="8" height="2">
<path d="M22.4609 16.1543H29.2532V17.3299H22.4609V16.1543Z" fill="white"/>
</mask>
<g mask="url(#mask55_2101_4522)">
<mask id="mask56_2101_4522" style="mask-type:luminance" maskUnits="userSpaceOnUse" x="9" y="16" width="21" height="2">
<path d="M9.47949 16.1777C10.0224 16.6369 10.6913 16.8936 11.6791 16.7191C13.5323 16.2956 13.691 16.2425 14.0614 16.2425C14.6436 16.2956 15.4375 16.8778 15.4375 16.8778C16.0202 16.8778 16.3375 17.0895 16.3375 17.0895C16.3375 17.0895 16.3258 17.1584 16.308 17.2686H28.6214C28.7837 17.0916 28.8832 16.9839 28.8832 16.9839C28.8832 16.9839 29.0924 16.6252 29.2408 16.1777H9.47949Z" fill="white"/>
</mask>
<g mask="url(#mask56_2101_4522)">
<path d="M22.4863 17.3977H42.6282V16.0977H22.4863V17.3977Z" fill="#B3A168"/>
</g>
</g>
<mask id="mask57_2101_4522" style="mask-type:luminance" maskUnits="userSpaceOnUse" x="22" y="16" width="2" height="2">
<path d="M22.4609 16.1543H23.7671V17.3299H22.4609V16.1543Z" fill="white"/>
</mask>
<g mask="url(#mask57_2101_4522)">
<mask id="mask58_2101_4522" style="mask-type:luminance" maskUnits="userSpaceOnUse" x="22" y="16" width="8" height="2">
<path d="M22.4854 16.1777V17.2686H28.621C28.7832 17.0916 28.8827 16.9839 28.8827 16.9839C28.8827 16.9839 29.0919 16.6252 29.2404 16.1777H22.4854Z" fill="white"/>
</mask>
<g mask="url(#mask58_2101_4522)">
<path d="M18.8461 10.3867C18.8461 10.3867 23.7622 12.5792 23.7622 16.8305C23.7622 21.0818 16.123 23.3406 16.123 23.3406L18.8461 10.3867Z" fill="#7D7246"/>
</g>
</g>
<mask id="mask59_2101_4522" style="mask-type:luminance" maskUnits="userSpaceOnUse" x="12" y="16" width="7" height="2">
<path d="M12.665 16.1543H18.4123V17.3299H12.665V16.1543Z" fill="white"/>
</mask>
<g mask="url(#mask59_2101_4522)">
<mask id="mask60_2101_4522" style="mask-type:luminance" maskUnits="userSpaceOnUse" x="9" y="16" width="21" height="2">
<path d="M9.47949 16.1777C10.0224 16.6369 10.6913 16.8936 11.6791 16.7191C13.5323 16.2956 13.691 16.2425 14.0614 16.2425C14.6436 16.2956 15.4375 16.8778 15.4375 16.8778C16.0202 16.8778 16.3375 17.0895 16.3375 17.0895C16.3375 17.0895 16.3258 17.1584 16.3079 17.2686H28.6214C28.7836 17.0916 28.8831 16.9839 28.8831 16.9839C28.8831 16.9839 29.0923 16.6252 29.2408 16.1777H9.47949Z" fill="white"/>
</mask>
<g mask="url(#mask60_2101_4522)">
<path d="M14.0305 17.0308C14.0305 17.0308 13.9641 13.4066 18.3154 11.9805L17.2526 11.084C17.2526 11.084 13.1218 12.2147 12.7355 17.2298C12.3487 22.2122 14.0305 17.0308 14.0305 17.0308Z" fill="#00512C"/>
</g>
</g>
<mask id="mask61_2101_4522" style="mask-type:luminance" maskUnits="userSpaceOnUse" x="7" y="19" width="24" height="2">
<path d="M7.70117 19.1582H30.2984V20.3338H7.70117V19.1582Z" fill="white"/>
</mask>
<g mask="url(#mask61_2101_4522)">
<mask id="mask62_2101_4522" style="mask-type:luminance" maskUnits="userSpaceOnUse" x="7" y="5" width="24" height="26">
<path d="M14.7295 5.71289C14.6147 5.7134 14.5142 5.73075 14.4325 5.77463C13.8498 5.97311 12.8972 6.18435 12.8972 6.18435C12.8972 6.18435 12.5268 6.02566 11.7854 6.3961C11.0446 6.92572 10.8859 7.0844 10.8859 7.0844C10.8859 7.0844 10.6211 8.30233 9.82665 8.30233C9.3506 8.93707 8.29186 10.3137 8.02705 11.2663C7.49743 12.6424 7.70918 13.9659 8.29186 14.7599C9.13885 15.9247 9.87971 17.0365 11.6793 16.7187C13.5325 16.2952 13.6912 16.2421 14.0616 16.2421C14.6438 16.2952 15.4377 16.8773 15.4377 16.8773C16.0204 16.8773 16.3377 17.0891 16.3377 17.0891C16.3377 17.0891 16.0729 18.6244 16.1791 18.8361C16.3377 19.1009 17.2903 19.405 17.3434 20.5495C17.3965 21.6945 17.7138 22.3297 17.7138 22.3297C17.7138 22.3297 17.6613 22.965 17.1847 23.4941C16.7082 24.0237 17.5021 25.3998 17.82 25.7177C18.0317 26.2999 18.2435 27.1999 18.2965 27.6765C18.8501 28.2056 18.8501 28.4704 19.1966 29.6878C19.1966 29.6878 19.4083 30.3231 20.4135 29.8465C21.6314 29.6878 21.9488 29.8465 22.5309 28.9995C23.4841 27.9938 23.7489 27.8882 23.8019 27.3586C24.2249 26.6177 24.7545 26.406 24.7545 26.406C24.7545 25.7702 24.8076 25.1355 24.4897 24.9768C25.4954 24.5003 26.2893 23.9706 26.6603 23.7589C26.7659 22.965 26.6072 20.8873 26.2893 20.5495C25.972 20.0005 26.0245 20.2122 26.7394 19.3652C27.6129 18.3596 28.8834 16.9835 28.8834 16.9835C28.8834 16.9835 29.2543 16.3482 29.3599 15.713C30.1008 14.9191 30.8809 13.4899 29.4058 13.9659C28.7777 14.2308 28.2481 14.6374 27.7185 14.2308C27.5073 13.5424 27.0307 13.2781 26.6072 13.2781C25.7602 12.1133 25.125 11.2663 25.125 11.2663C25.125 11.2663 25.5852 10.5254 24.7199 9.94325C24.1193 9.14881 24.1193 9.09575 24.1193 9.09575C24.1193 9.09575 24.6484 7.19053 22.6901 7.56096C21.3666 7.5079 19.8757 7.13747 19.5139 7.77271C19.1522 8.09059 18.6139 8.00385 18.3496 7.35891C17.873 7.0844 17.1317 7.34105 17.1317 7.34105C17.1317 7.34105 16.5117 6.97878 16.8143 6.55529C17.1164 5.97311 17.026 5.7083 16.2852 5.86698C15.9714 5.88943 15.6586 5.84096 15.3729 5.79249C15.1412 5.75371 14.928 5.71391 14.7484 5.71289H14.7295Z" fill="white"/>
</mask>
<g mask="url(#mask62_2101_4522)">
<path d="M6.28906 19.168L6.45081 20.2185H31.2242L31.0629 19.168H6.28906Z" fill="#319044"/>
</g>
</g>
<mask id="mask63_2101_4522" style="mask-type:luminance" maskUnits="userSpaceOnUse" x="20" y="19" width="8" height="2">
<path d="M20.1104 19.1582H27.0332V20.3338H20.1104V19.1582Z" fill="white"/>
</mask>
<g mask="url(#mask63_2101_4522)">
<mask id="mask64_2101_4522" style="mask-type:luminance" maskUnits="userSpaceOnUse" x="16" y="19" width="11" height="2">
<path d="M16.5703 19.168C16.8458 19.3807 17.1785 19.6884 17.2989 20.218H26.1127C26.0586 20.0343 26.2326 19.9655 26.7387 19.3654C26.7949 19.3011 26.8525 19.2348 26.9117 19.168H16.5703Z" fill="white"/>
</mask>
<g mask="url(#mask64_2101_4522)">
<path d="M21.5256 18.8438L20.1484 20.4167H42.6273V19.7229L21.5256 18.8438Z" fill="#B3A168"/>
</g>
</g>
<mask id="mask65_2101_4522" style="mask-type:luminance" maskUnits="userSpaceOnUse" x="20" y="19" width="4" height="2">
<path d="M20.2402 19.1582H23.767V20.3338H20.2402V19.1582Z" fill="white"/>
</mask>
<g mask="url(#mask65_2101_4522)">
<mask id="mask66_2101_4522" style="mask-type:luminance" maskUnits="userSpaceOnUse" x="20" y="19" width="7" height="2">
<path d="M21.2418 19.168L20.3223 20.218H26.112C26.0579 20.0343 26.2324 19.9655 26.738 19.3654C26.7941 19.3011 26.8518 19.2348 26.911 19.168H21.2418Z" fill="white"/>
</mask>
<g mask="url(#mask66_2101_4522)">
<path d="M18.8461 10.3867C18.8461 10.3867 23.7622 12.5792 23.7622 16.8305C23.7622 21.0818 16.123 23.3406 16.123 23.3406L18.8461 10.3867Z" fill="#7D7246"/>
</g>
</g>
<mask id="mask67_2101_4522" style="mask-type:luminance" maskUnits="userSpaceOnUse" x="7" y="22" width="24" height="2">
<path d="M7.70117 22.293H30.2984V23.4685H7.70117V22.293Z" fill="white"/>
</mask>
<g mask="url(#mask67_2101_4522)">
<mask id="mask68_2101_4522" style="mask-type:luminance" maskUnits="userSpaceOnUse" x="7" y="5" width="24" height="26">
<path d="M14.7295 5.71289C14.6147 5.7134 14.5142 5.73075 14.4325 5.77463C13.8498 5.97311 12.8972 6.18435 12.8972 6.18435C12.8972 6.18435 12.5268 6.02566 11.7854 6.3961C11.0446 6.92572 10.8859 7.0844 10.8859 7.0844C10.8859 7.0844 10.6211 8.30233 9.82665 8.30233C9.3506 8.93707 8.29186 10.3137 8.02705 11.2663C7.49743 12.6424 7.70918 13.9659 8.29186 14.7599C9.13885 15.9247 9.87971 17.0365 11.6793 16.7187C13.5325 16.2952 13.6912 16.2421 14.0616 16.2421C14.6438 16.2952 15.4377 16.8773 15.4377 16.8773C16.0204 16.8773 16.3377 17.0891 16.3377 17.0891C16.3377 17.0891 16.0729 18.6244 16.1791 18.8361C16.3377 19.1009 17.2903 19.405 17.3434 20.5495C17.3965 21.6945 17.7138 22.3297 17.7138 22.3297C17.7138 22.3297 17.6613 22.965 17.1847 23.4941C16.7082 24.0237 17.5021 25.3998 17.82 25.7177C18.0317 26.2999 18.2435 27.1999 18.2965 27.6765C18.8501 28.2056 18.8501 28.4704 19.1966 29.6878C19.1966 29.6878 19.4083 30.3231 20.4135 29.8465C21.6314 29.6878 21.9488 29.8465 22.5309 28.9995C23.4841 27.9938 23.7489 27.8882 23.8019 27.3586C24.2249 26.6177 24.7545 26.406 24.7545 26.406C24.7545 25.7702 24.8076 25.1355 24.4897 24.9768C25.4954 24.5003 26.2893 23.9706 26.6603 23.7589C26.7659 22.965 26.6072 20.8873 26.2893 20.5495C25.972 20.0005 26.0245 20.2122 26.7394 19.3652C27.6129 18.3596 28.8834 16.9835 28.8834 16.9835C28.8834 16.9835 29.2543 16.3482 29.3599 15.713C30.1008 14.9191 30.8809 13.4899 29.4058 13.9659C28.7777 14.2308 28.2481 14.6374 27.7185 14.2308C27.5073 13.5424 27.0307 13.2781 26.6072 13.2781C25.7602 12.1133 25.125 11.2663 25.125 11.2663C25.125 11.2663 25.5852 10.5254 24.7199 9.94325C24.1193 9.14881 24.1193 9.09575 24.1193 9.09575C24.1193 9.09575 24.6484 7.19053 22.6901 7.56096C21.3666 7.5079 19.8757 7.13747 19.5139 7.77271C19.1522 8.09059 18.6139 8.00385 18.3496 7.35891C17.873 7.0844 17.1317 7.34105 17.1317 7.34105C17.1317 7.34105 16.5117 6.97878 16.8143 6.55529C17.1164 5.97311 17.026 5.7083 16.2852 5.86698C15.9714 5.88943 15.6586 5.84096 15.3729 5.79249C15.1412 5.75371 14.928 5.71391 14.7484 5.71289H14.7295Z" fill="white"/>
</mask>
<g mask="url(#mask68_2101_4522)">
<path d="M6.38574 23.3706H31.1591V22.3145H6.38574V23.3706Z" fill="#B3A168"/>
</g>
</g>
<mask id="mask69_2101_4522" style="mask-type:luminance" maskUnits="userSpaceOnUse" x="18" y="22" width="6" height="2">
<path d="M18.4121 22.293H23.6369V23.4685H18.4121V22.293Z" fill="white"/>
</mask>
<g mask="url(#mask69_2101_4522)">
<mask id="mask70_2101_4522" style="mask-type:luminance" maskUnits="userSpaceOnUse" x="17" y="22" width="10" height="2">
<path d="M17.707 22.3145C17.7116 22.3252 17.7141 22.3303 17.7141 22.3303C17.7141 22.3303 17.6692 22.8711 17.2881 23.3706H26.6891C26.6993 23.065 26.6897 22.6905 26.6621 22.3145H17.707Z" fill="white"/>
</mask>
<g mask="url(#mask70_2101_4522)">
<path d="M19.0462 21.4141C19.0462 21.4141 24.8256 23.8719 23.2312 28.788C21.6367 29.0533 21.7035 24.603 21.7035 24.603L18.4482 21.8794L19.0462 21.4141Z" fill="#7D7246"/>
</g>
</g>
<mask id="mask71_2101_4522" style="mask-type:luminance" maskUnits="userSpaceOnUse" x="17" y="22" width="3" height="2">
<path d="M17.2363 22.293H19.065V23.4685H17.2363V22.293Z" fill="white"/>
</mask>
<g mask="url(#mask71_2101_4522)">
<mask id="mask72_2101_4522" style="mask-type:luminance" maskUnits="userSpaceOnUse" x="17" y="22" width="10" height="2">
<path d="M17.706 22.3145C17.7106 22.3252 17.7132 22.3303 17.7132 22.3303C17.7132 22.3303 17.6683 22.8711 17.2871 23.3706H26.6882C26.6984 23.065 26.6887 22.6905 26.6611 22.3145H17.706Z" fill="white"/>
</mask>
<g mask="url(#mask72_2101_4522)">
<path d="M-4.82617 22.3203L-2.96688 24.0577H18.9823V22.3203H-4.82617Z" fill="#231F20"/>
</g>
</g>
<mask id="mask73_2101_4522" style="mask-type:luminance" maskUnits="userSpaceOnUse" x="7" y="20" width="24" height="2">
<path d="M7.70117 20.7246H30.2984V21.9002H7.70117V20.7246Z" fill="white"/>
</mask>
<g mask="url(#mask73_2101_4522)">
<mask id="mask74_2101_4522" style="mask-type:luminance" maskUnits="userSpaceOnUse" x="7" y="5" width="24" height="26">
<path d="M14.7295 5.71289C14.6147 5.7134 14.5142 5.73075 14.4325 5.77463C13.8498 5.97311 12.8972 6.18435 12.8972 6.18435C12.8972 6.18435 12.5268 6.02566 11.7854 6.3961C11.0446 6.92572 10.8859 7.0844 10.8859 7.0844C10.8859 7.0844 10.6211 8.30233 9.82665 8.30233C9.3506 8.93707 8.29186 10.3137 8.02705 11.2663C7.49743 12.6424 7.70918 13.9659 8.29186 14.7599C9.13885 15.9247 9.87971 17.0365 11.6793 16.7187C13.5325 16.2952 13.6912 16.2421 14.0616 16.2421C14.6438 16.2952 15.4377 16.8773 15.4377 16.8773C16.0204 16.8773 16.3377 17.0891 16.3377 17.0891C16.3377 17.0891 16.0729 18.6244 16.1791 18.8361C16.3377 19.1009 17.2903 19.405 17.3434 20.5495C17.3965 21.6945 17.7138 22.3297 17.7138 22.3297C17.7138 22.3297 17.6613 22.965 17.1847 23.4941C16.7082 24.0237 17.5021 25.3998 17.82 25.7177C18.0317 26.2999 18.2435 27.1999 18.2965 27.6765C18.8501 28.2056 18.8501 28.4704 19.1966 29.6878C19.1966 29.6878 19.4083 30.3231 20.4135 29.8465C21.6314 29.6878 21.9488 29.8465 22.5309 28.9995C23.4841 27.9938 23.7489 27.8882 23.8019 27.3586C24.2249 26.6177 24.7545 26.406 24.7545 26.406C24.7545 25.7702 24.8076 25.1355 24.4897 24.9768C25.4954 24.5003 26.2893 23.9706 26.6603 23.7589C26.7659 22.965 26.6072 20.8873 26.2893 20.5495C25.972 20.0005 26.0245 20.2122 26.7394 19.3652C27.6129 18.3596 28.8834 16.9835 28.8834 16.9835C28.8834 16.9835 29.2543 16.3482 29.3599 15.713C30.1008 14.9191 30.8809 13.4899 29.4058 13.9659C28.7777 14.2308 28.2481 14.6374 27.7185 14.2308C27.5073 13.5424 27.0307 13.2781 26.6072 13.2781C25.7602 12.1133 25.125 11.2663 25.125 11.2663C25.125 11.2663 25.5852 10.5254 24.7199 9.94325C24.1193 9.14881 24.1193 9.09575 24.1193 9.09575C24.1193 9.09575 24.6484 7.19053 22.6901 7.56096C21.3666 7.5079 19.8757 7.13747 19.5139 7.77271C19.1522 8.09059 18.6139 8.00385 18.3496 7.35891C17.873 7.0844 17.1317 7.34105 17.1317 7.34105C17.1317 7.34105 16.5117 6.97878 16.8143 6.55529C17.1164 5.97311 17.026 5.7083 16.2852 5.86698C15.9714 5.88943 15.6586 5.84096 15.3729 5.79249C15.1412 5.75371 14.928 5.71391 14.7484 5.71289H14.7295Z" fill="white"/>
</mask>
<g mask="url(#mask74_2101_4522)">
<path d="M6.38574 21.7947H31.1591V20.7441H6.38574V21.7947Z" fill="#319044"/>
</g>
</g>
<mask id="mask75_2101_4522" style="mask-type:luminance" maskUnits="userSpaceOnUse" x="18" y="20" width="9" height="2">
<path d="M18.543 20.7246H26.6414V21.9002H18.543V20.7246Z" fill="white"/>
</mask>
<g mask="url(#mask75_2101_4522)">
<mask id="mask76_2101_4522" style="mask-type:luminance" maskUnits="userSpaceOnUse" x="17" y="20" width="10" height="2">
<path d="M17.3545 20.7422C17.3871 21.1789 17.4575 21.5315 17.5274 21.7928H26.6121C26.5621 21.3652 26.4887 20.9784 26.3968 20.7422H17.3545Z" fill="white"/>
</mask>
<g mask="url(#mask76_2101_4522)">
<path d="M18.6926 20.5801L18.6562 21.8353H27.389L27.4251 20.5801H18.6926Z" fill="#B3A168"/>
</g>
</g>
<mask id="mask77_2101_4522" style="mask-type:luminance" maskUnits="userSpaceOnUse" x="18" y="20" width="6" height="2">
<path d="M18.543 20.7246H23.7678V21.9002H18.543V20.7246Z" fill="white"/>
</mask>
<g mask="url(#mask77_2101_4522)">
<mask id="mask78_2101_4522" style="mask-type:luminance" maskUnits="userSpaceOnUse" x="18" y="20" width="9" height="2">
<path d="M18.6883 20.7422L18.6582 21.7928H26.6122C26.5622 21.3652 26.4887 20.9784 26.3969 20.7422H18.6883Z" fill="white"/>
</mask>
<g mask="url(#mask78_2101_4522)">
<path d="M18.8461 10.3867C18.8461 10.3867 23.7622 12.5792 23.7622 16.8305C23.7622 21.0818 16.123 23.3406 16.123 23.3406L18.8461 10.3867Z" fill="#7D7246"/>
</g>
</g>
<mask id="mask79_2101_4522" style="mask-type:luminance" maskUnits="userSpaceOnUse" x="7" y="23" width="24" height="3">
<path d="M7.70117 23.8613H30.2984V25.0369H7.70117V23.8613Z" fill="white"/>
</mask>
<g mask="url(#mask79_2101_4522)">
<mask id="mask80_2101_4522" style="mask-type:luminance" maskUnits="userSpaceOnUse" x="7" y="5" width="24" height="26">
<path d="M14.7295 5.71289C14.6147 5.7134 14.5142 5.73075 14.4325 5.77463C13.8498 5.97311 12.8972 6.18435 12.8972 6.18435C12.8972 6.18435 12.5268 6.02566 11.7854 6.3961C11.0446 6.92572 10.8859 7.0844 10.8859 7.0844C10.8859 7.0844 10.6211 8.30233 9.82665 8.30233C9.3506 8.93707 8.29186 10.3137 8.02705 11.2663C7.49743 12.6424 7.70918 13.9659 8.29186 14.7599C9.13885 15.9247 9.87971 17.0365 11.6793 16.7187C13.5325 16.2952 13.6912 16.2421 14.0616 16.2421C14.6438 16.2952 15.4377 16.8773 15.4377 16.8773C16.0204 16.8773 16.3377 17.0891 16.3377 17.0891C16.3377 17.0891 16.0729 18.6244 16.1791 18.8361C16.3377 19.1009 17.2903 19.405 17.3434 20.5495C17.3965 21.6945 17.7138 22.3297 17.7138 22.3297C17.7138 22.3297 17.6613 22.965 17.1847 23.4941C16.7082 24.0237 17.5021 25.3998 17.82 25.7177C18.0317 26.2999 18.2435 27.1999 18.2965 27.6765C18.8501 28.2056 18.8501 28.4704 19.1966 29.6878C19.1966 29.6878 19.4083 30.3231 20.4135 29.8465C21.6314 29.6878 21.9488 29.8465 22.5309 28.9995C23.4841 27.9938 23.7489 27.8882 23.8019 27.3586C24.2249 26.6177 24.7545 26.406 24.7545 26.406C24.7545 25.7702 24.8076 25.1355 24.4897 24.9768C25.4954 24.5003 26.2893 23.9706 26.6603 23.7589C26.7659 22.965 26.6072 20.8873 26.2893 20.5495C25.972 20.0005 26.0245 20.2122 26.7394 19.3652C27.6129 18.3596 28.8834 16.9835 28.8834 16.9835C28.8834 16.9835 29.2543 16.3482 29.3599 15.713C30.1008 14.9191 30.8809 13.4899 29.4058 13.9659C28.7777 14.2308 28.2481 14.6374 27.7185 14.2308C27.5073 13.5424 27.0307 13.2781 26.6072 13.2781C25.7602 12.1133 25.125 11.2663 25.125 11.2663C25.125 11.2663 25.5852 10.5254 24.7199 9.94325C24.1193 9.14881 24.1193 9.09575 24.1193 9.09575C24.1193 9.09575 24.6484 7.19053 22.6901 7.56096C21.3666 7.5079 19.8757 7.13747 19.5139 7.77271C19.1522 8.09059 18.6139 8.00385 18.3496 7.35891C17.873 7.0844 17.1317 7.34105 17.1317 7.34105C17.1317 7.34105 16.5117 6.97878 16.8143 6.55529C17.1164 5.97311 17.026 5.7083 16.2852 5.86698C15.9714 5.88943 15.6586 5.84096 15.3729 5.79249C15.1412 5.75371 14.928 5.71391 14.7484 5.71289H14.7295Z" fill="white"/>
</mask>
<g mask="url(#mask80_2101_4522)">
<path d="M6.38574 24.9471H31.1591V23.9297H6.38574V24.9471Z" fill="#B3A168"/>
</g>
</g>
<mask id="mask81_2101_4522" style="mask-type:luminance" maskUnits="userSpaceOnUse" x="18" y="23" width="6" height="3">
<path d="M18.4121 23.8613H23.6369V25.0369H18.4121V23.8613Z" fill="white"/>
</mask>
<g mask="url(#mask81_2101_4522)">
<mask id="mask82_2101_4522" style="mask-type:luminance" maskUnits="userSpaceOnUse" x="17" y="23" width="10" height="2">
<path d="M17.0363 23.9297C17.0307 24.2394 17.1588 24.6149 17.32 24.9471H24.5541C25.3225 24.5777 25.9623 24.1823 26.3761 23.9297H17.0363Z" fill="white"/>
</mask>
<g mask="url(#mask82_2101_4522)">
<path d="M19.0462 21.416C19.0462 21.416 24.8256 23.8738 23.2312 28.7899C21.6367 29.0553 21.7035 24.605 21.7035 24.605L18.4482 21.8813L19.0462 21.416Z" fill="#7D7246"/>
</g>
</g>
<mask id="mask83_2101_4522" style="mask-type:luminance" maskUnits="userSpaceOnUse" x="16" y="23" width="6" height="3">
<path d="M16.9756 23.8613H21.4167V25.0369H16.9756V23.8613Z" fill="white"/>
</mask>
<g mask="url(#mask83_2101_4522)">
<mask id="mask84_2101_4522" style="mask-type:luminance" maskUnits="userSpaceOnUse" x="17" y="23" width="10" height="2">
<path d="M17.0363 23.9297C17.0307 24.2394 17.1588 24.6149 17.32 24.9471H24.5541C25.3225 24.5777 25.9623 24.1823 26.3761 23.9297H17.0363Z" fill="white"/>
</mask>
<g mask="url(#mask84_2101_4522)">
<path d="M-0.0107422 25.1894H21.3303V23.8965H-0.0107422V25.1894Z" fill="#231F20"/>
</g>
</g>
<mask id="mask85_2101_4522" style="mask-type:luminance" maskUnits="userSpaceOnUse" x="7" y="25" width="24" height="2">
<path d="M7.70117 25.4277H30.2984V26.6033H7.70117V25.4277Z" fill="white"/>
</mask>
<g mask="url(#mask85_2101_4522)">
<mask id="mask86_2101_4522" style="mask-type:luminance" maskUnits="userSpaceOnUse" x="7" y="5" width="24" height="26">
<path d="M14.7295 5.71289C14.6147 5.7134 14.5142 5.73075 14.4325 5.77463C13.8498 5.97311 12.8972 6.18435 12.8972 6.18435C12.8972 6.18435 12.5268 6.02566 11.7854 6.3961C11.0446 6.92572 10.8859 7.0844 10.8859 7.0844C10.8859 7.0844 10.6211 8.30233 9.82665 8.30233C9.3506 8.93707 8.29186 10.3137 8.02705 11.2663C7.49743 12.6424 7.70918 13.9659 8.29186 14.7599C9.13885 15.9247 9.87971 17.0365 11.6793 16.7187C13.5325 16.2952 13.6912 16.2421 14.0616 16.2421C14.6438 16.2952 15.4377 16.8773 15.4377 16.8773C16.0204 16.8773 16.3377 17.0891 16.3377 17.0891C16.3377 17.0891 16.0729 18.6244 16.1791 18.8361C16.3377 19.1009 17.2903 19.405 17.3434 20.5495C17.3965 21.6945 17.7138 22.3297 17.7138 22.3297C17.7138 22.3297 17.6613 22.965 17.1847 23.4941C16.7082 24.0237 17.5021 25.3998 17.82 25.7177C18.0317 26.2999 18.2435 27.1999 18.2965 27.6765C18.8501 28.2056 18.8501 28.4704 19.1966 29.6878C19.1966 29.6878 19.4083 30.3231 20.4135 29.8465C21.6314 29.6878 21.9488 29.8465 22.5309 28.9995C23.4841 27.9938 23.7489 27.8882 23.8019 27.3586C24.2249 26.6177 24.7545 26.406 24.7545 26.406C24.7545 25.7702 24.8076 25.1355 24.4897 24.9768C25.4954 24.5003 26.2893 23.9706 26.6603 23.7589C26.7659 22.965 26.6072 20.8873 26.2893 20.5495C25.972 20.0005 26.0245 20.2122 26.7394 19.3652C27.6129 18.3596 28.8834 16.9835 28.8834 16.9835C28.8834 16.9835 29.2543 16.3482 29.3599 15.713C30.1008 14.9191 30.8809 13.4899 29.4058 13.9659C28.7777 14.2308 28.2481 14.6374 27.7185 14.2308C27.5073 13.5424 27.0307 13.2781 26.6072 13.2781C25.7602 12.1133 25.125 11.2663 25.125 11.2663C25.125 11.2663 25.5852 10.5254 24.7199 9.94325C24.1193 9.14881 24.1193 9.09575 24.1193 9.09575C24.1193 9.09575 24.6484 7.19053 22.6901 7.56096C21.3666 7.5079 19.8757 7.13747 19.5139 7.77271C19.1522 8.09059 18.6139 8.00385 18.3496 7.35891C17.873 7.0844 17.1317 7.34105 17.1317 7.34105C17.1317 7.34105 16.5117 6.97878 16.8143 6.55529C17.1164 5.97311 17.026 5.7083 16.2852 5.86698C15.9714 5.88943 15.6586 5.84096 15.3729 5.79249C15.1412 5.75371 14.928 5.71391 14.7484 5.71289H14.7295Z" fill="white"/>
</mask>
<g mask="url(#mask86_2101_4522)">
<path d="M6.38574 26.521H31.1591V25.4434H6.38574V26.521Z" fill="#B3A168"/>
</g>
</g>
<mask id="mask87_2101_4522" style="mask-type:luminance" maskUnits="userSpaceOnUse" x="18" y="25" width="6" height="2">
<path d="M18.4121 25.4277H23.6369V26.6033H18.4121V25.4277Z" fill="white"/>
</mask>
<g mask="url(#mask87_2101_4522)">
<mask id="mask88_2101_4522" style="mask-type:luminance" maskUnits="userSpaceOnUse" x="17" y="25" width="8" height="2">
<path d="M17.6055 25.4434C17.6861 25.5628 17.7616 25.6582 17.8203 25.7168C17.905 25.95 17.9897 26.2337 18.0642 26.521H24.5503C24.6742 26.4373 24.7549 26.4052 24.7549 26.4052C24.7549 26.0587 24.7707 25.7123 24.7334 25.4434H17.6055Z" fill="white"/>
</mask>
<g mask="url(#mask88_2101_4522)">
<path d="M19.0472 21.4141C19.0472 21.4141 24.8266 23.8719 23.2322 28.788C21.6377 29.0533 21.7045 24.603 21.7045 24.603L18.4492 21.8794L19.0472 21.4141Z" fill="#7D7246"/>
</g>
</g>
<mask id="mask89_2101_4522" style="mask-type:luminance" maskUnits="userSpaceOnUse" x="17" y="25" width="6" height="2">
<path d="M17.498 25.4277H22.2003V26.6033H17.498V25.4277Z" fill="white"/>
</mask>
<g mask="url(#mask89_2101_4522)">
<mask id="mask90_2101_4522" style="mask-type:luminance" maskUnits="userSpaceOnUse" x="17" y="25" width="8" height="2">
<path d="M17.6055 25.4434C17.6861 25.5628 17.7616 25.6582 17.8203 25.7168C17.905 25.95 17.9897 26.2337 18.0642 26.521H24.5503C24.6742 26.4373 24.7549 26.4052 24.7549 26.4052C24.7549 26.0587 24.7707 25.7123 24.7334 25.4434H17.6055Z" fill="white"/>
</mask>
<g mask="url(#mask90_2101_4522)">
<path d="M-2.19336 26.5215H22.0856V25.2285H-2.19336V26.5215Z" fill="#231F20"/>
</g>
</g>
<mask id="mask91_2101_4522" style="mask-type:luminance" maskUnits="userSpaceOnUse" x="7" y="29" width="24" height="2">
<path d="M7.70117 29.2168H30.2984V30.1311H7.70117V29.2168Z" fill="white"/>
</mask>
<g mask="url(#mask91_2101_4522)">
<mask id="mask92_2101_4522" style="mask-type:luminance" maskUnits="userSpaceOnUse" x="7" y="5" width="24" height="26">
<path d="M14.7295 5.71484C14.6147 5.71535 14.5142 5.7327 14.4325 5.77658C13.8498 5.97506 12.8972 6.1863 12.8972 6.1863C12.8972 6.1863 12.5268 6.02762 11.7854 6.39805C11.0446 6.92767 10.8859 7.08636 10.8859 7.08636C10.8859 7.08636 10.6211 8.30429 9.82665 8.30429C9.3506 8.93902 8.29186 10.3156 8.02705 11.2682C7.49743 12.6443 7.70918 13.9679 8.29186 14.7618C9.13885 15.9267 9.87971 17.0385 11.6793 16.7206C13.5325 16.2971 13.6912 16.2441 14.0616 16.2441C14.6438 16.2971 15.4377 16.8793 15.4377 16.8793C16.0204 16.8793 16.3377 17.091 16.3377 17.091C16.3377 17.091 16.0729 18.6263 16.1791 18.8381C16.3377 19.1029 17.2903 19.407 17.3434 20.5515C17.3965 21.6964 17.7138 22.3317 17.7138 22.3317C17.7138 22.3317 17.6613 22.9669 17.1847 23.496C16.7082 24.0256 17.5021 25.4018 17.82 25.7196C18.0317 26.3018 18.2435 27.2019 18.2965 27.6784C18.8501 28.2075 18.8501 28.4723 19.1966 29.6898C19.1966 29.6898 19.4083 30.325 20.4135 29.8484C21.6314 29.6898 21.9488 29.8484 22.5309 29.0015C23.4841 27.9958 23.7489 27.8902 23.8019 27.3605C24.2249 26.6197 24.7545 26.4079 24.7545 26.4079C24.7545 25.7722 24.8076 25.1374 24.4897 24.9788C25.4954 24.5022 26.2893 23.9726 26.6603 23.7608C26.7659 22.9669 26.6072 20.8892 26.2893 20.5515C25.972 20.0024 26.0245 20.2142 26.7394 19.3672C27.6129 18.3615 28.8834 16.9854 28.8834 16.9854C28.8834 16.9854 29.2543 16.3502 29.3599 15.7149C30.1008 14.921 30.8809 13.4918 29.4058 13.9679C28.7777 14.2327 28.2481 14.6394 27.7185 14.2327C27.5073 13.5444 27.0307 13.2801 26.6072 13.2801C25.7602 12.1152 25.125 11.2682 25.125 11.2682C25.125 11.2682 25.5852 10.5274 24.7199 9.9452C24.1193 9.15077 24.1193 9.0977 24.1193 9.0977C24.1193 9.0977 24.6484 7.19248 22.6901 7.56291C21.3666 7.50985 19.8757 7.13942 19.5139 7.77466C19.1522 8.09254 18.6139 8.0058 18.3496 7.36086C17.873 7.08636 17.1317 7.343 17.1317 7.343C17.1317 7.343 16.5117 6.98074 16.8143 6.55724C17.1164 5.97506 17.026 5.71025 16.2852 5.86893C15.9714 5.89139 15.6586 5.84291 15.3729 5.79444C15.1412 5.75566 14.928 5.71586 14.7484 5.71484H14.7295Z" fill="white"/>
</mask>
<g mask="url(#mask92_2101_4522)">
<path d="M6.38574 30.0162H31.1591V29.3223H6.38574V30.0162Z" fill="#00AEEF"/>
</g>
</g>
<mask id="mask93_2101_4522" style="mask-type:luminance" maskUnits="userSpaceOnUse" x="20" y="6" width="11" height="2">
<path d="M20.7637 6.48828H30.2989V7.272H20.7637V6.48828Z" fill="white"/>
</mask>
<g mask="url(#mask93_2101_4522)">
<mask id="mask94_2101_4522" style="mask-type:luminance" maskUnits="userSpaceOnUse" x="7" y="5" width="24" height="26">
<path d="M14.7295 5.71289C14.6147 5.7134 14.5142 5.73075 14.4325 5.77463C13.8498 5.97311 12.8972 6.18435 12.8972 6.18435C12.8972 6.18435 12.5268 6.02566 11.7854 6.3961C11.0446 6.92572 10.8859 7.0844 10.8859 7.0844C10.8859 7.0844 10.6211 8.30233 9.82665 8.30233C9.3506 8.93707 8.29186 10.3137 8.02705 11.2663C7.49743 12.6424 7.70918 13.9659 8.29186 14.7599C9.13885 15.9247 9.87971 17.0365 11.6793 16.7187C13.5325 16.2952 13.6912 16.2421 14.0616 16.2421C14.6438 16.2952 15.4377 16.8773 15.4377 16.8773C16.0204 16.8773 16.3377 17.0891 16.3377 17.0891C16.3377 17.0891 16.0729 18.6244 16.1791 18.8361C16.3377 19.1009 17.2903 19.405 17.3434 20.5495C17.3965 21.6945 17.7138 22.3297 17.7138 22.3297C17.7138 22.3297 17.6613 22.965 17.1847 23.4941C16.7082 24.0237 17.5021 25.3998 17.82 25.7177C18.0317 26.2999 18.2435 27.1999 18.2965 27.6765C18.8501 28.2056 18.8501 28.4704 19.1966 29.6878C19.1966 29.6878 19.4083 30.3231 20.4135 29.8465C21.6314 29.6878 21.9488 29.8465 22.5309 28.9995C23.4841 27.9938 23.7489 27.8882 23.8019 27.3586C24.2249 26.6177 24.7545 26.406 24.7545 26.406C24.7545 25.7702 24.8076 25.1355 24.4897 24.9768C25.4954 24.5003 26.2893 23.9706 26.6603 23.7589C26.7659 22.965 26.6072 20.8873 26.2893 20.5495C25.972 20.0005 26.0245 20.2122 26.7394 19.3652C27.6129 18.3596 28.8834 16.9835 28.8834 16.9835C28.8834 16.9835 29.2543 16.3482 29.3599 15.713C30.1008 14.9191 30.8809 13.4899 29.4058 13.9659C28.7777 14.2308 28.2481 14.6374 27.7185 14.2308C27.5073 13.5424 27.0307 13.2781 26.6072 13.2781C25.7602 12.1133 25.125 11.2663 25.125 11.2663C25.125 11.2663 25.5852 10.5254 24.7199 9.94325C24.1193 9.14881 24.1193 9.09575 24.1193 9.09575C24.1193 9.09575 24.6484 7.19053 22.6901 7.56096C21.3666 7.5079 19.8757 7.13747 19.5139 7.77271C19.1522 8.09059 18.6139 8.00385 18.3496 7.35891C17.873 7.0844 17.1317 7.34105 17.1317 7.34105C17.1317 7.34105 16.5117 6.97878 16.8143 6.55529C17.1164 5.97311 17.026 5.7083 16.2852 5.86698C15.9714 5.88943 15.6586 5.84096 15.3729 5.79249C15.1412 5.75371 14.928 5.71391 14.7484 5.71289H14.7295Z" fill="white"/>
</mask>
<g mask="url(#mask94_2101_4522)">
<path d="M20.8369 7.2481H42.6274V6.55469H20.8369V7.2481Z" fill="#15234F"/>
</g>
</g>
<mask id="mask95_2101_4522" style="mask-type:luminance" maskUnits="userSpaceOnUse" x="17" y="26" width="14" height="3">
<path d="M17.7588 26.9961H30.2983V28.1717H17.7588V26.9961Z" fill="white"/>
</mask>
<g mask="url(#mask95_2101_4522)">
<mask id="mask96_2101_4522" style="mask-type:luminance" maskUnits="userSpaceOnUse" x="7" y="5" width="24" height="26">
<path d="M14.7285 5.71289C14.6137 5.7134 14.5132 5.73075 14.4315 5.77463C13.8488 5.97311 12.8962 6.18435 12.8962 6.18435C12.8962 6.18435 12.5258 6.02566 11.7844 6.3961C11.0436 6.92572 10.8849 7.0844 10.8849 7.0844C10.8849 7.0844 10.6201 8.30233 9.82567 8.30233C9.34962 8.93707 8.29088 10.3137 8.02607 11.2663C7.49645 12.6424 7.7082 13.9659 8.29088 14.7599C9.13787 15.9247 9.87873 17.0365 11.6783 16.7187C13.5315 16.2952 13.6902 16.2421 14.0606 16.2421C14.6428 16.2952 15.4367 16.8773 15.4367 16.8773C16.0194 16.8773 16.3367 17.0891 16.3367 17.0891C16.3367 17.0891 16.0719 18.6244 16.1781 18.8361C16.3367 19.1009 17.2893 19.405 17.3424 20.5495C17.3955 21.6945 17.7128 22.3297 17.7128 22.3297C17.7128 22.3297 17.6603 22.965 17.1837 23.4941C16.7072 24.0237 17.5011 25.3998 17.819 25.7177C18.0307 26.2999 18.2425 27.1999 18.2955 27.6765C18.8491 28.2056 18.8491 28.4704 19.1956 29.6878C19.1956 29.6878 19.4073 30.3231 20.4125 29.8465C21.6304 29.6878 21.9478 29.8465 22.5299 28.9995C23.4831 27.9938 23.7479 27.8882 23.8009 27.3586C24.2239 26.6177 24.7535 26.406 24.7535 26.406C24.7535 25.7702 24.8066 25.1355 24.4887 24.9768C25.4944 24.5003 26.2883 23.9706 26.6593 23.7589C26.7649 22.965 26.6062 20.8873 26.2883 20.5495C25.971 20.0005 26.0235 20.2122 26.7384 19.3652C27.6119 18.3596 28.8824 16.9835 28.8824 16.9835C28.8824 16.9835 29.2533 16.3482 29.3589 15.713C30.0998 14.9191 30.8799 13.4899 29.4048 13.9659C28.7767 14.2308 28.2471 14.6374 27.7175 14.2308C27.5063 13.5424 27.0297 13.2781 26.6062 13.2781C25.7592 12.1133 25.124 11.2663 25.124 11.2663C25.124 11.2663 25.5842 10.5254 24.7189 9.94325C24.1183 9.14881 24.1183 9.09575 24.1183 9.09575C24.1183 9.09575 24.6474 7.19053 22.6891 7.56096C21.3656 7.5079 19.8747 7.13747 19.5129 7.77271C19.1512 8.09059 18.6129 8.00385 18.3486 7.35891C17.872 7.0844 17.1307 7.34105 17.1307 7.34105C17.1307 7.34105 16.5107 6.97878 16.8133 6.55529C17.1154 5.97311 17.025 5.7083 16.2842 5.86698C15.9704 5.88943 15.6576 5.84096 15.3719 5.79249C15.1402 5.75371 14.927 5.71391 14.7474 5.71289H14.7285Z" fill="white"/>
</mask>
<g mask="url(#mask96_2101_4522)">
<path d="M17.873 28.125H42.6469V27.0469H17.873V28.125Z" fill="#B3A168"/>
</g>
</g>
<mask id="mask97_2101_4522" style="mask-type:luminance" maskUnits="userSpaceOnUse" x="18" y="26" width="6" height="3">
<path d="M18.4121 26.9961H23.5063V28.1717H18.4121V26.9961Z" fill="white"/>
</mask>
<g mask="url(#mask97_2101_4522)">
<mask id="mask98_2101_4522" style="mask-type:luminance" maskUnits="userSpaceOnUse" x="18" y="27" width="7" height="2">
<path d="M18.1885 27.0488C18.2395 27.2891 18.2778 27.5101 18.2967 27.6779C18.4671 27.8407 18.5849 27.9785 18.6768 28.127H23.3893C23.6653 27.8371 23.7704 27.6723 23.8021 27.3601C23.8684 27.2437 23.9373 27.1402 24.0067 27.0488H18.1885Z" fill="white"/>
</mask>
<g mask="url(#mask98_2101_4522)">
<path d="M19.0462 21.416C19.0462 21.416 24.8083 23.933 23.2143 28.8486C21.3627 29.5971 21.7035 24.605 21.7035 24.605L18.4482 21.8813L19.0462 21.416Z" fill="#7D7246"/>
</g>
</g>
<mask id="mask99_2101_4522" style="mask-type:luminance" maskUnits="userSpaceOnUse" x="18" y="26" width="5" height="3">
<path d="M18.1514 26.9961H22.4618V28.1717H18.1514V26.9961Z" fill="white"/>
</mask>
<g mask="url(#mask99_2101_4522)">
<mask id="mask100_2101_4522" style="mask-type:luminance" maskUnits="userSpaceOnUse" x="18" y="27" width="7" height="2">
<path d="M18.1885 27.0488C18.2395 27.2891 18.2778 27.5101 18.2967 27.6779C18.4671 27.8407 18.5849 27.9785 18.6768 28.127H23.3893C23.6653 27.8371 23.7704 27.6723 23.8021 27.3601C23.8684 27.2437 23.9373 27.1402 24.0067 27.0488H18.1885Z" fill="white"/>
</mask>
<g mask="url(#mask100_2101_4522)">
<path d="M17.1455 28.3625H22.4606V26.8145H17.1455V28.3625Z" fill="#231F20"/>
</g>
</g>
<mask id="mask101_2101_4522" style="mask-type:luminance" maskUnits="userSpaceOnUse" x="17" y="28" width="14" height="3">
<path d="M17.7588 28.5625H30.2983V30.1299H17.7588V28.5625Z" fill="white"/>
</mask>
<g mask="url(#mask101_2101_4522)">
<mask id="mask102_2101_4522" style="mask-type:luminance" maskUnits="userSpaceOnUse" x="7" y="5" width="24" height="26">
<path d="M14.7285 5.71289C14.6137 5.7134 14.5132 5.73075 14.4315 5.77463C13.8488 5.97311 12.8962 6.18435 12.8962 6.18435C12.8962 6.18435 12.5258 6.02566 11.7844 6.3961C11.0436 6.92572 10.8849 7.0844 10.8849 7.0844C10.8849 7.0844 10.6201 8.30233 9.82567 8.30233C9.34962 8.93707 8.29088 10.3137 8.02607 11.2663C7.49645 12.6424 7.7082 13.9659 8.29088 14.7599C9.13787 15.9247 9.87873 17.0365 11.6783 16.7187C13.5315 16.2952 13.6902 16.2421 14.0606 16.2421C14.6428 16.2952 15.4367 16.8773 15.4367 16.8773C16.0194 16.8773 16.3367 17.0891 16.3367 17.0891C16.3367 17.0891 16.0719 18.6244 16.1781 18.8361C16.3367 19.1009 17.2893 19.405 17.3424 20.5495C17.3955 21.6945 17.7128 22.3297 17.7128 22.3297C17.7128 22.3297 17.6603 22.965 17.1837 23.4941C16.7072 24.0237 17.5011 25.3998 17.819 25.7177C18.0307 26.2999 18.2425 27.1999 18.2955 27.6765C18.8491 28.2056 18.8491 28.4704 19.1956 29.6878C19.1956 29.6878 19.4073 30.3231 20.4125 29.8465C21.6304 29.6878 21.9478 29.8465 22.5299 28.9995C23.4831 27.9938 23.7479 27.8882 23.8009 27.3586C24.2239 26.6177 24.7535 26.406 24.7535 26.406C24.7535 25.7702 24.8066 25.1355 24.4887 24.9768C25.4944 24.5003 26.2883 23.9706 26.6593 23.7589C26.7649 22.965 26.6062 20.8873 26.2883 20.5495C25.971 20.0005 26.0235 20.2122 26.7384 19.3652C27.6119 18.3596 28.8824 16.9835 28.8824 16.9835C28.8824 16.9835 29.2533 16.3482 29.3589 15.713C30.0998 14.9191 30.8799 13.4899 29.4048 13.9659C28.7767 14.2308 28.2471 14.6374 27.7175 14.2308C27.5063 13.5424 27.0297 13.2781 26.6062 13.2781C25.7592 12.1133 25.124 11.2663 25.124 11.2663C25.124 11.2663 25.5842 10.5254 24.7189 9.94325C24.1183 9.14881 24.1183 9.09575 24.1183 9.09575C24.1183 9.09575 24.6474 7.19053 22.6891 7.56096C21.3656 7.5079 19.8747 7.13747 19.5129 7.77271C19.1512 8.09059 18.6129 8.00385 18.3486 7.35891C17.872 7.0844 17.1307 7.34105 17.1307 7.34105C17.1307 7.34105 16.5107 6.97878 16.8133 6.55529C17.1154 5.97311 17.025 5.7083 16.2842 5.86698C15.9704 5.88943 15.6576 5.84096 15.3719 5.79249C15.1402 5.75371 14.927 5.71391 14.7474 5.71289H14.7285Z" fill="white"/>
</mask>
<g mask="url(#mask102_2101_4522)">
<path d="M17.8535 31.4518H42.6268V28.623H17.8535V31.4518Z" fill="#231F20"/>
</g>
</g>
<mask id="mask103_2101_4522" style="mask-type:luminance" maskUnits="userSpaceOnUse" x="18" y="28" width="5" height="1">
<path d="M18.8047 28.5625H22.9845V28.9544H18.8047V28.5625Z" fill="white"/>
</mask>
<g mask="url(#mask103_2101_4522)">
<mask id="mask104_2101_4522" style="mask-type:luminance" maskUnits="userSpaceOnUse" x="18" y="28" width="5" height="3">
<path d="M18.8955 28.623C18.9787 28.8807 19.0613 29.2113 19.1971 29.6879C19.1971 29.6879 19.4088 30.3231 20.414 29.8466C21.6319 29.6879 21.9493 29.8466 22.5314 28.9996C22.6667 28.8572 22.7876 28.7333 22.8963 28.623H18.8955Z" fill="white"/>
</mask>
<g mask="url(#mask104_2101_4522)">
<path d="M19.0462 21.4141C19.0462 21.4141 24.8083 23.9311 23.2143 28.8467C21.3627 29.5952 21.7035 24.603 21.7035 24.603L18.4482 21.8794L19.0462 21.4141Z" fill="#7D7246"/>
</g>
</g>
<mask id="mask105_2101_4522" style="mask-type:luminance" maskUnits="userSpaceOnUse" x="7" y="5" width="23" height="24">
<path d="M7.72363 5.71289H29.1228V28.6934H7.72363V5.71289Z" fill="white"/>
</mask>
<g mask="url(#mask105_2101_4522)">
<path d="M12.8643 6.39941C13.244 7.64541 14.3603 10.1461 17.2105 11.1538C22.6251 13.0682 24.8798 18.0614 17.4763 21.8142" stroke="white" stroke-width="1.21385"/>
</g>
<mask id="mask106_2101_4522" style="mask-type:luminance" maskUnits="userSpaceOnUse" x="7" y="5" width="20" height="18">
<path d="M7.72363 5.71289H26.9023V22.0317H7.72363V5.71289Z" fill="white"/>
</mask>
<g mask="url(#mask106_2101_4522)">
<path d="M21.5584 7.3877C21.0268 8.53114 19.867 10.0231 17.3398 10.8961C14.6478 11.8262 12.4778 14.1616 12.4395 16.6546" stroke="white" stroke-width="0.933671"/>
</g>
<mask id="mask107_2101_4522" style="mask-type:luminance" maskUnits="userSpaceOnUse" x="14" y="19" width="11" height="12">
<path d="M14.8857 19.9414H24.4209V30.7406H14.8857V19.9414Z" fill="white"/>
</mask>
<g mask="url(#mask107_2101_4522)">
<path d="M17.6396 22.6387C17.6396 22.6387 23.8328 25.3725 20.8704 29.7968" stroke="white" stroke-width="0.468664"/>
</g>
<mask id="mask108_2101_4522" style="mask-type:luminance" maskUnits="userSpaceOnUse" x="10" y="15" width="20" height="16">
<path d="M10.9668 15.1094H29.2536V30.7415H10.9668V15.1094Z" fill="white"/>
</mask>
<g mask="url(#mask108_2101_4522)">
<path d="M17.8867 22.0713C19.5128 22.8464 21.9308 24.4577 22.2589 26.8594C22.3956 27.8615 22.2165 29.0309 21.3476 30.1621" stroke="#319044" stroke-width="1.21385"/>
</g>
<mask id="mask109_2101_4522" style="mask-type:luminance" maskUnits="userSpaceOnUse" x="7" y="5" width="23" height="25">
<path d="M7.72363 5.71289H29.384V29.0852H7.72363V5.71289Z" fill="white"/>
</mask>
<g mask="url(#mask109_2101_4522)">
<path d="M13.0684 6.33496C13.448 7.58096 14.6368 10.0658 17.7273 11.1337C22.5347 12.7945 25.4813 18.2311 17.5635 22.0053C17.5038 22.0339 17.4426 22.0629 17.3804 22.0936" stroke="#231F20" stroke-width="1.21385"/>
</g>
<mask id="mask110_2101_4522" style="mask-type:luminance" maskUnits="userSpaceOnUse" x="7" y="5" width="22" height="19">
<path d="M7.72363 5.71289H28.8616V23.5992H7.72363V5.71289Z" fill="white"/>
</mask>
<g mask="url(#mask110_2101_4522)">
<path d="M21.9125 7.53125C21.3309 8.74408 20.1384 10.2932 17.7016 11.1351C14.9703 12.0785 12.8396 14.2409 12.961 16.6247" stroke="#319044" stroke-width="1.21385"/>
</g>
</g>
<path d="M26.9996 2.32617H10.9996C6.63656 2.32617 3.09961 5.86312 3.09961 10.2262V26.2262C3.09961 30.5892 6.63656 34.1262 10.9996 34.1262H26.9996C31.3627 34.1262 34.8996 30.5892 34.8996 26.2262V10.2262C34.8996 5.86312 31.3627 2.32617 26.9996 2.32617Z" stroke="#D0D5DD" stroke-width="0.2"/>
</g>
<path d="M47.7911 10.8986H46.7139C46.5793 10.8986 46.5344 10.8201 46.5793 10.663L48.3522 3.91923C48.4045 3.76214 48.5167 3.68359 48.6888 3.68359H50.1812C50.3682 3.68359 50.4804 3.76214 50.5178 3.91923L52.2907 10.663C52.3356 10.8201 52.2907 10.8986 52.156 10.8986H51.0788C50.9966 10.8986 50.9405 10.8837 50.9105 10.8538C50.8806 10.8164 50.8582 10.7528 50.8432 10.663L50.529 9.42868H48.3409L48.0268 10.663C48.0118 10.7528 47.9856 10.8164 47.9482 10.8538C47.9183 10.8837 47.8659 10.8986 47.7911 10.8986ZM49.4182 5.04132L48.6102 8.28415H50.2709L49.463 5.04132H49.4182ZM54.4747 10.8986H53.521C53.3639 10.8986 53.2853 10.8201 53.2853 10.663V3.91923C53.2853 3.76214 53.3639 3.68359 53.521 3.68359H57.1004C57.25 3.68359 57.3248 3.76214 57.3248 3.91923V4.68225C57.3248 4.83934 57.25 4.91789 57.1004 4.91789H54.845C54.7553 4.91789 54.7104 4.95903 54.7104 5.04132V6.78056C54.7104 6.87032 54.7553 6.91521 54.845 6.91521H56.7638C56.9209 6.91521 56.9994 6.99375 56.9994 7.15084V7.90264C56.9994 8.06722 56.9209 8.1495 56.7638 8.1495H54.845C54.7553 8.1495 54.7104 8.19065 54.7104 8.27293V10.663C54.7104 10.8201 54.6318 10.8986 54.4747 10.8986ZM59.5263 10.8986H58.5725C58.4155 10.8986 58.3369 10.8201 58.3369 10.663V3.91923C58.3369 3.76214 58.4155 3.68359 58.5725 3.68359H61.2431C61.8266 3.68359 62.2829 3.84443 62.6121 4.16609C62.9412 4.48776 63.1058 4.94033 63.1058 5.52382V6.39905C63.1058 7.24435 62.7729 7.8054 62.1071 8.08218V8.12706L63.3078 10.6293C63.3751 10.8089 63.3115 10.8986 63.117 10.8986H62.2081C62.0735 10.8986 61.9762 10.8837 61.9164 10.8538C61.8565 10.8238 61.8079 10.7602 61.7705 10.663L60.6484 8.23927H59.8966C59.8068 8.23927 59.762 8.28041 59.762 8.3627V10.663C59.762 10.8201 59.6834 10.8986 59.5263 10.8986ZM59.8854 7.09474H60.985C61.2244 7.09474 61.4002 7.04612 61.5124 6.94887C61.6246 6.84414 61.6807 6.67957 61.6807 6.45515V5.57992C61.6807 5.34802 61.6246 5.17971 61.5124 5.07498C61.4002 4.97025 61.2244 4.91789 60.985 4.91789H59.8854C59.8031 4.91789 59.762 4.95903 59.762 5.04132V6.97131C59.762 7.0536 59.8031 7.09474 59.8854 7.09474ZM65.9545 3.91923V10.663C65.9545 10.8201 65.8759 10.8986 65.7188 10.8986H64.7651C64.608 10.8986 64.5294 10.8201 64.5294 10.663V3.91923C64.5294 3.76214 64.608 3.68359 64.7651 3.68359H65.7188C65.8759 3.68359 65.9545 3.76214 65.9545 3.91923ZM70.4271 10.8986H69.2041C68.6131 10.8986 68.1568 10.7415 67.8351 10.4274C67.5135 10.1132 67.3526 9.66058 67.3526 9.06961V5.5126C67.3526 4.92163 67.5135 4.46906 67.8351 4.15487C68.1568 3.84069 68.6131 3.68359 69.2041 3.68359H70.4271C71.0106 3.68359 71.4632 3.84443 71.7849 4.16609C72.114 4.48028 72.2786 4.92911 72.2786 5.5126V6.03998C72.2786 6.20455 72.1963 6.28684 72.0317 6.28684H71.0892C70.9321 6.28684 70.8535 6.20455 70.8535 6.03998V5.57992C70.8535 5.34054 70.8012 5.17223 70.6964 5.07498C70.5992 4.97025 70.4309 4.91789 70.1915 4.91789H69.4285C69.1966 4.91789 69.0283 4.97025 68.9235 5.07498C68.8263 5.17223 68.7777 5.34054 68.7777 5.57992V9.00229C68.7777 9.24167 68.8263 9.41372 68.9235 9.51845C69.0283 9.6157 69.1966 9.66432 69.4285 9.66432H70.1915C70.4309 9.66432 70.5992 9.6157 70.6964 9.51845C70.8012 9.41372 70.8535 9.24167 70.8535 9.00229V8.54223C70.8535 8.37766 70.9321 8.29537 71.0892 8.29537H72.0317C72.1963 8.29537 72.2786 8.37766 72.2786 8.54223V9.06961C72.2786 9.6531 72.114 10.1057 71.7849 10.4274C71.4632 10.7415 71.0106 10.8986 70.4271 10.8986ZM74.2544 10.8986H73.1772C73.0426 10.8986 72.9977 10.8201 73.0426 10.663L74.8155 3.91923C74.8678 3.76214 74.98 3.68359 75.1521 3.68359H76.6445C76.8315 3.68359 76.9437 3.76214 76.9811 3.91923L78.754 10.663C78.7989 10.8201 78.754 10.8986 78.6193 10.8986H77.5421C77.4599 10.8986 77.4037 10.8837 77.3738 10.8538C77.3439 10.8164 77.3215 10.7528 77.3065 10.663L76.9923 9.42868H74.8042L74.4901 10.663C74.4751 10.7528 74.4489 10.8164 74.4115 10.8538C74.3816 10.8837 74.3292 10.8986 74.2544 10.8986ZM75.8814 5.04132L75.0735 8.28415H76.7342L75.9263 5.04132H75.8814ZM80.9156 10.8986H79.9843C79.8272 10.8986 79.7486 10.8201 79.7486 10.663V3.91923C79.7486 3.76214 79.8272 3.68359 79.9843 3.68359H80.8258C80.9829 3.68359 81.0876 3.73596 81.14 3.84069L83.4066 8.0934H83.4515V3.91923C83.4515 3.76214 83.5301 3.68359 83.6871 3.68359H84.6185C84.7756 3.68359 84.8541 3.76214 84.8541 3.91923V10.663C84.8541 10.8201 84.7756 10.8986 84.6185 10.8986H83.7994C83.6348 10.8986 83.5151 10.8238 83.4403 10.6742L81.1961 6.50003H81.1512V10.663C81.1512 10.8201 81.0727 10.8986 80.9156 10.8986ZM89.9673 10.8986H89.0136C88.8565 10.8986 88.7779 10.8201 88.7779 10.663V3.91923C88.7779 3.76214 88.8565 3.68359 89.0136 3.68359H91.7514C92.3349 3.68359 92.7875 3.84443 93.1092 4.16609C93.4308 4.48028 93.5917 4.92911 93.5917 5.5126V6.5898C93.5917 7.17329 93.4308 7.62586 93.1092 7.94753C92.7875 8.26171 92.3349 8.4188 91.7514 8.4188H90.3376C90.2479 8.4188 90.203 8.45995 90.203 8.54223V10.663C90.203 10.8201 90.1244 10.8986 89.9673 10.8986ZM90.3264 7.17329H91.5158C91.7552 7.17329 91.9235 7.12466 92.0208 7.02742C92.118 6.92269 92.1666 6.75437 92.1666 6.52248V5.57992C92.1666 5.34054 92.118 5.17223 92.0208 5.07498C91.9235 4.97025 91.7552 4.91789 91.5158 4.91789H90.3264C90.2441 4.91789 90.203 4.95903 90.203 5.04132V7.04986C90.203 7.13214 90.2441 7.17329 90.3264 7.17329ZM95.4798 10.8986H94.4026C94.268 10.8986 94.2231 10.8201 94.268 10.663L96.0409 3.91923C96.0933 3.76214 96.2055 3.68359 96.3775 3.68359H97.8699C98.0569 3.68359 98.1691 3.76214 98.2065 3.91923L99.9794 10.663C100.024 10.8201 99.9794 10.8986 99.8448 10.8986H98.7676C98.6853 10.8986 98.6292 10.8837 98.5993 10.8538C98.5693 10.8164 98.5469 10.7528 98.5319 10.663L98.2177 9.42868H96.0297L95.7155 10.663C95.7005 10.7528 95.6743 10.8164 95.6369 10.8538C95.607 10.8837 95.5547 10.8986 95.4798 10.8986ZM97.1069 5.04132L96.299 8.28415H97.9597L97.1518 5.04132H97.1069ZM103.207 10.8986H102.264C102.099 10.8986 102.017 10.8201 102.017 10.663V5.04132C102.017 4.95903 101.976 4.91789 101.894 4.91789H100.615C100.457 4.91789 100.379 4.83934 100.379 4.68225V3.91923C100.379 3.76214 100.457 3.68359 100.615 3.68359H104.856C105.013 3.68359 105.092 3.76214 105.092 3.91923V4.68225C105.092 4.83934 105.013 4.91789 104.856 4.91789H103.577C103.487 4.91789 103.442 4.95903 103.442 5.04132V10.663C103.442 10.8201 103.364 10.8986 103.207 10.8986ZM107.138 10.8986H106.184C106.027 10.8986 105.949 10.8201 105.949 10.663V3.91923C105.949 3.76214 106.027 3.68359 106.184 3.68359H107.138C107.295 3.68359 107.374 3.76214 107.374 3.91923V6.55614C107.374 6.63842 107.418 6.67957 107.508 6.67957H109.405C109.487 6.67957 109.528 6.63842 109.528 6.55614V3.91923C109.528 3.76214 109.607 3.68359 109.764 3.68359H110.717C110.874 3.68359 110.953 3.76214 110.953 3.91923V10.663C110.953 10.8201 110.874 10.8986 110.717 10.8986H109.764C109.607 10.8986 109.528 10.8201 109.528 10.663V8.03729C109.528 7.95501 109.487 7.91386 109.405 7.91386H107.508C107.418 7.91386 107.374 7.95501 107.374 8.03729V10.663C107.374 10.8201 107.295 10.8986 107.138 10.8986ZM114.377 9.66432H115.174C115.413 9.66432 115.582 9.6157 115.679 9.51845C115.784 9.41372 115.836 9.24167 115.836 9.00229V5.57992C115.836 5.34054 115.784 5.17223 115.679 5.07498C115.582 4.97025 115.413 4.91789 115.174 4.91789H114.377C114.138 4.91789 113.97 4.97025 113.872 5.07498C113.775 5.17223 113.727 5.34054 113.727 5.57992V9.00229C113.727 9.24167 113.775 9.41372 113.872 9.51845C113.97 9.6157 114.138 9.66432 114.377 9.66432ZM115.41 10.8986H114.153C113.562 10.8986 113.106 10.7415 112.784 10.4274C112.462 10.1132 112.301 9.66058 112.301 9.06961V5.5126C112.301 4.92163 112.462 4.46906 112.784 4.15487C113.106 3.84069 113.562 3.68359 114.153 3.68359H115.41C116.001 3.68359 116.457 3.84069 116.779 4.15487C117.1 4.46906 117.261 4.92163 117.261 5.5126V9.06961C117.261 9.66058 117.1 10.1132 116.779 10.4274C116.457 10.7415 116.001 10.8986 115.41 10.8986ZM121.534 10.8986H120.344C119.753 10.8986 119.297 10.7415 118.975 10.4274C118.654 10.1132 118.493 9.66058 118.493 9.06961V5.5126C118.493 4.92163 118.654 4.46906 118.975 4.15487C119.297 3.84069 119.753 3.68359 120.344 3.68359H121.534C122.117 3.68359 122.57 3.84443 122.891 4.16609C123.213 4.48028 123.374 4.92911 123.374 5.5126V5.84922C123.374 6.0138 123.295 6.09608 123.138 6.09608H122.184C122.027 6.09608 121.949 6.0138 121.949 5.84922V5.57992C121.949 5.34054 121.9 5.17223 121.803 5.07498C121.706 4.97025 121.537 4.91789 121.298 4.91789H120.569C120.337 4.91789 120.168 4.97025 120.064 5.07498C119.966 5.17223 119.918 5.34054 119.918 5.57992V9.00229C119.918 9.24167 119.966 9.41372 120.064 9.51845C120.168 9.6157 120.337 9.66432 120.569 9.66432H121.298C121.537 9.66432 121.706 9.6157 121.803 9.51845C121.9 9.41372 121.949 9.24167 121.949 9.00229V8.29537C121.949 8.21309 121.908 8.17194 121.825 8.17194H121.152C120.995 8.17194 120.916 8.0934 120.916 7.93631V7.17329C120.916 7.01619 120.995 6.93765 121.152 6.93765H123.116C123.288 6.93765 123.374 7.02367 123.374 7.19573V9.06961C123.374 9.6531 123.213 10.1057 122.891 10.4274C122.57 10.7415 122.117 10.8986 121.534 10.8986ZM128.624 10.8986H124.955C124.798 10.8986 124.719 10.8201 124.719 10.663V3.91923C124.719 3.76214 124.798 3.68359 124.955 3.68359H128.624C128.774 3.68359 128.849 3.76214 128.849 3.91923V4.68225C128.849 4.83934 128.774 4.91789 128.624 4.91789H126.279C126.189 4.91789 126.144 4.95903 126.144 5.04132V6.50003C126.144 6.58232 126.189 6.62346 126.279 6.62346H128.198C128.355 6.62346 128.433 6.70201 128.433 6.8591V7.62212C128.433 7.77921 128.355 7.85776 128.198 7.85776H126.279C126.189 7.85776 126.144 7.8989 126.144 7.98119V9.54089C126.144 9.62318 126.189 9.66432 126.279 9.66432H128.624C128.774 9.66432 128.849 9.74287 128.849 9.89996V10.663C128.849 10.8201 128.774 10.8986 128.624 10.8986ZM131.256 10.8986H130.324C130.167 10.8986 130.089 10.8201 130.089 10.663V3.91923C130.089 3.76214 130.167 3.68359 130.324 3.68359H131.166C131.323 3.68359 131.428 3.73596 131.48 3.84069L133.747 8.0934H133.792V3.91923C133.792 3.76214 133.87 3.68359 134.027 3.68359H134.959C135.116 3.68359 135.194 3.76214 135.194 3.91923V10.663C135.194 10.8201 135.116 10.8986 134.959 10.8986H134.139C133.975 10.8986 133.855 10.8238 133.78 10.6742L131.536 6.50003H131.491V10.663C131.491 10.8201 131.413 10.8986 131.256 10.8986Z" fill="#111322"/>
<path d="M117.797 20.6431H118.538C119.039 20.6431 119.327 20.4187 119.402 19.9698L117.64 17.9164C117.101 17.9463 116.832 18.2792 116.832 18.9151V19.7005C116.832 20.3289 117.154 20.6431 117.797 20.6431ZM118.538 21.3725H117.696C117.18 21.3725 116.776 21.2303 116.484 20.9461C116.192 20.6543 116.047 20.2504 116.047 19.7342V18.8702C116.047 18.4962 116.144 18.1708 116.338 17.894C116.533 17.6097 116.825 17.4564 117.214 17.4339C116.885 17.0375 116.72 16.5998 116.72 16.1211V15.7957C116.72 15.2795 116.873 14.8793 117.18 14.595C117.487 14.3033 117.898 14.1574 118.414 14.1574H118.717C119.233 14.1574 119.637 14.3033 119.929 14.595C120.221 14.8793 120.367 15.2795 120.367 15.7957V16.267C120.367 16.3792 120.318 16.4353 120.221 16.4353H119.716C119.611 16.4353 119.559 16.3792 119.559 16.267V15.8069C119.559 15.1711 119.26 14.8531 118.661 14.8531H118.482C117.861 14.8531 117.55 15.1711 117.55 15.8069V16.1323C117.55 16.4989 117.715 16.8654 118.044 17.232L118.695 17.9838H121.32C121.433 17.9838 121.489 18.0361 121.489 18.1408V18.556C121.489 18.6533 121.433 18.7019 121.32 18.7019H119.301L121.478 21.249C121.5 21.2715 121.507 21.2977 121.5 21.3276C121.493 21.3575 121.47 21.3725 121.433 21.3725H120.782C120.677 21.3725 120.591 21.3351 120.524 21.2602L119.918 20.5533C119.731 21.0994 119.271 21.3725 118.538 21.3725ZM47.9313 20.4969H49.8164C50.4448 20.4969 50.759 20.1715 50.759 19.5207V15.6944C50.759 15.0436 50.4448 14.7182 49.8164 14.7182H47.9313C47.8565 14.7182 47.8191 14.7518 47.8191 14.8192V20.3959C47.8191 20.4633 47.8565 20.4969 47.9313 20.4969ZM47 21.058V14.1571C47 14.0524 47.0524 14 47.1571 14H49.9174C50.4336 14 50.8375 14.1496 51.1293 14.4489C51.4285 14.7406 51.5781 15.1446 51.5781 15.6607V19.5544C51.5781 20.0705 51.4285 20.4782 51.1293 20.7774C50.8375 21.0692 50.4336 21.2151 49.9174 21.2151H47.1571C47.0524 21.2151 47 21.1627 47 21.058ZM53.3248 21.2151H52.7637C52.6665 21.2151 52.6328 21.1627 52.6628 21.058L54.7611 14.1571C54.791 14.0524 54.8621 14 54.9743 14H55.7822C55.8944 14 55.9654 14.0524 55.9954 14.1571L58.0937 21.058C58.1236 21.1627 58.0899 21.2151 57.9927 21.2151H57.4204C57.3381 21.2151 57.2858 21.1627 57.2633 21.058L56.7359 19.4197H54.0205L53.4931 21.058C53.4632 21.1627 53.4071 21.2151 53.3248 21.2151ZM55.3558 14.8416L54.2 18.724H56.5564L55.4007 14.8416H55.3558ZM61.0564 21.2151H60.5515C60.4467 21.2151 60.3944 21.1627 60.3944 21.058V14.8192C60.3944 14.7518 60.357 14.7182 60.2822 14.7182H58.7561C58.6439 14.7182 58.5878 14.6658 58.5878 14.5611V14.1571C58.5878 14.0524 58.6439 14 58.7561 14H62.8518C62.964 14 63.0201 14.0524 63.0201 14.1571V14.5611C63.0201 14.6658 62.964 14.7182 62.8518 14.7182H61.3257C61.2509 14.7182 61.2135 14.7518 61.2135 14.8192V21.058C61.2135 21.1627 61.1611 21.2151 61.0564 21.2151ZM64.1731 21.2151H63.6121C63.5148 21.2151 63.4811 21.1627 63.5111 21.058L65.6094 14.1571C65.6393 14.0524 65.7104 14 65.8226 14H66.6305C66.7427 14 66.8137 14.0524 66.8437 14.1571L68.942 21.058C68.9719 21.1627 68.9382 21.2151 68.841 21.2151H68.2687C68.1864 21.2151 68.1341 21.1627 68.1116 21.058L67.5842 19.4197H64.8688L64.3414 21.058C64.3115 21.1627 64.2554 21.2151 64.1731 21.2151ZM66.2041 14.8416L65.0483 18.724H67.4047L66.249 14.8416H66.2041ZM72.9135 19.5544V19.1953C72.9135 19.0906 72.9659 19.0382 73.0706 19.0382H73.5756C73.6803 19.0382 73.7327 19.0906 73.7327 19.1953V19.487C73.7327 20.1603 74.0656 20.4969 74.7313 20.4969H75.7188C76.3845 20.4969 76.7174 20.1528 76.7174 19.4646V19.0831C76.7174 18.5445 76.2723 18.1929 75.3821 18.0283C75.0081 17.961 74.6341 17.8825 74.2601 17.7927C73.886 17.7029 73.5681 17.5309 73.3063 17.2765C73.0445 17.0147 72.9135 16.6594 72.9135 16.2105V15.6607C72.9135 15.1446 73.0594 14.7406 73.3512 14.4489C73.6504 14.1496 74.0581 14 74.5742 14H75.8198C76.3284 14 76.7324 14.1496 77.0316 14.4489C77.3308 14.7406 77.4804 15.1446 77.4804 15.6607V15.9412C77.4804 16.0535 77.4318 16.1096 77.3346 16.1096H76.8184C76.7212 16.1096 76.6725 16.0535 76.6725 15.9412V15.7393C76.6725 15.0585 76.3397 14.7182 75.6739 14.7182H74.7201C74.0543 14.7182 73.7214 15.0735 73.7214 15.7842V16.233C73.7214 16.6145 73.972 16.8763 74.4732 17.0184C74.6977 17.0783 74.9445 17.1344 75.2138 17.1868C75.4831 17.2316 75.7524 17.2952 76.0217 17.3775C76.2985 17.4523 76.5491 17.5496 76.7735 17.6693C76.9979 17.7815 77.1775 17.9573 77.3121 18.1966C77.4543 18.4285 77.5253 18.7128 77.5253 19.0494V19.5544C77.5253 20.0705 77.3757 20.4782 77.0765 20.7774C76.7773 21.0692 76.3733 21.2151 75.8646 21.2151H74.5742C74.0656 21.2151 73.6616 21.0692 73.3624 20.7774C73.0632 20.4782 72.9135 20.0705 72.9135 19.5544ZM79.8782 21.2151H79.3733C79.2685 21.2151 79.2162 21.1627 79.2162 21.058V14.1571C79.2162 14.0524 79.2685 14 79.3733 14H79.8782C79.9829 14 80.0353 14.0524 80.0353 14.1571V17.1082C80.0353 17.1755 80.0727 17.2092 80.1475 17.2092H82.9303C83.0051 17.2092 83.0425 17.1755 83.0425 17.1082V14.1571C83.0425 14.0524 83.0949 14 83.1996 14H83.7045C83.8093 14 83.8616 14.0524 83.8616 14.1571V21.058C83.8616 21.1627 83.8093 21.2151 83.7045 21.2151H83.1996C83.0949 21.2151 83.0425 21.1627 83.0425 21.058V18.0283C83.0425 17.961 83.0051 17.9273 82.9303 17.9273H80.1475C80.0727 17.9273 80.0353 17.961 80.0353 18.0283V21.058C80.0353 21.1627 79.9829 21.2151 79.8782 21.2151ZM85.7273 21.2151H85.1662C85.069 21.2151 85.0353 21.1627 85.0652 21.058L87.1635 14.1571C87.1935 14.0524 87.2645 14 87.3767 14H88.1846C88.2968 14 88.3679 14.0524 88.3978 14.1571L90.4959 21.058C90.5259 21.1627 90.4919 21.2151 90.3949 21.2151H89.8229C89.7406 21.2151 89.6882 21.1627 89.6658 21.058L89.1384 19.4197H86.423L85.8956 21.058C85.8657 21.1627 85.8095 21.2151 85.7273 21.2151ZM87.7582 14.8416L86.6025 18.724H88.9589L87.8031 14.8416H87.7582ZM92.3589 21.2151H91.8539C91.7499 21.2151 91.6969 21.1627 91.6969 21.058V14.1571C91.6969 14.0524 91.7499 14 91.8539 14H94.4349C94.9509 14 95.3589 14.1496 95.6579 14.4489C95.9569 14.7406 96.1069 15.1446 96.1069 15.6607V16.6818C96.1069 17.1007 96.0059 17.4486 95.8039 17.7254C95.6019 17.9947 95.3219 18.1742 94.9629 18.264V18.3088L96.2639 21.0355C96.3319 21.1552 96.2939 21.2151 96.1519 21.2151H95.6469C95.5199 21.2151 95.4259 21.1627 95.3669 21.058L94.1099 18.3425H92.6289C92.5539 18.3425 92.5159 18.3762 92.5159 18.4435V21.058C92.5159 21.1627 92.4639 21.2151 92.3589 21.2151ZM92.6289 17.658H94.3229C94.9659 17.658 95.2879 17.3364 95.2879 16.693V15.6944C95.2879 15.0436 94.9659 14.7182 94.3229 14.7182H92.6289C92.5539 14.7182 92.5159 14.7518 92.5159 14.8192V17.5571C92.5159 17.6244 92.5539 17.658 92.6289 17.658ZM98.5989 14.1571V21.058C98.5989 21.1627 98.5469 21.2151 98.4419 21.2151H97.9369C97.8329 21.2151 97.7799 21.1627 97.7799 21.058V14.1571C97.7799 14.0524 97.8329 14 97.9369 14H98.4419C98.5469 14 98.5989 14.0524 98.5989 14.1571ZM101.082 21.2151H100.588C100.483 21.2151 100.431 21.1627 100.431 21.058V14.1571C100.431 14.0524 100.483 14 100.588 14H101.048C101.138 14 101.197 14.03 101.227 14.0898L104.324 19.5319H104.369V14.1571C104.369 14.0524 104.422 14 104.526 14H105.02C105.125 14 105.177 14.0524 105.177 14.1571V21.058C105.177 21.1627 105.125 21.2151 105.02 21.2151H104.605C104.523 21.2151 104.444 21.1664 104.369 21.0692L101.284 15.6832H101.239V21.058C101.239 21.1627 101.186 21.2151 101.082 21.2151ZM109.711 21.2151H108.499C107.983 21.2151 107.575 21.0692 107.276 20.7774C106.984 20.4857 106.838 20.078 106.838 19.5544V15.6607C106.838 15.1371 106.984 14.7294 107.276 14.4376C107.575 14.1459 107.983 14 108.499 14H109.711C110.227 14 110.631 14.1496 110.923 14.4489C111.215 14.7406 111.36 15.1446 111.36 15.6607V16.1208C111.36 16.233 111.308 16.2891 111.203 16.2891H110.698C110.594 16.2891 110.541 16.233 110.541 16.1208V15.6944C110.541 15.0436 110.231 14.7182 109.61 14.7182H108.589C107.968 14.7182 107.658 15.0436 107.658 15.6944V19.5207C107.658 20.1715 107.968 20.4969 108.589 20.4969H109.61C110.231 20.4969 110.541 20.1715 110.541 19.5207V18.264C110.541 18.1892 110.508 18.1518 110.44 18.1518H109.33C109.225 18.1518 109.172 18.1031 109.172 18.0059V17.5907C109.172 17.486 109.225 17.4336 109.33 17.4336H111.136C111.286 17.4336 111.36 17.5122 111.36 17.6693V19.5544C111.36 20.078 111.215 20.4857 110.923 20.7774C110.631 21.0692 110.227 21.2151 109.711 21.2151Z" fill="#111322"/>
<path d="M47.2859 32.5548H46.7248C46.6276 32.5548 46.5939 32.5024 46.6239 32.3977L48.7222 25.4969C48.7521 25.3921 48.8231 25.3398 48.9354 25.3398H49.7433C49.8555 25.3398 49.9265 25.3921 49.9565 25.4969L52.0548 32.3977C52.0847 32.5024 52.051 32.5548 51.9538 32.5548H51.3815C51.2992 32.5548 51.2469 32.5024 51.2244 32.3977L50.697 30.7594H47.9816L47.4542 32.3977C47.4243 32.5024 47.3682 32.5548 47.2859 32.5548ZM49.3169 26.1813L48.1611 30.0638H50.5175L49.3617 26.1813H49.3169ZM53.9179 32.5548H53.4129C53.3082 32.5548 53.2558 32.5024 53.2558 32.3977V25.4969C53.2558 25.3921 53.3082 25.3398 53.4129 25.3398H55.9937C56.5099 25.3398 56.9176 25.4894 57.2168 25.7886C57.516 26.0803 57.6656 26.4843 57.6656 27.0005V28.0216C57.6656 28.4405 57.5646 28.7883 57.3627 29.0651C57.1607 29.3344 56.8802 29.5139 56.5211 29.6037V29.6486L57.8227 32.3753C57.8901 32.4949 57.8526 32.5548 57.7105 32.5548H57.2056C57.0784 32.5548 56.9849 32.5024 56.9251 32.3977L55.6683 29.6822H54.1872C54.1124 29.6822 54.075 29.7159 54.075 29.7832V32.3977C54.075 32.5024 54.0226 32.5548 53.9179 32.5548ZM54.1872 28.9978H55.8815C56.5248 28.9978 56.8465 28.6761 56.8465 28.0328V27.0341C56.8465 26.3833 56.5248 26.0579 55.8815 26.0579H54.1872C54.1124 26.0579 54.075 26.0916 54.075 26.1589V28.8968C54.075 28.9641 54.1124 28.9978 54.1872 28.9978ZM62.1777 32.5548H60.8311C60.315 32.5548 59.9073 32.4089 59.6081 32.1172C59.3163 31.8254 59.1705 31.4177 59.1705 30.8941V27.0005C59.1705 26.4768 59.3163 26.0691 59.6081 25.7774C59.9073 25.4856 60.315 25.3398 60.8311 25.3398H62.1777C62.6938 25.3398 63.0978 25.4856 63.3895 25.7774C63.6887 26.0691 63.8383 26.4768 63.8383 27.0005V27.5503C63.8383 27.655 63.786 27.7074 63.6813 27.7074H63.1763C63.0716 27.7074 63.0192 27.655 63.0192 27.5503V27.0341C63.0192 26.3833 62.705 26.0579 62.0767 26.0579H60.9209C60.3 26.0579 59.9896 26.3833 59.9896 27.0341V30.8604C59.9896 31.5112 60.3 31.8367 60.9209 31.8367H62.0767C62.705 31.8367 63.0192 31.5112 63.0192 30.8604V30.3443C63.0192 30.2395 63.0716 30.1872 63.1763 30.1872H63.6813C63.786 30.1872 63.8383 30.2395 63.8383 30.3443V30.8941C63.8383 31.4177 63.6887 31.8254 63.3895 32.1172C63.0978 32.4089 62.6938 32.5548 62.1777 32.5548ZM66.0154 32.5548H65.5104C65.4057 32.5548 65.3533 32.5024 65.3533 32.3977V25.4969C65.3533 25.3921 65.4057 25.3398 65.5104 25.3398H66.0154C66.1201 25.3398 66.1725 25.3921 66.1725 25.4969V28.4479C66.1725 28.5153 66.2099 28.5489 66.2847 28.5489H69.0674C69.1423 28.5489 69.1797 28.5153 69.1797 28.4479V25.4969C69.1797 25.3921 69.232 25.3398 69.3367 25.3398H69.8417C69.9464 25.3398 69.9988 25.3921 69.9988 25.4969V32.3977C69.9988 32.5024 69.9464 32.5548 69.8417 32.5548H69.3367C69.232 32.5548 69.1797 32.5024 69.1797 32.3977V29.3681C69.1797 29.3007 69.1423 29.2671 69.0674 29.2671H66.2847C66.2099 29.2671 66.1725 29.3007 66.1725 29.3681V32.3977C66.1725 32.5024 66.1201 32.5548 66.0154 32.5548ZM72.6499 25.4969V32.3977C72.6499 32.5024 72.5975 32.5548 72.4928 32.5548H71.9879C71.8831 32.5548 71.8308 32.5024 71.8308 32.3977V25.4969C71.8308 25.3921 71.8831 25.3398 71.9879 25.3398H72.4928C72.5975 25.3398 72.6499 25.3921 72.6499 25.4969ZM76.8376 32.5548H76.041C75.9437 32.5548 75.8801 32.5024 75.8502 32.3977L73.8641 25.5081C73.8417 25.3959 73.8903 25.3398 74.01 25.3398H74.5598C74.6571 25.3398 74.7169 25.3921 74.7393 25.4969L76.4112 31.6347H76.4561L78.128 25.4969C78.1505 25.3921 78.2103 25.3398 78.3076 25.3398H78.8686C78.9808 25.3398 79.0257 25.3959 79.0033 25.5081L77.0172 32.3977C76.9873 32.5024 76.9274 32.5548 76.8376 32.5548ZM83.8379 32.5548H80.3145C80.2098 32.5548 80.1574 32.5024 80.1574 32.3977V25.4969C80.1574 25.3921 80.2098 25.3398 80.3145 25.3398H83.8379C83.9426 25.3398 83.995 25.3921 83.995 25.4969V25.9008C83.995 26.0055 83.9426 26.0579 83.8379 26.0579H81.0888C81.014 26.0579 80.9766 26.0916 80.9766 26.1589V28.4255C80.9766 28.4928 81.014 28.5265 81.0888 28.5265H83.49C83.5948 28.5265 83.6471 28.5789 83.6471 28.6836V29.0875C83.6471 29.1923 83.5948 29.2446 83.49 29.2446H81.0888C81.014 29.2446 80.9766 29.2783 80.9766 29.3456V31.7357C80.9766 31.803 81.014 31.8367 81.0888 31.8367H83.8379C83.9426 31.8367 83.995 31.889 83.995 31.9937V32.3977C83.995 32.5024 83.9426 32.5548 83.8379 32.5548Z" fill="#111322"/>
<defs>
<filter id="filter0_dd_2101_4522" x="0" y="0.226562" width="38" height="38" filterUnits="userSpaceOnUse" color-interpolation-filters="sRGB">
<feFlood flood-opacity="0" result="BackgroundImageFix"/>
<feColorMatrix in="SourceAlpha" type="matrix" values="0 0 0 0 0 0 0 0 0 0 0 0 0 0 0 0 0 0 127 0" result="hardAlpha"/>
<feOffset dy="1"/>
<feGaussianBlur stdDeviation="1"/>
<feColorMatrix type="matrix" values="0 0 0 0 0.0627451 0 0 0 0 0.0941176 0 0 0 0 0.156863 0 0 0 0.06 0"/>
<feBlend mode="normal" in2="BackgroundImageFix" result="effect1_dropShadow_2101_4522"/>
<feColorMatrix in="SourceAlpha" type="matrix" values="0 0 0 0 0 0 0 0 0 0 0 0 0 0 0 0 0 0 127 0" result="hardAlpha"/>
<feOffset dy="1"/>
<feGaussianBlur stdDeviation="1.5"/>
<feColorMatrix type="matrix" values="0 0 0 0 0.0627451 0 0 0 0 0.0941176 0 0 0 0 0.156863 0 0 0 0.1 0"/>
<feBlend mode="normal" in2="effect1_dropShadow_2101_4522" result="effect2_dropShadow_2101_4522"/>
<feBlend mode="normal" in="SourceGraphic" in2="effect2_dropShadow_2101_4522" result="shape"/>
</filter>
</defs>
</svg>
