<svg width="136" height="38" viewBox="0 0 136 38" fill="none" xmlns="http://www.w3.org/2000/svg">
<g filter="url(#filter0_dd_2119_4528)">
<g clip-path="url(#clip0_2119_4528)">
<mask id="mask0_2119_4528" style="mask-type:luminance" maskUnits="userSpaceOnUse" x="105" y="7" width="24" height="3">
<path d="M105.701 7.8291H128.298V9.00468H105.701V7.8291Z" fill="white"/>
</mask>
<g mask="url(#mask0_2119_4528)">
<mask id="mask1_2119_4528" style="mask-type:luminance" maskUnits="userSpaceOnUse" x="105" y="5" width="24" height="25">
<path d="M112.729 5.48633C112.615 5.48684 112.514 5.50419 112.433 5.54807C111.85 5.74655 110.897 5.95779 110.897 5.95779C110.897 5.95779 110.527 5.7991 109.785 6.16953C109.045 6.69916 108.886 6.85784 108.886 6.85784C108.886 6.85784 108.621 8.07577 107.827 8.07577C107.351 8.7105 106.292 10.0871 106.027 11.0397C105.497 12.4158 105.709 13.7394 106.292 14.5333C107.139 15.6982 107.88 16.81 109.679 16.4921C111.532 16.0686 111.691 16.0155 112.062 16.0155C112.644 16.0686 113.438 16.6508 113.438 16.6508C114.02 16.6508 114.338 16.8625 114.338 16.8625C114.338 16.8625 114.073 18.3978 114.179 18.6096C114.338 18.8744 115.29 19.1785 115.343 20.3229C115.396 21.4679 115.714 22.1032 115.714 22.1032C115.714 22.1032 115.661 22.7384 115.185 23.2675C114.708 23.7971 115.502 25.1732 115.82 25.4911C116.032 26.0733 116.243 26.9733 116.297 27.4499C116.85 27.979 116.85 28.2438 117.197 29.4612C117.197 29.4612 117.408 30.0965 118.413 29.6199C119.631 29.4612 119.949 29.6199 120.531 28.7729C121.484 27.7673 121.749 27.6617 121.802 27.132C122.225 26.3912 122.755 26.1794 122.755 26.1794C122.755 25.5437 122.808 24.9089 122.49 24.7502C123.495 24.2737 124.289 23.7441 124.66 23.5323C124.766 22.7384 124.607 20.6607 124.289 20.3229C123.972 19.7739 124.025 19.9857 124.739 19.1387C125.613 18.133 126.883 16.7569 126.883 16.7569C126.883 16.7569 127.254 16.1217 127.36 15.4864C128.101 14.6925 128.881 13.2633 127.406 13.7394C126.778 14.0042 126.248 14.4108 125.718 14.0042C125.507 13.3159 125.031 13.0516 124.607 13.0516C123.76 11.8867 123.125 11.0397 123.125 11.0397C123.125 11.0397 123.585 10.2989 122.72 9.71669C122.119 8.92225 122.119 8.86919 122.119 8.86919C122.119 8.86919 122.648 6.96397 120.69 7.3344C119.367 7.28133 117.876 6.9109 117.514 7.54615C117.152 7.86402 116.614 7.77728 116.35 7.13235C115.873 6.85784 115.132 7.11449 115.132 7.11449C115.132 7.11449 114.512 6.75222 114.814 6.32873C115.116 5.74655 115.026 5.48174 114.285 5.64042C113.971 5.66287 113.659 5.6144 113.373 5.56592C113.141 5.52715 112.928 5.48735 112.748 5.48633H112.729Z" fill="white"/>
</mask>
<g mask="url(#mask1_2119_4528)">
<path d="M104.373 7.86914L104.386 8.94267H129.159L129.146 7.86914H104.373Z" fill="#B3A168"/>
</g>
</g>
<mask id="mask2_2119_4528" style="mask-type:luminance" maskUnits="userSpaceOnUse" x="111" y="7" width="9" height="3">
<path d="M111.84 7.8291H119.938V9.00468H111.84V7.8291Z" fill="white"/>
</mask>
<g mask="url(#mask2_2119_4528)">
<mask id="mask3_2119_4528" style="mask-type:luminance" maskUnits="userSpaceOnUse" x="107" y="7" width="16" height="2">
<path d="M108.345 7.86914C108.205 7.99211 108.034 8.07579 107.826 8.07579C107.663 8.29315 107.431 8.59776 107.187 8.94267H122.159C122.118 8.87839 122.118 8.8692 122.118 8.8692C122.118 8.8692 122.271 8.3207 122.109 7.86914H108.345Z" fill="white"/>
</mask>
<g mask="url(#mask3_2119_4528)">
<path d="M112.51 7.61816L111.864 9.2453H119.199L119.864 7.61816H112.51Z" fill="#231F20"/>
</g>
</g>
<mask id="mask4_2119_4528" style="mask-type:luminance" maskUnits="userSpaceOnUse" x="105" y="6" width="20" height="2">
<path d="M105.701 6.26172H124.38V7.4373H105.701V6.26172Z" fill="white"/>
</mask>
<g mask="url(#mask4_2119_4528)">
<mask id="mask5_2119_4528" style="mask-type:luminance" maskUnits="userSpaceOnUse" x="105" y="5" width="24" height="25">
<path d="M112.729 5.48633C112.615 5.48684 112.514 5.50419 112.433 5.54807C111.85 5.74655 110.897 5.95779 110.897 5.95779C110.897 5.95779 110.527 5.7991 109.785 6.16953C109.045 6.69916 108.886 6.85784 108.886 6.85784C108.886 6.85784 108.621 8.07577 107.827 8.07577C107.351 8.7105 106.292 10.0871 106.027 11.0397C105.497 12.4158 105.709 13.7394 106.292 14.5333C107.139 15.6982 107.88 16.81 109.679 16.4921C111.532 16.0686 111.691 16.0155 112.062 16.0155C112.644 16.0686 113.438 16.6508 113.438 16.6508C114.02 16.6508 114.338 16.8625 114.338 16.8625C114.338 16.8625 114.073 18.3978 114.179 18.6096C114.338 18.8744 115.29 19.1785 115.343 20.3229C115.396 21.4679 115.714 22.1032 115.714 22.1032C115.714 22.1032 115.661 22.7384 115.185 23.2675C114.708 23.7971 115.502 25.1732 115.82 25.4911C116.032 26.0733 116.243 26.9733 116.297 27.4499C116.85 27.979 116.85 28.2438 117.197 29.4612C117.197 29.4612 117.408 30.0965 118.413 29.6199C119.631 29.4612 119.949 29.6199 120.531 28.7729C121.484 27.7673 121.749 27.6617 121.802 27.132C122.225 26.3912 122.755 26.1794 122.755 26.1794C122.755 25.5437 122.808 24.9089 122.49 24.7502C123.495 24.2737 124.289 23.7441 124.66 23.5323C124.766 22.7384 124.607 20.6607 124.289 20.3229C123.972 19.7739 124.025 19.9857 124.739 19.1387C125.613 18.133 126.883 16.7569 126.883 16.7569C126.883 16.7569 127.254 16.1217 127.36 15.4864C128.101 14.6925 128.881 13.2633 127.406 13.7394C126.778 14.0042 126.248 14.4108 125.718 14.0042C125.507 13.3159 125.031 13.0516 124.607 13.0516C123.76 11.8867 123.125 11.0397 123.125 11.0397C123.125 11.0397 123.585 10.2989 122.72 9.71669C122.119 8.92225 122.119 8.86919 122.119 8.86919C122.119 8.86919 122.648 6.96397 120.69 7.3344C119.367 7.28133 117.876 6.9109 117.514 7.54615C117.152 7.86402 116.614 7.77728 116.35 7.13235C115.873 6.85784 115.132 7.11449 115.132 7.11449C115.132 7.11449 114.512 6.75222 114.814 6.32873C115.116 5.74655 115.026 5.48174 114.285 5.64042C113.971 5.66287 113.659 5.6144 113.373 5.56592C113.141 5.52715 112.928 5.48735 112.748 5.48633H112.729Z" fill="white"/>
</mask>
<g mask="url(#mask5_2119_4528)">
<path d="M104.386 6.27148V7.3588H124.048L124.339 6.27148H104.386Z" fill="#231F20"/>
</g>
</g>
<mask id="mask6_2119_4528" style="mask-type:luminance" maskUnits="userSpaceOnUse" x="108" y="6" width="4" height="2">
<path d="M108.705 6.26172H111.187V7.4373H108.705V6.26172Z" fill="white"/>
</mask>
<g mask="url(#mask6_2119_4528)">
<mask id="mask7_2119_4528" style="mask-type:luminance" maskUnits="userSpaceOnUse" x="108" y="6" width="14" height="2">
<path d="M109.643 6.27246C109.023 6.72045 108.886 6.85872 108.886 6.85872C108.886 6.85872 108.834 7.09547 108.708 7.35977H116.467C116.424 7.29395 116.384 7.21844 116.349 7.13323C115.873 6.85872 115.131 7.11537 115.131 7.11537C115.131 7.11537 114.511 6.7531 114.814 6.32961C114.824 6.30971 114.834 6.29083 114.843 6.27246H109.643ZM117.69 7.35977H121.611C121.392 7.27915 121.094 7.25875 120.69 7.33528C119.959 7.30569 119.176 7.17966 118.562 7.17966C118.197 7.17966 117.891 7.22405 117.69 7.35977Z" fill="white"/>
</mask>
<g mask="url(#mask7_2119_4528)">
<path d="M93.7173 5.61133L93.3643 7.57573H111.083V5.61133H93.7173Z" fill="#B3A168"/>
</g>
</g>
<mask id="mask8_2119_4528" style="mask-type:luminance" maskUnits="userSpaceOnUse" x="119" y="6" width="3" height="2">
<path d="M119.155 6.26172H121.637V7.4373H119.155V6.26172Z" fill="white"/>
</mask>
<g mask="url(#mask8_2119_4528)">
<mask id="mask9_2119_4528" style="mask-type:luminance" maskUnits="userSpaceOnUse" x="108" y="6" width="14" height="2">
<path d="M109.643 6.27148C109.023 6.71947 108.886 6.85774 108.886 6.85774C108.886 6.85774 108.834 7.09449 108.708 7.3588H116.467C116.424 7.29297 116.384 7.21746 116.349 7.13225C115.873 6.85774 115.131 7.11439 115.131 7.11439C115.131 7.11439 114.511 6.75213 114.814 6.32863C114.824 6.30873 114.834 6.28985 114.843 6.27148H109.643ZM117.69 7.3588H121.611C121.392 7.27818 121.094 7.25777 120.69 7.3343C119.959 7.30471 119.176 7.17868 118.562 7.17868C118.197 7.17868 117.891 7.22307 117.69 7.3588Z" fill="white"/>
</mask>
<g mask="url(#mask9_2119_4528)">
<path d="M119.558 5.9668L119.205 7.9312H136.924V5.9668H119.558Z" fill="#B3A168"/>
</g>
</g>
<mask id="mask10_2119_4528" style="mask-type:luminance" maskUnits="userSpaceOnUse" x="105" y="9" width="20" height="2">
<path d="M105.701 9.39648H124.119V10.5721H105.701V9.39648Z" fill="white"/>
</mask>
<g mask="url(#mask10_2119_4528)">
<mask id="mask11_2119_4528" style="mask-type:luminance" maskUnits="userSpaceOnUse" x="105" y="5" width="24" height="25">
<path d="M112.729 5.48633C112.615 5.48684 112.514 5.50419 112.433 5.54807C111.85 5.74655 110.897 5.95779 110.897 5.95779C110.897 5.95779 110.527 5.7991 109.785 6.16953C109.045 6.69916 108.886 6.85784 108.886 6.85784C108.886 6.85784 108.621 8.07577 107.827 8.07577C107.351 8.7105 106.292 10.0871 106.027 11.0397C105.497 12.4158 105.709 13.7394 106.292 14.5333C107.139 15.6982 107.88 16.81 109.679 16.4921C111.532 16.0686 111.691 16.0155 112.062 16.0155C112.644 16.0686 113.438 16.6508 113.438 16.6508C114.02 16.6508 114.338 16.8625 114.338 16.8625C114.338 16.8625 114.073 18.3978 114.179 18.6096C114.338 18.8744 115.29 19.1785 115.343 20.3229C115.396 21.4679 115.714 22.1032 115.714 22.1032C115.714 22.1032 115.661 22.7384 115.185 23.2675C114.708 23.7971 115.502 25.1732 115.82 25.4911C116.032 26.0733 116.243 26.9733 116.297 27.4499C116.85 27.979 116.85 28.2438 117.197 29.4612C117.197 29.4612 117.408 30.0965 118.413 29.6199C119.631 29.4612 119.949 29.6199 120.531 28.7729C121.484 27.7673 121.749 27.6617 121.802 27.132C122.225 26.3912 122.755 26.1794 122.755 26.1794C122.755 25.5437 122.808 24.9089 122.49 24.7502C123.495 24.2737 124.289 23.7441 124.66 23.5323C124.766 22.7384 124.607 20.6607 124.289 20.3229C123.972 19.7739 124.025 19.9857 124.739 19.1387C125.613 18.133 126.883 16.7569 126.883 16.7569C126.883 16.7569 127.254 16.1217 127.36 15.4864C128.101 14.6925 128.881 13.2633 127.406 13.7394C126.778 14.0042 126.248 14.4108 125.718 14.0042C125.507 13.3159 125.031 13.0516 124.607 13.0516C123.76 11.8867 123.125 11.0397 123.125 11.0397C123.125 11.0397 123.585 10.2989 122.72 9.71669C122.119 8.92225 122.119 8.86919 122.119 8.86919C122.119 8.86919 122.648 6.96397 120.69 7.3344C119.367 7.28133 117.876 6.9109 117.514 7.54615C117.152 7.86402 116.614 7.77728 116.35 7.13235C115.873 6.85784 115.132 7.11449 115.132 7.11449C115.132 7.11449 114.512 6.75222 114.814 6.32873C115.116 5.74655 115.026 5.48174 114.285 5.64042C113.971 5.66287 113.659 5.6144 113.373 5.56592C113.141 5.52715 112.928 5.48735 112.748 5.48633H112.729Z" fill="white"/>
</mask>
<g mask="url(#mask11_2119_4528)">
<path d="M104.386 10.5386H123.995V9.48242H104.386V10.5386Z" fill="#B3A168"/>
</g>
</g>
<mask id="mask12_2119_4528" style="mask-type:luminance" maskUnits="userSpaceOnUse" x="113" y="9" width="5" height="2">
<path d="M113.277 9.39648H117.327V10.5721H113.277V9.39648Z" fill="white"/>
</mask>
<g mask="url(#mask12_2119_4528)">
<mask id="mask13_2119_4528" style="mask-type:luminance" maskUnits="userSpaceOnUse" x="106" y="9" width="18" height="2">
<path d="M106.818 9.48242C106.59 9.83244 106.374 10.1973 106.217 10.5386H123.246C123.237 10.2901 123.121 9.98602 122.72 9.71662C122.654 9.62988 122.596 9.55232 122.544 9.48242H106.818Z" fill="white"/>
</mask>
<g mask="url(#mask13_2119_4528)">
<path d="M114.246 9.32422L113.293 10.7003L117.26 10.6738V9.32422H114.246Z" fill="#231F20"/>
</g>
</g>
<mask id="mask14_2119_4528" style="mask-type:luminance" maskUnits="userSpaceOnUse" x="105" y="12" width="24" height="2">
<path d="M105.701 12.6621H128.298V13.8377H105.701V12.6621Z" fill="white"/>
</mask>
<g mask="url(#mask14_2119_4528)">
<mask id="mask15_2119_4528" style="mask-type:luminance" maskUnits="userSpaceOnUse" x="105" y="5" width="24" height="25">
<path d="M112.729 5.48633C112.615 5.48684 112.514 5.50419 112.433 5.54807C111.85 5.74655 110.897 5.95779 110.897 5.95779C110.897 5.95779 110.527 5.7991 109.785 6.16953C109.045 6.69916 108.886 6.85784 108.886 6.85784C108.886 6.85784 108.621 8.07577 107.827 8.07577C107.351 8.7105 106.292 10.0871 106.027 11.0397C105.497 12.4158 105.709 13.7394 106.292 14.5333C107.139 15.6982 107.88 16.81 109.679 16.4921C111.532 16.0686 111.691 16.0155 112.062 16.0155C112.644 16.0686 113.438 16.6508 113.438 16.6508C114.02 16.6508 114.338 16.8625 114.338 16.8625C114.338 16.8625 114.073 18.3978 114.179 18.6096C114.338 18.8744 115.29 19.1785 115.343 20.3229C115.396 21.4679 115.714 22.1032 115.714 22.1032C115.714 22.1032 115.661 22.7384 115.185 23.2675C114.708 23.7971 115.502 25.1732 115.82 25.4911C116.032 26.0733 116.243 26.9733 116.297 27.4499C116.85 27.979 116.85 28.2438 117.197 29.4612C117.197 29.4612 117.408 30.0965 118.413 29.6199C119.631 29.4612 119.949 29.6199 120.531 28.7729C121.484 27.7673 121.749 27.6617 121.802 27.132C122.225 26.3912 122.755 26.1794 122.755 26.1794C122.755 25.5437 122.808 24.9089 122.49 24.7502C123.495 24.2737 124.289 23.7441 124.66 23.5323C124.766 22.7384 124.607 20.6607 124.289 20.3229C123.972 19.7739 124.025 19.9857 124.739 19.1387C125.613 18.133 126.883 16.7569 126.883 16.7569C126.883 16.7569 127.254 16.1217 127.36 15.4864C128.101 14.6925 128.881 13.2633 127.406 13.7394C126.778 14.0042 126.248 14.4108 125.718 14.0042C125.507 13.3159 125.031 13.0516 124.607 13.0516C123.76 11.8867 123.125 11.0397 123.125 11.0397C123.125 11.0397 123.585 10.2989 122.72 9.71669C122.119 8.92225 122.119 8.86919 122.119 8.86919C122.119 8.86919 122.648 6.96397 120.69 7.3344C119.367 7.28133 117.876 6.9109 117.514 7.54615C117.152 7.86402 116.614 7.77728 116.35 7.13235C115.873 6.85784 115.132 7.11449 115.132 7.11449C115.132 7.11449 114.512 6.75222 114.814 6.32873C115.116 5.74655 115.026 5.48174 114.285 5.64042C113.971 5.66287 113.659 5.6144 113.373 5.56592C113.141 5.52715 112.928 5.48735 112.748 5.48633H112.729Z" fill="white"/>
</mask>
<g mask="url(#mask15_2119_4528)">
<path d="M104.451 13.7712H129.225V12.6777H104.451V13.7712Z" fill="#319044"/>
</g>
</g>
<mask id="mask16_2119_4528" style="mask-type:luminance" maskUnits="userSpaceOnUse" x="110" y="12" width="7" height="2">
<path d="M110.665 12.6621H116.412V13.8377H110.665V12.6621Z" fill="white"/>
</mask>
<g mask="url(#mask16_2119_4528)">
<mask id="mask17_2119_4528" style="mask-type:luminance" maskUnits="userSpaceOnUse" x="105" y="12" width="24" height="2">
<path d="M105.724 12.6777C105.729 13.0721 105.793 13.4416 105.904 13.7712H125.63C125.392 13.2553 124.979 13.0517 124.607 13.0517C124.513 12.9226 124.422 12.7981 124.334 12.6777H105.724ZM127.405 13.7395C127.381 13.7502 127.356 13.7605 127.332 13.7712H128.196C128.145 13.6911 128.048 13.6446 127.893 13.6446C127.769 13.6446 127.609 13.6737 127.405 13.7395Z" fill="white"/>
</mask>
<g mask="url(#mask17_2119_4528)">
<path d="M112.03 16.8042C112.03 16.8042 111.964 13.18 116.315 11.7539L115.253 10.8574C115.253 10.8574 111.122 11.9881 110.736 17.0032C110.349 21.9856 112.03 16.8042 112.03 16.8042Z" fill="#00512C"/>
</g>
</g>
<mask id="mask18_2119_4528" style="mask-type:luminance" maskUnits="userSpaceOnUse" x="105" y="12" width="8" height="2">
<path d="M105.701 12.6621H112.755V13.8377H105.701V12.6621Z" fill="white"/>
</mask>
<g mask="url(#mask18_2119_4528)">
<mask id="mask19_2119_4528" style="mask-type:luminance" maskUnits="userSpaceOnUse" x="105" y="12" width="24" height="2">
<path d="M105.724 12.6777C105.729 13.0721 105.793 13.4416 105.904 13.7712H125.63C125.392 13.2553 124.979 13.0517 124.607 13.0517C124.513 12.9226 124.422 12.7981 124.334 12.6777H105.724ZM127.405 13.7395C127.381 13.7502 127.356 13.7605 127.332 13.7712H128.196C128.145 13.6911 128.048 13.6446 127.893 13.6446C127.769 13.6446 127.609 13.6737 127.405 13.7395Z" fill="white"/>
</mask>
<g mask="url(#mask19_2119_4528)">
<path d="M104.373 12.4883L104.403 17.2794L110.638 16.4824L112.631 12.4964L104.373 12.4883Z" fill="#B3A168"/>
</g>
</g>
<mask id="mask20_2119_4528" style="mask-type:luminance" maskUnits="userSpaceOnUse" x="119" y="12" width="10" height="2">
<path d="M119.155 12.6621H128.299V13.8377H119.155V12.6621Z" fill="white"/>
</mask>
<g mask="url(#mask20_2119_4528)">
<mask id="mask21_2119_4528" style="mask-type:luminance" maskUnits="userSpaceOnUse" x="105" y="12" width="24" height="2">
<path d="M105.724 12.6777C105.729 13.0721 105.793 13.4416 105.904 13.7712H125.63C125.392 13.2553 124.979 13.0517 124.607 13.0517C124.513 12.9226 124.422 12.7981 124.334 12.6777H105.724ZM127.405 13.7395C127.381 13.7502 127.356 13.7605 127.332 13.7712H128.196C128.145 13.6911 128.048 13.6446 127.893 13.6446C127.769 13.6446 127.609 13.6737 127.405 13.7395Z" fill="white"/>
</mask>
<g mask="url(#mask21_2119_4528)">
<path d="M119.163 14.1925H143.936V12.4883H119.163V14.1925Z" fill="#B3A168"/>
</g>
</g>
<mask id="mask22_2119_4528" style="mask-type:luminance" maskUnits="userSpaceOnUse" x="119" y="12" width="3" height="2">
<path d="M119.155 12.6621H121.768V13.8377H119.155V12.6621Z" fill="white"/>
</mask>
<g mask="url(#mask22_2119_4528)">
<mask id="mask23_2119_4528" style="mask-type:luminance" maskUnits="userSpaceOnUse" x="119" y="12" width="10" height="2">
<path d="M119.163 12.6777V13.7712H125.63C125.392 13.2553 124.979 13.0517 124.607 13.0517C124.514 12.9226 124.423 12.7981 124.335 12.6777H119.163ZM127.406 13.7395C127.381 13.7502 127.357 13.7605 127.332 13.7712H128.197C128.146 13.6911 128.048 13.6446 127.893 13.6446C127.769 13.6446 127.609 13.6737 127.406 13.7395Z" fill="white"/>
</mask>
<g mask="url(#mask23_2119_4528)">
<path d="M116.847 10.1602C116.847 10.1602 121.763 12.3526 121.763 16.6039C121.763 20.8552 114.124 23.114 114.124 23.114L116.847 10.1602Z" fill="#7D7246"/>
</g>
</g>
<mask id="mask24_2119_4528" style="mask-type:luminance" maskUnits="userSpaceOnUse" x="105" y="11" width="24" height="2">
<path d="M105.701 11.0947H128.298V12.2703H105.701V11.0947Z" fill="white"/>
</mask>
<g mask="url(#mask24_2119_4528)">
<mask id="mask25_2119_4528" style="mask-type:luminance" maskUnits="userSpaceOnUse" x="105" y="5" width="24" height="25">
<path d="M112.729 5.48633C112.615 5.48684 112.514 5.50419 112.433 5.54807C111.85 5.74655 110.897 5.95779 110.897 5.95779C110.897 5.95779 110.527 5.7991 109.785 6.16953C109.045 6.69916 108.886 6.85784 108.886 6.85784C108.886 6.85784 108.621 8.07577 107.827 8.07577C107.351 8.7105 106.292 10.0871 106.027 11.0397C105.497 12.4158 105.709 13.7394 106.292 14.5333C107.139 15.6982 107.88 16.81 109.679 16.4921C111.532 16.0686 111.691 16.0155 112.062 16.0155C112.644 16.0686 113.438 16.6508 113.438 16.6508C114.02 16.6508 114.338 16.8625 114.338 16.8625C114.338 16.8625 114.073 18.3978 114.179 18.6096C114.338 18.8744 115.29 19.1785 115.343 20.3229C115.396 21.4679 115.714 22.1032 115.714 22.1032C115.714 22.1032 115.661 22.7384 115.185 23.2675C114.708 23.7971 115.502 25.1732 115.82 25.4911C116.032 26.0733 116.243 26.9733 116.297 27.4499C116.85 27.979 116.85 28.2438 117.197 29.4612C117.197 29.4612 117.408 30.0965 118.413 29.6199C119.631 29.4612 119.949 29.6199 120.531 28.7729C121.484 27.7673 121.749 27.6617 121.802 27.132C122.225 26.3912 122.755 26.1794 122.755 26.1794C122.755 25.5437 122.808 24.9089 122.49 24.7502C123.495 24.2737 124.289 23.7441 124.66 23.5323C124.766 22.7384 124.607 20.6607 124.289 20.3229C123.972 19.7739 124.025 19.9857 124.739 19.1387C125.613 18.133 126.883 16.7569 126.883 16.7569C126.883 16.7569 127.254 16.1217 127.36 15.4864C128.101 14.6925 128.881 13.2633 127.406 13.7394C126.778 14.0042 126.248 14.4108 125.718 14.0042C125.507 13.3159 125.031 13.0516 124.607 13.0516C123.76 11.8867 123.125 11.0397 123.125 11.0397C123.125 11.0397 123.585 10.2989 122.72 9.71669C122.119 8.92225 122.119 8.86919 122.119 8.86919C122.119 8.86919 122.648 6.96397 120.69 7.3344C119.367 7.28133 117.876 6.9109 117.514 7.54615C117.152 7.86402 116.614 7.77728 116.35 7.13235C115.873 6.85784 115.132 7.11449 115.132 7.11449C115.132 7.11449 114.512 6.75222 114.814 6.32873C115.116 5.74655 115.026 5.48174 114.285 5.64042C113.971 5.66287 113.659 5.6144 113.373 5.56592C113.141 5.52715 112.928 5.48735 112.748 5.48633H112.729Z" fill="white"/>
</mask>
<g mask="url(#mask25_2119_4528)">
<path d="M104.373 11.1016L104.451 12.1547H129.224L129.146 11.1016H104.373Z" fill="#319044"/>
</g>
</g>
<mask id="mask26_2119_4528" style="mask-type:luminance" maskUnits="userSpaceOnUse" x="105" y="11" width="9" height="2">
<path d="M105.701 11.0947H113.669V12.2703H105.701V11.0947Z" fill="white"/>
</mask>
<g mask="url(#mask26_2119_4528)">
<mask id="mask27_2119_4528" style="mask-type:luminance" maskUnits="userSpaceOnUse" x="105" y="11" width="19" height="2">
<path d="M106.003 11.1016C105.871 11.4597 105.789 11.8139 105.75 12.1552H123.951C123.562 11.6271 123.278 11.2449 123.171 11.1016H106.003Z" fill="white"/>
</mask>
<g mask="url(#mask27_2119_4528)">
<path d="M103.841 10.916L103.871 12.5105H113.561L113.53 10.916H103.841Z" fill="#B3A168"/>
</g>
</g>
<mask id="mask28_2119_4528" style="mask-type:luminance" maskUnits="userSpaceOnUse" x="116" y="11" width="8" height="2">
<path d="M116.673 11.0947H123.988V12.2703H116.673V11.0947Z" fill="white"/>
</mask>
<g mask="url(#mask28_2119_4528)">
<mask id="mask29_2119_4528" style="mask-type:luminance" maskUnits="userSpaceOnUse" x="105" y="11" width="19" height="2">
<path d="M106.003 11.1016C105.871 11.4597 105.789 11.8139 105.75 12.1552H123.951C123.562 11.6271 123.278 11.2449 123.171 11.1016H106.003Z" fill="white"/>
</mask>
<g mask="url(#mask29_2119_4528)">
<path d="M116.738 10.8188L116.819 12.5158L140.619 12.4352L125.991 10.5361L116.738 10.8188Z" fill="#B3A168"/>
</g>
</g>
<mask id="mask30_2119_4528" style="mask-type:luminance" maskUnits="userSpaceOnUse" x="116" y="11" width="6" height="2">
<path d="M116.673 11.0947H121.767V12.2703H116.673V11.0947Z" fill="white"/>
</mask>
<g mask="url(#mask30_2119_4528)">
<mask id="mask31_2119_4528" style="mask-type:luminance" maskUnits="userSpaceOnUse" x="116" y="11" width="8" height="2">
<path d="M116.751 11.1016L116.801 12.1552H123.951C123.562 11.6271 123.277 11.2449 123.171 11.1016H116.751Z" fill="white"/>
</mask>
<g mask="url(#mask31_2119_4528)">
<path d="M116.846 10.1611C116.846 10.1611 121.762 12.3536 121.762 16.6049C121.762 20.8562 114.123 23.115 114.123 23.115L116.846 10.1611Z" fill="#7D7246"/>
</g>
</g>
<mask id="mask32_2119_4528" style="mask-type:luminance" maskUnits="userSpaceOnUse" x="110" y="11" width="7" height="2">
<path d="M110.665 11.0947H116.412V12.2703H110.665V11.0947Z" fill="white"/>
</mask>
<g mask="url(#mask32_2119_4528)">
<mask id="mask33_2119_4528" style="mask-type:luminance" maskUnits="userSpaceOnUse" x="105" y="11" width="19" height="2">
<path d="M106.003 11.1016C105.871 11.4597 105.789 11.8139 105.75 12.1552H123.951C123.562 11.6271 123.278 11.2449 123.171 11.1016H106.003Z" fill="white"/>
</mask>
<g mask="url(#mask33_2119_4528)">
<path d="M112.03 16.8042C112.03 16.8042 111.964 13.18 116.315 11.7539L115.253 10.8574C115.253 10.8574 111.122 11.9881 110.736 17.0032C110.349 21.9856 112.03 16.8042 112.03 16.8042Z" fill="#00512C"/>
</g>
</g>
<mask id="mask34_2119_4528" style="mask-type:luminance" maskUnits="userSpaceOnUse" x="105" y="14" width="24" height="2">
<path d="M105.701 14.2295H128.298V15.5357H105.701V14.2295Z" fill="white"/>
</mask>
<g mask="url(#mask34_2119_4528)">
<mask id="mask35_2119_4528" style="mask-type:luminance" maskUnits="userSpaceOnUse" x="105" y="5" width="24" height="25">
<path d="M112.729 5.48633C112.615 5.48684 112.514 5.50419 112.433 5.54807C111.85 5.74655 110.897 5.95779 110.897 5.95779C110.897 5.95779 110.527 5.7991 109.785 6.16953C109.045 6.69916 108.886 6.85784 108.886 6.85784C108.886 6.85784 108.621 8.07577 107.827 8.07577C107.351 8.7105 106.292 10.0871 106.027 11.0397C105.497 12.4158 105.709 13.7394 106.292 14.5333C107.139 15.6982 107.88 16.81 109.679 16.4921C111.532 16.0686 111.691 16.0155 112.062 16.0155C112.644 16.0686 113.438 16.6508 113.438 16.6508C114.02 16.6508 114.338 16.8625 114.338 16.8625C114.338 16.8625 114.073 18.3978 114.179 18.6096C114.338 18.8744 115.29 19.1785 115.343 20.3229C115.396 21.4679 115.714 22.1032 115.714 22.1032C115.714 22.1032 115.661 22.7384 115.185 23.2675C114.708 23.7971 115.502 25.1732 115.82 25.4911C116.032 26.0733 116.243 26.9733 116.297 27.4499C116.85 27.979 116.85 28.2438 117.197 29.4612C117.197 29.4612 117.408 30.0965 118.413 29.6199C119.631 29.4612 119.949 29.6199 120.531 28.7729C121.484 27.7673 121.749 27.6617 121.802 27.132C122.225 26.3912 122.755 26.1794 122.755 26.1794C122.755 25.5437 122.808 24.9089 122.49 24.7502C123.495 24.2737 124.289 23.7441 124.66 23.5323C124.766 22.7384 124.607 20.6607 124.289 20.3229C123.972 19.7739 124.025 19.9857 124.739 19.1387C125.613 18.133 126.883 16.7569 126.883 16.7569C126.883 16.7569 127.254 16.1217 127.36 15.4864C128.101 14.6925 128.881 13.2633 127.406 13.7394C126.778 14.0042 126.248 14.4108 125.718 14.0042C125.507 13.3159 125.031 13.0516 124.607 13.0516C123.76 11.8867 123.125 11.0397 123.125 11.0397C123.125 11.0397 123.585 10.2989 122.72 9.71669C122.119 8.92225 122.119 8.86919 122.119 8.86919C122.119 8.86919 122.648 6.96397 120.69 7.3344C119.367 7.28133 117.876 6.9109 117.514 7.54615C117.152 7.86402 116.614 7.77728 116.35 7.13235C115.873 6.85784 115.132 7.11449 115.132 7.11449C115.132 7.11449 114.512 6.75222 114.814 6.32873C115.116 5.74655 115.026 5.48174 114.285 5.64042C113.971 5.66287 113.659 5.6144 113.373 5.56592C113.141 5.52715 112.928 5.48735 112.748 5.48633H112.729Z" fill="white"/>
</mask>
<g mask="url(#mask35_2119_4528)">
<path d="M104.451 15.425H129.225V14.3418H104.451V15.425Z" fill="#319044"/>
</g>
</g>
<mask id="mask36_2119_4528" style="mask-type:luminance" maskUnits="userSpaceOnUse" x="106" y="14" width="6" height="2">
<path d="M106.093 14.2295H111.187V15.5357H106.093V14.2295Z" fill="white"/>
</mask>
<g mask="url(#mask36_2119_4528)">
<mask id="mask37_2119_4528" style="mask-type:luminance" maskUnits="userSpaceOnUse" x="106" y="14" width="23" height="2">
<path d="M106.164 14.3428C106.204 14.4091 106.246 14.4729 106.291 14.5336C106.516 14.8433 106.734 15.1495 106.966 15.4255H127.415C127.707 15.1015 127.995 14.6892 128.142 14.3428H106.164Z" fill="white"/>
</mask>
<g mask="url(#mask37_2119_4528)">
<path d="M101.371 14.0908L101.402 15.6853H111.091L111.06 14.0908H101.371Z" fill="#B3A168"/>
</g>
</g>
<mask id="mask38_2119_4528" style="mask-type:luminance" maskUnits="userSpaceOnUse" x="110" y="14" width="7" height="2">
<path d="M110.665 14.2295H116.412V15.5357H110.665V14.2295Z" fill="white"/>
</mask>
<g mask="url(#mask38_2119_4528)">
<mask id="mask39_2119_4528" style="mask-type:luminance" maskUnits="userSpaceOnUse" x="106" y="14" width="23" height="2">
<path d="M106.165 14.3428C106.205 14.4091 106.247 14.4729 106.292 14.5336C106.517 14.8433 106.735 15.1495 106.967 15.4255H127.416C127.708 15.1015 127.996 14.6892 128.143 14.3428H106.165Z" fill="white"/>
</mask>
<g mask="url(#mask39_2119_4528)">
<path d="M112.031 16.8042C112.031 16.8042 111.965 13.18 116.316 11.7539L115.254 10.8574C115.254 10.8574 111.123 11.9881 110.736 17.0032C110.35 21.9856 112.031 16.8042 112.031 16.8042Z" fill="#00512C"/>
</g>
</g>
<mask id="mask40_2119_4528" style="mask-type:luminance" maskUnits="userSpaceOnUse" x="119" y="14" width="10" height="2">
<path d="M119.938 14.2295H128.168V15.5357H119.938V14.2295Z" fill="white"/>
</mask>
<g mask="url(#mask40_2119_4528)">
<mask id="mask41_2119_4528" style="mask-type:luminance" maskUnits="userSpaceOnUse" x="106" y="14" width="23" height="2">
<path d="M106.164 14.3428C106.204 14.4091 106.246 14.4729 106.291 14.5336C106.516 14.8433 106.734 15.1495 106.966 15.4255H127.415C127.707 15.1015 127.995 14.6892 128.142 14.3428H106.164Z" fill="white"/>
</mask>
<g mask="url(#mask41_2119_4528)">
<path d="M119.956 15.6688H140.627V14.1738H119.956V15.6688Z" fill="#B3A168"/>
</g>
</g>
<mask id="mask42_2119_4528" style="mask-type:luminance" maskUnits="userSpaceOnUse" x="119" y="14" width="3" height="2">
<path d="M119.938 14.2295H121.767V15.5357H119.938V14.2295Z" fill="white"/>
</mask>
<g mask="url(#mask42_2119_4528)">
<mask id="mask43_2119_4528" style="mask-type:luminance" maskUnits="userSpaceOnUse" x="119" y="14" width="10" height="2">
<path d="M119.956 14.3428V15.4255H127.415C127.706 15.1015 127.995 14.6887 128.142 14.3428H119.956Z" fill="white"/>
</mask>
<g mask="url(#mask43_2119_4528)">
<path d="M116.846 10.1611C116.846 10.1611 121.762 12.3536 121.762 16.6049C121.762 20.8562 114.123 23.115 114.123 23.115L116.846 10.1611Z" fill="#7D7246"/>
</g>
</g>
<mask id="mask44_2119_4528" style="mask-type:luminance" maskUnits="userSpaceOnUse" x="105" y="17" width="24" height="2">
<path d="M105.701 17.4951H128.298V18.6707H105.701V17.4951Z" fill="white"/>
</mask>
<g mask="url(#mask44_2119_4528)">
<mask id="mask45_2119_4528" style="mask-type:luminance" maskUnits="userSpaceOnUse" x="105" y="5" width="24" height="25">
<path d="M112.729 5.48633C112.615 5.48684 112.514 5.50419 112.433 5.54807C111.85 5.74655 110.897 5.95779 110.897 5.95779C110.897 5.95779 110.527 5.7991 109.785 6.16953C109.045 6.69916 108.886 6.85784 108.886 6.85784C108.886 6.85784 108.621 8.07577 107.827 8.07577C107.351 8.7105 106.292 10.0871 106.027 11.0397C105.497 12.4158 105.709 13.7394 106.292 14.5333C107.139 15.6982 107.88 16.81 109.679 16.4921C111.532 16.0686 111.691 16.0155 112.062 16.0155C112.644 16.0686 113.438 16.6508 113.438 16.6508C114.02 16.6508 114.338 16.8625 114.338 16.8625C114.338 16.8625 114.073 18.3978 114.179 18.6096C114.338 18.8744 115.29 19.1785 115.343 20.3229C115.396 21.4679 115.714 22.1032 115.714 22.1032C115.714 22.1032 115.661 22.7384 115.185 23.2675C114.708 23.7971 115.502 25.1732 115.82 25.4911C116.032 26.0733 116.243 26.9733 116.297 27.4499C116.85 27.979 116.85 28.2438 117.197 29.4612C117.197 29.4612 117.408 30.0965 118.413 29.6199C119.631 29.4612 119.949 29.6199 120.531 28.7729C121.484 27.7673 121.749 27.6617 121.802 27.132C122.225 26.3912 122.755 26.1794 122.755 26.1794C122.755 25.5437 122.808 24.9089 122.49 24.7502C123.495 24.2737 124.289 23.7441 124.66 23.5323C124.766 22.7384 124.607 20.6607 124.289 20.3229C123.972 19.7739 124.025 19.9857 124.739 19.1387C125.613 18.133 126.883 16.7569 126.883 16.7569C126.883 16.7569 127.254 16.1217 127.36 15.4864C128.101 14.6925 128.881 13.2633 127.406 13.7394C126.778 14.0042 126.248 14.4108 125.718 14.0042C125.507 13.3159 125.031 13.0516 124.607 13.0516C123.76 11.8867 123.125 11.0397 123.125 11.0397C123.125 11.0397 123.585 10.2989 122.72 9.71669C122.119 8.92225 122.119 8.86919 122.119 8.86919C122.119 8.86919 122.648 6.96397 120.69 7.3344C119.367 7.28133 117.876 6.9109 117.514 7.54615C117.152 7.86402 116.614 7.77728 116.35 7.13235C115.873 6.85784 115.132 7.11449 115.132 7.11449C115.132 7.11449 114.512 6.75222 114.814 6.32873C115.116 5.74655 115.026 5.48174 114.285 5.64042C113.971 5.66287 113.659 5.6144 113.373 5.56592C113.141 5.52715 112.928 5.48735 112.748 5.48633H112.729Z" fill="white"/>
</mask>
<g mask="url(#mask45_2119_4528)">
<path d="M104.451 17.5264L104.373 18.6198H129.146L129.224 17.5264H104.451Z" fill="#319044"/>
</g>
</g>
<mask id="mask46_2119_4528" style="mask-type:luminance" maskUnits="userSpaceOnUse" x="119" y="17" width="8" height="2">
<path d="M119.938 17.4951H126.208V18.6707H119.938V17.4951Z" fill="white"/>
</mask>
<g mask="url(#mask46_2119_4528)">
<mask id="mask47_2119_4528" style="mask-type:luminance" maskUnits="userSpaceOnUse" x="114" y="17" width="13" height="2">
<path d="M114.235 17.5264C114.175 17.9703 114.12 18.4922 114.178 18.6096C114.18 18.6132 114.183 18.6167 114.185 18.6203H125.194C125.532 18.2407 125.884 17.8509 126.178 17.5264H114.235Z" fill="white"/>
</mask>
<g mask="url(#mask47_2119_4528)">
<path d="M120.027 18.7393H140.627V17.3652H120.027V18.7393Z" fill="#B3A168"/>
</g>
</g>
<mask id="mask48_2119_4528" style="mask-type:luminance" maskUnits="userSpaceOnUse" x="119" y="17" width="3" height="2">
<path d="M119.938 17.4951H121.767V18.6707H119.938V17.4951Z" fill="white"/>
</mask>
<g mask="url(#mask48_2119_4528)">
<mask id="mask49_2119_4528" style="mask-type:luminance" maskUnits="userSpaceOnUse" x="120" y="17" width="7" height="2">
<path d="M120.028 17.5264V18.6203H125.195C125.532 18.2407 125.884 17.8509 126.179 17.5264H120.028Z" fill="white"/>
</mask>
<g mask="url(#mask49_2119_4528)">
<path d="M116.847 10.1602C116.847 10.1602 121.763 12.3526 121.763 16.6039C121.763 20.8552 114.124 23.114 114.124 23.114L116.847 10.1602Z" fill="#7D7246"/>
</g>
</g>
<mask id="mask50_2119_4528" style="mask-type:luminance" maskUnits="userSpaceOnUse" x="105" y="15" width="24" height="3">
<path d="M105.701 15.9277H128.298V17.1033H105.701V15.9277Z" fill="white"/>
</mask>
<g mask="url(#mask50_2119_4528)">
<mask id="mask51_2119_4528" style="mask-type:luminance" maskUnits="userSpaceOnUse" x="105" y="5" width="24" height="25">
<path d="M112.729 5.48633C112.615 5.48684 112.514 5.50419 112.433 5.54807C111.85 5.74655 110.897 5.95779 110.897 5.95779C110.897 5.95779 110.527 5.7991 109.785 6.16953C109.045 6.69916 108.886 6.85784 108.886 6.85784C108.886 6.85784 108.621 8.07577 107.827 8.07577C107.351 8.7105 106.292 10.0871 106.027 11.0397C105.497 12.4158 105.709 13.7394 106.292 14.5333C107.139 15.6982 107.88 16.81 109.679 16.4921C111.532 16.0686 111.691 16.0155 112.062 16.0155C112.644 16.0686 113.438 16.6508 113.438 16.6508C114.02 16.6508 114.338 16.8625 114.338 16.8625C114.338 16.8625 114.073 18.3978 114.179 18.6096C114.338 18.8744 115.29 19.1785 115.343 20.3229C115.396 21.4679 115.714 22.1032 115.714 22.1032C115.714 22.1032 115.661 22.7384 115.185 23.2675C114.708 23.7971 115.502 25.1732 115.82 25.4911C116.032 26.0733 116.243 26.9733 116.297 27.4499C116.85 27.979 116.85 28.2438 117.197 29.4612C117.197 29.4612 117.408 30.0965 118.413 29.6199C119.631 29.4612 119.949 29.6199 120.531 28.7729C121.484 27.7673 121.749 27.6617 121.802 27.132C122.225 26.3912 122.755 26.1794 122.755 26.1794C122.755 25.5437 122.808 24.9089 122.49 24.7502C123.495 24.2737 124.289 23.7441 124.66 23.5323C124.766 22.7384 124.607 20.6607 124.289 20.3229C123.972 19.7739 124.025 19.9857 124.739 19.1387C125.613 18.133 126.883 16.7569 126.883 16.7569C126.883 16.7569 127.254 16.1217 127.36 15.4864C128.101 14.6925 128.881 13.2633 127.406 13.7394C126.778 14.0042 126.248 14.4108 125.718 14.0042C125.507 13.3159 125.031 13.0516 124.607 13.0516C123.76 11.8867 123.125 11.0397 123.125 11.0397C123.125 11.0397 123.585 10.2989 122.72 9.71669C122.119 8.92225 122.119 8.86919 122.119 8.86919C122.119 8.86919 122.648 6.96397 120.69 7.3344C119.367 7.28133 117.876 6.9109 117.514 7.54615C117.152 7.86402 116.614 7.77728 116.35 7.13235C115.873 6.85784 115.132 7.11449 115.132 7.11449C115.132 7.11449 114.512 6.75222 114.814 6.32873C115.116 5.74655 115.026 5.48174 114.285 5.64042C113.971 5.66287 113.659 5.6144 113.373 5.56592C113.141 5.52715 112.928 5.48735 112.748 5.48633H112.729Z" fill="white"/>
</mask>
<g mask="url(#mask51_2119_4528)">
<path d="M104.451 17.0421H129.225V15.9512H104.451V17.0421Z" fill="#319044"/>
</g>
</g>
<mask id="mask52_2119_4528" style="mask-type:luminance" maskUnits="userSpaceOnUse" x="107" y="15" width="4" height="3">
<path d="M107.399 15.9277H110.665V17.1033H107.399V15.9277Z" fill="white"/>
</mask>
<g mask="url(#mask52_2119_4528)">
<mask id="mask53_2119_4528" style="mask-type:luminance" maskUnits="userSpaceOnUse" x="107" y="15" width="21" height="3">
<path d="M107.479 15.9512C108.022 16.4104 108.691 16.667 109.679 16.4925C111.532 16.069 111.691 16.016 112.061 16.016C112.644 16.069 113.437 16.6512 113.437 16.6512C114.02 16.6512 114.338 16.863 114.338 16.863C114.338 16.863 114.326 16.9318 114.308 17.0421H126.621C126.784 16.865 126.883 16.7573 126.883 16.7573C126.883 16.7573 127.092 16.3986 127.241 15.9512H107.479Z" fill="white"/>
</mask>
<g mask="url(#mask53_2119_4528)">
<path d="M100.906 15.6191L100.936 17.2136H110.626L110.596 15.6191H100.906Z" fill="#B3A168"/>
</g>
</g>
<mask id="mask54_2119_4528" style="mask-type:luminance" maskUnits="userSpaceOnUse" x="120" y="15" width="8" height="3">
<path d="M120.461 15.9277H127.253V17.1033H120.461V15.9277Z" fill="white"/>
</mask>
<g mask="url(#mask54_2119_4528)">
<mask id="mask55_2119_4528" style="mask-type:luminance" maskUnits="userSpaceOnUse" x="107" y="15" width="21" height="3">
<path d="M107.479 15.9512C108.022 16.4104 108.691 16.667 109.679 16.4925C111.532 16.069 111.691 16.016 112.061 16.016C112.644 16.069 113.437 16.6512 113.437 16.6512C114.02 16.6512 114.338 16.863 114.338 16.863C114.338 16.863 114.326 16.9318 114.308 17.0421H126.621C126.784 16.865 126.883 16.7573 126.883 16.7573C126.883 16.7573 127.092 16.3986 127.241 15.9512H107.479Z" fill="white"/>
</mask>
<g mask="url(#mask55_2119_4528)">
<path d="M120.486 17.1702H140.628V15.8701H120.486V17.1702Z" fill="#B3A168"/>
</g>
</g>
<mask id="mask56_2119_4528" style="mask-type:luminance" maskUnits="userSpaceOnUse" x="120" y="15" width="2" height="3">
<path d="M120.461 15.9277H121.767V17.1033H120.461V15.9277Z" fill="white"/>
</mask>
<g mask="url(#mask56_2119_4528)">
<mask id="mask57_2119_4528" style="mask-type:luminance" maskUnits="userSpaceOnUse" x="120" y="15" width="8" height="3">
<path d="M120.485 15.9512V17.0421H126.621C126.783 16.865 126.883 16.7573 126.883 16.7573C126.883 16.7573 127.092 16.3986 127.24 15.9512H120.485Z" fill="white"/>
</mask>
<g mask="url(#mask57_2119_4528)">
<path d="M116.846 10.1611C116.846 10.1611 121.762 12.3536 121.762 16.6049C121.762 20.8562 114.123 23.115 114.123 23.115L116.846 10.1611Z" fill="#7D7246"/>
</g>
</g>
<mask id="mask58_2119_4528" style="mask-type:luminance" maskUnits="userSpaceOnUse" x="110" y="15" width="7" height="3">
<path d="M110.665 15.9277H116.412V17.1033H110.665V15.9277Z" fill="white"/>
</mask>
<g mask="url(#mask58_2119_4528)">
<mask id="mask59_2119_4528" style="mask-type:luminance" maskUnits="userSpaceOnUse" x="107" y="15" width="21" height="3">
<path d="M107.479 15.9512C108.022 16.4104 108.691 16.667 109.679 16.4925C111.532 16.069 111.691 16.016 112.061 16.016C112.644 16.069 113.437 16.6512 113.437 16.6512C114.02 16.6512 114.338 16.863 114.338 16.863C114.338 16.863 114.326 16.9318 114.308 17.0421H126.621C126.784 16.865 126.883 16.7573 126.883 16.7573C126.883 16.7573 127.092 16.3986 127.241 15.9512H107.479Z" fill="white"/>
</mask>
<g mask="url(#mask59_2119_4528)">
<path d="M112.03 16.8042C112.03 16.8042 111.964 13.18 116.315 11.7539L115.253 10.8574C115.253 10.8574 111.122 11.9881 110.736 17.0032C110.349 21.9856 112.03 16.8042 112.03 16.8042Z" fill="#00512C"/>
</g>
</g>
<mask id="mask60_2119_4528" style="mask-type:luminance" maskUnits="userSpaceOnUse" x="105" y="18" width="24" height="3">
<path d="M105.701 18.9316H128.298V20.1072H105.701V18.9316Z" fill="white"/>
</mask>
<g mask="url(#mask60_2119_4528)">
<mask id="mask61_2119_4528" style="mask-type:luminance" maskUnits="userSpaceOnUse" x="105" y="5" width="24" height="25">
<path d="M112.729 5.48633C112.615 5.48684 112.514 5.50419 112.433 5.54807C111.85 5.74655 110.897 5.95779 110.897 5.95779C110.897 5.95779 110.527 5.7991 109.785 6.16953C109.045 6.69916 108.886 6.85784 108.886 6.85784C108.886 6.85784 108.621 8.07577 107.827 8.07577C107.351 8.7105 106.292 10.0871 106.027 11.0397C105.497 12.4158 105.709 13.7394 106.292 14.5333C107.139 15.6982 107.88 16.81 109.679 16.4921C111.532 16.0686 111.691 16.0155 112.062 16.0155C112.644 16.0686 113.438 16.6508 113.438 16.6508C114.02 16.6508 114.338 16.8625 114.338 16.8625C114.338 16.8625 114.073 18.3978 114.179 18.6096C114.338 18.8744 115.29 19.1785 115.343 20.3229C115.396 21.4679 115.714 22.1032 115.714 22.1032C115.714 22.1032 115.661 22.7384 115.185 23.2675C114.708 23.7971 115.502 25.1732 115.82 25.4911C116.032 26.0733 116.243 26.9733 116.297 27.4499C116.85 27.979 116.85 28.2438 117.197 29.4612C117.197 29.4612 117.408 30.0965 118.413 29.6199C119.631 29.4612 119.949 29.6199 120.531 28.7729C121.484 27.7673 121.749 27.6617 121.802 27.132C122.225 26.3912 122.755 26.1794 122.755 26.1794C122.755 25.5437 122.808 24.9089 122.49 24.7502C123.495 24.2737 124.289 23.7441 124.66 23.5323C124.766 22.7384 124.607 20.6607 124.289 20.3229C123.972 19.7739 124.025 19.9857 124.739 19.1387C125.613 18.133 126.883 16.7569 126.883 16.7569C126.883 16.7569 127.254 16.1217 127.36 15.4864C128.101 14.6925 128.881 13.2633 127.406 13.7394C126.778 14.0042 126.248 14.4108 125.718 14.0042C125.507 13.3159 125.031 13.0516 124.607 13.0516C123.76 11.8867 123.125 11.0397 123.125 11.0397C123.125 11.0397 123.585 10.2989 122.72 9.71669C122.119 8.92225 122.119 8.86919 122.119 8.86919C122.119 8.86919 122.648 6.96397 120.69 7.3344C119.367 7.28133 117.876 6.9109 117.514 7.54615C117.152 7.86402 116.614 7.77728 116.35 7.13235C115.873 6.85784 115.132 7.11449 115.132 7.11449C115.132 7.11449 114.512 6.75222 114.814 6.32873C115.116 5.74655 115.026 5.48174 114.285 5.64042C113.971 5.66287 113.659 5.6144 113.373 5.56592C113.141 5.52715 112.928 5.48735 112.748 5.48633H112.729Z" fill="white"/>
</mask>
<g mask="url(#mask61_2119_4528)">
<path d="M104.289 18.9414L104.451 19.992H129.224L129.063 18.9414H104.289Z" fill="#319044"/>
</g>
</g>
<mask id="mask62_2119_4528" style="mask-type:luminance" maskUnits="userSpaceOnUse" x="118" y="18" width="8" height="3">
<path d="M118.11 18.9316H125.033V20.1072H118.11V18.9316Z" fill="white"/>
</mask>
<g mask="url(#mask62_2119_4528)">
<mask id="mask63_2119_4528" style="mask-type:luminance" maskUnits="userSpaceOnUse" x="114" y="18" width="11" height="2">
<path d="M114.571 18.9414C114.847 19.1542 115.179 19.4618 115.3 19.9915H124.114C124.06 19.8078 124.234 19.7389 124.74 19.1389C124.796 19.0746 124.854 19.0082 124.913 18.9414H114.571Z" fill="white"/>
</mask>
<g mask="url(#mask63_2119_4528)">
<path d="M119.527 18.6182L118.149 20.1912H140.628V19.4973L119.527 18.6182Z" fill="#B3A168"/>
</g>
</g>
<mask id="mask64_2119_4528" style="mask-type:luminance" maskUnits="userSpaceOnUse" x="118" y="18" width="4" height="3">
<path d="M118.24 18.9316H121.767V20.1072H118.24V18.9316Z" fill="white"/>
</mask>
<g mask="url(#mask64_2119_4528)">
<mask id="mask65_2119_4528" style="mask-type:luminance" maskUnits="userSpaceOnUse" x="118" y="18" width="7" height="2">
<path d="M119.243 18.9414L118.323 19.9915H124.113C124.059 19.8078 124.233 19.7389 124.739 19.1389C124.795 19.0746 124.853 19.0082 124.912 18.9414H119.243Z" fill="white"/>
</mask>
<g mask="url(#mask65_2119_4528)">
<path d="M116.846 10.1611C116.846 10.1611 121.762 12.3536 121.762 16.6049C121.762 20.8562 114.123 23.115 114.123 23.115L116.846 10.1611Z" fill="#7D7246"/>
</g>
</g>
<mask id="mask66_2119_4528" style="mask-type:luminance" maskUnits="userSpaceOnUse" x="105" y="22" width="24" height="2">
<path d="M105.701 22.0664H128.298V23.242H105.701V22.0664Z" fill="white"/>
</mask>
<g mask="url(#mask66_2119_4528)">
<mask id="mask67_2119_4528" style="mask-type:luminance" maskUnits="userSpaceOnUse" x="105" y="5" width="24" height="25">
<path d="M112.729 5.48633C112.615 5.48684 112.514 5.50419 112.433 5.54807C111.85 5.74655 110.897 5.95779 110.897 5.95779C110.897 5.95779 110.527 5.7991 109.785 6.16953C109.045 6.69916 108.886 6.85784 108.886 6.85784C108.886 6.85784 108.621 8.07577 107.827 8.07577C107.351 8.7105 106.292 10.0871 106.027 11.0397C105.497 12.4158 105.709 13.7394 106.292 14.5333C107.139 15.6982 107.88 16.81 109.679 16.4921C111.532 16.0686 111.691 16.0155 112.062 16.0155C112.644 16.0686 113.438 16.6508 113.438 16.6508C114.02 16.6508 114.338 16.8625 114.338 16.8625C114.338 16.8625 114.073 18.3978 114.179 18.6096C114.338 18.8744 115.29 19.1785 115.343 20.3229C115.396 21.4679 115.714 22.1032 115.714 22.1032C115.714 22.1032 115.661 22.7384 115.185 23.2675C114.708 23.7971 115.502 25.1732 115.82 25.4911C116.032 26.0733 116.243 26.9733 116.297 27.4499C116.85 27.979 116.85 28.2438 117.197 29.4612C117.197 29.4612 117.408 30.0965 118.413 29.6199C119.631 29.4612 119.949 29.6199 120.531 28.7729C121.484 27.7673 121.749 27.6617 121.802 27.132C122.225 26.3912 122.755 26.1794 122.755 26.1794C122.755 25.5437 122.808 24.9089 122.49 24.7502C123.495 24.2737 124.289 23.7441 124.66 23.5323C124.766 22.7384 124.607 20.6607 124.289 20.3229C123.972 19.7739 124.025 19.9857 124.739 19.1387C125.613 18.133 126.883 16.7569 126.883 16.7569C126.883 16.7569 127.254 16.1217 127.36 15.4864C128.101 14.6925 128.881 13.2633 127.406 13.7394C126.778 14.0042 126.248 14.4108 125.718 14.0042C125.507 13.3159 125.031 13.0516 124.607 13.0516C123.76 11.8867 123.125 11.0397 123.125 11.0397C123.125 11.0397 123.585 10.2989 122.72 9.71669C122.119 8.92225 122.119 8.86919 122.119 8.86919C122.119 8.86919 122.648 6.96397 120.69 7.3344C119.367 7.28133 117.876 6.9109 117.514 7.54615C117.152 7.86402 116.614 7.77728 116.35 7.13235C115.873 6.85784 115.132 7.11449 115.132 7.11449C115.132 7.11449 114.512 6.75222 114.814 6.32873C115.116 5.74655 115.026 5.48174 114.285 5.64042C113.971 5.66287 113.659 5.6144 113.373 5.56592C113.141 5.52715 112.928 5.48735 112.748 5.48633H112.729Z" fill="white"/>
</mask>
<g mask="url(#mask67_2119_4528)">
<path d="M104.386 23.1431H129.159V22.0869H104.386V23.1431Z" fill="#B3A168"/>
</g>
</g>
<mask id="mask68_2119_4528" style="mask-type:luminance" maskUnits="userSpaceOnUse" x="116" y="22" width="6" height="2">
<path d="M116.412 22.0664H121.637V23.242H116.412V22.0664Z" fill="white"/>
</mask>
<g mask="url(#mask68_2119_4528)">
<mask id="mask69_2119_4528" style="mask-type:luminance" maskUnits="userSpaceOnUse" x="115" y="22" width="10" height="2">
<path d="M115.706 22.0869C115.711 22.0976 115.713 22.1027 115.713 22.1027C115.713 22.1027 115.668 22.6436 115.287 23.1431H124.688C124.698 22.8375 124.689 22.463 124.661 22.0869H115.706Z" fill="white"/>
</mask>
<g mask="url(#mask69_2119_4528)">
<path d="M117.046 21.1875C117.046 21.1875 122.826 23.6453 121.231 28.5614C119.637 28.8267 119.704 24.3765 119.704 24.3765L116.448 21.6528L117.046 21.1875Z" fill="#7D7246"/>
</g>
</g>
<mask id="mask70_2119_4528" style="mask-type:luminance" maskUnits="userSpaceOnUse" x="115" y="22" width="3" height="2">
<path d="M115.236 22.0664H117.065V23.242H115.236V22.0664Z" fill="white"/>
</mask>
<g mask="url(#mask70_2119_4528)">
<mask id="mask71_2119_4528" style="mask-type:luminance" maskUnits="userSpaceOnUse" x="115" y="22" width="10" height="2">
<path d="M115.706 22.0869C115.711 22.0976 115.713 22.1027 115.713 22.1027C115.713 22.1027 115.668 22.6436 115.287 23.1431H124.688C124.698 22.8375 124.689 22.463 124.661 22.0869H115.706Z" fill="white"/>
</mask>
<g mask="url(#mask71_2119_4528)">
<path d="M93.1729 22.0928L95.0321 23.8301H116.981V22.0928H93.1729Z" fill="#231F20"/>
</g>
</g>
<mask id="mask72_2119_4528" style="mask-type:luminance" maskUnits="userSpaceOnUse" x="105" y="20" width="24" height="2">
<path d="M105.701 20.499H128.298V21.6746H105.701V20.499Z" fill="white"/>
</mask>
<g mask="url(#mask72_2119_4528)">
<mask id="mask73_2119_4528" style="mask-type:luminance" maskUnits="userSpaceOnUse" x="105" y="5" width="24" height="25">
<path d="M112.729 5.48633C112.615 5.48684 112.514 5.50419 112.433 5.54807C111.85 5.74655 110.897 5.95779 110.897 5.95779C110.897 5.95779 110.527 5.7991 109.785 6.16953C109.045 6.69916 108.886 6.85784 108.886 6.85784C108.886 6.85784 108.621 8.07577 107.827 8.07577C107.351 8.7105 106.292 10.0871 106.027 11.0397C105.497 12.4158 105.709 13.7394 106.292 14.5333C107.139 15.6982 107.88 16.81 109.679 16.4921C111.532 16.0686 111.691 16.0155 112.062 16.0155C112.644 16.0686 113.438 16.6508 113.438 16.6508C114.02 16.6508 114.338 16.8625 114.338 16.8625C114.338 16.8625 114.073 18.3978 114.179 18.6096C114.338 18.8744 115.29 19.1785 115.343 20.3229C115.396 21.4679 115.714 22.1032 115.714 22.1032C115.714 22.1032 115.661 22.7384 115.185 23.2675C114.708 23.7971 115.502 25.1732 115.82 25.4911C116.032 26.0733 116.243 26.9733 116.297 27.4499C116.85 27.979 116.85 28.2438 117.197 29.4612C117.197 29.4612 117.408 30.0965 118.413 29.6199C119.631 29.4612 119.949 29.6199 120.531 28.7729C121.484 27.7673 121.749 27.6617 121.802 27.132C122.225 26.3912 122.755 26.1794 122.755 26.1794C122.755 25.5437 122.808 24.9089 122.49 24.7502C123.495 24.2737 124.289 23.7441 124.66 23.5323C124.766 22.7384 124.607 20.6607 124.289 20.3229C123.972 19.7739 124.025 19.9857 124.739 19.1387C125.613 18.133 126.883 16.7569 126.883 16.7569C126.883 16.7569 127.254 16.1217 127.36 15.4864C128.101 14.6925 128.881 13.2633 127.406 13.7394C126.778 14.0042 126.248 14.4108 125.718 14.0042C125.507 13.3159 125.031 13.0516 124.607 13.0516C123.76 11.8867 123.125 11.0397 123.125 11.0397C123.125 11.0397 123.585 10.2989 122.72 9.71669C122.119 8.92225 122.119 8.86919 122.119 8.86919C122.119 8.86919 122.648 6.96397 120.69 7.3344C119.367 7.28133 117.876 6.9109 117.514 7.54615C117.152 7.86402 116.614 7.77728 116.35 7.13235C115.873 6.85784 115.132 7.11449 115.132 7.11449C115.132 7.11449 114.512 6.75222 114.814 6.32873C115.116 5.74655 115.026 5.48174 114.285 5.64042C113.971 5.66287 113.659 5.6144 113.373 5.56592C113.141 5.52715 112.928 5.48735 112.748 5.48633H112.729Z" fill="white"/>
</mask>
<g mask="url(#mask73_2119_4528)">
<path d="M104.386 21.5672H129.159V20.5166H104.386V21.5672Z" fill="#319044"/>
</g>
</g>
<mask id="mask74_2119_4528" style="mask-type:luminance" maskUnits="userSpaceOnUse" x="116" y="20" width="9" height="2">
<path d="M116.543 20.499H124.641V21.6746H116.543V20.499Z" fill="white"/>
</mask>
<g mask="url(#mask74_2119_4528)">
<mask id="mask75_2119_4528" style="mask-type:luminance" maskUnits="userSpaceOnUse" x="115" y="20" width="10" height="2">
<path d="M115.355 20.5166C115.388 20.9534 115.459 21.3059 115.528 21.5672H124.613C124.563 21.1396 124.49 20.7528 124.398 20.5166H115.355Z" fill="white"/>
</mask>
<g mask="url(#mask75_2119_4528)">
<path d="M116.693 20.3545L116.657 21.6097H125.39L125.426 20.3545H116.693Z" fill="#B3A168"/>
</g>
</g>
<mask id="mask76_2119_4528" style="mask-type:luminance" maskUnits="userSpaceOnUse" x="116" y="20" width="6" height="2">
<path d="M116.543 20.499H121.768V21.6746H116.543V20.499Z" fill="white"/>
</mask>
<g mask="url(#mask76_2119_4528)">
<mask id="mask77_2119_4528" style="mask-type:luminance" maskUnits="userSpaceOnUse" x="116" y="20" width="9" height="2">
<path d="M116.689 20.5166L116.659 21.5672H124.613C124.563 21.1396 124.49 20.7528 124.398 20.5166H116.689Z" fill="white"/>
</mask>
<g mask="url(#mask77_2119_4528)">
<path d="M116.847 10.1602C116.847 10.1602 121.763 12.3526 121.763 16.6039C121.763 20.8552 114.124 23.114 114.124 23.114L116.847 10.1602Z" fill="#7D7246"/>
</g>
</g>
<mask id="mask78_2119_4528" style="mask-type:luminance" maskUnits="userSpaceOnUse" x="105" y="23" width="24" height="2">
<path d="M105.701 23.6338H128.298V24.8094H105.701V23.6338Z" fill="white"/>
</mask>
<g mask="url(#mask78_2119_4528)">
<mask id="mask79_2119_4528" style="mask-type:luminance" maskUnits="userSpaceOnUse" x="105" y="5" width="24" height="25">
<path d="M112.729 5.48633C112.615 5.48684 112.514 5.50419 112.433 5.54807C111.85 5.74655 110.897 5.95779 110.897 5.95779C110.897 5.95779 110.527 5.7991 109.785 6.16953C109.045 6.69916 108.886 6.85784 108.886 6.85784C108.886 6.85784 108.621 8.07577 107.827 8.07577C107.351 8.7105 106.292 10.0871 106.027 11.0397C105.497 12.4158 105.709 13.7394 106.292 14.5333C107.139 15.6982 107.88 16.81 109.679 16.4921C111.532 16.0686 111.691 16.0155 112.062 16.0155C112.644 16.0686 113.438 16.6508 113.438 16.6508C114.02 16.6508 114.338 16.8625 114.338 16.8625C114.338 16.8625 114.073 18.3978 114.179 18.6096C114.338 18.8744 115.29 19.1785 115.343 20.3229C115.396 21.4679 115.714 22.1032 115.714 22.1032C115.714 22.1032 115.661 22.7384 115.185 23.2675C114.708 23.7971 115.502 25.1732 115.82 25.4911C116.032 26.0733 116.243 26.9733 116.297 27.4499C116.85 27.979 116.85 28.2438 117.197 29.4612C117.197 29.4612 117.408 30.0965 118.413 29.6199C119.631 29.4612 119.949 29.6199 120.531 28.7729C121.484 27.7673 121.749 27.6617 121.802 27.132C122.225 26.3912 122.755 26.1794 122.755 26.1794C122.755 25.5437 122.808 24.9089 122.49 24.7502C123.495 24.2737 124.289 23.7441 124.66 23.5323C124.766 22.7384 124.607 20.6607 124.289 20.3229C123.972 19.7739 124.025 19.9857 124.739 19.1387C125.613 18.133 126.883 16.7569 126.883 16.7569C126.883 16.7569 127.254 16.1217 127.36 15.4864C128.101 14.6925 128.881 13.2633 127.406 13.7394C126.778 14.0042 126.248 14.4108 125.718 14.0042C125.507 13.3159 125.031 13.0516 124.607 13.0516C123.76 11.8867 123.125 11.0397 123.125 11.0397C123.125 11.0397 123.585 10.2989 122.72 9.71669C122.119 8.92225 122.119 8.86919 122.119 8.86919C122.119 8.86919 122.648 6.96397 120.69 7.3344C119.367 7.28133 117.876 6.9109 117.514 7.54615C117.152 7.86402 116.614 7.77728 116.35 7.13235C115.873 6.85784 115.132 7.11449 115.132 7.11449C115.132 7.11449 114.512 6.75222 114.814 6.32873C115.116 5.74655 115.026 5.48174 114.285 5.64042C113.971 5.66287 113.659 5.6144 113.373 5.56592C113.141 5.52715 112.928 5.48735 112.748 5.48633H112.729Z" fill="white"/>
</mask>
<g mask="url(#mask79_2119_4528)">
<path d="M104.386 24.7196H129.159V23.7021H104.386V24.7196Z" fill="#B3A168"/>
</g>
</g>
<mask id="mask80_2119_4528" style="mask-type:luminance" maskUnits="userSpaceOnUse" x="116" y="23" width="6" height="2">
<path d="M116.412 23.6338H121.637V24.8094H116.412V23.6338Z" fill="white"/>
</mask>
<g mask="url(#mask80_2119_4528)">
<mask id="mask81_2119_4528" style="mask-type:luminance" maskUnits="userSpaceOnUse" x="115" y="23" width="10" height="2">
<path d="M115.036 23.7021C115.031 24.0119 115.159 24.3874 115.32 24.7196H122.554C123.322 24.3501 123.962 23.9547 124.376 23.7021H115.036Z" fill="white"/>
</mask>
<g mask="url(#mask81_2119_4528)">
<path d="M117.046 21.1875C117.046 21.1875 122.826 23.6453 121.231 28.5614C119.637 28.8267 119.704 24.3765 119.704 24.3765L116.448 21.6528L117.046 21.1875Z" fill="#7D7246"/>
</g>
</g>
<mask id="mask82_2119_4528" style="mask-type:luminance" maskUnits="userSpaceOnUse" x="114" y="23" width="6" height="2">
<path d="M114.976 23.6338H119.417V24.8094H114.976V23.6338Z" fill="white"/>
</mask>
<g mask="url(#mask82_2119_4528)">
<mask id="mask83_2119_4528" style="mask-type:luminance" maskUnits="userSpaceOnUse" x="115" y="23" width="10" height="2">
<path d="M115.036 23.7021C115.031 24.0119 115.159 24.3874 115.32 24.7196H122.554C123.322 24.3501 123.962 23.9547 124.376 23.7021H115.036Z" fill="white"/>
</mask>
<g mask="url(#mask83_2119_4528)">
<path d="M97.9893 24.9609H119.33V23.668H97.9893V24.9609Z" fill="#231F20"/>
</g>
</g>
<mask id="mask84_2119_4528" style="mask-type:luminance" maskUnits="userSpaceOnUse" x="105" y="25" width="24" height="2">
<path d="M105.701 25.2012H128.298V26.3768H105.701V25.2012Z" fill="white"/>
</mask>
<g mask="url(#mask84_2119_4528)">
<mask id="mask85_2119_4528" style="mask-type:luminance" maskUnits="userSpaceOnUse" x="105" y="5" width="24" height="25">
<path d="M112.729 5.48633C112.615 5.48684 112.514 5.50419 112.433 5.54807C111.85 5.74655 110.897 5.95779 110.897 5.95779C110.897 5.95779 110.527 5.7991 109.785 6.16953C109.045 6.69916 108.886 6.85784 108.886 6.85784C108.886 6.85784 108.621 8.07577 107.827 8.07577C107.351 8.7105 106.292 10.0871 106.027 11.0397C105.497 12.4158 105.709 13.7394 106.292 14.5333C107.139 15.6982 107.88 16.81 109.679 16.4921C111.532 16.0686 111.691 16.0155 112.062 16.0155C112.644 16.0686 113.438 16.6508 113.438 16.6508C114.02 16.6508 114.338 16.8625 114.338 16.8625C114.338 16.8625 114.073 18.3978 114.179 18.6096C114.338 18.8744 115.29 19.1785 115.343 20.3229C115.396 21.4679 115.714 22.1032 115.714 22.1032C115.714 22.1032 115.661 22.7384 115.185 23.2675C114.708 23.7971 115.502 25.1732 115.82 25.4911C116.032 26.0733 116.243 26.9733 116.297 27.4499C116.85 27.979 116.85 28.2438 117.197 29.4612C117.197 29.4612 117.408 30.0965 118.413 29.6199C119.631 29.4612 119.949 29.6199 120.531 28.7729C121.484 27.7673 121.749 27.6617 121.802 27.132C122.225 26.3912 122.755 26.1794 122.755 26.1794C122.755 25.5437 122.808 24.9089 122.49 24.7502C123.495 24.2737 124.289 23.7441 124.66 23.5323C124.766 22.7384 124.607 20.6607 124.289 20.3229C123.972 19.7739 124.025 19.9857 124.739 19.1387C125.613 18.133 126.883 16.7569 126.883 16.7569C126.883 16.7569 127.254 16.1217 127.36 15.4864C128.101 14.6925 128.881 13.2633 127.406 13.7394C126.778 14.0042 126.248 14.4108 125.718 14.0042C125.507 13.3159 125.031 13.0516 124.607 13.0516C123.76 11.8867 123.125 11.0397 123.125 11.0397C123.125 11.0397 123.585 10.2989 122.72 9.71669C122.119 8.92225 122.119 8.86919 122.119 8.86919C122.119 8.86919 122.648 6.96397 120.69 7.3344C119.367 7.28133 117.876 6.9109 117.514 7.54615C117.152 7.86402 116.614 7.77728 116.35 7.13235C115.873 6.85784 115.132 7.11449 115.132 7.11449C115.132 7.11449 114.512 6.75222 114.814 6.32873C115.116 5.74655 115.026 5.48174 114.285 5.64042C113.971 5.66287 113.659 5.6144 113.373 5.56592C113.141 5.52715 112.928 5.48735 112.748 5.48633H112.729Z" fill="white"/>
</mask>
<g mask="url(#mask85_2119_4528)">
<path d="M104.386 26.2954H129.159V25.2178H104.386V26.2954Z" fill="#B3A168"/>
</g>
</g>
<mask id="mask86_2119_4528" style="mask-type:luminance" maskUnits="userSpaceOnUse" x="116" y="25" width="6" height="2">
<path d="M116.412 25.2012H121.637V26.3768H116.412V25.2012Z" fill="white"/>
</mask>
<g mask="url(#mask86_2119_4528)">
<mask id="mask87_2119_4528" style="mask-type:luminance" maskUnits="userSpaceOnUse" x="115" y="25" width="8" height="2">
<path d="M115.604 25.2178C115.685 25.3372 115.761 25.4326 115.819 25.4913C115.904 25.7244 115.989 26.0081 116.063 26.2954H122.549C122.673 26.2117 122.754 26.1796 122.754 26.1796C122.754 25.8331 122.77 25.4867 122.732 25.2178H115.604Z" fill="white"/>
</mask>
<g mask="url(#mask87_2119_4528)">
<path d="M117.046 21.1875C117.046 21.1875 122.826 23.6453 121.231 28.5614C119.637 28.8267 119.704 24.3765 119.704 24.3765L116.448 21.6528L117.046 21.1875Z" fill="#7D7246"/>
</g>
</g>
<mask id="mask88_2119_4528" style="mask-type:luminance" maskUnits="userSpaceOnUse" x="115" y="25" width="6" height="2">
<path d="M115.498 25.2012H120.2V26.3768H115.498V25.2012Z" fill="white"/>
</mask>
<g mask="url(#mask88_2119_4528)">
<mask id="mask89_2119_4528" style="mask-type:luminance" maskUnits="userSpaceOnUse" x="115" y="25" width="8" height="2">
<path d="M115.605 25.2178C115.686 25.3372 115.762 25.4326 115.82 25.4913C115.905 25.7244 115.99 26.0081 116.064 26.2954H122.55C122.674 26.2117 122.755 26.1796 122.755 26.1796C122.755 25.8331 122.771 25.4867 122.733 25.2178H115.605Z" fill="white"/>
</mask>
<g mask="url(#mask89_2119_4528)">
<path d="M95.8066 26.2949H120.086V25.002H95.8066V26.2949Z" fill="#231F20"/>
</g>
</g>
<mask id="mask90_2119_4528" style="mask-type:luminance" maskUnits="userSpaceOnUse" x="105" y="28" width="24" height="2">
<path d="M105.701 28.9893H128.298V29.9036H105.701V28.9893Z" fill="white"/>
</mask>
<g mask="url(#mask90_2119_4528)">
<mask id="mask91_2119_4528" style="mask-type:luminance" maskUnits="userSpaceOnUse" x="105" y="5" width="24" height="25">
<path d="M112.729 5.48633C112.615 5.48684 112.514 5.50419 112.433 5.54807C111.85 5.74655 110.897 5.95779 110.897 5.95779C110.897 5.95779 110.527 5.7991 109.785 6.16953C109.045 6.69916 108.886 6.85784 108.886 6.85784C108.886 6.85784 108.621 8.07577 107.827 8.07577C107.351 8.7105 106.292 10.0871 106.027 11.0397C105.497 12.4158 105.709 13.7394 106.292 14.5333C107.139 15.6982 107.88 16.81 109.679 16.4921C111.532 16.0686 111.691 16.0155 112.062 16.0155C112.644 16.0686 113.438 16.6508 113.438 16.6508C114.02 16.6508 114.338 16.8625 114.338 16.8625C114.338 16.8625 114.073 18.3978 114.179 18.6096C114.338 18.8744 115.29 19.1785 115.343 20.3229C115.396 21.4679 115.714 22.1032 115.714 22.1032C115.714 22.1032 115.661 22.7384 115.185 23.2675C114.708 23.7971 115.502 25.1732 115.82 25.4911C116.032 26.0733 116.243 26.9733 116.297 27.4499C116.85 27.979 116.85 28.2438 117.197 29.4612C117.197 29.4612 117.408 30.0965 118.413 29.6199C119.631 29.4612 119.949 29.6199 120.531 28.7729C121.484 27.7673 121.749 27.6617 121.802 27.132C122.225 26.3912 122.755 26.1794 122.755 26.1794C122.755 25.5437 122.808 24.9089 122.49 24.7502C123.495 24.2737 124.289 23.7441 124.66 23.5323C124.766 22.7384 124.607 20.6607 124.289 20.3229C123.972 19.7739 124.025 19.9857 124.739 19.1387C125.613 18.133 126.883 16.7569 126.883 16.7569C126.883 16.7569 127.254 16.1217 127.36 15.4864C128.101 14.6925 128.881 13.2633 127.406 13.7394C126.778 14.0042 126.248 14.4108 125.718 14.0042C125.507 13.3159 125.031 13.0516 124.607 13.0516C123.76 11.8867 123.125 11.0397 123.125 11.0397C123.125 11.0397 123.585 10.2989 122.72 9.71669C122.119 8.92225 122.119 8.86919 122.119 8.86919C122.119 8.86919 122.648 6.96397 120.69 7.3344C119.367 7.28133 117.876 6.9109 117.514 7.54615C117.152 7.86402 116.614 7.77728 116.35 7.13235C115.873 6.85784 115.132 7.11449 115.132 7.11449C115.132 7.11449 114.512 6.75222 114.814 6.32873C115.116 5.74655 115.026 5.48174 114.285 5.64042C113.971 5.66287 113.659 5.6144 113.373 5.56592C113.141 5.52715 112.928 5.48735 112.748 5.48633H112.729Z" fill="white"/>
</mask>
<g mask="url(#mask91_2119_4528)">
<path d="M104.386 29.7877H129.159V29.0938H104.386V29.7877Z" fill="#00AEEF"/>
</g>
</g>
<mask id="mask92_2119_4528" style="mask-type:luminance" maskUnits="userSpaceOnUse" x="118" y="6" width="11" height="2">
<path d="M118.764 6.26172H128.299V7.04544H118.764V6.26172Z" fill="white"/>
</mask>
<g mask="url(#mask92_2119_4528)">
<mask id="mask93_2119_4528" style="mask-type:luminance" maskUnits="userSpaceOnUse" x="105" y="5" width="24" height="25">
<path d="M112.729 5.48633C112.615 5.48684 112.514 5.50419 112.433 5.54807C111.85 5.74655 110.897 5.95779 110.897 5.95779C110.897 5.95779 110.527 5.7991 109.785 6.16953C109.045 6.69916 108.886 6.85784 108.886 6.85784C108.886 6.85784 108.621 8.07577 107.827 8.07577C107.351 8.7105 106.292 10.0871 106.027 11.0397C105.497 12.4158 105.709 13.7394 106.292 14.5333C107.139 15.6982 107.88 16.81 109.679 16.4921C111.532 16.0686 111.691 16.0155 112.062 16.0155C112.644 16.0686 113.438 16.6508 113.438 16.6508C114.02 16.6508 114.338 16.8625 114.338 16.8625C114.338 16.8625 114.073 18.3978 114.179 18.6096C114.338 18.8744 115.29 19.1785 115.343 20.3229C115.396 21.4679 115.714 22.1032 115.714 22.1032C115.714 22.1032 115.661 22.7384 115.185 23.2675C114.708 23.7971 115.502 25.1732 115.82 25.4911C116.032 26.0733 116.243 26.9733 116.297 27.4499C116.85 27.979 116.85 28.2438 117.197 29.4612C117.197 29.4612 117.408 30.0965 118.413 29.6199C119.631 29.4612 119.949 29.6199 120.531 28.7729C121.484 27.7673 121.749 27.6617 121.802 27.132C122.225 26.3912 122.755 26.1794 122.755 26.1794C122.755 25.5437 122.808 24.9089 122.49 24.7502C123.495 24.2737 124.289 23.7441 124.66 23.5323C124.766 22.7384 124.607 20.6607 124.289 20.3229C123.972 19.7739 124.025 19.9857 124.739 19.1387C125.613 18.133 126.883 16.7569 126.883 16.7569C126.883 16.7569 127.254 16.1217 127.36 15.4864C128.101 14.6925 128.881 13.2633 127.406 13.7394C126.778 14.0042 126.248 14.4108 125.718 14.0042C125.507 13.3159 125.031 13.0516 124.607 13.0516C123.76 11.8867 123.125 11.0397 123.125 11.0397C123.125 11.0397 123.585 10.2989 122.72 9.71669C122.119 8.92225 122.119 8.86919 122.119 8.86919C122.119 8.86919 122.648 6.96397 120.69 7.3344C119.367 7.28133 117.876 6.9109 117.514 7.54615C117.152 7.86402 116.614 7.77728 116.35 7.13235C115.873 6.85784 115.132 7.11449 115.132 7.11449C115.132 7.11449 114.512 6.75222 114.814 6.32873C115.116 5.74655 115.026 5.48174 114.285 5.64042C113.971 5.66287 113.659 5.6144 113.373 5.56592C113.141 5.52715 112.928 5.48735 112.748 5.48633H112.729Z" fill="white"/>
</mask>
<g mask="url(#mask93_2119_4528)">
<path d="M118.838 7.02251H140.628V6.3291H118.838V7.02251Z" fill="#15234F"/>
</g>
</g>
<mask id="mask94_2119_4528" style="mask-type:luminance" maskUnits="userSpaceOnUse" x="115" y="26" width="14" height="2">
<path d="M115.759 26.7686H128.298V27.9441H115.759V26.7686Z" fill="white"/>
</mask>
<g mask="url(#mask94_2119_4528)">
<mask id="mask95_2119_4528" style="mask-type:luminance" maskUnits="userSpaceOnUse" x="105" y="5" width="24" height="25">
<path d="M112.728 5.48633C112.614 5.48684 112.513 5.50419 112.432 5.54807C111.849 5.74655 110.896 5.95779 110.896 5.95779C110.896 5.95779 110.526 5.7991 109.784 6.16953C109.044 6.69916 108.885 6.85784 108.885 6.85784C108.885 6.85784 108.62 8.07577 107.826 8.07577C107.35 8.7105 106.291 10.0871 106.026 11.0397C105.496 12.4158 105.708 13.7394 106.291 14.5333C107.138 15.6982 107.879 16.81 109.678 16.4921C111.531 16.0686 111.69 16.0155 112.061 16.0155C112.643 16.0686 113.437 16.6508 113.437 16.6508C114.019 16.6508 114.337 16.8625 114.337 16.8625C114.337 16.8625 114.072 18.3978 114.178 18.6096C114.337 18.8744 115.289 19.1785 115.342 20.3229C115.395 21.4679 115.713 22.1032 115.713 22.1032C115.713 22.1032 115.66 22.7384 115.184 23.2675C114.707 23.7971 115.501 25.1732 115.819 25.4911C116.031 26.0733 116.242 26.9733 116.296 27.4499C116.849 27.979 116.849 28.2438 117.196 29.4612C117.196 29.4612 117.407 30.0965 118.412 29.6199C119.63 29.4612 119.948 29.6199 120.53 28.7729C121.483 27.7673 121.748 27.6617 121.801 27.132C122.224 26.3912 122.754 26.1794 122.754 26.1794C122.754 25.5437 122.807 24.9089 122.489 24.7502C123.494 24.2737 124.288 23.7441 124.659 23.5323C124.765 22.7384 124.606 20.6607 124.288 20.3229C123.971 19.7739 124.024 19.9857 124.738 19.1387C125.612 18.133 126.882 16.7569 126.882 16.7569C126.882 16.7569 127.253 16.1217 127.359 15.4864C128.1 14.6925 128.88 13.2633 127.405 13.7394C126.777 14.0042 126.247 14.4108 125.718 14.0042C125.506 13.3159 125.03 13.0516 124.606 13.0516C123.759 11.8867 123.124 11.0397 123.124 11.0397C123.124 11.0397 123.584 10.2989 122.719 9.71669C122.118 8.92225 122.118 8.86919 122.118 8.86919C122.118 8.86919 122.647 6.96397 120.689 7.3344C119.366 7.28133 117.875 6.9109 117.513 7.54615C117.151 7.86402 116.613 7.77728 116.349 7.13235C115.872 6.85784 115.131 7.11449 115.131 7.11449C115.131 7.11449 114.511 6.75222 114.813 6.32873C115.115 5.74655 115.025 5.48174 114.284 5.64042C113.97 5.66287 113.658 5.6144 113.372 5.56592C113.14 5.52715 112.927 5.48735 112.747 5.48633H112.728Z" fill="white"/>
</mask>
<g mask="url(#mask95_2119_4528)">
<path d="M115.873 27.8984H140.647V26.8203H115.873V27.8984Z" fill="#B3A168"/>
</g>
</g>
<mask id="mask96_2119_4528" style="mask-type:luminance" maskUnits="userSpaceOnUse" x="116" y="26" width="6" height="2">
<path d="M116.412 26.7686H121.506V27.9441H116.412V26.7686Z" fill="white"/>
</mask>
<g mask="url(#mask96_2119_4528)">
<mask id="mask97_2119_4528" style="mask-type:luminance" maskUnits="userSpaceOnUse" x="116" y="26" width="7" height="2">
<path d="M116.188 26.8203C116.239 27.0606 116.278 27.2816 116.297 27.4494C116.467 27.6122 116.585 27.75 116.677 27.8984H121.389C121.665 27.6086 121.77 27.4438 121.802 27.1316C121.868 27.0152 121.937 26.9116 122.007 26.8203H116.188Z" fill="white"/>
</mask>
<g mask="url(#mask97_2119_4528)">
<path d="M117.047 21.1875C117.047 21.1875 122.809 23.7045 121.215 28.6201C119.364 29.3686 119.705 24.3765 119.705 24.3765L116.449 21.6528L117.047 21.1875Z" fill="#7D7246"/>
</g>
</g>
<mask id="mask98_2119_4528" style="mask-type:luminance" maskUnits="userSpaceOnUse" x="116" y="26" width="5" height="2">
<path d="M116.15 26.7686H120.461V27.9441H116.15V26.7686Z" fill="white"/>
</mask>
<g mask="url(#mask98_2119_4528)">
<mask id="mask99_2119_4528" style="mask-type:luminance" maskUnits="userSpaceOnUse" x="116" y="26" width="7" height="2">
<path d="M116.188 26.8203C116.239 27.0606 116.277 27.2816 116.296 27.4494C116.466 27.6122 116.584 27.75 116.676 27.8984H121.388C121.664 27.6086 121.769 27.4438 121.801 27.1316C121.867 27.0152 121.936 26.9116 122.006 26.8203H116.188Z" fill="white"/>
</mask>
<g mask="url(#mask99_2119_4528)">
<path d="M115.145 28.133H120.46V26.585H115.145V28.133Z" fill="#231F20"/>
</g>
</g>
<mask id="mask100_2119_4528" style="mask-type:luminance" maskUnits="userSpaceOnUse" x="115" y="28" width="14" height="2">
<path d="M115.759 28.3359H128.298V29.9034H115.759V28.3359Z" fill="white"/>
</mask>
<g mask="url(#mask100_2119_4528)">
<mask id="mask101_2119_4528" style="mask-type:luminance" maskUnits="userSpaceOnUse" x="105" y="5" width="24" height="25">
<path d="M112.728 5.48633C112.614 5.48684 112.513 5.50419 112.432 5.54807C111.849 5.74655 110.896 5.95779 110.896 5.95779C110.896 5.95779 110.526 5.7991 109.784 6.16953C109.044 6.69916 108.885 6.85784 108.885 6.85784C108.885 6.85784 108.62 8.07577 107.826 8.07577C107.35 8.7105 106.291 10.0871 106.026 11.0397C105.496 12.4158 105.708 13.7394 106.291 14.5333C107.138 15.6982 107.879 16.81 109.678 16.4921C111.531 16.0686 111.69 16.0155 112.061 16.0155C112.643 16.0686 113.437 16.6508 113.437 16.6508C114.019 16.6508 114.337 16.8625 114.337 16.8625C114.337 16.8625 114.072 18.3978 114.178 18.6096C114.337 18.8744 115.289 19.1785 115.342 20.3229C115.395 21.4679 115.713 22.1032 115.713 22.1032C115.713 22.1032 115.66 22.7384 115.184 23.2675C114.707 23.7971 115.501 25.1732 115.819 25.4911C116.031 26.0733 116.242 26.9733 116.296 27.4499C116.849 27.979 116.849 28.2438 117.196 29.4612C117.196 29.4612 117.407 30.0965 118.412 29.6199C119.63 29.4612 119.948 29.6199 120.53 28.7729C121.483 27.7673 121.748 27.6617 121.801 27.132C122.224 26.3912 122.754 26.1794 122.754 26.1794C122.754 25.5437 122.807 24.9089 122.489 24.7502C123.494 24.2737 124.288 23.7441 124.659 23.5323C124.765 22.7384 124.606 20.6607 124.288 20.3229C123.971 19.7739 124.024 19.9857 124.738 19.1387C125.612 18.133 126.882 16.7569 126.882 16.7569C126.882 16.7569 127.253 16.1217 127.359 15.4864C128.1 14.6925 128.88 13.2633 127.405 13.7394C126.777 14.0042 126.247 14.4108 125.718 14.0042C125.506 13.3159 125.03 13.0516 124.606 13.0516C123.759 11.8867 123.124 11.0397 123.124 11.0397C123.124 11.0397 123.584 10.2989 122.719 9.71669C122.118 8.92225 122.118 8.86919 122.118 8.86919C122.118 8.86919 122.647 6.96397 120.689 7.3344C119.366 7.28133 117.875 6.9109 117.513 7.54615C117.151 7.86402 116.613 7.77728 116.349 7.13235C115.872 6.85784 115.131 7.11449 115.131 7.11449C115.131 7.11449 114.511 6.75222 114.813 6.32873C115.115 5.74655 115.025 5.48174 114.284 5.64042C113.97 5.66287 113.658 5.6144 113.372 5.56592C113.14 5.52715 112.927 5.48735 112.747 5.48633H112.728Z" fill="white"/>
</mask>
<g mask="url(#mask101_2119_4528)">
<path d="M115.854 31.2252H140.627V28.3965H115.854V31.2252Z" fill="#231F20"/>
</g>
</g>
<mask id="mask102_2119_4528" style="mask-type:luminance" maskUnits="userSpaceOnUse" x="116" y="28" width="5" height="1">
<path d="M116.804 28.3359H120.984V28.7278H116.804V28.3359Z" fill="white"/>
</mask>
<g mask="url(#mask102_2119_4528)">
<mask id="mask103_2119_4528" style="mask-type:luminance" maskUnits="userSpaceOnUse" x="116" y="28" width="5" height="2">
<path d="M116.895 28.3965C116.978 28.6542 117.06 28.9848 117.196 29.4613C117.196 29.4613 117.408 30.0966 118.413 29.62C119.631 29.4613 119.948 29.62 120.53 28.773C120.666 28.6307 120.787 28.5067 120.895 28.3965H116.895Z" fill="white"/>
</mask>
<g mask="url(#mask103_2119_4528)">
<path d="M117.045 21.1875C117.045 21.1875 122.807 23.7045 121.213 28.6201C119.362 29.3686 119.703 24.3765 119.703 24.3765L116.447 21.6528L117.045 21.1875Z" fill="#7D7246"/>
</g>
</g>
<mask id="mask104_2119_4528" style="mask-type:luminance" maskUnits="userSpaceOnUse" x="105" y="5" width="23" height="24">
<path d="M105.724 5.48633H127.123V28.4668H105.724V5.48633Z" fill="white"/>
</mask>
<g mask="url(#mask104_2119_4528)">
<path d="M110.865 6.17514C111.245 7.42113 112.361 9.92179 115.211 10.9295C120.626 12.8439 122.881 17.8371 115.477 21.5898" stroke="white" stroke-width="1.21385"/>
</g>
<mask id="mask105_2119_4528" style="mask-type:luminance" maskUnits="userSpaceOnUse" x="105" y="5" width="20" height="17">
<path d="M105.724 5.48633H124.902V21.8052H105.724V5.48633Z" fill="white"/>
</mask>
<g mask="url(#mask105_2119_4528)">
<path d="M119.558 7.16085C119.027 8.30428 117.867 9.79621 115.34 10.6692C112.648 11.5994 110.478 13.9347 110.439 16.4277" stroke="white" stroke-width="0.933671"/>
</g>
<mask id="mask106_2119_4528" style="mask-type:luminance" maskUnits="userSpaceOnUse" x="112" y="19" width="11" height="12">
<path d="M112.886 19.7148H122.421V30.514H112.886V19.7148Z" fill="white"/>
</mask>
<g mask="url(#mask106_2119_4528)">
<path d="M115.64 22.4122C115.64 22.4122 121.833 25.1461 118.87 29.5703" stroke="white" stroke-width="0.468664"/>
</g>
<mask id="mask107_2119_4528" style="mask-type:luminance" maskUnits="userSpaceOnUse" x="108" y="14" width="20" height="17">
<path d="M108.967 14.8818H127.254V30.5139H108.967V14.8818Z" fill="white"/>
</mask>
<g mask="url(#mask107_2119_4528)">
<path d="M115.887 21.8448C117.513 22.6198 119.931 24.2311 120.259 26.6328C120.396 27.6349 120.217 28.8044 119.348 29.9355" stroke="#319044" stroke-width="1.21385"/>
</g>
<mask id="mask108_2119_4528" style="mask-type:luminance" maskUnits="userSpaceOnUse" x="105" y="5" width="23" height="24">
<path d="M105.724 5.48633H127.384V28.8587H105.724V5.48633Z" fill="white"/>
</mask>
<g mask="url(#mask108_2119_4528)">
<path d="M111.067 6.10858C111.447 7.35458 112.636 9.83942 115.726 10.9073C120.534 12.5682 123.48 18.0047 115.563 21.7789C115.503 21.8075 115.442 21.8366 115.379 21.8672" stroke="#231F20" stroke-width="1.21385"/>
</g>
<mask id="mask109_2119_4528" style="mask-type:luminance" maskUnits="userSpaceOnUse" x="105" y="5" width="22" height="19">
<path d="M105.724 5.48633H126.862V23.3726H105.724V5.48633Z" fill="white"/>
</mask>
<g mask="url(#mask109_2119_4528)">
<path d="M119.913 7.30405C119.331 8.51688 118.138 10.066 115.702 10.9078C112.97 11.8513 110.84 14.0136 110.961 16.3975" stroke="#319044" stroke-width="1.21385"/>
</g>
</g>
</g>
<path d="M1.52142 10.6719H0.713522C0.608794 10.6719 0.571391 10.6083 0.601313 10.4811L2.55375 3.64761C2.59115 3.52044 2.68092 3.45685 2.82305 3.45685H3.94513C4.09475 3.45685 4.18451 3.52044 4.21444 3.64761L6.16687 10.4811C6.19679 10.6083 6.15565 10.6719 6.04344 10.6719H5.24676C5.17943 10.6719 5.13081 10.6607 5.10088 10.6382C5.07844 10.6083 5.05974 10.5559 5.04478 10.4811L4.61839 9.02241H2.14979L1.7234 10.4811C1.69348 10.6083 1.62615 10.6719 1.52142 10.6719ZM3.36165 4.53406L2.37421 8.12474H4.40519L3.40653 4.53406H3.36165ZM8.89187 4.94923H9.83443C9.96908 4.94923 10.0364 5.00907 10.0364 5.12876V5.71225C10.0364 5.83942 9.96908 5.903 9.83443 5.903H8.89187C8.81707 5.903 8.77967 5.94041 8.77967 6.01521V10.4811C8.77967 10.6083 8.71234 10.6719 8.57769 10.6719H7.87077C7.7436 10.6719 7.68002 10.6083 7.68002 10.4811V6.01521C7.68002 5.94041 7.63888 5.903 7.55659 5.903H6.96188C6.83471 5.903 6.77113 5.83942 6.77113 5.71225V5.12876C6.77113 5.06144 6.78235 5.01655 6.80479 4.99411C6.83471 4.96419 6.88708 4.94923 6.96188 4.94923H7.55659C7.63888 4.94923 7.68002 4.91182 7.68002 4.83702V4.51161C7.68002 3.95805 7.82215 3.53166 8.10641 3.23243C8.39068 2.93321 8.80585 2.7836 9.35193 2.7836H9.84565C9.97282 2.7836 10.0364 2.84344 10.0364 2.96313V3.54662C10.0364 3.67379 9.97282 3.73737 9.84565 3.73737H9.50902C9.23972 3.73737 9.04897 3.8047 8.93676 3.93935C8.83203 4.06652 8.77967 4.27598 8.77967 4.56772V4.83702C8.77967 4.91182 8.81707 4.94923 8.89187 4.94923ZM11.8201 10.6719H11.1132C10.986 10.6719 10.9224 10.6083 10.9224 10.4811V5.13998C10.9224 5.01281 10.986 4.94923 11.1132 4.94923H11.8201C11.9473 4.94923 12.0108 5.01281 12.0108 5.13998V5.56638H12.0557C12.1305 5.37936 12.2727 5.22975 12.4821 5.11754C12.6991 5.00533 12.9384 4.94923 13.2003 4.94923H13.6154C13.7426 4.94923 13.8062 5.01281 13.8062 5.13998V5.72347C13.8062 5.8656 13.7426 5.92544 13.6154 5.903H12.9422C12.3213 5.903 12.0108 6.24337 12.0108 6.9241V10.4811C12.0108 10.6083 11.9473 10.6719 11.8201 10.6719ZM14.7371 3.99545V2.97435C14.7371 2.85466 14.7969 2.79482 14.9166 2.79482H15.646C15.7657 2.79482 15.8255 2.85466 15.8255 2.97435V3.99545C15.8255 4.12262 15.7657 4.18621 15.646 4.18621H14.9166C14.7969 4.18621 14.7371 4.12262 14.7371 3.99545ZM14.7371 10.4811V5.13998C14.7371 5.01281 14.7969 4.94923 14.9166 4.94923H15.6347C15.7619 4.94923 15.8255 5.01281 15.8255 5.13998V10.4811C15.8255 10.5559 15.8105 10.6083 15.7806 10.6382C15.7582 10.6607 15.7133 10.6719 15.646 10.6719H14.9278C14.8007 10.6719 14.7371 10.6083 14.7371 10.4811ZM20.7784 9.90886V10.4923C20.7784 10.612 20.7111 10.6719 20.5764 10.6719H18.9269C18.3734 10.6719 17.9432 10.5185 17.6365 10.2118C17.3373 9.90512 17.1877 9.47872 17.1877 8.93264V6.68846C17.1877 6.1349 17.3373 5.70851 17.6365 5.40928C17.9432 5.10258 18.3734 4.94923 18.9269 4.94923H20.5764C20.7111 4.94923 20.7784 5.01281 20.7784 5.13998V5.72347C20.7784 5.84316 20.7111 5.903 20.5764 5.903H19.084C18.5454 5.903 18.2761 6.17978 18.2761 6.73335V8.88776C18.2761 9.44132 18.5454 9.7181 19.084 9.7181H20.5764C20.7111 9.7181 20.7784 9.78169 20.7784 9.90886ZM23.9121 10.6719H23.4745C22.9209 10.6719 22.4908 10.5185 22.1841 10.2118C21.8848 9.90512 21.7352 9.47872 21.7352 8.93264V6.68846C21.7352 6.1349 21.8848 5.70851 22.1841 5.40928C22.4908 5.10258 22.9209 4.94923 23.4745 4.94923H25.9879C26.1226 4.94923 26.1899 5.01281 26.1899 5.13998V10.4811C26.1899 10.6083 26.1226 10.6719 25.9879 10.6719H25.281C25.1538 10.6719 25.0903 10.6083 25.0903 10.4811V10.0772H25.0454C24.8658 10.4736 24.4881 10.6719 23.9121 10.6719ZM25.0903 8.76433V6.01521C25.0903 5.94041 25.0491 5.903 24.9668 5.903H23.6315C23.0929 5.903 22.8236 6.17978 22.8236 6.73335V8.88776C22.8236 9.44132 23.0929 9.7181 23.6315 9.7181H24.1701C24.7836 9.7181 25.0903 9.40018 25.0903 8.76433ZM28.487 10.6719H27.7801C27.6529 10.6719 27.5894 10.6083 27.5894 10.4811V5.13998C27.5894 5.01281 27.6529 4.94923 27.7801 4.94923H28.487C28.6142 4.94923 28.6778 5.01281 28.6778 5.13998V5.54393H28.7227C28.9022 5.14746 29.28 4.94923 29.856 4.94923H30.3497C30.8958 4.94923 31.3147 5.09884 31.6064 5.39806C31.8982 5.69729 32.044 6.12742 32.044 6.68846V10.4811C32.044 10.6083 31.9767 10.6719 31.8421 10.6719H31.1352C31.008 10.6719 30.9444 10.6083 30.9444 10.4811V6.73335C30.9444 6.17978 30.6714 5.903 30.1253 5.903H29.5979C28.9845 5.903 28.6778 6.22093 28.6778 6.85678V10.4811C28.6778 10.6083 28.6142 10.6719 28.487 10.6719ZM37.0697 10.6719H36.3628C36.2356 10.6719 36.172 10.6083 36.172 10.4811V3.64761C36.172 3.52044 36.2356 3.45685 36.3628 3.45685H39.0333C39.5794 3.45685 40.0058 3.6102 40.3125 3.91691C40.6192 4.21613 40.7726 4.64252 40.7726 5.19609V6.36306C40.7726 6.90914 40.6192 7.33553 40.3125 7.64224C40.0058 7.94894 39.5794 8.10229 39.0333 8.10229H37.3951C37.3053 8.10229 37.2604 8.1397 37.2604 8.2145V10.4811C37.2604 10.6083 37.1969 10.6719 37.0697 10.6719ZM37.3839 7.1373H38.8762C39.4074 7.1373 39.6729 6.86052 39.6729 6.30695V5.24097C39.6729 4.68741 39.4074 4.41063 38.8762 4.41063H37.3839C37.3016 4.41063 37.2604 4.44803 37.2604 4.52283V7.02509C37.2604 7.0999 37.3016 7.1373 37.3839 7.1373ZM44.0527 10.6719H43.6151C43.0615 10.6719 42.6314 10.5185 42.3247 10.2118C42.0254 9.90512 41.8758 9.47872 41.8758 8.93264V6.68846C41.8758 6.1349 42.0254 5.70851 42.3247 5.40928C42.6314 5.10258 43.0615 4.94923 43.6151 4.94923H46.1285C46.2632 4.94923 46.3305 5.01281 46.3305 5.13998V10.4811C46.3305 10.6083 46.2632 10.6719 46.1285 10.6719H45.4216C45.2944 10.6719 45.2309 10.6083 45.2309 10.4811V10.0772H45.186C45.0064 10.4736 44.6287 10.6719 44.0527 10.6719ZM45.2309 8.76433V6.01521C45.2309 5.94041 45.1897 5.903 45.1074 5.903H43.7721C43.2335 5.903 42.9642 6.17978 42.9642 6.73335V8.88776C42.9642 9.44132 43.2335 9.7181 43.7721 9.7181H44.3107C44.9242 9.7181 45.2309 9.40018 45.2309 8.76433ZM47.8983 5.903H47.3597C47.2849 5.903 47.2325 5.89178 47.2026 5.86934C47.1801 5.83942 47.1689 5.79079 47.1689 5.72347V5.13998C47.1689 5.01281 47.2325 4.94923 47.3597 4.94923H47.8983C47.9731 4.94923 48.0105 4.91182 48.0105 4.83702V3.82714C48.0105 3.69997 48.0778 3.63639 48.2125 3.63639H48.9194C49.0465 3.63639 49.1101 3.69997 49.1101 3.82714V4.83702C49.1101 4.91182 49.1513 4.94923 49.2336 4.94923H50.2771C50.4117 4.94923 50.4791 5.01281 50.4791 5.13998V5.72347C50.4791 5.84316 50.4117 5.903 50.2771 5.903H49.2336C49.1513 5.903 49.1101 5.94041 49.1101 6.01521V8.89898C49.1101 9.44506 49.3906 9.7181 49.9517 9.7181H50.3893C50.524 9.7181 50.5913 9.78169 50.5913 9.90886V10.4923C50.5913 10.612 50.524 10.6719 50.3893 10.6719H49.7834C49.2298 10.6719 48.7959 10.5223 48.4818 10.223C48.1676 9.92382 48.0105 9.50116 48.0105 8.95508V6.01521C48.0105 5.94041 47.9731 5.903 47.8983 5.903ZM52.5615 10.6719H51.8546C51.7274 10.6719 51.6638 10.6083 51.6638 10.4811V2.97435C51.6638 2.84718 51.7274 2.7836 51.8546 2.7836H52.5615C52.6887 2.7836 52.7523 2.84718 52.7523 2.97435V5.54393H52.7971C52.9767 5.14746 53.3544 4.94923 53.9305 4.94923H54.4242C54.9703 4.94923 55.3892 5.09884 55.6809 5.39806C55.9727 5.69729 56.1185 6.12742 56.1185 6.68846V10.4811C56.1185 10.6083 56.0512 10.6719 55.9165 10.6719H55.2096C55.0825 10.6719 55.0189 10.6083 55.0189 10.4811V6.73335C55.0189 6.17978 54.7458 5.903 54.1998 5.903H53.6724C53.059 5.903 52.7523 6.22093 52.7523 6.85678V10.4811C52.7523 10.6083 52.6887 10.6719 52.5615 10.6719ZM60.075 10.6719H59.0876C58.534 10.6719 58.1039 10.5185 57.7972 10.2118C57.498 9.90512 57.3483 9.47872 57.3483 8.93264V6.68846C57.3483 6.1349 57.498 5.70851 57.7972 5.40928C58.1039 5.10258 58.534 4.94923 59.0876 4.94923H60.075C60.6211 4.94923 61.0475 5.10258 61.3542 5.40928C61.6684 5.70851 61.8255 6.1349 61.8255 6.68846V8.93264C61.8255 9.47872 61.6684 9.90512 61.3542 10.2118C61.0475 10.5185 60.6211 10.6719 60.075 10.6719ZM59.2447 9.7181H59.9292C60.4678 9.7181 60.7371 9.44506 60.7371 8.89898V6.72213C60.7371 6.17604 60.4678 5.903 59.9292 5.903H59.2447C58.9604 5.903 58.7547 5.97033 58.6275 6.10498C58.5004 6.23215 58.4368 6.43786 58.4368 6.72213V8.89898C58.4368 9.18324 58.5004 9.3927 58.6275 9.52735C58.7547 9.65452 58.9604 9.7181 59.2447 9.7181ZM65.2019 10.3914H64.697C64.1584 10.3914 63.7432 10.2417 63.4515 9.94252C63.1672 9.63581 63.0251 9.20568 63.0251 8.65212V6.68846C63.0251 6.1349 63.1784 5.70851 63.4851 5.40928C63.7918 5.10258 64.2182 4.94923 64.7643 4.94923H67.2778C67.4124 4.94923 67.4797 5.01281 67.4797 5.13998V10.6943C67.4797 11.2404 67.3227 11.6631 67.0085 11.9623C66.7018 12.269 66.2754 12.4223 65.7293 12.4223H63.6198C63.4926 12.4223 63.429 12.3625 63.429 12.2428V11.6593C63.429 11.5321 63.4926 11.4686 63.6198 11.4686H65.561C66.1071 11.4686 66.3801 11.1918 66.3801 10.6382V9.78543H66.3352C66.1482 10.1894 65.7704 10.3914 65.2019 10.3914ZM66.3801 8.4838V6.01521C66.3801 5.94041 66.339 5.903 66.2567 5.903H64.9214C64.3903 5.903 64.1247 6.17978 64.1247 6.73335V8.59601C64.1247 9.14958 64.3903 9.42636 64.9214 9.42636H65.46C66.0734 9.42636 66.3801 9.11217 66.3801 8.4838ZM72.9294 10.6719H70.5057C69.9521 10.6719 69.522 10.5185 69.2153 10.2118C68.9161 9.90512 68.7665 9.47872 68.7665 8.93264V6.68846C68.7665 6.1349 68.9161 5.70851 69.2153 5.40928C69.522 5.10258 69.9521 4.94923 70.5057 4.94923H71.4258C71.9794 4.94923 72.4095 5.10258 72.7162 5.40928C73.0229 5.70851 73.1763 6.1349 73.1763 6.68846V8.11352C73.1763 8.24817 73.1089 8.31549 72.9743 8.31549H69.9671C69.8848 8.31549 69.8437 8.35289 69.8437 8.4277V8.9102C69.8437 9.45628 70.1167 9.72932 70.6628 9.72932H72.9294C73.0641 9.72932 73.1314 9.79665 73.1314 9.9313V10.4923C73.1314 10.612 73.0641 10.6719 72.9294 10.6719ZM69.9671 7.55247H71.9756C72.0504 7.55247 72.0878 7.51507 72.0878 7.44026V6.72213C72.0878 6.43786 72.0243 6.23215 71.8971 6.10498C71.7699 5.97033 71.5642 5.903 71.2799 5.903H70.6628C70.3785 5.903 70.1728 5.97033 70.0456 6.10498C69.9185 6.23215 69.8549 6.43786 69.8549 6.72213V7.44026C69.8549 7.51507 69.8923 7.55247 69.9671 7.55247ZM75.3101 10.6719H74.6032C74.476 10.6719 74.4124 10.6083 74.4124 10.4811V5.13998C74.4124 5.01281 74.476 4.94923 74.6032 4.94923H75.3101C75.4372 4.94923 75.5008 5.01281 75.5008 5.13998V5.54393H75.5457C75.7252 5.14746 76.103 4.94923 76.679 4.94923H77.1727C77.7188 4.94923 78.1377 5.09884 78.4295 5.39806C78.7212 5.69729 78.8671 6.12742 78.8671 6.68846V10.4811C78.8671 10.6083 78.7998 10.6719 78.6651 10.6719H77.9582C77.831 10.6719 77.7674 10.6083 77.7674 10.4811V6.73335C77.7674 6.17978 77.4944 5.903 76.9483 5.903H76.4209C75.8075 5.903 75.5008 6.22093 75.5008 6.85678V10.4811C75.5008 10.6083 75.4372 10.6719 75.3101 10.6719Z" fill="#111322"/>
<path d="M2.34055 20.5433H3.92269C4.46129 20.5433 4.7306 20.2665 4.7306 19.713V16.0662C4.7306 15.5126 4.46129 15.2358 3.92269 15.2358H2.34055C2.25826 15.2358 2.21712 15.2732 2.21712 15.348V20.4199C2.21712 20.5022 2.25826 20.5433 2.34055 20.5433ZM1.12869 21.3063V14.4728C1.12869 14.3456 1.19228 14.282 1.31945 14.282H4.07978C4.62587 14.282 5.05226 14.4354 5.35896 14.7421C5.67315 15.0413 5.83024 15.4677 5.83024 16.0213V19.7578C5.83024 20.3039 5.67315 20.7303 5.35896 21.037C5.05226 21.3437 4.62587 21.4971 4.07978 21.4971H1.31945C1.19228 21.4971 1.12869 21.4335 1.12869 21.3063ZM9.30521 21.4971H8.86759C8.31403 21.4971 7.8839 21.3437 7.57719 21.037C7.27797 20.7303 7.12836 20.3039 7.12836 19.7578V17.5137C7.12836 16.9601 7.27797 16.5337 7.57719 16.2345C7.8839 15.9278 8.31403 15.7744 8.86759 15.7744H11.3811C11.5157 15.7744 11.583 15.838 11.583 15.9652V21.3063C11.583 21.4335 11.5157 21.4971 11.3811 21.4971H10.6742C10.547 21.4971 10.4834 21.4335 10.4834 21.3063V20.9024H10.4385C10.259 21.2988 9.88121 21.4971 9.30521 21.4971ZM10.4834 19.5895V16.8404C10.4834 16.7656 10.4423 16.7282 10.36 16.7282H9.02468C8.48608 16.7282 8.21678 17.005 8.21678 17.5585V19.713C8.21678 20.2665 8.48608 20.5433 9.02468 20.5433H9.56329C10.1767 20.5433 10.4834 20.2254 10.4834 19.5895ZM13.1508 16.7282H12.6122C12.5374 16.7282 12.485 16.717 12.4551 16.6945C12.4327 16.6646 12.4215 16.616 12.4215 16.5487V15.9652C12.4215 15.838 12.485 15.7744 12.6122 15.7744H13.1508C13.2256 15.7744 13.263 15.737 13.263 15.6622V14.6523C13.263 14.5252 13.3303 14.4616 13.465 14.4616H14.1719C14.2991 14.4616 14.3627 14.5252 14.3627 14.6523V15.6622C14.3627 15.737 14.4038 15.7744 14.4861 15.7744H15.5296C15.6643 15.7744 15.7316 15.838 15.7316 15.9652V16.5487C15.7316 16.6684 15.6643 16.7282 15.5296 16.7282H14.4861C14.4038 16.7282 14.3627 16.7656 14.3627 16.8404V19.7242C14.3627 20.2703 14.6432 20.5433 15.2042 20.5433H15.6418C15.7765 20.5433 15.8438 20.6069 15.8438 20.7341V21.3175C15.8438 21.4372 15.7765 21.4971 15.6418 21.4971H15.0359C14.4824 21.4971 14.0485 21.3475 13.7343 21.0482C13.4201 20.749 13.263 20.3264 13.263 19.7803V16.8404C13.263 16.7656 13.2256 16.7282 13.1508 16.7282ZM18.981 21.4971H18.5434C17.9898 21.4971 17.5597 21.3437 17.253 21.037C16.9538 20.7303 16.8042 20.3039 16.8042 19.7578V17.5137C16.8042 16.9601 16.9538 16.5337 17.253 16.2345C17.5597 15.9278 17.9898 15.7744 18.5434 15.7744H21.0569C21.1915 15.7744 21.2589 15.838 21.2589 15.9652V21.3063C21.2589 21.4335 21.1915 21.4971 21.0569 21.4971H20.35C20.2228 21.4971 20.1592 21.4335 20.1592 21.3063V20.9024H20.1143C19.9348 21.2988 19.557 21.4971 18.981 21.4971ZM20.1592 19.5895V16.8404C20.1592 16.7656 20.1181 16.7282 20.0358 16.7282H18.7005C18.1619 16.7282 17.8926 17.005 17.8926 17.5585V19.713C17.8926 20.2665 18.1619 20.5433 18.7005 20.5433H19.2391C19.8525 20.5433 20.1592 20.2254 20.1592 19.5895ZM25.3096 19.7466V19.4549C25.3096 19.3277 25.3732 19.2641 25.5003 19.2641H26.2185C26.3457 19.2641 26.4092 19.3277 26.4092 19.4549V19.6568C26.4092 19.971 26.4766 20.1992 26.6112 20.3413C26.7533 20.476 26.9852 20.5433 27.3069 20.5433H28.0812C28.4028 20.5433 28.6347 20.4722 28.7768 20.3301C28.919 20.1805 28.99 19.9411 28.99 19.612V19.3539C28.99 19.1145 28.8965 18.9275 28.7095 18.7928C28.53 18.6507 28.3056 18.5609 28.0363 18.5235C27.767 18.4787 27.4715 18.4188 27.1498 18.344C26.8282 18.2692 26.5327 18.1832 26.2634 18.0859C25.9941 17.9887 25.7659 17.8054 25.5789 17.5361C25.3994 17.2668 25.3096 16.9227 25.3096 16.5038V16.0325C25.3096 15.4864 25.4629 15.06 25.7696 14.7533C26.0838 14.4391 26.514 14.282 27.0601 14.282H28.2495C28.803 14.282 29.2332 14.4391 29.5399 14.7533C29.854 15.06 30.0111 15.4864 30.0111 16.0325V16.2794C30.0111 16.4065 29.9476 16.4701 29.8204 16.4701H29.1022C28.9751 16.4701 28.9115 16.4065 28.9115 16.2794V16.1335C28.9115 15.8118 28.8404 15.5837 28.6983 15.449C28.5636 15.3069 28.3355 15.2358 28.0138 15.2358H27.3069C26.9852 15.2358 26.7533 15.3106 26.6112 15.4602C26.4766 15.6024 26.4092 15.8492 26.4092 16.2008V16.5487C26.4092 16.8853 26.6524 17.1134 27.1386 17.2331C27.3555 17.2855 27.5912 17.3304 27.8455 17.3678C28.1073 17.4052 28.3692 17.4613 28.631 17.5361C28.8928 17.6109 29.1322 17.7119 29.3491 17.8391C29.566 17.9588 29.7418 18.1458 29.8765 18.4001C30.0111 18.647 30.0785 18.9499 30.0785 19.309V19.7466C30.0785 20.2927 29.9214 20.7228 29.6072 21.037C29.3005 21.3437 28.8741 21.4971 28.328 21.4971H27.0713C26.5252 21.4971 26.0951 21.3437 25.7809 21.037C25.4667 20.7228 25.3096 20.2927 25.3096 19.7466ZM32.3771 21.4971H31.6702C31.543 21.4971 31.4794 21.4335 31.4794 21.3063V13.7995C31.4794 13.6724 31.543 13.6088 31.6702 13.6088H32.3771C32.5043 13.6088 32.5678 13.6724 32.5678 13.7995V16.3691H32.6127C32.7923 15.9727 33.17 15.7744 33.746 15.7744H34.2397C34.7858 15.7744 35.2047 15.924 35.4965 16.2233C35.7882 16.5225 35.9341 16.9526 35.9341 17.5137V21.3063C35.9341 21.4335 35.8668 21.4971 35.7321 21.4971H35.0252C34.898 21.4971 34.8345 21.4335 34.8345 21.3063V17.5585C34.8345 17.005 34.5614 16.7282 34.0153 16.7282H33.4879C32.8745 16.7282 32.5678 17.0461 32.5678 17.682V21.3063C32.5678 21.4335 32.5043 21.4971 32.3771 21.4971ZM39.3408 21.4971H38.9032C38.3496 21.4971 37.9195 21.3437 37.6128 21.037C37.3135 20.7303 37.1639 20.3039 37.1639 19.7578V17.5137C37.1639 16.9601 37.3135 16.5337 37.6128 16.2345C37.9195 15.9278 38.3496 15.7744 38.9032 15.7744H41.4166C41.5513 15.7744 41.6186 15.838 41.6186 15.9652V21.3063C41.6186 21.4335 41.5513 21.4971 41.4166 21.4971H40.7097C40.5826 21.4971 40.519 21.4335 40.519 21.3063V20.9024H40.4741C40.2945 21.2988 39.9168 21.4971 39.3408 21.4971ZM40.519 19.5895V16.8404C40.519 16.7656 40.4778 16.7282 40.3955 16.7282H39.0603C38.5217 16.7282 38.2523 17.005 38.2523 17.5585V19.713C38.2523 20.2665 38.5217 20.5433 39.0603 20.5433H39.5989C40.2123 20.5433 40.519 20.2254 40.519 19.5895ZM43.9157 21.4971H43.2088C43.0816 21.4971 43.0181 21.4335 43.0181 21.3063V15.9652C43.0181 15.838 43.0816 15.7744 43.2088 15.7744H43.9157C44.0429 15.7744 44.1065 15.838 44.1065 15.9652V16.3916H44.1514C44.2262 16.2046 44.3683 16.0549 44.5778 15.9427C44.7947 15.8305 45.0341 15.7744 45.2959 15.7744H45.7111C45.8382 15.7744 45.9018 15.838 45.9018 15.9652V16.5487C45.9018 16.6908 45.8382 16.7506 45.7111 16.7282H45.0378C44.4169 16.7282 44.1065 17.0686 44.1065 17.7493V21.3063C44.1065 21.4335 44.0429 21.4971 43.9157 21.4971ZM46.8327 14.8206V13.7995C46.8327 13.6799 46.8926 13.62 47.0123 13.62H47.7416C47.8613 13.62 47.9211 13.6799 47.9211 13.7995V14.8206C47.9211 14.9478 47.8613 15.0114 47.7416 15.0114H47.0123C46.8926 15.0114 46.8327 14.9478 46.8327 14.8206ZM46.8327 21.3063V15.9652C46.8327 15.838 46.8926 15.7744 47.0123 15.7744H47.7304C47.8576 15.7744 47.9211 15.838 47.9211 15.9652V21.3063C47.9211 21.3811 47.9062 21.4335 47.8763 21.4634C47.8538 21.4858 47.8089 21.4971 47.7416 21.4971H47.0235C46.8963 21.4971 46.8327 21.4335 46.8327 21.3063ZM50.2932 21.4971H49.5863C49.4591 21.4971 49.3956 21.4335 49.3956 21.3063V15.9652C49.3956 15.838 49.4591 15.7744 49.5863 15.7744H50.2932C50.4204 15.7744 50.484 15.838 50.484 15.9652V16.3691H50.5289C50.7084 15.9727 51.0862 15.7744 51.6622 15.7744H52.1559C52.702 15.7744 53.1209 15.924 53.4126 16.2233C53.7044 16.5225 53.8502 16.9526 53.8502 17.5137V21.3063C53.8502 21.4335 53.7829 21.4971 53.6483 21.4971H52.9414C52.8142 21.4971 52.7506 21.4335 52.7506 21.3063V17.5585C52.7506 17.005 52.4776 16.7282 51.9315 16.7282H51.4041C50.7907 16.7282 50.484 17.0461 50.484 17.682V21.3063C50.484 21.4335 50.4204 21.4971 50.2932 21.4971ZM57.2794 21.2165H56.7744C56.2358 21.2165 55.8206 21.0669 55.5289 20.7677C55.2446 20.461 55.1025 20.0309 55.1025 19.4773V17.5137C55.1025 16.9601 55.2559 16.5337 55.5626 16.2345C55.8693 15.9278 56.2957 15.7744 56.8417 15.7744H59.3552C59.4899 15.7744 59.5572 15.838 59.5572 15.9652V21.5195C59.5572 22.0656 59.4001 22.4882 59.0859 22.7875C58.7792 23.0942 58.3528 23.2475 57.8067 23.2475H55.6972C55.57 23.2475 55.5065 23.1877 55.5065 23.068V22.4845C55.5065 22.3573 55.57 22.2938 55.6972 22.2938H57.6384C58.1845 22.2938 58.4575 22.017 58.4575 21.4634V20.6106H58.4127C58.2257 21.0146 57.8479 21.2165 57.2794 21.2165ZM58.4575 19.309V16.8404C58.4575 16.7656 58.4164 16.7282 58.3341 16.7282H56.9988C56.4677 16.7282 56.2022 17.005 56.2022 17.5585V19.4212C56.2022 19.9748 56.4677 20.2516 56.9988 20.2516H57.5374C58.1508 20.2516 58.4575 19.9374 58.4575 19.309ZM65.3915 20.5321H66.0087C66.4276 20.5321 66.6632 20.3413 66.7156 19.9598L65.2008 18.1981C64.7669 18.2206 64.55 18.5123 64.55 19.0734V19.713C64.55 20.259 64.8305 20.5321 65.3915 20.5321ZM66.0087 21.4971H65.2344C64.6884 21.4971 64.262 21.3475 63.9553 21.0482C63.6486 20.749 63.4952 20.3264 63.4952 19.7803V19.006C63.4952 18.632 63.5924 18.3029 63.7869 18.0186C63.9814 17.7343 64.2657 17.5772 64.6397 17.5473C64.333 17.1509 64.1797 16.7132 64.1797 16.2345V15.9988C64.1797 15.4602 64.3405 15.0413 64.6622 14.7421C64.9913 14.4354 65.4327 14.282 65.9862 14.282H66.3229C66.8689 14.282 67.2953 14.4317 67.602 14.7309C67.9087 15.0301 68.0621 15.4528 68.0621 15.9988V16.4365C68.0621 16.5711 67.9985 16.6384 67.8713 16.6384H67.1644C67.0373 16.6384 66.9737 16.5711 66.9737 16.4365V16.0213C66.9737 15.4827 66.7231 15.2134 66.2219 15.2134H66.0872C65.5636 15.2134 65.3018 15.4827 65.3018 16.0213V16.2569C65.3018 16.5935 65.4663 16.9451 65.7955 17.3117L66.3902 17.9962H68.9598C69.0869 17.9962 69.1505 18.0635 69.1505 18.1981V18.7704C69.1505 18.8976 69.0869 18.9612 68.9598 18.9612H67.1981L69.2066 21.34C69.2365 21.3699 69.244 21.4036 69.2291 21.441C69.2216 21.4784 69.1954 21.4971 69.1505 21.4971H68.2529C68.1032 21.4971 67.9948 21.4522 67.9274 21.3624L67.3776 20.7116C67.2056 21.2352 66.7493 21.4971 66.0087 21.4971Z" fill="#111322"/>
<path d="M1.52142 32.3281H0.713522C0.608794 32.3281 0.571391 32.2645 0.601313 32.1374L2.55375 25.3039C2.59115 25.1767 2.68092 25.1131 2.82305 25.1131H3.94513C4.09475 25.1131 4.18451 25.1767 4.21444 25.3039L6.16687 32.1374C6.19679 32.2645 6.15565 32.3281 6.04344 32.3281H5.24676C5.17943 32.3281 5.13081 32.3169 5.10088 32.2945C5.07844 32.2645 5.05974 32.2122 5.04478 32.1374L4.61839 30.6787H2.14979L1.7234 32.1374C1.69348 32.2645 1.62615 32.3281 1.52142 32.3281ZM3.36165 26.1903L2.37421 29.781H4.40519L3.40653 26.1903H3.36165ZM8.06153 32.3281H7.35461C7.22744 32.3281 7.16386 32.2645 7.16386 32.1374V26.7962C7.16386 26.6691 7.22744 26.6055 7.35461 26.6055H8.06153C8.1887 26.6055 8.25228 26.6691 8.25228 26.7962V27.2226H8.29717C8.37197 27.0356 8.51411 26.886 8.72356 26.7738C8.9405 26.6616 9.17988 26.6055 9.4417 26.6055H9.85687C9.98404 26.6055 10.0476 26.6691 10.0476 26.7962V27.3797C10.0476 27.5218 9.98404 27.5817 9.85687 27.5593H9.18362C8.56273 27.5593 8.25228 27.8996 8.25228 28.5804V32.1374C8.25228 32.2645 8.1887 32.3281 8.06153 32.3281ZM14.4009 31.5651V32.1486C14.4009 32.2683 14.3336 32.3281 14.1989 32.3281H12.5494C11.9959 32.3281 11.5657 32.1748 11.259 31.8681C10.9598 31.5614 10.8102 31.135 10.8102 30.5889V28.3447C10.8102 27.7912 10.9598 27.3648 11.259 27.0655C11.5657 26.7588 11.9959 26.6055 12.5494 26.6055H14.1989C14.3336 26.6055 14.4009 26.6691 14.4009 26.7962V27.3797C14.4009 27.4994 14.3336 27.5593 14.1989 27.5593H12.7065C12.1679 27.5593 11.8986 27.836 11.8986 28.3896V30.544C11.8986 31.0976 12.1679 31.3744 12.7065 31.3744H14.1989C14.3336 31.3744 14.4009 31.4379 14.4009 31.5651ZM16.3676 32.3281H15.6607C15.5335 32.3281 15.4699 32.2645 15.4699 32.1374V24.6306C15.4699 24.5034 15.5335 24.4398 15.6607 24.4398H16.3676C16.4948 24.4398 16.5584 24.5034 16.5584 24.6306V27.2002H16.6032C16.7828 26.8037 17.1605 26.6055 17.7366 26.6055H18.2303C18.7764 26.6055 19.1953 26.7551 19.487 27.0543C19.7788 27.3535 19.9246 27.7837 19.9246 28.3447V32.1374C19.9246 32.2645 19.8573 32.3281 19.7226 32.3281H19.0157C18.8886 32.3281 18.825 32.2645 18.825 32.1374V28.3896C18.825 27.836 18.5519 27.5593 18.0059 27.5593H17.4785C16.8651 27.5593 16.5584 27.8772 16.5584 28.513V32.1374C16.5584 32.2645 16.4948 32.3281 16.3676 32.3281ZM21.3228 25.6517V24.6306C21.3228 24.5109 21.3826 24.4511 21.5023 24.4511H22.2317C22.3513 24.4511 22.4112 24.5109 22.4112 24.6306V25.6517C22.4112 25.7789 22.3513 25.8425 22.2317 25.8425H21.5023C21.3826 25.8425 21.3228 25.7789 21.3228 25.6517ZM21.3228 32.1374V26.7962C21.3228 26.6691 21.3826 26.6055 21.5023 26.6055H22.2204C22.3476 26.6055 22.4112 26.6691 22.4112 26.7962V32.1374C22.4112 32.2122 22.3962 32.2645 22.3663 32.2945C22.3439 32.3169 22.299 32.3281 22.2317 32.3281H21.5135C21.3863 32.3281 21.3228 32.2645 21.3228 32.1374ZM23.5265 26.6055H24.2783C24.398 26.6055 24.4691 26.6691 24.4915 26.7962L25.6585 31.307H25.737L26.8816 26.7962C26.9115 26.6691 26.99 26.6055 27.1172 26.6055H27.8578C27.9924 26.6055 28.0373 26.6691 27.9924 26.7962L26.4776 32.1261C26.4477 32.2608 26.3654 32.3281 26.2308 32.3281H25.1536C25.0189 32.3281 24.9366 32.2608 24.9067 32.1261L23.3919 26.7962C23.362 26.6691 23.4068 26.6055 23.5265 26.6055ZM32.966 32.3281H30.5423C29.9887 32.3281 29.5586 32.1748 29.2519 31.8681C28.9527 31.5614 28.8031 31.135 28.8031 30.5889V28.3447C28.8031 27.7912 28.9527 27.3648 29.2519 27.0655C29.5586 26.7588 29.9887 26.6055 30.5423 26.6055H31.4624C32.016 26.6055 32.4461 26.7588 32.7528 27.0655C33.0595 27.3648 33.2129 27.7912 33.2129 28.3447V29.7698C33.2129 29.9044 33.1455 29.9717 33.0109 29.9717H30.0037C29.9214 29.9717 29.8803 30.0091 29.8803 30.0839V30.5664C29.8803 31.1125 30.1533 31.3856 30.6994 31.3856H32.966C33.1007 31.3856 33.168 31.4529 33.168 31.5875V32.1486C33.168 32.2683 33.1007 32.3281 32.966 32.3281ZM30.0037 29.2087H32.0122C32.087 29.2087 32.1244 29.1713 32.1244 29.0965V28.3784C32.1244 28.0941 32.0609 27.8884 31.9337 27.7612C31.8065 27.6266 31.6008 27.5593 31.3165 27.5593H30.6994C30.4151 27.5593 30.2094 27.6266 30.0822 27.7612C29.9551 27.8884 29.8915 28.0941 29.8915 28.3784V29.0965C29.8915 29.1713 29.9289 29.2087 30.0037 29.2087Z" fill="#111322"/>
<defs>
<filter id="filter0_dd_2119_4528" x="98" y="0" width="38" height="38" filterUnits="userSpaceOnUse" color-interpolation-filters="sRGB">
<feFlood flood-opacity="0" result="BackgroundImageFix"/>
<feColorMatrix in="SourceAlpha" type="matrix" values="0 0 0 0 0 0 0 0 0 0 0 0 0 0 0 0 0 0 127 0" result="hardAlpha"/>
<feOffset dy="1"/>
<feGaussianBlur stdDeviation="1"/>
<feColorMatrix type="matrix" values="0 0 0 0 0.0627451 0 0 0 0 0.0941176 0 0 0 0 0.156863 0 0 0 0.06 0"/>
<feBlend mode="normal" in2="BackgroundImageFix" result="effect1_dropShadow_2119_4528"/>
<feColorMatrix in="SourceAlpha" type="matrix" values="0 0 0 0 0 0 0 0 0 0 0 0 0 0 0 0 0 0 127 0" result="hardAlpha"/>
<feOffset dy="1"/>
<feGaussianBlur stdDeviation="1.5"/>
<feColorMatrix type="matrix" values="0 0 0 0 0.0627451 0 0 0 0 0.0941176 0 0 0 0 0.156863 0 0 0 0.1 0"/>
<feBlend mode="normal" in2="effect1_dropShadow_2119_4528" result="effect2_dropShadow_2119_4528"/>
<feBlend mode="normal" in="SourceGraphic" in2="effect2_dropShadow_2119_4528" result="shape"/>
</filter>
<clipPath id="clip0_2119_4528">
<rect x="101" y="2" width="32" height="32" rx="8" fill="white"/>
</clipPath>
</defs>
</svg>
