<svg width="832" height="352" viewBox="0 0 832 352" fill="none" xmlns="http://www.w3.org/2000/svg">
<path opacity="0.97" d="M828.585 0.458984H2.91085C1.5222 0.458984 0.396484 1.5847 0.396484 2.97335V348.585C0.396484 349.973 1.5222 351.099 2.91085 351.099H828.585C829.974 351.099 831.099 349.973 831.099 348.585V2.97335C831.099 1.5847 829.974 0.458984 828.585 0.458984Z" fill="white"/>
<mask id="mask0_2201_4009" style="mask-type:luminance" maskUnits="userSpaceOnUse" x="571" y="59" width="207" height="222">
<path d="M635.768 59.0434C634.722 59.0517 633.808 59.2101 633.06 59.6091C627.748 61.4158 619.061 63.3451 619.061 63.3451C619.061 63.3451 615.684 61.8969 608.925 65.2756C602.169 70.1014 600.722 71.5496 600.722 71.5496C600.722 71.5496 598.309 82.6528 591.067 82.6528C586.725 88.442 577.072 100.993 574.657 109.679C569.831 122.228 571.762 134.295 577.072 141.533C584.794 152.153 591.55 162.288 607.959 159.392C624.853 155.531 626.3 155.047 629.679 155.047C634.989 155.531 642.228 160.84 642.228 160.84C647.538 160.84 650.432 162.77 650.432 162.77C650.432 162.77 648.019 176.766 648.986 178.697C650.432 181.112 659.12 183.886 659.602 194.322C660.087 204.76 662.981 210.553 662.981 210.553C662.981 210.553 662.5 216.345 658.155 221.17C653.811 225.997 661.051 238.545 663.947 241.441C665.879 246.75 667.808 254.955 668.292 259.299C673.339 264.127 673.339 266.54 676.496 277.641C676.496 277.641 678.428 283.433 687.596 279.088C698.699 277.641 701.594 279.088 706.902 271.364C715.591 262.197 718.004 261.23 718.487 256.403C722.347 249.648 727.173 247.717 727.173 247.717C727.173 241.923 727.656 236.133 724.761 234.685C733.931 230.341 741.169 225.514 744.549 223.584C745.515 216.345 744.066 197.4 741.169 194.322C738.274 189.315 738.755 191.246 745.272 183.524C753.236 174.355 764.822 161.806 764.822 161.806C764.822 161.806 768.199 156.013 769.163 150.223C775.92 142.982 783.034 129.951 769.583 134.295C763.855 136.708 759.028 140.414 754.201 136.708C752.272 130.433 747.928 128.021 744.066 128.021C736.345 117.404 730.553 109.679 730.553 109.679C730.553 109.679 734.749 102.923 726.858 97.6147C721.382 90.3725 721.382 89.8902 721.382 89.8902C721.382 89.8902 726.208 72.5154 708.35 75.8941C696.284 75.4118 682.693 72.0331 679.392 77.8247C676.094 80.7223 671.187 79.9315 668.774 74.0517C664.431 71.5496 657.672 73.8898 657.672 73.8898C657.672 73.8898 652.021 70.5849 654.777 66.725C657.533 61.4158 656.707 59.0017 649.951 60.4487C647.094 60.6536 644.239 60.2129 641.637 59.7723C639.524 59.415 637.579 59.0565 635.939 59.0434H635.768Z" fill="white"/>
</mask>
<g mask="url(#mask0_2201_4009)">
<path d="M559.578 80.77L559.695 90.5596H785.573L785.456 80.77H559.578Z" fill="#B3A168"/>
</g>
<mask id="mask1_2201_4009" style="mask-type:luminance" maskUnits="userSpaceOnUse" x="585" y="80" width="137" height="11">
<path d="M595.804 80.77C594.527 81.893 592.962 82.6528 591.067 82.6528C589.58 84.637 587.467 87.4155 585.236 90.5596H721.756C721.382 89.9724 721.382 89.8902 721.382 89.8902C721.382 89.8902 722.773 84.8859 721.299 80.77H595.804Z" fill="white"/>
</mask>
<g mask="url(#mask1_2201_4009)">
<path d="M633.776 78.4842L627.887 93.3223H694.768L700.825 78.4842H633.776Z" fill="#231F20"/>
</g>
<mask id="mask2_2201_4009" style="mask-type:luminance" maskUnits="userSpaceOnUse" x="571" y="59" width="207" height="222">
<path d="M635.768 59.0434C634.722 59.0517 633.808 59.2101 633.06 59.6091C627.748 61.4158 619.061 63.3451 619.061 63.3451C619.061 63.3451 615.684 61.8969 608.925 65.2756C602.169 70.1014 600.722 71.5496 600.722 71.5496C600.722 71.5496 598.309 82.6528 591.067 82.6528C586.725 88.442 577.072 100.993 574.657 109.679C569.831 122.228 571.762 134.295 577.072 141.533C584.794 152.153 591.55 162.288 607.959 159.392C624.853 155.531 626.3 155.047 629.679 155.047C634.989 155.531 642.228 160.84 642.228 160.84C647.538 160.84 650.432 162.77 650.432 162.77C650.432 162.77 648.019 176.766 648.986 178.697C650.432 181.112 659.12 183.886 659.602 194.322C660.087 204.76 662.981 210.553 662.981 210.553C662.981 210.553 662.5 216.345 658.155 221.17C653.811 225.997 661.051 238.545 663.947 241.441C665.879 246.75 667.808 254.955 668.292 259.299C673.339 264.127 673.339 266.54 676.496 277.641C676.496 277.641 678.428 283.433 687.596 279.088C698.699 277.641 701.594 279.088 706.902 271.364C715.591 262.197 718.004 261.23 718.487 256.403C722.347 249.648 727.173 247.717 727.173 247.717C727.173 241.923 727.656 236.133 724.761 234.685C733.931 230.341 741.169 225.514 744.549 223.584C745.515 216.345 744.066 197.4 741.169 194.322C738.274 189.315 738.755 191.246 745.272 183.524C753.236 174.355 764.822 161.806 764.822 161.806C764.822 161.806 768.199 156.013 769.163 150.223C775.92 142.982 783.034 129.951 769.583 134.295C763.855 136.708 759.028 140.414 754.201 136.708C752.272 130.433 747.928 128.021 744.066 128.021C736.345 117.404 730.553 109.679 730.553 109.679C730.553 109.679 734.749 102.923 726.858 97.6147C721.382 90.3725 721.382 89.8902 721.382 89.8902C721.382 89.8902 726.208 72.5154 708.35 75.8941C696.284 75.4118 682.693 72.0331 679.392 77.8247C676.094 80.7223 671.187 79.9315 668.774 74.0517C664.431 71.5496 657.672 73.8898 657.672 73.8898C657.672 73.8898 652.021 70.5849 654.777 66.725C657.533 61.4158 656.707 59.0017 649.951 60.4487C647.094 60.6536 644.239 60.2129 641.637 59.7723C639.524 59.415 637.579 59.0565 635.939 59.0434H635.768Z" fill="white"/>
</mask>
<g mask="url(#mask2_2201_4009)">
<path d="M559.695 66.2047V76.1182H738.968L741.622 66.2047H559.695Z" fill="#231F20"/>
</g>
<mask id="mask3_2201_4009" style="mask-type:luminance" maskUnits="userSpaceOnUse" x="599" y="66" width="118" height="11">
<path d="M607.633 66.2025C601.98 70.2899 600.722 71.5487 600.722 71.5487C600.722 71.5487 600.252 73.7055 599.107 76.1172H669.851C669.454 75.5158 669.094 74.8286 668.774 74.0509C664.431 71.5487 657.672 73.8889 657.672 73.8889C657.672 73.8889 652.021 70.584 654.777 66.7242C654.869 66.5455 654.958 66.3728 655.04 66.2025H607.633ZM680.998 76.1172H716.75C714.755 75.3836 712.035 75.1966 708.351 75.8933C701.685 75.6265 694.554 74.4761 688.949 74.4761C685.623 74.4761 682.834 74.8822 680.998 76.1172Z" fill="white"/>
</mask>
<g mask="url(#mask3_2201_4009)">
<path d="M462.425 60.1752L459.207 78.0859H620.763V60.1752H462.425Z" fill="#B3A168"/>
<path d="M698.032 63.4282L694.814 81.3389H856.37V63.4282H698.032Z" fill="#B3A168"/>
</g>
<mask id="mask4_2201_4009" style="mask-type:luminance" maskUnits="userSpaceOnUse" x="571" y="59" width="207" height="222">
<path d="M635.768 59.0434C634.722 59.0517 633.808 59.2101 633.06 59.6091C627.748 61.4158 619.061 63.3451 619.061 63.3451C619.061 63.3451 615.684 61.8969 608.925 65.2756C602.169 70.1014 600.722 71.5496 600.722 71.5496C600.722 71.5496 598.309 82.6528 591.067 82.6528C586.725 88.442 577.072 100.993 574.657 109.679C569.831 122.228 571.762 134.295 577.072 141.533C584.794 152.153 591.55 162.288 607.959 159.392C624.853 155.531 626.3 155.047 629.679 155.047C634.989 155.531 642.228 160.84 642.228 160.84C647.538 160.84 650.432 162.77 650.432 162.77C650.432 162.77 648.019 176.766 648.986 178.697C650.432 181.112 659.12 183.886 659.602 194.322C660.087 204.76 662.981 210.553 662.981 210.553C662.981 210.553 662.5 216.345 658.155 221.17C653.811 225.997 661.051 238.545 663.947 241.441C665.879 246.75 667.808 254.955 668.292 259.299C673.339 264.127 673.339 266.54 676.496 277.641C676.496 277.641 678.428 283.433 687.596 279.088C698.699 277.641 701.594 279.088 706.902 271.364C715.591 262.197 718.004 261.23 718.487 256.403C722.347 249.648 727.173 247.717 727.173 247.717C727.173 241.923 727.656 236.133 724.761 234.685C733.931 230.341 741.169 225.514 744.549 223.584C745.515 216.345 744.066 197.4 741.169 194.322C738.274 189.315 738.755 191.246 745.272 183.524C753.236 174.355 764.822 161.806 764.822 161.806C764.822 161.806 768.199 156.013 769.163 150.223C775.92 142.982 783.034 129.951 769.583 134.295C763.855 136.708 759.028 140.414 754.201 136.708C752.272 130.433 747.928 128.021 744.066 128.021C736.345 117.404 730.553 109.679 730.553 109.679C730.553 109.679 734.749 102.923 726.858 97.6147C721.382 90.3725 721.382 89.8902 721.382 89.8902C721.382 89.8902 726.208 72.5154 708.35 75.8941C696.284 75.4118 682.693 72.0331 679.392 77.8247C676.094 80.7223 671.187 79.9315 668.774 74.0517C664.431 71.5496 657.672 73.8898 657.672 73.8898C657.672 73.8898 652.021 70.5849 654.777 66.725C657.533 61.4158 656.707 59.0017 649.951 60.4487C647.094 60.6536 644.239 60.2129 641.637 59.7723C639.524 59.415 637.579 59.0565 635.939 59.0434H635.768Z" fill="white"/>
</mask>
<g mask="url(#mask4_2201_4009)">
<path d="M559.695 105.109H738.486V95.4805H559.695V105.109Z" fill="#B3A168"/>
</g>
<mask id="mask5_2201_4009" style="mask-type:luminance" maskUnits="userSpaceOnUse" x="576" y="95" width="156" height="11">
<path d="M581.875 95.4817C579.789 98.6735 577.821 102 576.387 105.109H731.66C731.575 102.844 730.515 100.074 726.857 97.6147C726.262 96.8251 725.731 96.1165 725.257 95.4817H581.875Z" fill="white"/>
</mask>
<g mask="url(#mask5_2201_4009)">
<path d="M649.596 94.033L640.908 106.582L677.079 106.34V94.033H649.596Z" fill="#231F20"/>
</g>
<mask id="mask6_2201_4009" style="mask-type:luminance" maskUnits="userSpaceOnUse" x="571" y="59" width="207" height="222">
<path d="M635.768 59.0434C634.722 59.0517 633.808 59.2101 633.06 59.6091C627.748 61.4158 619.061 63.3451 619.061 63.3451C619.061 63.3451 615.684 61.8969 608.925 65.2756C602.169 70.1014 600.722 71.5496 600.722 71.5496C600.722 71.5496 598.309 82.6528 591.067 82.6528C586.725 88.442 577.072 100.993 574.657 109.679C569.831 122.228 571.762 134.295 577.072 141.533C584.794 152.153 591.55 162.288 607.959 159.392C624.853 155.531 626.3 155.047 629.679 155.047C634.989 155.531 642.228 160.84 642.228 160.84C647.538 160.84 650.432 162.77 650.432 162.77C650.432 162.77 648.019 176.766 648.986 178.697C650.432 181.112 659.12 183.886 659.602 194.322C660.087 204.76 662.981 210.553 662.981 210.553C662.981 210.553 662.5 216.345 658.155 221.17C653.811 225.997 661.051 238.545 663.947 241.441C665.879 246.75 667.808 254.955 668.292 259.299C673.339 264.127 673.339 266.54 676.496 277.641C676.496 277.641 678.428 283.433 687.596 279.088C698.699 277.641 701.594 279.088 706.902 271.364C715.591 262.197 718.004 261.23 718.487 256.403C722.347 249.648 727.173 247.717 727.173 247.717C727.173 241.923 727.656 236.133 724.761 234.685C733.931 230.341 741.169 225.514 744.549 223.584C745.515 216.345 744.066 197.4 741.169 194.322C738.274 189.315 738.755 191.246 745.272 183.524C753.236 174.355 764.822 161.806 764.822 161.806C764.822 161.806 768.199 156.013 769.163 150.223C775.92 142.982 783.034 129.951 769.583 134.295C763.855 136.708 759.028 140.414 754.201 136.708C752.272 130.433 747.928 128.021 744.066 128.021C736.345 117.404 730.553 109.679 730.553 109.679C730.553 109.679 734.749 102.923 726.858 97.6147C721.382 90.3725 721.382 89.8902 721.382 89.8902C721.382 89.8902 726.208 72.5154 708.35 75.8941C696.284 75.4118 682.693 72.0331 679.392 77.8247C676.094 80.7223 671.187 79.9315 668.774 74.0517C664.431 71.5496 657.672 73.8898 657.672 73.8898C657.672 73.8898 652.021 70.5849 654.777 66.725C657.533 61.4158 656.707 59.0017 649.951 60.4487C647.094 60.6536 644.239 60.2129 641.637 59.7723C639.524 59.415 637.579 59.0565 635.939 59.0434H635.768Z" fill="white"/>
</mask>
<g mask="url(#mask6_2201_4009)">
<path d="M560.285 134.584H786.163V124.612H560.285V134.584Z" fill="#319044"/>
</g>
<mask id="mask7_2201_4009" style="mask-type:luminance" maskUnits="userSpaceOnUse" x="571" y="124" width="206" height="11">
<path d="M571.896 124.612C571.947 128.206 572.53 131.574 573.539 134.584H753.394C751.221 129.88 747.458 128.021 744.066 128.021C743.214 126.846 742.383 125.709 741.582 124.612H571.896ZM769.584 134.295C769.358 134.39 769.136 134.486 768.914 134.584H776.795C776.328 133.853 775.442 133.428 774.025 133.428C772.896 133.428 771.437 133.696 769.584 134.295Z" fill="white"/>
</mask>
<g mask="url(#mask7_2201_4009)">
<path d="M629.403 162.233C629.403 162.233 628.797 129.192 668.468 116.186L658.778 108.013C658.778 108.013 621.115 118.321 617.592 164.05C614.069 209.475 629.403 162.233 629.403 162.233Z" fill="#00512C"/>
<path d="M559.58 122.888L559.856 166.571L616.706 159.304L634.876 122.962L559.58 122.888Z" fill="#B3A168"/>
<path d="M694.428 138.425H920.306V122.886H694.428V138.425Z" fill="#B3A168"/>
</g>
<mask id="mask8_2201_4009" style="mask-type:luminance" maskUnits="userSpaceOnUse" x="694" y="124" width="83" height="11">
<path d="M694.426 124.612V134.584H753.396C751.22 129.88 747.458 128.021 744.066 128.021C743.214 126.846 742.383 125.71 741.584 124.612H694.426ZM769.583 134.295C769.358 134.39 769.135 134.486 768.914 134.584H776.794C776.327 133.853 775.441 133.428 774.024 133.428C772.895 133.428 771.436 133.696 769.583 134.295Z" fill="white"/>
</mask>
<g mask="url(#mask8_2201_4009)">
<path d="M673.313 101.665C673.313 101.665 718.133 121.653 718.133 160.416C718.133 199.179 648.48 219.771 648.48 219.771L673.313 101.665Z" fill="#7D7246"/>
</g>
<mask id="mask9_2201_4009" style="mask-type:luminance" maskUnits="userSpaceOnUse" x="571" y="59" width="207" height="222">
<path d="M635.768 59.0434C634.722 59.0517 633.808 59.2101 633.06 59.6091C627.748 61.4158 619.061 63.3451 619.061 63.3451C619.061 63.3451 615.684 61.8969 608.925 65.2756C602.169 70.1014 600.722 71.5496 600.722 71.5496C600.722 71.5496 598.309 82.6528 591.067 82.6528C586.725 88.442 577.072 100.993 574.657 109.679C569.831 122.228 571.762 134.295 577.072 141.533C584.794 152.153 591.55 162.288 607.959 159.392C624.853 155.531 626.3 155.047 629.679 155.047C634.989 155.531 642.228 160.84 642.228 160.84C647.538 160.84 650.432 162.77 650.432 162.77C650.432 162.77 648.019 176.766 648.986 178.697C650.432 181.112 659.12 183.886 659.602 194.322C660.087 204.76 662.981 210.553 662.981 210.553C662.981 210.553 662.5 216.345 658.155 221.17C653.811 225.997 661.051 238.545 663.947 241.441C665.879 246.75 667.808 254.955 668.292 259.299C673.339 264.127 673.339 266.54 676.496 277.641C676.496 277.641 678.428 283.433 687.596 279.088C698.699 277.641 701.594 279.088 706.902 271.364C715.591 262.197 718.004 261.23 718.487 256.403C722.347 249.648 727.173 247.717 727.173 247.717C727.173 241.923 727.656 236.133 724.761 234.685C733.931 230.341 741.169 225.514 744.549 223.584C745.515 216.345 744.066 197.4 741.169 194.322C738.274 189.315 738.755 191.246 745.272 183.524C753.236 174.355 764.822 161.806 764.822 161.806C764.822 161.806 768.199 156.013 769.163 150.223C775.92 142.982 783.034 129.951 769.583 134.295C763.855 136.708 759.028 140.414 754.201 136.708C752.272 130.433 747.928 128.021 744.066 128.021C736.345 117.404 730.553 109.679 730.553 109.679C730.553 109.679 734.749 102.923 726.858 97.6147C721.382 90.3725 721.382 89.8902 721.382 89.8902C721.382 89.8902 726.208 72.5154 708.35 75.8941C696.284 75.4118 682.693 72.0331 679.392 77.8247C676.094 80.7223 671.187 79.9315 668.774 74.0517C664.431 71.5496 657.672 73.8898 657.672 73.8898C657.672 73.8898 652.021 70.5849 654.777 66.725C657.533 61.4158 656.707 59.0017 649.951 60.4487C647.094 60.6536 644.239 60.2129 641.637 59.7723C639.524 59.415 637.579 59.0565 635.939 59.0434H635.768Z" fill="white"/>
</mask>
<g mask="url(#mask9_2201_4009)">
<path d="M559.578 110.244L560.286 119.847H786.164L785.456 110.244H559.578Z" fill="#319044"/>
</g>
<mask id="mask10_2201_4009" style="mask-type:luminance" maskUnits="userSpaceOnUse" x="572" y="110" width="167" height="10">
<path d="M574.444 110.243C573.241 113.507 572.492 116.734 572.137 119.847H738.089C734.545 115.032 731.949 111.549 730.975 110.243H574.444Z" fill="white"/>
</mask>
<g mask="url(#mask10_2201_4009)">
<path d="M554.734 108.547L555.011 123.084H643.355L643.079 108.547H554.734Z" fill="#B3A168"/>
<path d="M672.32 107.665L673.058 123.139L890.063 122.401L756.691 105.085L672.32 107.665Z" fill="#B3A168"/>
</g>
<mask id="mask11_2201_4009" style="mask-type:luminance" maskUnits="userSpaceOnUse" x="672" y="110" width="67" height="10">
<path d="M672.441 110.243L672.899 119.847H738.088C734.545 115.032 731.948 111.549 730.973 110.243H672.441Z" fill="white"/>
</mask>
<g mask="url(#mask11_2201_4009)">
<path d="M673.313 101.664C673.313 101.664 718.133 121.652 718.133 160.415C718.133 199.178 648.48 219.771 648.48 219.771L673.313 101.664Z" fill="#7D7246"/>
</g>
<mask id="mask12_2201_4009" style="mask-type:luminance" maskUnits="userSpaceOnUse" x="572" y="110" width="167" height="10">
<path d="M574.444 110.243C573.241 113.507 572.492 116.734 572.137 119.847H738.089C734.545 115.032 731.949 111.549 730.975 110.243H574.444Z" fill="white"/>
</mask>
<g mask="url(#mask12_2201_4009)">
<path d="M629.401 162.232C629.401 162.232 628.795 129.191 668.466 116.185L658.776 108.012C658.776 108.012 621.113 118.32 617.59 164.049C614.067 209.474 629.401 162.232 629.401 162.232Z" fill="#00512C"/>
</g>
<mask id="mask13_2201_4009" style="mask-type:luminance" maskUnits="userSpaceOnUse" x="571" y="59" width="207" height="222">
<path d="M635.768 59.0434C634.722 59.0517 633.808 59.2101 633.06 59.6091C627.748 61.4158 619.061 63.3451 619.061 63.3451C619.061 63.3451 615.684 61.8969 608.925 65.2756C602.169 70.1014 600.722 71.5496 600.722 71.5496C600.722 71.5496 598.309 82.6528 591.067 82.6528C586.725 88.442 577.072 100.993 574.657 109.679C569.831 122.228 571.762 134.295 577.072 141.533C584.794 152.153 591.55 162.288 607.959 159.392C624.853 155.531 626.3 155.047 629.679 155.047C634.989 155.531 642.228 160.84 642.228 160.84C647.538 160.84 650.432 162.77 650.432 162.77C650.432 162.77 648.019 176.766 648.986 178.697C650.432 181.112 659.12 183.886 659.602 194.322C660.087 204.76 662.981 210.553 662.981 210.553C662.981 210.553 662.5 216.345 658.155 221.17C653.811 225.997 661.051 238.545 663.947 241.441C665.879 246.75 667.808 254.955 668.292 259.299C673.339 264.127 673.339 266.54 676.496 277.641C676.496 277.641 678.428 283.433 687.596 279.088C698.699 277.641 701.594 279.088 706.902 271.364C715.591 262.197 718.004 261.23 718.487 256.403C722.347 249.648 727.173 247.717 727.173 247.717C727.173 241.923 727.656 236.133 724.761 234.685C733.931 230.341 741.169 225.514 744.549 223.584C745.515 216.345 744.066 197.4 741.169 194.322C738.274 189.315 738.755 191.246 745.272 183.524C753.236 174.355 764.822 161.806 764.822 161.806C764.822 161.806 768.199 156.013 769.163 150.223C775.92 142.982 783.034 129.951 769.583 134.295C763.855 136.708 759.028 140.414 754.201 136.708C752.272 130.433 747.928 128.021 744.066 128.021C736.345 117.404 730.553 109.679 730.553 109.679C730.553 109.679 734.749 102.923 726.858 97.6147C721.382 90.3725 721.382 89.8902 721.382 89.8902C721.382 89.8902 726.208 72.5154 708.35 75.8941C696.284 75.4118 682.693 72.0331 679.392 77.8247C676.094 80.7223 671.187 79.9315 668.774 74.0517C664.431 71.5496 657.672 73.8898 657.672 73.8898C657.672 73.8898 652.021 70.5849 654.777 66.725C657.533 61.4158 656.707 59.0017 649.951 60.4487C647.094 60.6536 644.239 60.2129 641.637 59.7723C639.524 59.415 637.579 59.0565 635.939 59.0434H635.768Z" fill="white"/>
</mask>
<g mask="url(#mask13_2201_4009)">
<path d="M560.285 149.665H786.163V139.788H560.285V149.665Z" fill="#319044"/>
</g>
<mask id="mask14_2201_4009" style="mask-type:luminance" maskUnits="userSpaceOnUse" x="575" y="139" width="202" height="11">
<path d="M575.914 139.791C576.281 140.398 576.666 140.98 577.073 141.533C579.126 144.358 581.11 147.147 583.228 149.666H769.673C772.332 146.71 774.965 142.949 776.3 139.791H575.914Z" fill="white"/>
</mask>
<g mask="url(#mask14_2201_4009)">
<path d="M532.215 137.498L532.491 152.035H620.836L620.56 137.498H532.215Z" fill="#B3A168"/>
<path d="M629.403 162.232C629.403 162.232 628.797 129.191 668.468 116.185L658.778 108.012C658.778 108.012 621.115 118.32 617.592 164.049C614.069 209.474 629.403 162.232 629.403 162.232Z" fill="#00512C"/>
<path d="M701.668 151.877H890.141V138.245H701.668V151.877Z" fill="#B3A168"/>
</g>
<mask id="mask15_2201_4009" style="mask-type:luminance" maskUnits="userSpaceOnUse" x="701" y="139" width="76" height="11">
<path d="M701.666 139.791V149.666H769.672C772.33 146.71 774.963 142.948 776.298 139.791H701.666Z" fill="white"/>
</mask>
<g mask="url(#mask15_2201_4009)">
<path d="M673.313 101.664C673.313 101.664 718.133 121.652 718.133 160.415C718.133 199.178 648.48 219.771 648.48 219.771L673.313 101.664Z" fill="#7D7246"/>
</g>
<mask id="mask16_2201_4009" style="mask-type:luminance" maskUnits="userSpaceOnUse" x="571" y="59" width="207" height="222">
<path d="M635.768 59.0434C634.722 59.0517 633.808 59.2101 633.06 59.6091C627.748 61.4158 619.061 63.3451 619.061 63.3451C619.061 63.3451 615.684 61.8969 608.925 65.2756C602.169 70.1014 600.722 71.5496 600.722 71.5496C600.722 71.5496 598.309 82.6528 591.067 82.6528C586.725 88.442 577.072 100.993 574.657 109.679C569.831 122.228 571.762 134.295 577.072 141.533C584.794 152.153 591.55 162.288 607.959 159.392C624.853 155.531 626.3 155.047 629.679 155.047C634.989 155.531 642.228 160.84 642.228 160.84C647.538 160.84 650.432 162.77 650.432 162.77C650.432 162.77 648.019 176.766 648.986 178.697C650.432 181.112 659.12 183.886 659.602 194.322C660.087 204.76 662.981 210.553 662.981 210.553C662.981 210.553 662.5 216.345 658.155 221.17C653.811 225.997 661.051 238.545 663.947 241.441C665.879 246.75 667.808 254.955 668.292 259.299C673.339 264.127 673.339 266.54 676.496 277.641C676.496 277.641 678.428 283.433 687.596 279.088C698.699 277.641 701.594 279.088 706.902 271.364C715.591 262.197 718.004 261.23 718.487 256.403C722.347 249.648 727.173 247.717 727.173 247.717C727.173 241.923 727.656 236.133 724.761 234.685C733.931 230.341 741.169 225.514 744.549 223.584C745.515 216.345 744.066 197.4 741.169 194.322C738.274 189.315 738.755 191.246 745.272 183.524C753.236 174.355 764.822 161.806 764.822 161.806C764.822 161.806 768.199 156.013 769.163 150.223C775.92 142.982 783.034 129.951 769.583 134.295C763.855 136.708 759.028 140.414 754.201 136.708C752.272 130.433 747.928 128.021 744.066 128.021C736.345 117.404 730.553 109.679 730.553 109.679C730.553 109.679 734.749 102.923 726.858 97.6147C721.382 90.3725 721.382 89.8902 721.382 89.8902C721.382 89.8902 726.208 72.5154 708.35 75.8941C696.284 75.4118 682.693 72.0331 679.392 77.8247C676.094 80.7223 671.187 79.9315 668.774 74.0517C664.431 71.5496 657.672 73.8898 657.672 73.8898C657.672 73.8898 652.021 70.5849 654.777 66.725C657.533 61.4158 656.707 59.0017 649.951 60.4487C647.094 60.6536 644.239 60.2129 641.637 59.7723C639.524 59.415 637.579 59.0565 635.939 59.0434H635.768Z" fill="white"/>
</mask>
<g mask="url(#mask16_2201_4009)">
<path d="M560.286 168.824L559.578 178.796H785.456L786.164 168.824H560.286Z" fill="#319044"/>
</g>
<mask id="mask17_2201_4009" style="mask-type:luminance" maskUnits="userSpaceOnUse" x="648" y="168" width="111" height="11">
<path d="M649.504 168.824C648.952 172.867 648.451 177.63 648.986 178.697C649.005 178.731 649.027 178.762 649.049 178.797H749.427C752.499 175.335 755.708 171.782 758.399 168.824H649.504Z" fill="white"/>
</mask>
<g mask="url(#mask17_2201_4009)">
<path d="M702.318 179.878H890.141V167.35H702.318V179.878Z" fill="#B3A168"/>
</g>
<mask id="mask18_2201_4009" style="mask-type:luminance" maskUnits="userSpaceOnUse" x="702" y="168" width="57" height="11">
<path d="M702.318 168.824V178.797H749.428C752.499 175.336 755.711 171.782 758.399 168.824H702.318Z" fill="white"/>
</mask>
<g mask="url(#mask18_2201_4009)">
<path d="M673.313 101.665C673.313 101.665 718.133 121.653 718.133 160.416C718.133 199.179 648.48 219.771 648.48 219.771L673.313 101.665Z" fill="#7D7246"/>
</g>
<mask id="mask19_2201_4009" style="mask-type:luminance" maskUnits="userSpaceOnUse" x="571" y="59" width="207" height="222">
<path d="M635.768 59.0434C634.722 59.0517 633.808 59.2101 633.06 59.6091C627.748 61.4158 619.061 63.3451 619.061 63.3451C619.061 63.3451 615.684 61.8969 608.925 65.2756C602.169 70.1014 600.722 71.5496 600.722 71.5496C600.722 71.5496 598.309 82.6528 591.067 82.6528C586.725 88.442 577.072 100.993 574.657 109.679C569.831 122.228 571.762 134.295 577.072 141.533C584.794 152.153 591.55 162.288 607.959 159.392C624.853 155.531 626.3 155.047 629.679 155.047C634.989 155.531 642.228 160.84 642.228 160.84C647.538 160.84 650.432 162.77 650.432 162.77C650.432 162.77 648.019 176.766 648.986 178.697C650.432 181.112 659.12 183.886 659.602 194.322C660.087 204.76 662.981 210.553 662.981 210.553C662.981 210.553 662.5 216.345 658.155 221.17C653.811 225.997 661.051 238.545 663.947 241.441C665.879 246.75 667.808 254.955 668.292 259.299C673.339 264.127 673.339 266.54 676.496 277.641C676.496 277.641 678.428 283.433 687.596 279.088C698.699 277.641 701.594 279.088 706.902 271.364C715.591 262.197 718.004 261.23 718.487 256.403C722.347 249.648 727.173 247.717 727.173 247.717C727.173 241.923 727.656 236.133 724.761 234.685C733.931 230.341 741.169 225.514 744.549 223.584C745.515 216.345 744.066 197.4 741.169 194.322C738.274 189.315 738.755 191.246 745.272 183.524C753.236 174.355 764.822 161.806 764.822 161.806C764.822 161.806 768.199 156.013 769.163 150.223C775.92 142.982 783.034 129.951 769.583 134.295C763.855 136.708 759.028 140.414 754.201 136.708C752.272 130.433 747.928 128.021 744.066 128.021C736.345 117.404 730.553 109.679 730.553 109.679C730.553 109.679 734.749 102.923 726.858 97.6147C721.382 90.3725 721.382 89.8902 721.382 89.8902C721.382 89.8902 726.208 72.5154 708.35 75.8941C696.284 75.4118 682.693 72.0331 679.392 77.8247C676.094 80.7223 671.187 79.9315 668.774 74.0517C664.431 71.5496 657.672 73.8898 657.672 73.8898C657.672 73.8898 652.021 70.5849 654.777 66.725C657.533 61.4158 656.707 59.0017 649.951 60.4487C647.094 60.6536 644.239 60.2129 641.637 59.7723C639.524 59.415 637.579 59.0565 635.939 59.0434H635.768Z" fill="white"/>
</mask>
<g mask="url(#mask19_2201_4009)">
<path d="M560.285 164.403H786.163V154.455H560.285V164.403Z" fill="#319044"/>
</g>
<mask id="mask20_2201_4009" style="mask-type:luminance" maskUnits="userSpaceOnUse" x="587" y="154" width="182" height="11">
<path d="M587.904 154.456C592.853 158.645 598.952 160.983 607.959 159.392C624.852 155.531 626.299 155.047 629.678 155.047C634.989 155.531 642.227 160.84 642.227 160.84C647.538 160.84 650.432 162.77 650.432 162.77C650.432 162.77 650.326 163.397 650.164 164.404H762.432C763.911 162.787 764.821 161.806 764.821 161.806C764.821 161.806 766.727 158.538 768.082 154.456H587.904Z" fill="white"/>
</mask>
<g mask="url(#mask20_2201_4009)">
<path d="M527.973 151.429L528.249 165.966H616.594L616.317 151.429H527.973Z" fill="#B3A168"/>
<path d="M706.492 165.573H890.139V153.72H706.492V165.573Z" fill="#B3A168"/>
</g>
<mask id="mask21_2201_4009" style="mask-type:luminance" maskUnits="userSpaceOnUse" x="706" y="154" width="63" height="11">
<path d="M706.492 154.456V164.404H762.432C763.911 162.786 764.821 161.806 764.821 161.806C764.821 161.806 766.727 158.538 768.082 154.456H706.492Z" fill="white"/>
</mask>
<g mask="url(#mask21_2201_4009)">
<path d="M673.313 101.665C673.313 101.665 718.133 121.653 718.133 160.416C718.133 199.179 648.48 219.771 648.48 219.771L673.313 101.665Z" fill="#7D7246"/>
</g>
<mask id="mask22_2201_4009" style="mask-type:luminance" maskUnits="userSpaceOnUse" x="587" y="154" width="182" height="11">
<path d="M587.904 154.456C592.853 158.645 598.952 160.983 607.959 159.392C624.852 155.531 626.299 155.047 629.678 155.047C634.989 155.531 642.227 160.84 642.227 160.84C647.538 160.84 650.432 162.77 650.432 162.77C650.432 162.77 650.326 163.397 650.164 164.404H762.432C763.911 162.787 764.821 161.806 764.821 161.806C764.821 161.806 766.727 158.538 768.082 154.456H587.904Z" fill="white"/>
</mask>
<g mask="url(#mask22_2201_4009)">
<path d="M629.401 162.233C629.401 162.233 628.795 129.192 668.466 116.186L658.776 108.013C658.776 108.013 621.113 118.321 617.59 164.05C614.067 209.475 629.401 162.233 629.401 162.233Z" fill="#00512C"/>
</g>
<mask id="mask23_2201_4009" style="mask-type:luminance" maskUnits="userSpaceOnUse" x="571" y="59" width="207" height="222">
<path d="M635.768 59.0434C634.722 59.0517 633.808 59.2101 633.06 59.6091C627.748 61.4158 619.061 63.3451 619.061 63.3451C619.061 63.3451 615.684 61.8969 608.925 65.2756C602.169 70.1014 600.722 71.5496 600.722 71.5496C600.722 71.5496 598.309 82.6528 591.067 82.6528C586.725 88.442 577.072 100.993 574.657 109.679C569.831 122.228 571.762 134.295 577.072 141.533C584.794 152.153 591.55 162.288 607.959 159.392C624.853 155.531 626.3 155.047 629.679 155.047C634.989 155.531 642.228 160.84 642.228 160.84C647.538 160.84 650.432 162.77 650.432 162.77C650.432 162.77 648.019 176.766 648.986 178.697C650.432 181.112 659.12 183.886 659.602 194.322C660.087 204.76 662.981 210.553 662.981 210.553C662.981 210.553 662.5 216.345 658.155 221.17C653.811 225.997 661.051 238.545 663.947 241.441C665.879 246.75 667.808 254.955 668.292 259.299C673.339 264.127 673.339 266.54 676.496 277.641C676.496 277.641 678.428 283.433 687.596 279.088C698.699 277.641 701.594 279.088 706.902 271.364C715.591 262.197 718.004 261.23 718.487 256.403C722.347 249.648 727.173 247.717 727.173 247.717C727.173 241.923 727.656 236.133 724.761 234.685C733.931 230.341 741.169 225.514 744.549 223.584C745.515 216.345 744.066 197.4 741.169 194.322C738.274 189.315 738.755 191.246 745.272 183.524C753.236 174.355 764.822 161.806 764.822 161.806C764.822 161.806 768.199 156.013 769.163 150.223C775.92 142.982 783.034 129.951 769.583 134.295C763.855 136.708 759.028 140.414 754.201 136.708C752.272 130.433 747.928 128.021 744.066 128.021C736.345 117.404 730.553 109.679 730.553 109.679C730.553 109.679 734.749 102.923 726.858 97.6147C721.382 90.3725 721.382 89.8902 721.382 89.8902C721.382 89.8902 726.208 72.5154 708.35 75.8941C696.284 75.4118 682.693 72.0331 679.392 77.8247C676.094 80.7223 671.187 79.9315 668.774 74.0517C664.431 71.5496 657.672 73.8898 657.672 73.8898C657.672 73.8898 652.021 70.5849 654.777 66.725C657.533 61.4158 656.707 59.0017 649.951 60.4487C647.094 60.6536 644.239 60.2129 641.637 59.7723C639.524 59.415 637.579 59.0565 635.939 59.0434H635.768Z" fill="white"/>
</mask>
<g mask="url(#mask23_2201_4009)">
<path d="M558.812 181.72L560.286 191.299H786.164L784.692 181.72H558.812Z" fill="#319044"/>
</g>
<mask id="mask24_2201_4009" style="mask-type:luminance" maskUnits="userSpaceOnUse" x="652" y="181" width="95" height="11">
<path d="M652.559 181.72C655.07 183.66 658.105 186.469 659.202 191.298H739.563C739.069 189.62 740.657 188.991 745.272 183.523C745.783 182.934 746.31 182.331 746.847 181.72H652.559Z" fill="white"/>
</mask>
<g mask="url(#mask24_2201_4009)">
<path d="M697.741 178.771L685.184 193.116H890.138V186.789L697.741 178.771Z" fill="#B3A168"/>
</g>
<mask id="mask25_2201_4009" style="mask-type:luminance" maskUnits="userSpaceOnUse" x="686" y="181" width="61" height="11">
<path d="M695.159 181.72L686.773 191.298H739.563C739.069 189.62 740.658 188.991 745.272 183.523C745.783 182.935 746.31 182.331 746.846 181.72H695.159Z" fill="white"/>
</mask>
<g mask="url(#mask25_2201_4009)">
<path d="M673.313 101.664C673.313 101.664 718.133 121.652 718.133 160.415C718.133 199.178 648.48 219.771 648.48 219.771L673.313 101.664Z" fill="#7D7246"/>
</g>
<mask id="mask26_2201_4009" style="mask-type:luminance" maskUnits="userSpaceOnUse" x="571" y="59" width="207" height="222">
<path d="M635.768 59.0434C634.722 59.0517 633.808 59.2101 633.06 59.6091C627.748 61.4158 619.061 63.3451 619.061 63.3451C619.061 63.3451 615.684 61.8969 608.925 65.2756C602.169 70.1014 600.722 71.5496 600.722 71.5496C600.722 71.5496 598.309 82.6528 591.067 82.6528C586.725 88.442 577.072 100.993 574.657 109.679C569.831 122.228 571.762 134.295 577.072 141.533C584.794 152.153 591.55 162.288 607.959 159.392C624.853 155.531 626.3 155.047 629.679 155.047C634.989 155.531 642.228 160.84 642.228 160.84C647.538 160.84 650.432 162.77 650.432 162.77C650.432 162.77 648.019 176.766 648.986 178.697C650.432 181.112 659.12 183.886 659.602 194.322C660.087 204.76 662.981 210.553 662.981 210.553C662.981 210.553 662.5 216.345 658.155 221.17C653.811 225.997 661.051 238.545 663.947 241.441C665.879 246.75 667.808 254.955 668.292 259.299C673.339 264.127 673.339 266.54 676.496 277.641C676.496 277.641 678.428 283.433 687.596 279.088C698.699 277.641 701.594 279.088 706.902 271.364C715.591 262.197 718.004 261.23 718.487 256.403C722.347 249.648 727.173 247.717 727.173 247.717C727.173 241.923 727.656 236.133 724.761 234.685C733.931 230.341 741.169 225.514 744.549 223.584C745.515 216.345 744.066 197.4 741.169 194.322C738.274 189.315 738.755 191.246 745.272 183.524C753.236 174.355 764.822 161.806 764.822 161.806C764.822 161.806 768.199 156.013 769.163 150.223C775.92 142.982 783.034 129.951 769.583 134.295C763.855 136.708 759.028 140.414 754.201 136.708C752.272 130.433 747.928 128.021 744.066 128.021C736.345 117.404 730.553 109.679 730.553 109.679C730.553 109.679 734.749 102.923 726.858 97.6147C721.382 90.3725 721.382 89.8902 721.382 89.8902C721.382 89.8902 726.208 72.5154 708.35 75.8941C696.284 75.4118 682.693 72.0331 679.392 77.8247C676.094 80.7223 671.187 79.9315 668.774 74.0517C664.431 71.5496 657.672 73.8898 657.672 73.8898C657.672 73.8898 652.021 70.5849 654.777 66.725C657.533 61.4158 656.707 59.0017 649.951 60.4487C647.094 60.6536 644.239 60.2129 641.637 59.7723C639.524 59.415 637.579 59.0565 635.939 59.0434H635.768Z" fill="white"/>
</mask>
<g mask="url(#mask26_2201_4009)">
<path d="M559.695 220.036H785.573V210.407H559.695V220.036Z" fill="#B3A168"/>
</g>
<mask id="mask27_2201_4009" style="mask-type:luminance" maskUnits="userSpaceOnUse" x="659" y="210" width="86" height="11">
<path d="M662.912 210.407C662.956 210.504 662.981 210.553 662.981 210.553C662.981 210.553 662.57 215.483 659.096 220.036H744.812C744.901 217.249 744.813 213.837 744.565 210.407H662.912Z" fill="white"/>
</mask>
<g mask="url(#mask27_2201_4009)">
<path d="M675.129 202.207C675.129 202.207 727.822 224.616 713.287 269.438C698.75 271.859 699.356 231.28 699.356 231.28L669.678 206.447L675.129 202.207Z" fill="#7D7246"/>
<path d="M457.463 210.458L474.417 226.3H674.546V210.458H457.463Z" fill="#231F20"/>
</g>
<mask id="mask28_2201_4009" style="mask-type:luminance" maskUnits="userSpaceOnUse" x="571" y="59" width="207" height="222">
<path d="M635.768 59.0434C634.722 59.0517 633.808 59.2101 633.06 59.6091C627.748 61.4158 619.061 63.3451 619.061 63.3451C619.061 63.3451 615.684 61.8969 608.925 65.2756C602.169 70.1014 600.722 71.5496 600.722 71.5496C600.722 71.5496 598.309 82.6528 591.067 82.6528C586.725 88.442 577.072 100.993 574.657 109.679C569.831 122.228 571.762 134.295 577.072 141.533C584.794 152.153 591.55 162.288 607.959 159.392C624.853 155.531 626.3 155.047 629.679 155.047C634.989 155.531 642.228 160.84 642.228 160.84C647.538 160.84 650.432 162.77 650.432 162.77C650.432 162.77 648.019 176.766 648.986 178.697C650.432 181.112 659.12 183.886 659.602 194.322C660.087 204.76 662.981 210.553 662.981 210.553C662.981 210.553 662.5 216.345 658.155 221.17C653.811 225.997 661.051 238.545 663.947 241.441C665.879 246.75 667.808 254.955 668.292 259.299C673.339 264.127 673.339 266.54 676.496 277.641C676.496 277.641 678.428 283.433 687.596 279.088C698.699 277.641 701.594 279.088 706.902 271.364C715.591 262.197 718.004 261.23 718.487 256.403C722.347 249.648 727.173 247.717 727.173 247.717C727.173 241.923 727.656 236.133 724.761 234.685C733.931 230.341 741.169 225.514 744.549 223.584C745.515 216.345 744.066 197.4 741.169 194.322C738.274 189.315 738.755 191.246 745.272 183.524C753.236 174.355 764.822 161.806 764.822 161.806C764.822 161.806 768.199 156.013 769.163 150.223C775.92 142.982 783.034 129.951 769.583 134.295C763.855 136.708 759.028 140.414 754.201 136.708C752.272 130.433 747.928 128.021 744.066 128.021C736.345 117.404 730.553 109.679 730.553 109.679C730.553 109.679 734.749 102.923 726.858 97.6147C721.382 90.3725 721.382 89.8902 721.382 89.8902C721.382 89.8902 726.208 72.5154 708.35 75.8941C696.284 75.4118 682.693 72.0331 679.392 77.8247C676.094 80.7223 671.187 79.9315 668.774 74.0517C664.431 71.5496 657.672 73.8898 657.672 73.8898C657.672 73.8898 652.021 70.5849 654.777 66.725C657.533 61.4158 656.707 59.0017 649.951 60.4487C647.094 60.6536 644.239 60.2129 641.637 59.7723C639.524 59.415 637.579 59.0565 635.939 59.0434H635.768Z" fill="white"/>
</mask>
<g mask="url(#mask28_2201_4009)">
<path d="M559.695 205.668H785.573V196.089H559.695V205.668Z" fill="#319044"/>
</g>
<mask id="mask29_2201_4009" style="mask-type:luminance" maskUnits="userSpaceOnUse" x="659" y="196" width="86" height="10">
<path d="M659.709 196.087C660.008 200.069 660.65 203.286 661.283 205.668H744.119C743.66 201.768 742.992 198.242 742.155 196.087H659.709Z" fill="white"/>
</mask>
<g mask="url(#mask29_2201_4009)">
<path d="M671.911 194.615L671.582 206.06H751.203L751.532 194.615H671.911Z" fill="#B3A168"/>
</g>
<mask id="mask30_2201_4009" style="mask-type:luminance" maskUnits="userSpaceOnUse" x="671" y="196" width="74" height="10">
<path d="M671.869 196.087L671.594 205.668H744.12C743.662 201.768 742.994 198.241 742.156 196.087H671.869Z" fill="white"/>
</mask>
<g mask="url(#mask30_2201_4009)">
<path d="M673.315 101.664C673.315 101.664 718.135 121.652 718.135 160.415C718.135 199.178 648.482 219.771 648.482 219.771L673.315 101.664Z" fill="#7D7246"/>
</g>
<mask id="mask31_2201_4009" style="mask-type:luminance" maskUnits="userSpaceOnUse" x="571" y="59" width="207" height="222">
<path d="M635.768 59.0434C634.722 59.0517 633.808 59.2101 633.06 59.6091C627.748 61.4158 619.061 63.3451 619.061 63.3451C619.061 63.3451 615.684 61.8969 608.925 65.2756C602.169 70.1014 600.722 71.5496 600.722 71.5496C600.722 71.5496 598.309 82.6528 591.067 82.6528C586.725 88.442 577.072 100.993 574.657 109.679C569.831 122.228 571.762 134.295 577.072 141.533C584.794 152.153 591.55 162.288 607.959 159.392C624.853 155.531 626.3 155.047 629.679 155.047C634.989 155.531 642.228 160.84 642.228 160.84C647.538 160.84 650.432 162.77 650.432 162.77C650.432 162.77 648.019 176.766 648.986 178.697C650.432 181.112 659.12 183.886 659.602 194.322C660.087 204.76 662.981 210.553 662.981 210.553C662.981 210.553 662.5 216.345 658.155 221.17C653.811 225.997 661.051 238.545 663.947 241.441C665.879 246.75 667.808 254.955 668.292 259.299C673.339 264.127 673.339 266.54 676.496 277.641C676.496 277.641 678.428 283.433 687.596 279.088C698.699 277.641 701.594 279.088 706.902 271.364C715.591 262.197 718.004 261.23 718.487 256.403C722.347 249.648 727.173 247.717 727.173 247.717C727.173 241.923 727.656 236.133 724.761 234.685C733.931 230.341 741.169 225.514 744.549 223.584C745.515 216.345 744.066 197.4 741.169 194.322C738.274 189.315 738.755 191.246 745.272 183.524C753.236 174.355 764.822 161.806 764.822 161.806C764.822 161.806 768.199 156.013 769.163 150.223C775.92 142.982 783.034 129.951 769.583 134.295C763.855 136.708 759.028 140.414 754.201 136.708C752.272 130.433 747.928 128.021 744.066 128.021C736.345 117.404 730.553 109.679 730.553 109.679C730.553 109.679 734.749 102.923 726.858 97.6147C721.382 90.3725 721.382 89.8902 721.382 89.8902C721.382 89.8902 726.208 72.5154 708.35 75.8941C696.284 75.4118 682.693 72.0331 679.392 77.8247C676.094 80.7223 671.187 79.9315 668.774 74.0517C664.431 71.5496 657.672 73.8898 657.672 73.8898C657.672 73.8898 652.021 70.5849 654.777 66.725C657.533 61.4158 656.707 59.0017 649.951 60.4487C647.094 60.6536 644.239 60.2129 641.637 59.7723C639.524 59.415 637.579 59.0565 635.939 59.0434H635.768Z" fill="white"/>
</mask>
<g mask="url(#mask31_2201_4009)">
<path d="M559.695 234.406H785.573V225.132H559.695V234.406Z" fill="#B3A168"/>
</g>
<mask id="mask32_2201_4009" style="mask-type:luminance" maskUnits="userSpaceOnUse" x="656" y="225" width="86" height="10">
<path d="M656.802 225.131C656.75 227.954 657.916 231.379 659.386 234.405H725.346C732.352 231.04 738.184 227.433 741.96 225.131H656.802Z" fill="white"/>
</mask>
<g mask="url(#mask32_2201_4009)">
<path d="M675.129 202.206C675.129 202.206 727.822 224.615 713.287 269.437C698.75 271.858 699.356 231.279 699.356 231.279L669.678 206.446L675.129 202.206Z" fill="#7D7246"/>
<path d="M501.367 236.614H695.946V224.825H501.367V236.614Z" fill="#231F20"/>
</g>
<mask id="mask33_2201_4009" style="mask-type:luminance" maskUnits="userSpaceOnUse" x="571" y="59" width="207" height="222">
<path d="M635.768 59.0434C634.722 59.0517 633.808 59.2101 633.06 59.6091C627.748 61.4158 619.061 63.3451 619.061 63.3451C619.061 63.3451 615.684 61.8969 608.925 65.2756C602.169 70.1014 600.722 71.5496 600.722 71.5496C600.722 71.5496 598.309 82.6528 591.067 82.6528C586.725 88.442 577.072 100.993 574.657 109.679C569.831 122.228 571.762 134.295 577.072 141.533C584.794 152.153 591.55 162.288 607.959 159.392C624.853 155.531 626.3 155.047 629.679 155.047C634.989 155.531 642.228 160.84 642.228 160.84C647.538 160.84 650.432 162.77 650.432 162.77C650.432 162.77 648.019 176.766 648.986 178.697C650.432 181.112 659.12 183.886 659.602 194.322C660.087 204.76 662.981 210.553 662.981 210.553C662.981 210.553 662.5 216.345 658.155 221.17C653.811 225.997 661.051 238.545 663.947 241.441C665.879 246.75 667.808 254.955 668.292 259.299C673.339 264.127 673.339 266.54 676.496 277.641C676.496 277.641 678.428 283.433 687.596 279.088C698.699 277.641 701.594 279.088 706.902 271.364C715.591 262.197 718.004 261.23 718.487 256.403C722.347 249.648 727.173 247.717 727.173 247.717C727.173 241.923 727.656 236.133 724.761 234.685C733.931 230.341 741.169 225.514 744.549 223.584C745.515 216.345 744.066 197.4 741.169 194.322C738.274 189.315 738.755 191.246 745.272 183.524C753.236 174.355 764.822 161.806 764.822 161.806C764.822 161.806 768.199 156.013 769.163 150.223C775.92 142.982 783.034 129.951 769.583 134.295C763.855 136.708 759.028 140.414 754.201 136.708C752.272 130.433 747.928 128.021 744.066 128.021C736.345 117.404 730.553 109.679 730.553 109.679C730.553 109.679 734.749 102.923 726.858 97.6147C721.382 90.3725 721.382 89.8902 721.382 89.8902C721.382 89.8902 726.208 72.5154 708.35 75.8941C696.284 75.4118 682.693 72.0331 679.392 77.8247C676.094 80.7223 671.187 79.9315 668.774 74.0517C664.431 71.5496 657.672 73.8898 657.672 73.8898C657.672 73.8898 652.021 70.5849 654.777 66.725C657.533 61.4158 656.707 59.0017 649.951 60.4487C647.094 60.6536 644.239 60.2129 641.637 59.7723C639.524 59.415 637.579 59.0565 635.939 59.0434H635.768Z" fill="white"/>
</mask>
<g mask="url(#mask33_2201_4009)">
<path d="M559.695 248.773H785.573V238.947H559.695V248.773Z" fill="#B3A168"/>
</g>
<mask id="mask34_2201_4009" style="mask-type:luminance" maskUnits="userSpaceOnUse" x="661" y="238" width="67" height="11">
<path d="M661.99 238.947C662.725 240.035 663.411 240.906 663.947 241.441C664.719 243.565 665.492 246.155 666.172 248.773H725.307C726.437 248.01 727.173 247.717 727.173 247.717C727.173 244.557 727.317 241.401 726.978 238.947H661.99Z" fill="white"/>
</mask>
<g mask="url(#mask34_2201_4009)">
<path d="M675.131 202.206C675.131 202.206 727.824 224.615 713.289 269.437C698.752 271.858 699.358 231.279 699.358 231.279L669.68 206.446L675.131 202.206Z" fill="#7D7246"/>
<path d="M481.473 248.773H702.838V236.984H481.473V248.773Z" fill="#231F20"/>
</g>
<mask id="mask35_2201_4009" style="mask-type:luminance" maskUnits="userSpaceOnUse" x="571" y="59" width="207" height="222">
<path d="M635.768 59.0434C634.722 59.0517 633.808 59.2101 633.06 59.6091C627.748 61.4158 619.061 63.3451 619.061 63.3451C619.061 63.3451 615.684 61.8969 608.925 65.2756C602.169 70.1014 600.722 71.5496 600.722 71.5496C600.722 71.5496 598.309 82.6528 591.067 82.6528C586.725 88.442 577.072 100.993 574.657 109.679C569.831 122.228 571.762 134.295 577.072 141.533C584.794 152.153 591.55 162.288 607.959 159.392C624.853 155.531 626.3 155.047 629.679 155.047C634.989 155.531 642.228 160.84 642.228 160.84C647.538 160.84 650.432 162.77 650.432 162.77C650.432 162.77 648.019 176.766 648.986 178.697C650.432 181.112 659.12 183.886 659.602 194.322C660.087 204.76 662.981 210.553 662.981 210.553C662.981 210.553 662.5 216.345 658.155 221.17C653.811 225.997 661.051 238.545 663.947 241.441C665.879 246.75 667.808 254.955 668.292 259.299C673.339 264.127 673.339 266.54 676.496 277.641C676.496 277.641 678.428 283.433 687.596 279.088C698.699 277.641 701.594 279.088 706.902 271.364C715.591 262.197 718.004 261.23 718.487 256.403C722.347 249.648 727.173 247.717 727.173 247.717C727.173 241.923 727.656 236.133 724.761 234.685C733.931 230.341 741.169 225.514 744.549 223.584C745.515 216.345 744.066 197.4 741.169 194.322C738.274 189.315 738.755 191.246 745.272 183.524C753.236 174.355 764.822 161.806 764.822 161.806C764.822 161.806 768.199 156.013 769.163 150.223C775.92 142.982 783.034 129.951 769.583 134.295C763.855 136.708 759.028 140.414 754.201 136.708C752.272 130.433 747.928 128.021 744.066 128.021C736.345 117.404 730.553 109.679 730.553 109.679C730.553 109.679 734.749 102.923 726.858 97.6147C721.382 90.3725 721.382 89.8902 721.382 89.8902C721.382 89.8902 726.208 72.5154 708.35 75.8941C696.284 75.4118 682.693 72.0331 679.392 77.8247C676.094 80.7223 671.187 79.9315 668.774 74.0517C664.431 71.5496 657.672 73.8898 657.672 73.8898C657.672 73.8898 652.021 70.5849 654.777 66.725C657.533 61.4158 656.707 59.0017 649.951 60.4487C647.094 60.6536 644.239 60.2129 641.637 59.7723C639.524 59.415 637.579 59.0565 635.939 59.0434H635.768Z" fill="white"/>
</mask>
<g mask="url(#mask35_2201_4009)">
<path d="M559.695 280.615H785.573V274.288H559.695V280.615Z" fill="#00AEEF"/>
<path d="M691.459 73.0508H890.14V66.7245H691.459V73.0508Z" fill="#15234F"/>
<path d="M664.441 263.396H890.319V253.565H664.441V263.396Z" fill="#B3A168"/>
</g>
<mask id="mask36_2201_4009" style="mask-type:luminance" maskUnits="userSpaceOnUse" x="667" y="253" width="54" height="11">
<path d="M667.305 253.564C667.769 255.758 668.119 257.768 668.291 259.299C669.845 260.785 670.919 262.043 671.755 263.395H714.722C717.242 260.754 718.2 259.251 718.486 256.402C719.093 255.343 719.722 254.399 720.354 253.564H667.305Z" fill="white"/>
</mask>
<g mask="url(#mask36_2201_4009)">
<path d="M675.129 202.207C675.129 202.207 727.667 225.156 713.131 269.975C696.251 276.796 699.356 231.279 699.356 231.279L669.678 206.446L675.129 202.207Z" fill="#7D7246"/>
<path d="M657.795 265.537H706.256V251.42H657.795V265.537Z" fill="#231F20"/>
</g>
<mask id="mask37_2201_4009" style="mask-type:luminance" maskUnits="userSpaceOnUse" x="571" y="59" width="207" height="222">
<path d="M635.768 59.0434C634.722 59.0517 633.808 59.2101 633.06 59.6091C627.748 61.4158 619.061 63.3451 619.061 63.3451C619.061 63.3451 615.684 61.8969 608.925 65.2756C602.169 70.1014 600.722 71.5496 600.722 71.5496C600.722 71.5496 598.309 82.6528 591.067 82.6528C586.725 88.442 577.072 100.993 574.657 109.679C569.831 122.228 571.762 134.295 577.072 141.533C584.794 152.153 591.55 162.288 607.959 159.392C624.853 155.531 626.3 155.047 629.679 155.047C634.989 155.531 642.228 160.84 642.228 160.84C647.538 160.84 650.432 162.77 650.432 162.77C650.432 162.77 648.019 176.766 648.986 178.697C650.432 181.112 659.12 183.886 659.602 194.322C660.087 204.76 662.981 210.553 662.981 210.553C662.981 210.553 662.5 216.345 658.155 221.17C653.811 225.997 661.051 238.545 663.947 241.441C665.879 246.75 667.808 254.955 668.292 259.299C673.339 264.127 673.339 266.54 676.496 277.641C676.496 277.641 678.428 283.433 687.596 279.088C698.699 277.641 701.594 279.088 706.902 271.364C715.591 262.197 718.004 261.23 718.487 256.403C722.347 249.648 727.173 247.717 727.173 247.717C727.173 241.923 727.656 236.133 724.761 234.685C733.931 230.341 741.169 225.514 744.549 223.584C745.515 216.345 744.066 197.4 741.169 194.322C738.274 189.315 738.755 191.246 745.272 183.524C753.236 174.355 764.822 161.806 764.822 161.806C764.822 161.806 768.199 156.013 769.163 150.223C775.92 142.982 783.034 129.951 769.583 134.295C763.855 136.708 759.028 140.414 754.201 136.708C752.272 130.433 747.928 128.021 744.066 128.021C736.345 117.404 730.553 109.679 730.553 109.679C730.553 109.679 734.749 102.923 726.858 97.6147C721.382 90.3725 721.382 89.8902 721.382 89.8902C721.382 89.8902 726.208 72.5154 708.35 75.8941C696.284 75.4118 682.693 72.0331 679.392 77.8247C676.094 80.7223 671.187 79.9315 668.774 74.0517C664.431 71.5496 657.672 73.8898 657.672 73.8898C657.672 73.8898 652.021 70.5849 654.777 66.725C657.533 61.4158 656.707 59.0017 649.951 60.4487C647.094 60.6536 644.239 60.2129 641.637 59.7723C639.524 59.415 637.579 59.0565 635.939 59.0434H635.768Z" fill="white"/>
</mask>
<g mask="url(#mask37_2201_4009)">
<path d="M664.262 293.723H890.14V267.933H664.262V293.723Z" fill="#231F20"/>
</g>
<mask id="mask38_2201_4009" style="mask-type:luminance" maskUnits="userSpaceOnUse" x="673" y="267" width="38" height="14">
<path d="M673.748 267.932C674.508 270.281 675.259 273.294 676.496 277.641C676.496 277.641 678.427 283.433 687.595 279.088C698.698 277.641 701.594 279.088 706.902 271.364C708.132 270.068 709.234 268.936 710.224 267.932H673.748Z" fill="white"/>
</mask>
<g mask="url(#mask38_2201_4009)">
<path d="M675.131 202.207C675.131 202.207 727.669 225.156 713.133 269.975C696.253 276.796 699.358 231.279 699.358 231.279L669.68 206.446L675.131 202.207Z" fill="#7D7246"/>
</g>
<mask id="mask39_2201_4009" style="mask-type:luminance" maskUnits="userSpaceOnUse" x="571" y="59" width="539" height="242">
<path d="M571.893 300.866H1109.72V59.0425H571.893V300.866Z" fill="white"/>
</mask>
<g mask="url(#mask39_2201_4009)">
<path d="M618.773 65.3188C622.234 76.6793 632.411 99.4824 658.398 108.668C707.765 126.124 728.325 171.649 660.822 205.865" stroke="white" stroke-width="11.0675"/>
<path d="M698.037 74.3127C693.192 84.7395 682.616 98.3401 659.574 106.299C635.029 114.78 615.242 136.075 614.896 158.805" stroke="white" stroke-width="8.51291"/>
<path d="M662.303 213.374C662.303 213.374 718.77 238.3 691.757 278.638" stroke="white" stroke-width="4.27313"/>
<path d="M664.562 208.197C679.389 215.265 701.436 229.957 704.425 251.851C705.672 260.99 704.039 271.652 696.118 281.968" stroke="#319044" stroke-width="11.0675"/>
<path d="M620.621 64.7177C624.082 76.0782 634.923 98.7384 663.103 108.473C706.935 123.615 733.799 173.185 661.608 207.597C661.065 207.856 660.507 208.124 659.938 208.402" stroke="#231F20" stroke-width="11.0675"/>
<path d="M701.267 75.6152C695.963 86.672 685.091 100.798 662.871 108.474C637.97 117.076 618.544 136.791 619.648 158.524" stroke="#319044" stroke-width="11.0675"/>
</g>
<mask id="mask40_2201_4009" style="mask-type:luminance" maskUnits="userSpaceOnUse" x="443" y="179" width="187" height="91">
<path d="M443.535 269.649H629.911V179.337H443.535V269.649Z" fill="white"/>
</mask>
<g mask="url(#mask40_2201_4009)">
<path d="M444.016 269.371H446.219C446.623 269.371 446.852 269.118 446.954 268.865L448.194 266.131H455.765L457.005 268.865C457.182 269.219 457.36 269.371 457.739 269.371H459.941C460.322 269.371 460.524 269.042 460.372 268.713L452.575 251.673C452.498 251.521 452.397 251.394 452.144 251.394H451.891C451.663 251.394 451.536 251.521 451.46 251.673L443.586 268.713C443.434 269.042 443.636 269.371 444.016 269.371ZM449.434 263.32L451.916 257.748H451.992L454.524 263.32H449.434ZM461.943 268.814C461.943 269.118 462.221 269.371 462.499 269.371H464.449C464.829 269.371 465.108 269.244 465.108 268.814V261.521C465.31 261.116 466.07 260.306 467.335 260.306C467.867 260.306 468.145 260.408 468.424 260.535C468.703 260.662 468.981 260.56 469.108 260.281L469.868 258.559C470.196 257.8 469.057 257.42 467.664 257.42C465.866 257.42 464.779 258.61 464.373 259.192L463.943 258.052C463.842 257.8 463.716 257.673 463.436 257.673H462.499C462.221 257.673 461.943 257.9 461.943 258.229V268.814ZM470.729 263.522C470.729 267.041 473.488 269.648 476.906 269.648C478.983 269.648 480.552 268.738 481.54 267.193C481.743 266.889 481.616 266.612 481.337 266.358L480.198 265.396C479.995 265.219 479.641 265.269 479.464 265.471C478.958 266.054 478.274 266.763 476.983 266.763C475.159 266.763 473.918 265.346 473.918 263.522C473.918 261.724 475.185 260.306 477.008 260.306C478.097 260.306 478.781 260.787 479.337 261.319C479.565 261.547 479.843 261.673 480.097 261.395L481.16 260.231C481.413 259.977 481.54 259.648 481.287 259.396C480.172 258.204 478.756 257.42 476.931 257.42C473.462 257.42 470.729 260.079 470.729 263.522ZM483.895 268.814C483.895 269.118 484.172 269.371 484.451 269.371H486.452C486.908 269.371 487.06 269.143 487.06 268.814V262.358C487.363 261.167 488.123 260.306 489.489 260.306C490.883 260.306 491.617 261.294 491.617 262.915V268.814C491.617 269.118 491.87 269.371 492.174 269.371H494.225C494.504 269.371 494.781 269.118 494.781 268.814V262.94C494.781 260.002 493.769 257.42 490.047 257.42C488.654 257.42 487.642 257.9 487.06 258.407V252.204C487.06 251.925 486.806 251.646 486.502 251.646H484.451C484.172 251.646 483.895 251.925 483.895 252.204V268.814ZM497.871 268.814C497.871 269.118 498.148 269.371 498.427 269.371H500.478C500.756 269.371 501.035 269.118 501.035 268.814V258.229C501.035 257.9 500.756 257.673 500.478 257.673H498.427C498.148 257.673 497.871 257.9 497.871 258.229V268.814ZM499.414 255.673C500.554 255.673 501.44 254.761 501.44 253.648C501.44 252.533 500.554 251.646 499.414 251.646C498.275 251.646 497.415 252.533 497.415 253.648C497.415 254.761 498.275 255.673 499.414 255.673ZM508.277 269.346C508.377 269.498 508.53 269.648 508.783 269.648H508.935C509.188 269.648 509.34 269.498 509.442 269.346L514.708 258.356C514.911 258.002 514.734 257.673 514.302 257.673H512.176C511.848 257.673 511.594 257.698 511.441 258.002L508.859 263.775H508.809L506.377 258.002C506.276 257.8 506.124 257.673 505.846 257.673H503.44C503.011 257.673 502.859 258.002 503.036 258.356L508.277 269.346ZM515.644 263.522C515.644 266.864 518.075 269.648 521.569 269.648C523.468 269.648 524.912 268.915 525.925 268.054C526.203 267.8 526.177 267.522 525.975 267.294L524.988 265.979C524.81 265.725 524.506 265.75 524.228 265.979C523.696 266.408 522.885 266.838 521.721 266.838C520.025 266.838 518.835 265.573 518.81 264.129H526.304C526.558 264.129 526.837 263.902 526.862 263.598C526.887 263.421 526.912 263.016 526.912 262.839C526.912 259.673 524.582 257.42 521.544 257.42C518.075 257.42 515.644 260.231 515.644 263.522ZM518.987 262.054C519.139 260.888 520.05 260.029 521.469 260.029C522.76 260.029 523.671 260.914 523.723 262.054H518.987ZM535.9 268.89C535.9 269.143 536.103 269.371 536.381 269.371H538.711C538.965 269.371 539.192 269.143 539.192 268.89V262.94H542.357C545.446 262.94 548.003 260.383 548.003 257.243C548.003 254.179 545.446 251.646 542.331 251.646H536.381C536.103 251.646 535.9 251.875 535.9 252.127V268.89ZM539.192 259.85V254.761H542.23C543.648 254.761 544.736 255.825 544.736 257.218C544.736 258.71 543.648 259.85 542.23 259.85H539.192ZM550.179 268.814C550.179 269.118 550.458 269.371 550.738 269.371H552.788C553.067 269.371 553.345 269.118 553.345 268.814V252.204C553.345 251.925 553.067 251.646 552.788 251.646H550.738C550.458 251.646 550.179 251.925 550.179 252.204V268.814ZM555.8 265.65C555.8 268.156 557.421 269.648 559.751 269.648C561.573 269.648 562.738 268.839 563.423 268.181L563.752 268.966C563.904 269.295 564.056 269.371 564.258 269.371H565.119C565.423 269.371 565.676 269.118 565.676 268.814V262.51C565.676 259.319 564.915 257.42 561.271 257.42C559.371 257.42 557.523 257.9 557.269 258.002C557.017 258.077 556.788 258.281 556.89 258.71L557.143 260.029C557.194 260.383 557.421 260.662 557.802 260.535C558.485 260.331 560.03 260.104 561.094 260.104C562.333 260.104 562.764 260.813 562.713 262.307C562.713 262.307 561.65 261.978 560.46 261.978C557.498 261.978 555.8 263.573 555.8 265.65ZM558.84 265.65C558.84 264.61 559.574 263.977 560.915 263.977C561.852 263.977 562.638 264.331 562.638 264.331V266.054C562.485 266.485 561.573 267.294 560.536 267.294C559.447 267.294 558.84 266.637 558.84 265.65ZM569.6 265.877C569.6 267.902 570.259 269.648 572.867 269.648C574.081 269.648 575.753 269.118 576.158 268.89C576.437 268.738 576.563 268.51 576.487 268.206L576.158 266.661C576.107 266.383 575.829 266.231 575.5 266.358C575.196 266.46 574.233 266.737 573.727 266.737C573.146 266.737 572.765 266.56 572.765 265.775V260.51H575.5C575.804 260.51 576.057 260.231 576.057 259.952V258.229C576.057 257.9 575.804 257.673 575.5 257.673H572.765V254.433C572.765 254.129 572.538 253.875 572.234 253.875H570.157C569.879 253.875 569.6 254.129 569.6 254.433V257.673H568.46C568.157 257.673 567.929 257.9 567.929 258.229V259.952C567.929 260.231 568.157 260.51 568.46 260.51H569.6V265.877ZM579.652 268.814C579.652 269.118 579.906 269.371 580.209 269.371H582.26C582.564 269.371 582.817 269.118 582.817 268.814V260.51H586.008C586.336 260.51 586.565 260.231 586.565 259.952V258.229C586.565 257.9 586.336 257.673 586.008 257.673H582.817V256.281C582.817 255.065 583.071 254.281 584.538 254.281C585.171 254.281 585.982 254.634 586.361 254.888C586.615 255.04 586.944 254.964 587.071 254.736L587.957 253.192C588.084 252.99 588.033 252.66 587.83 252.533C587.299 252.052 585.931 251.394 584.386 251.394C581.298 251.394 579.652 253.167 579.652 256.281V257.673H578.436C578.107 257.673 577.88 257.9 577.88 258.229V259.952C577.88 260.231 578.107 260.51 578.436 260.51H579.652V268.814ZM587.78 263.497C587.78 266.838 590.463 269.648 593.755 269.648C597.073 269.648 599.756 266.838 599.756 263.497C599.756 260.206 597.073 257.42 593.755 257.42C590.463 257.42 587.78 260.206 587.78 263.497ZM590.717 263.497C590.717 261.724 592.058 260.306 593.755 260.306C595.452 260.306 596.819 261.724 596.819 263.497C596.819 265.294 595.452 266.763 593.755 266.763C592.058 266.763 590.717 265.294 590.717 263.497ZM602.263 268.814C602.263 269.118 602.542 269.371 602.819 269.371H604.769C605.149 269.371 605.428 269.244 605.428 268.814V261.521C605.63 261.116 606.39 260.306 607.655 260.306C608.188 260.306 608.465 260.408 608.744 260.535C609.023 260.662 609.302 260.56 609.428 260.281L610.187 258.559C610.517 257.8 609.377 257.42 607.984 257.42C606.187 257.42 605.098 258.61 604.693 259.192L604.263 258.052C604.162 257.8 604.035 257.673 603.756 257.673H602.819C602.542 257.673 602.263 257.9 602.263 258.229V268.814ZM612.061 268.814C612.061 269.118 612.34 269.371 612.619 269.371H614.669C614.948 269.371 615.226 269.118 615.226 268.814V262.13C615.504 261.319 616.036 260.306 617.48 260.306C618.973 260.306 619.403 261.243 619.403 262.763V268.814C619.403 269.118 619.632 269.371 619.961 269.371H622.037C622.315 269.371 622.594 269.118 622.594 268.814V262.636C622.594 262.104 622.543 261.521 622.543 261.521C622.543 261.521 623.024 260.306 624.721 260.306C626.19 260.306 626.746 261.243 626.746 262.763V268.814C626.746 269.118 627 269.371 627.304 269.371H629.329C629.659 269.371 629.911 269.118 629.911 268.814V262.839C629.911 259.8 629.026 257.42 625.277 257.42C623.176 257.42 622.012 258.66 621.505 259.192C620.543 258.027 619.707 257.42 618.011 257.42C615.96 257.42 614.922 258.559 614.441 259.117L614.011 258.002C613.959 257.8 613.782 257.673 613.53 257.673H612.619C612.34 257.673 612.061 257.9 612.061 258.229V268.814Z" fill="#231F20"/>
</g>
<mask id="mask41_2201_4009" style="mask-type:luminance" maskUnits="userSpaceOnUse" x="267" y="203" width="188" height="91">
<path d="M267.969 293.692H454.345V203.38H267.969V293.692Z" fill="white"/>
</mask>
<g mask="url(#mask41_2201_4009)">
<path d="M418.238 264.888C418.238 267.471 420.365 269.648 423.582 269.648C426.873 269.648 428.644 268.027 429.101 267.496L430.923 269.344C431.328 269.75 431.734 269.699 432.038 269.42L433.076 268.357C433.684 267.775 433.43 267.496 433.126 267.192L430.873 265.065C431.202 264.458 432.013 262.862 432.443 261.04C432.494 260.786 432.671 260.229 432.013 260.052L430.619 259.648C430.038 259.47 429.886 259.748 429.784 260.279C429.607 261.242 429.278 262.281 428.872 263.09L425.961 260.152C426.467 259.697 429.051 258.153 429.051 255.546C429.051 253.267 427.101 251.418 424.265 251.418C421.074 251.418 419.478 253.596 419.478 255.519C419.478 257.013 420.188 258.103 421.201 259.166L421.733 259.748V259.798C421.277 260.077 418.238 261.546 418.238 264.888ZM424.163 258.356L423.607 257.799C422.822 257.013 422.289 256.406 422.289 255.519C422.289 254.584 422.999 253.798 424.163 253.798C425.48 253.798 426.315 254.736 426.315 255.698C426.315 257.267 424.544 258.128 424.163 258.356ZM421.252 264.559C421.252 262.533 422.999 261.698 423.403 261.444L427.176 265.446C426.797 265.875 425.809 266.94 423.911 266.94C422.415 266.94 421.252 265.951 421.252 264.559Z" fill="#231F20"/>
</g>
<mask id="mask42_2201_4009" style="mask-type:luminance" maskUnits="userSpaceOnUse" x="264" y="203" width="188" height="91">
<path d="M264.98 293.808H451.356V203.496H264.98V293.808Z" fill="white"/>
</mask>
<g mask="url(#mask42_2201_4009)">
<path d="M267.133 269.031C267.133 269.283 267.336 269.511 267.589 269.511H273.59C278.476 269.511 282.476 265.536 282.476 260.623C282.476 255.763 278.476 251.787 273.59 251.787H267.589C267.336 251.787 267.133 252.015 267.133 252.268V269.031ZM270.4 266.422V254.85H273.286C276.577 254.85 278.983 257.18 278.983 260.623C278.983 264.093 276.577 266.422 273.286 266.422H270.4ZM284.072 265.789C284.072 268.296 285.691 269.789 288.021 269.789C289.845 269.789 291.008 268.979 291.693 268.321L292.022 269.106C292.174 269.435 292.326 269.511 292.528 269.511H293.389C293.693 269.511 293.947 269.258 293.947 268.954V262.65C293.947 259.46 293.187 257.56 289.541 257.56C287.641 257.56 285.793 258.041 285.539 258.142C285.287 258.218 285.058 258.421 285.16 258.852L285.414 260.168C285.464 260.523 285.691 260.801 286.072 260.675C286.756 260.471 288.3 260.244 289.364 260.244C290.604 260.244 291.035 260.952 290.983 262.448C290.983 262.448 289.921 262.118 288.73 262.118C285.768 262.118 284.072 263.712 284.072 265.789ZM287.11 265.789C287.11 264.752 287.845 264.118 289.186 264.118C290.123 264.118 290.908 264.473 290.908 264.473V266.194C290.756 266.625 289.845 267.435 288.806 267.435C287.718 267.435 287.11 266.777 287.11 265.789ZM297.87 266.017C297.87 268.043 298.529 269.789 301.137 269.789C302.352 269.789 304.023 269.258 304.428 269.031C304.708 268.879 304.833 268.65 304.758 268.346L304.428 266.802C304.378 266.523 304.099 266.371 303.77 266.498C303.466 266.6 302.504 266.877 301.998 266.877C301.416 266.877 301.035 266.7 301.035 265.916V260.649H303.77C304.074 260.649 304.327 260.371 304.327 260.093V258.37C304.327 258.041 304.074 257.813 303.77 257.813H301.035V254.573C301.035 254.269 300.808 254.016 300.504 254.016H298.427C298.149 254.016 297.87 254.269 297.87 254.573V257.813H296.731C296.428 257.813 296.2 258.041 296.2 258.37V260.093C296.2 260.371 296.428 260.649 296.731 260.649H297.87V266.017ZM306.15 265.789C306.15 268.296 307.771 269.789 310.1 269.789C311.924 269.789 313.087 268.979 313.772 268.321L314.101 269.106C314.253 269.435 314.404 269.511 314.608 269.511H315.468C315.771 269.511 316.024 269.258 316.024 268.954V262.65C316.024 259.46 315.265 257.56 311.62 257.56C309.72 257.56 307.873 258.041 307.619 258.142C307.366 258.218 307.137 258.421 307.239 258.852L307.491 260.168C307.543 260.523 307.771 260.801 308.151 260.675C308.835 260.471 310.378 260.244 311.442 260.244C312.683 260.244 313.112 260.952 313.062 262.448C313.062 262.448 311.998 262.118 310.81 262.118C307.847 262.118 306.15 263.712 306.15 265.789ZM309.188 265.789C309.188 264.752 309.922 264.118 311.265 264.118C312.202 264.118 312.987 264.473 312.987 264.473V266.194C312.835 266.625 311.924 267.435 310.885 267.435C309.796 267.435 309.188 266.777 309.188 265.789ZM330.608 269.764C334.179 269.764 336.431 267.358 336.431 264.752C336.431 261.485 333.596 260.016 331.14 259.029C329.09 258.193 328.152 257.383 328.152 256.194C328.152 255.231 328.938 254.421 330.381 254.421C331.773 254.421 332.812 255.129 333.9 255.813C334.204 256.016 334.584 255.813 334.787 255.51L335.749 254.066C335.925 253.813 335.85 253.383 335.597 253.231C335.09 252.852 333.115 251.534 330.533 251.534C326.506 251.534 324.835 254.143 324.835 256.396C324.835 259.383 327.215 260.902 329.596 261.865C331.723 262.725 332.812 263.612 332.812 264.904C332.812 265.992 331.825 266.852 330.506 266.852C328.862 266.852 327.722 266.068 326.685 265.283C326.456 265.106 326.025 265.106 325.823 265.46L324.912 267.029C324.683 267.435 324.785 267.587 325.038 267.79C325.773 268.423 327.418 269.764 330.608 269.764ZM338.787 268.954C338.787 269.258 339.065 269.511 339.344 269.511H341.344C341.8 269.511 341.952 269.283 341.952 268.954V262.498C342.256 261.308 343.015 260.446 344.383 260.446C345.775 260.446 346.51 261.434 346.51 263.055V268.954C346.51 269.258 346.763 269.511 347.067 269.511H349.118C349.397 269.511 349.674 269.258 349.674 268.954V263.081C349.674 260.142 348.662 257.56 344.939 257.56C343.547 257.56 342.533 258.041 341.952 258.548V252.344C341.952 252.066 341.699 251.787 341.395 251.787H339.344C339.065 251.787 338.787 252.066 338.787 252.344V268.954ZM351.953 265.789C351.953 268.296 353.573 269.789 355.903 269.789C357.726 269.789 358.89 268.979 359.575 268.321L359.904 269.106C360.056 269.435 360.208 269.511 360.41 269.511H361.27C361.574 269.511 361.827 269.258 361.827 268.954V262.65C361.827 259.46 361.068 257.56 357.422 257.56C355.523 257.56 353.675 258.041 353.421 258.142C353.169 258.218 352.94 258.421 353.042 258.852L353.296 260.168C353.346 260.523 353.573 260.801 353.954 260.675C354.637 260.471 356.181 260.244 357.245 260.244C358.485 260.244 358.916 260.952 358.865 262.448C358.865 262.448 357.802 262.118 356.612 262.118C353.65 262.118 351.953 263.712 351.953 265.789ZM354.991 265.789C354.991 264.752 355.725 264.118 357.068 264.118C358.004 264.118 358.79 264.473 358.79 264.473V266.194C358.637 266.625 357.726 267.435 356.688 267.435C355.599 267.435 354.991 266.777 354.991 265.789ZM364.967 268.954C364.967 269.258 365.246 269.511 365.525 269.511H367.473C367.854 269.511 368.132 269.384 368.132 268.954V261.663C368.335 261.256 369.094 260.446 370.36 260.446C370.892 260.446 371.171 260.548 371.448 260.675C371.727 260.801 372.006 260.7 372.133 260.421L372.892 258.7C373.222 257.94 372.081 257.56 370.69 257.56C368.892 257.56 367.803 258.75 367.398 259.333L366.968 258.193C366.866 257.94 366.739 257.813 366.461 257.813H365.525C365.246 257.813 364.967 258.041 364.967 258.37V268.954ZM374.766 268.954C374.766 269.258 375.044 269.511 375.323 269.511H377.373C377.652 269.511 377.931 269.258 377.931 268.954V258.37C377.931 258.041 377.652 257.813 377.373 257.813H375.323C375.044 257.813 374.766 258.041 374.766 258.37V268.954ZM376.31 255.813C377.45 255.813 378.336 254.902 378.336 253.788C378.336 252.673 377.45 251.787 376.31 251.787C375.171 251.787 374.31 252.673 374.31 253.788C374.31 254.902 375.171 255.813 376.31 255.813ZM381.171 268.954C381.171 269.258 381.45 269.511 381.729 269.511H383.602C384.159 269.511 384.336 269.384 384.336 268.954V262.27C384.615 261.46 385.349 260.446 386.869 260.446C388.286 260.446 388.894 261.383 388.894 262.904V268.954C388.894 269.258 389.147 269.511 389.451 269.511H391.502C391.78 269.511 392.059 269.258 392.059 268.954V262.904C392.059 260.067 391.096 257.56 387.375 257.56C385.121 257.56 384.033 258.775 383.602 259.257L383.171 258.168C383.096 257.94 382.969 257.813 382.69 257.813H381.729C381.45 257.813 381.171 258.041 381.171 258.37V268.954ZM403.073 266.244C403.073 266.244 402.111 266.904 400.642 266.904C398.717 266.904 397.731 265.333 397.731 263.687C397.731 262.042 398.667 260.446 400.49 260.446C402.009 260.446 402.819 261.408 403.073 262.067V266.244ZM406.237 258.37C406.237 258.066 405.985 257.813 405.681 257.813H404.744C404.465 257.813 404.288 258.041 404.186 258.37L403.884 259.308C403.884 259.308 402.541 257.56 400.06 257.56C396.869 257.56 394.463 260.142 394.463 263.687C394.463 267.106 396.768 269.789 400.262 269.789C401.427 269.789 402.541 269.511 403.073 269.308V269.637C403.073 271.816 402.111 272.423 400.313 272.423C399.098 272.423 397.959 271.79 397.527 271.537C397.275 271.385 396.946 271.461 396.844 271.689L396.084 273.335C395.958 273.537 396.034 273.841 396.211 273.993C396.768 274.423 398.49 275.309 400.414 275.309C403.604 275.309 406.237 273.41 406.237 269.637V258.37Z" fill="#231F20"/>
</g>
<mask id="mask43_2201_4009" style="mask-type:luminance" maskUnits="userSpaceOnUse" x="152" y="227" width="187" height="91">
<path d="M152.172 317.7H338.548V227.388H152.172V317.7Z" fill="white"/>
</mask>
<g mask="url(#mask43_2201_4009)">
<path d="M154.324 268.903C154.324 269.156 154.527 269.384 154.805 269.384H157.135C157.388 269.384 157.616 269.156 157.616 268.903V262.953H160.781C163.87 262.953 166.427 260.395 166.427 257.256C166.427 254.192 163.87 251.66 160.756 251.66H154.805C154.527 251.66 154.324 251.888 154.324 252.141V268.903ZM157.616 259.863V254.774H160.654C162.072 254.774 163.161 255.838 163.161 257.231C163.161 258.725 162.072 259.863 160.654 259.863H157.616ZM167.439 265.663C167.439 268.169 169.06 269.662 171.389 269.662C173.212 269.662 174.378 268.852 175.061 268.194L175.389 268.979C175.541 269.308 175.693 269.384 175.897 269.384H176.757C177.062 269.384 177.314 269.131 177.314 268.827V262.523C177.314 259.333 176.555 257.433 172.908 257.433C171.01 257.433 169.162 257.914 168.909 258.015C168.655 258.091 168.428 258.294 168.529 258.725L168.782 260.041C168.833 260.395 169.06 260.674 169.439 260.547C170.124 260.345 171.668 260.117 172.731 260.117C173.972 260.117 174.403 260.826 174.352 262.32C174.352 262.32 173.289 261.991 172.099 261.991C169.135 261.991 167.439 263.586 167.439 265.663ZM170.478 265.663C170.478 264.625 171.212 263.991 172.554 263.991C173.491 263.991 174.276 264.345 174.276 264.345V266.067C174.124 266.497 173.212 267.308 172.174 267.308C171.087 267.308 170.478 266.649 170.478 265.663ZM181.239 265.89C181.239 267.916 181.897 269.662 184.505 269.662C185.72 269.662 187.391 269.131 187.797 268.903C188.074 268.751 188.201 268.524 188.126 268.22L187.797 266.675C187.745 266.396 187.467 266.244 187.137 266.371C186.835 266.472 185.873 266.751 185.366 266.751C184.783 266.751 184.404 266.573 184.404 265.788V260.522H187.137C187.441 260.522 187.695 260.243 187.695 259.965V258.243C187.695 257.914 187.441 257.686 187.137 257.686H184.404V254.445C184.404 254.141 184.175 253.888 183.872 253.888H181.795C181.516 253.888 181.239 254.141 181.239 254.445V257.686H180.1C179.796 257.686 179.568 257.914 179.568 258.243V259.965C179.568 260.243 179.796 260.522 180.1 260.522H181.239V265.89ZM190.329 268.827C190.329 269.131 190.607 269.384 190.885 269.384H192.886C193.341 269.384 193.493 269.156 193.493 268.827V262.371C193.797 261.18 194.557 260.319 195.924 260.319C197.316 260.319 198.052 261.307 198.052 262.928V268.827C198.052 269.131 198.304 269.384 198.608 269.384H200.659C200.937 269.384 201.216 269.131 201.216 268.827V262.953C201.216 260.015 200.203 257.433 196.481 257.433C195.089 257.433 194.076 257.914 193.493 258.421V252.217C193.493 251.939 193.239 251.66 192.937 251.66H190.885C190.607 251.66 190.329 251.939 190.329 252.217V268.827ZM203.595 263.51C203.595 266.852 206.279 269.662 209.57 269.662C212.888 269.662 215.572 266.852 215.572 263.51C215.572 260.218 212.888 257.433 209.57 257.433C206.279 257.433 203.595 260.218 203.595 263.51ZM206.533 263.51C206.533 261.738 207.875 260.319 209.57 260.319C211.267 260.319 212.635 261.738 212.635 263.51C212.635 265.308 211.267 266.776 209.57 266.776C207.875 266.776 206.533 265.308 206.533 263.51ZM225.979 266.118C225.979 266.118 225.016 266.776 223.547 266.776C221.623 266.776 220.635 265.207 220.635 263.56C220.635 261.915 221.572 260.319 223.395 260.319C224.915 260.319 225.725 261.282 225.979 261.94V266.118ZM229.142 258.243C229.142 257.939 228.89 257.686 228.587 257.686H227.649C227.37 257.686 227.193 257.914 227.091 258.243L226.788 259.181C226.788 259.181 225.446 257.433 222.966 257.433C219.775 257.433 217.369 260.015 217.369 263.56C217.369 266.979 219.674 269.662 223.167 269.662C224.332 269.662 225.446 269.384 225.979 269.181V269.511C225.979 271.688 225.016 272.296 223.218 272.296C222.004 272.296 220.863 271.662 220.433 271.41C220.179 271.258 219.851 271.334 219.75 271.562L218.99 273.207C218.863 273.41 218.94 273.714 219.117 273.866C219.674 274.297 221.395 275.183 223.319 275.183C226.51 275.183 229.142 273.284 229.142 269.511V258.243ZM231.675 263.535C231.675 266.877 234.106 269.662 237.6 269.662C239.499 269.662 240.942 268.928 241.954 268.068C242.233 267.814 242.208 267.536 242.006 267.308L241.018 265.991C240.841 265.738 240.537 265.763 240.258 265.991C239.726 266.421 238.916 266.852 237.752 266.852C236.055 266.852 234.865 265.587 234.84 264.143H242.335C242.587 264.143 242.867 263.915 242.892 263.611C242.917 263.434 242.942 263.029 242.942 262.852C242.942 259.686 240.613 257.433 237.575 257.433C234.106 257.433 231.675 260.243 231.675 263.535ZM235.017 262.067C235.169 260.902 236.081 260.041 237.498 260.041C238.789 260.041 239.7 260.927 239.752 262.067H235.017ZM245.322 268.827C245.322 269.131 245.6 269.384 245.879 269.384H247.752C248.31 269.384 248.487 269.257 248.487 268.827V262.143C248.765 261.332 249.5 260.319 251.019 260.319C252.436 260.319 253.044 261.256 253.044 262.776V268.827C253.044 269.131 253.298 269.384 253.602 269.384H255.652C255.931 269.384 256.209 269.131 256.209 268.827V262.776C256.209 259.939 255.247 257.433 251.525 257.433C249.271 257.433 248.183 258.649 247.752 259.13L247.323 258.041C247.246 257.813 247.119 257.686 246.841 257.686H245.879C245.6 257.686 245.322 257.914 245.322 258.243V268.827Z" fill="#231F20"/>
</g>
<mask id="mask44_2201_4009" style="mask-type:luminance" maskUnits="userSpaceOnUse" x="63" y="251" width="187" height="91">
<path d="M63.1211 341.971H249.497V251.659H63.1211V341.971Z" fill="white"/>
</mask>
<g mask="url(#mask44_2201_4009)">
<path d="M63.6021 269.637H65.8047C66.2091 269.637 66.4377 269.384 66.5395 269.131L67.7798 266.396H75.3508L76.5912 269.131C76.7683 269.485 76.9455 269.637 77.3254 269.637H79.5273C79.9079 269.637 80.1102 269.308 79.9582 268.979L72.161 251.939C72.0844 251.787 71.9827 251.66 71.7302 251.66H71.4765C71.2491 251.66 71.1223 251.787 71.0463 251.939L63.1719 268.979C63.0199 269.308 63.2222 269.637 63.6021 269.637ZM69.0196 263.586L71.5016 258.015H71.5782L74.1099 263.586H69.0196ZM82.1356 269.08C82.1356 269.384 82.3893 269.637 82.6933 269.637H84.7438C85.0478 269.637 85.3003 269.384 85.3003 269.08V260.775H88.4913C88.8204 260.775 89.0478 260.496 89.0478 260.218V258.496C89.0478 258.167 88.8204 257.939 88.4913 257.939H85.3003V256.547C85.3003 255.331 85.554 254.546 87.023 254.546C87.656 254.546 88.4662 254.9 88.8456 255.154C89.0993 255.306 89.429 255.23 89.5546 255.002L90.4402 253.458C90.567 253.255 90.5168 252.926 90.3145 252.799C89.782 252.318 88.4147 251.66 86.871 251.66C83.7817 251.66 82.1356 253.432 82.1356 256.547V257.939H80.9209C80.5918 257.939 80.3645 258.167 80.3645 258.496V260.218C80.3645 260.496 80.5918 260.775 80.9209 260.775H82.1356V269.08ZM91.1498 269.08C91.1498 269.384 91.4275 269.637 91.7063 269.637H93.6563C94.0357 269.637 94.3145 269.51 94.3145 269.08V261.788C94.5168 261.382 95.2773 260.572 96.5422 260.572C97.0748 260.572 97.3524 260.673 97.6312 260.8C97.9101 260.927 98.1895 260.825 98.3151 260.547L99.0751 258.825C99.4042 258.066 98.2649 257.686 96.8713 257.686C95.0745 257.686 93.9854 258.876 93.5797 259.458L93.1501 258.319C93.0484 258.066 92.9216 257.939 92.6439 257.939H91.7063C91.4275 257.939 91.1498 258.167 91.1498 258.496V269.08ZM100.948 269.08C100.948 269.384 101.227 269.637 101.506 269.637H103.556C103.835 269.637 104.113 269.384 104.113 269.08V258.496C104.113 258.167 103.835 257.939 103.556 257.939H101.506C101.227 257.939 100.948 258.167 100.948 258.496V269.08ZM102.492 255.939C103.632 255.939 104.519 255.027 104.519 253.913C104.519 252.799 103.632 251.913 102.492 251.913C101.354 251.913 100.492 252.799 100.492 253.913C100.492 255.027 101.354 255.939 102.492 255.939ZM106.644 263.788C106.644 267.307 109.404 269.915 112.823 269.915C114.899 269.915 116.469 269.004 117.457 267.459C117.659 267.155 117.532 266.877 117.253 266.623L116.115 265.661C115.912 265.484 115.557 265.535 115.38 265.737C114.873 266.32 114.19 267.029 112.898 267.029C111.076 267.029 109.835 265.611 109.835 263.788C109.835 261.99 111.101 260.572 112.923 260.572C114.013 260.572 114.696 261.053 115.254 261.585C115.481 261.813 115.76 261.94 116.013 261.661L117.076 260.496C117.33 260.243 117.457 259.914 117.203 259.661C116.089 258.471 114.671 257.686 112.848 257.686C109.379 257.686 106.644 260.344 106.644 263.788ZM118.9 265.915C118.9 268.422 120.52 269.915 122.849 269.915C124.672 269.915 125.837 269.105 126.52 268.447L126.85 269.232C127.001 269.561 127.153 269.637 127.356 269.637H128.217C128.521 269.637 128.774 269.384 128.774 269.08V262.775C128.774 259.585 128.015 257.686 124.369 257.686C122.47 257.686 120.621 258.167 120.368 258.268C120.115 258.344 119.886 258.547 119.988 258.977L120.241 260.294C120.292 260.648 120.52 260.927 120.899 260.8C121.583 260.597 123.128 260.37 124.19 260.37C125.432 260.37 125.862 261.079 125.811 262.573C125.811 262.573 124.748 262.244 123.559 262.244C120.596 262.244 118.9 263.839 118.9 265.915ZM121.938 265.915C121.938 264.877 122.672 264.244 124.013 264.244C124.95 264.244 125.736 264.598 125.736 264.598V266.32C125.584 266.75 124.672 267.561 123.634 267.561C122.546 267.561 121.938 266.902 121.938 265.915ZM131.913 269.08C131.913 269.384 132.192 269.637 132.47 269.637H134.345C134.901 269.637 135.078 269.51 135.078 269.08V262.396C135.357 261.585 136.091 260.572 137.61 260.572C139.028 260.572 139.636 261.509 139.636 263.029V269.08C139.636 269.384 139.89 269.637 140.193 269.637H142.244C142.522 269.637 142.801 269.384 142.801 269.08V263.029C142.801 260.192 141.838 257.686 138.117 257.686C135.863 257.686 134.774 258.901 134.345 259.382L133.913 258.294C133.838 258.066 133.711 257.939 133.432 257.939H132.47C132.192 257.939 131.913 258.167 131.913 258.496V269.08Z" fill="#231F20"/>
</g>
<path d="M95.1578 181.536H68.0004L109.38 61.669H142.039L183.361 181.536H156.203L126.178 89.0605H125.242L95.1578 181.536ZM93.4605 134.42H157.608V154.203H93.4605V134.42ZM233.637 217.122C225.56 217.122 218.634 216.01 212.859 213.786C207.124 211.6 202.558 208.615 199.164 204.831C195.769 201.046 193.564 196.793 192.55 192.071L215.61 188.969C216.313 190.764 217.425 192.442 218.946 194.003C220.468 195.564 222.478 196.812 224.975 197.749C227.511 198.724 230.594 199.212 234.222 199.212C239.646 199.212 244.114 197.885 247.625 195.232C251.176 192.618 252.952 188.228 252.952 182.063V165.616H251.898C250.806 168.114 249.167 170.474 246.982 172.698C244.797 174.922 241.987 176.737 238.554 178.141C235.12 179.546 231.023 180.248 226.262 180.248C219.512 180.248 213.367 178.688 207.826 175.566C202.324 172.406 197.934 167.587 194.657 161.11C191.418 154.593 189.799 146.36 189.799 136.41C189.799 126.226 191.457 117.72 194.774 110.892C198.091 104.063 202.5 98.9519 208.001 95.5572C213.542 92.1626 219.61 90.4652 226.204 90.4652C231.237 90.4652 235.451 91.3237 238.846 93.0405C242.241 94.7183 244.972 96.8254 247.04 99.3616C249.147 101.859 250.767 104.317 251.898 106.736H252.835V91.6358H277.592V182.414C277.592 190.062 275.719 196.461 271.973 201.612C268.228 206.762 263.038 210.625 256.405 213.2C249.811 215.815 242.221 217.122 233.637 217.122ZM234.164 161.519C238.183 161.519 241.577 160.524 244.348 158.534C247.157 156.505 249.303 153.618 250.786 149.872C252.308 146.087 253.069 141.561 253.069 136.293C253.069 131.026 252.327 126.46 250.845 122.598C249.362 118.696 247.216 115.672 244.406 113.526C241.597 111.38 238.183 110.307 234.164 110.307C230.067 110.307 226.614 111.419 223.804 113.643C220.995 115.828 218.868 118.871 217.425 122.773C215.981 126.675 215.259 131.182 215.259 136.293C215.259 141.483 215.981 145.97 217.425 149.755C218.907 153.501 221.034 156.408 223.804 158.476C226.614 160.505 230.067 161.519 234.164 161.519ZM323.069 183.233C317.333 183.233 312.222 182.238 307.735 180.248C303.247 178.219 299.697 175.235 297.082 171.294C294.507 167.314 293.219 162.358 293.219 156.427C293.219 151.433 294.136 147.238 295.97 143.844C297.804 140.449 300.301 137.718 303.462 135.65C306.623 133.581 310.212 132.021 314.231 130.967C318.289 129.914 322.542 129.172 326.991 128.743C332.219 128.197 336.433 127.69 339.633 127.221C342.832 126.714 345.154 125.973 346.598 124.997C348.041 124.022 348.763 122.578 348.763 120.666V120.315C348.763 116.608 347.593 113.74 345.252 111.711C342.949 109.682 339.672 108.668 335.419 108.668C330.932 108.668 327.361 109.663 324.708 111.653C322.055 113.604 320.299 116.062 319.44 119.027L296.38 117.154C297.551 111.692 299.853 106.97 303.286 102.99C306.72 98.9714 311.149 95.8889 316.572 93.7428C322.035 91.5578 328.356 90.4652 335.536 90.4652C340.53 90.4652 345.31 91.0505 349.875 92.2211C354.48 93.3917 358.557 95.2061 362.108 97.6643C365.698 100.122 368.527 103.283 370.595 107.146C372.663 110.97 373.697 115.555 373.697 120.9V181.536H350.051V169.069H349.349C347.905 171.879 345.973 174.357 343.554 176.503C341.135 178.61 338.228 180.268 334.833 181.478C331.439 182.648 327.517 183.233 323.069 183.233ZM330.21 166.026C333.878 166.026 337.116 165.304 339.925 163.86C342.735 162.378 344.939 160.388 346.539 157.89C348.139 155.393 348.939 152.564 348.939 149.404V139.864C348.159 140.371 347.086 140.839 345.72 141.268C344.393 141.658 342.891 142.029 341.213 142.38C339.535 142.692 337.857 142.985 336.18 143.258C334.502 143.492 332.98 143.707 331.614 143.902C328.688 144.331 326.132 145.014 323.947 145.951C321.762 146.887 320.065 148.155 318.855 149.755C317.645 151.316 317.041 153.267 317.041 155.608C317.041 159.003 318.27 161.597 320.728 163.392C323.225 165.148 326.386 166.026 330.21 166.026ZM393.04 181.536V91.6358H417.213V107.322H418.149C419.788 101.742 422.539 97.5277 426.402 94.6793C430.265 91.7919 434.713 90.3482 439.746 90.3482C440.995 90.3482 442.341 90.4262 443.785 90.5823C445.229 90.7384 446.497 90.953 447.589 91.2261V113.35C446.419 112.999 444.799 112.687 442.731 112.414C440.663 112.14 438.771 112.004 437.054 112.004C433.386 112.004 430.109 112.804 427.221 114.404C424.373 115.964 422.11 118.149 420.432 120.959C418.793 123.768 417.974 127.007 417.974 130.675V181.536H393.04ZM460.48 181.536V91.6358H485.414V181.536H460.48ZM473.005 80.0471C469.299 80.0471 466.119 78.818 463.465 76.3598C460.851 73.8625 459.544 70.8776 459.544 67.4049C459.544 63.9712 460.851 61.0252 463.465 58.567C466.119 56.0698 469.299 54.8212 473.005 54.8212C476.712 54.8212 479.873 56.0698 482.487 58.567C485.14 61.0252 486.467 63.9712 486.467 67.4049C486.467 70.8776 485.14 73.8625 482.487 76.3598C479.873 78.818 476.712 80.0471 473.005 80.0471Z" fill="#B3A168"/>
<path opacity="0.97" d="M627.397 243.38H66.4775C65.0887 243.38 63.9629 242.254 63.9629 240.865C63.9629 239.476 65.0887 238.351 66.4775 238.351H627.397C628.786 238.351 629.912 239.476 629.912 240.865C629.912 242.254 628.786 243.38 627.397 243.38Z" fill="#221E20" fill-opacity="0.72549"/>
</svg>
