<svg width="144" height="38" viewBox="0 0 144 38" fill="none" xmlns="http://www.w3.org/2000/svg">
<g filter="url(#filter0_dd_2105_5555)">
<g clip-path="url(#clip0_2105_5555)">
<mask id="mask0_2105_5555" style="mask-type:luminance" maskUnits="userSpaceOnUse" x="7" y="7" width="24" height="3">
<path d="M7.70117 7.8291H30.2984V9.00468H7.70117V7.8291Z" fill="white"/>
</mask>
<g mask="url(#mask0_2105_5555)">
<mask id="mask1_2105_5555" style="mask-type:luminance" maskUnits="userSpaceOnUse" x="7" y="5" width="24" height="25">
<path d="M14.7295 5.48633C14.6147 5.48684 14.5142 5.50419 14.4325 5.54807C13.8498 5.74655 12.8972 5.95779 12.8972 5.95779C12.8972 5.95779 12.5268 5.7991 11.7854 6.16953C11.0446 6.69916 10.8859 6.85784 10.8859 6.85784C10.8859 6.85784 10.6211 8.07577 9.82664 8.07577C9.3506 8.7105 8.29186 10.0871 8.02705 11.0397C7.49743 12.4158 7.70918 13.7394 8.29186 14.5333C9.13885 15.6982 9.87971 16.81 11.6793 16.4921C13.5325 16.0686 13.6911 16.0155 14.0616 16.0155C14.6438 16.0686 15.4377 16.6508 15.4377 16.6508C16.0204 16.6508 16.3377 16.8625 16.3377 16.8625C16.3377 16.8625 16.0729 18.3978 16.179 18.6096C16.3377 18.8744 17.2903 19.1785 17.3434 20.3229C17.3965 21.4679 17.7138 22.1031 17.7138 22.1031C17.7138 22.1031 17.6613 22.7384 17.1847 23.2675C16.7082 23.7971 17.5021 25.1732 17.82 25.4911C18.0317 26.0733 18.2434 26.9733 18.2965 27.4499C18.8501 27.979 18.8501 28.2438 19.1966 29.4612C19.1966 29.4612 19.4083 30.0965 20.4135 29.6199C21.6314 29.4612 21.9488 29.6199 22.5309 28.7729C23.4841 27.7673 23.7489 27.6616 23.8019 27.132C24.2249 26.3912 24.7545 26.1794 24.7545 26.1794C24.7545 25.5437 24.8076 24.9089 24.4897 24.7502C25.4954 24.2737 26.2893 23.7441 26.6603 23.5323C26.7659 22.7384 26.6072 20.6607 26.2893 20.3229C25.972 19.7739 26.0245 19.9857 26.7393 19.1387C27.6129 18.133 28.8833 16.7569 28.8833 16.7569C28.8833 16.7569 29.2543 16.1217 29.3599 15.4864C30.1008 14.6925 30.8809 13.2633 29.4058 13.7394C28.7777 14.0042 28.2481 14.4108 27.7185 14.0042C27.5072 13.3159 27.0307 13.0516 26.6072 13.0516C25.7602 11.8867 25.125 11.0397 25.125 11.0397C25.125 11.0397 25.5852 10.2989 24.7198 9.71669C24.1193 8.92225 24.1193 8.86919 24.1193 8.86919C24.1193 8.86919 24.6484 6.96397 22.6901 7.3344C21.3666 7.28133 19.8757 6.9109 19.5139 7.54615C19.1522 7.86402 18.6139 7.77728 18.3496 7.13235C17.873 6.85784 17.1317 7.11449 17.1317 7.11449C17.1317 7.11449 16.5117 6.75222 16.8143 6.32873C17.1163 5.74655 17.026 5.48174 16.2852 5.64042C15.9714 5.66287 15.6586 5.6144 15.3729 5.56592C15.1412 5.52715 14.928 5.48735 14.7484 5.48633H14.7295Z" fill="white"/>
</mask>
<g mask="url(#mask1_2105_5555)">
<path d="M6.37305 7.86914L6.3858 8.94267H31.1591L31.1464 7.86914H6.37305Z" fill="#B3A168"/>
</g>
</g>
<mask id="mask2_2105_5555" style="mask-type:luminance" maskUnits="userSpaceOnUse" x="13" y="7" width="9" height="3">
<path d="M13.8398 7.8291H21.9383V9.00468H13.8398V7.8291Z" fill="white"/>
</mask>
<g mask="url(#mask2_2105_5555)">
<mask id="mask3_2105_5555" style="mask-type:luminance" maskUnits="userSpaceOnUse" x="9" y="7" width="16" height="2">
<path d="M10.3453 7.86914C10.2055 7.99211 10.0335 8.07579 9.82585 8.07579C9.66257 8.29315 9.43093 8.59776 9.18652 8.94267H24.1593C24.1185 8.87839 24.1185 8.8692 24.1185 8.8692C24.1185 8.8692 24.2711 8.3207 24.1093 7.86914H10.3453Z" fill="white"/>
</mask>
<g mask="url(#mask3_2105_5555)">
<path d="M14.5102 7.61816L13.8643 9.2453H21.1994L21.8637 7.61816H14.5102Z" fill="#231F20"/>
</g>
</g>
<mask id="mask4_2105_5555" style="mask-type:luminance" maskUnits="userSpaceOnUse" x="7" y="6" width="20" height="2">
<path d="M7.70117 6.26172H26.3798V7.4373H7.70117V6.26172Z" fill="white"/>
</mask>
<g mask="url(#mask4_2105_5555)">
<mask id="mask5_2105_5555" style="mask-type:luminance" maskUnits="userSpaceOnUse" x="7" y="5" width="24" height="25">
<path d="M14.7295 5.48633C14.6147 5.48684 14.5142 5.50419 14.4325 5.54807C13.8498 5.74655 12.8972 5.95779 12.8972 5.95779C12.8972 5.95779 12.5268 5.7991 11.7854 6.16953C11.0446 6.69916 10.8859 6.85784 10.8859 6.85784C10.8859 6.85784 10.6211 8.07577 9.82664 8.07577C9.3506 8.7105 8.29186 10.0871 8.02705 11.0397C7.49743 12.4158 7.70918 13.7394 8.29186 14.5333C9.13885 15.6982 9.87971 16.81 11.6793 16.4921C13.5325 16.0686 13.6911 16.0155 14.0616 16.0155C14.6438 16.0686 15.4377 16.6508 15.4377 16.6508C16.0204 16.6508 16.3377 16.8625 16.3377 16.8625C16.3377 16.8625 16.0729 18.3978 16.179 18.6096C16.3377 18.8744 17.2903 19.1785 17.3434 20.3229C17.3965 21.4679 17.7138 22.1031 17.7138 22.1031C17.7138 22.1031 17.6613 22.7384 17.1847 23.2675C16.7082 23.7971 17.5021 25.1732 17.82 25.4911C18.0317 26.0733 18.2434 26.9733 18.2965 27.4499C18.8501 27.979 18.8501 28.2438 19.1966 29.4612C19.1966 29.4612 19.4083 30.0965 20.4135 29.6199C21.6314 29.4612 21.9488 29.6199 22.5309 28.7729C23.4841 27.7673 23.7489 27.6616 23.8019 27.132C24.2249 26.3912 24.7545 26.1794 24.7545 26.1794C24.7545 25.5437 24.8076 24.9089 24.4897 24.7502C25.4954 24.2737 26.2893 23.7441 26.6603 23.5323C26.7659 22.7384 26.6072 20.6607 26.2893 20.3229C25.972 19.7739 26.0245 19.9857 26.7393 19.1387C27.6129 18.133 28.8833 16.7569 28.8833 16.7569C28.8833 16.7569 29.2543 16.1217 29.3599 15.4864C30.1008 14.6925 30.8809 13.2633 29.4058 13.7394C28.7777 14.0042 28.2481 14.4108 27.7185 14.0042C27.5072 13.3159 27.0307 13.0516 26.6072 13.0516C25.7602 11.8867 25.125 11.0397 25.125 11.0397C25.125 11.0397 25.5852 10.2989 24.7198 9.71669C24.1193 8.92225 24.1193 8.86919 24.1193 8.86919C24.1193 8.86919 24.6484 6.96397 22.6901 7.3344C21.3666 7.28133 19.8757 6.9109 19.5139 7.54615C19.1522 7.86402 18.6139 7.77728 18.3496 7.13235C17.873 6.85784 17.1317 7.11449 17.1317 7.11449C17.1317 7.11449 16.5117 6.75222 16.8143 6.32873C17.1163 5.74655 17.026 5.48174 16.2852 5.64042C15.9714 5.66287 15.6586 5.6144 15.3729 5.56592C15.1412 5.52715 14.928 5.48735 14.7484 5.48633H14.7295Z" fill="white"/>
</mask>
<g mask="url(#mask5_2105_5555)">
<path d="M6.38574 6.27148V7.3588H26.0476L26.3389 6.27148H6.38574Z" fill="#231F20"/>
</g>
</g>
<mask id="mask6_2105_5555" style="mask-type:luminance" maskUnits="userSpaceOnUse" x="10" y="6" width="4" height="2">
<path d="M10.7051 6.26172H13.1869V7.4373H10.7051V6.26172Z" fill="white"/>
</mask>
<g mask="url(#mask6_2105_5555)">
<mask id="mask7_2105_5555" style="mask-type:luminance" maskUnits="userSpaceOnUse" x="10" y="6" width="14" height="2">
<path d="M11.6433 6.27246C11.0233 6.72045 10.8856 6.85872 10.8856 6.85872C10.8856 6.85872 10.8335 7.09547 10.708 7.35977H18.4671C18.4238 7.29395 18.384 7.21844 18.3493 7.13323C17.8727 6.85872 17.1313 7.11537 17.1313 7.11537C17.1313 7.11537 16.5114 6.7531 16.814 6.32961C16.8242 6.30971 16.8339 6.29083 16.8425 6.27246H11.6433ZM19.6896 7.35977H23.6108C23.3919 7.27915 23.0939 7.25875 22.6898 7.33528C21.9586 7.30569 21.1765 7.17966 20.5616 7.17966C20.1968 7.17966 19.8912 7.22405 19.6896 7.35977Z" fill="white"/>
</mask>
<g mask="url(#mask7_2105_5555)">
<path d="M-4.28266 5.61133L-4.63574 7.57573H13.0831V5.61133H-4.28266Z" fill="#B3A168"/>
</g>
</g>
<mask id="mask8_2105_5555" style="mask-type:luminance" maskUnits="userSpaceOnUse" x="21" y="6" width="3" height="2">
<path d="M21.1553 6.26172H23.637V7.4373H21.1553V6.26172Z" fill="white"/>
</mask>
<g mask="url(#mask8_2105_5555)">
<mask id="mask9_2105_5555" style="mask-type:luminance" maskUnits="userSpaceOnUse" x="10" y="6" width="14" height="2">
<path d="M11.6433 6.27148C11.0233 6.71947 10.8856 6.85774 10.8856 6.85774C10.8856 6.85774 10.8335 7.09449 10.708 7.3588H18.4671C18.4238 7.29297 18.384 7.21746 18.3493 7.13225C17.8727 6.85774 17.1313 7.11439 17.1313 7.11439C17.1313 7.11439 16.5114 6.75213 16.814 6.32863C16.8242 6.30873 16.8339 6.28985 16.8425 6.27148H11.6433ZM19.6896 7.3588H23.6108C23.3919 7.27818 23.0939 7.25777 22.6898 7.3343C21.9586 7.30471 21.1765 7.17868 20.5616 7.17868C20.1968 7.17868 19.8912 7.22307 19.6896 7.3588Z" fill="white"/>
</mask>
<g mask="url(#mask9_2105_5555)">
<path d="M21.5582 5.9668L21.2051 7.9312H38.9239V5.9668H21.5582Z" fill="#B3A168"/>
</g>
</g>
<mask id="mask10_2105_5555" style="mask-type:luminance" maskUnits="userSpaceOnUse" x="7" y="9" width="20" height="2">
<path d="M7.70117 9.39648H26.1185V10.5721H7.70117V9.39648Z" fill="white"/>
</mask>
<g mask="url(#mask10_2105_5555)">
<mask id="mask11_2105_5555" style="mask-type:luminance" maskUnits="userSpaceOnUse" x="7" y="5" width="24" height="25">
<path d="M14.7295 5.48633C14.6147 5.48684 14.5142 5.50419 14.4325 5.54807C13.8498 5.74655 12.8972 5.95779 12.8972 5.95779C12.8972 5.95779 12.5268 5.7991 11.7854 6.16953C11.0446 6.69916 10.8859 6.85784 10.8859 6.85784C10.8859 6.85784 10.6211 8.07577 9.82664 8.07577C9.3506 8.7105 8.29186 10.0871 8.02705 11.0397C7.49743 12.4158 7.70918 13.7394 8.29186 14.5333C9.13885 15.6982 9.87971 16.81 11.6793 16.4921C13.5325 16.0686 13.6911 16.0155 14.0616 16.0155C14.6438 16.0686 15.4377 16.6508 15.4377 16.6508C16.0204 16.6508 16.3377 16.8625 16.3377 16.8625C16.3377 16.8625 16.0729 18.3978 16.179 18.6096C16.3377 18.8744 17.2903 19.1785 17.3434 20.3229C17.3965 21.4679 17.7138 22.1031 17.7138 22.1031C17.7138 22.1031 17.6613 22.7384 17.1847 23.2675C16.7082 23.7971 17.5021 25.1732 17.82 25.4911C18.0317 26.0733 18.2434 26.9733 18.2965 27.4499C18.8501 27.979 18.8501 28.2438 19.1966 29.4612C19.1966 29.4612 19.4083 30.0965 20.4135 29.6199C21.6314 29.4612 21.9488 29.6199 22.5309 28.7729C23.4841 27.7673 23.7489 27.6616 23.8019 27.132C24.2249 26.3912 24.7545 26.1794 24.7545 26.1794C24.7545 25.5437 24.8076 24.9089 24.4897 24.7502C25.4954 24.2737 26.2893 23.7441 26.6603 23.5323C26.7659 22.7384 26.6072 20.6607 26.2893 20.3229C25.972 19.7739 26.0245 19.9857 26.7393 19.1387C27.6129 18.133 28.8833 16.7569 28.8833 16.7569C28.8833 16.7569 29.2543 16.1217 29.3599 15.4864C30.1008 14.6925 30.8809 13.2633 29.4058 13.7394C28.7777 14.0042 28.2481 14.4108 27.7185 14.0042C27.5072 13.3159 27.0307 13.0516 26.6072 13.0516C25.7602 11.8867 25.125 11.0397 25.125 11.0397C25.125 11.0397 25.5852 10.2989 24.7198 9.71669C24.1193 8.92225 24.1193 8.86919 24.1193 8.86919C24.1193 8.86919 24.6484 6.96397 22.6901 7.3344C21.3666 7.28133 19.8757 6.9109 19.5139 7.54615C19.1522 7.86402 18.6139 7.77728 18.3496 7.13235C17.873 6.85784 17.1317 7.11449 17.1317 7.11449C17.1317 7.11449 16.5117 6.75222 16.8143 6.32873C17.1163 5.74655 17.026 5.48174 16.2852 5.64042C15.9714 5.66287 15.6586 5.6144 15.3729 5.56592C15.1412 5.52715 14.928 5.48735 14.7484 5.48633H14.7295Z" fill="white"/>
</mask>
<g mask="url(#mask11_2105_5555)">
<path d="M6.38574 10.5386H25.9945V9.48242H6.38574V10.5386Z" fill="#B3A168"/>
</g>
</g>
<mask id="mask12_2105_5555" style="mask-type:luminance" maskUnits="userSpaceOnUse" x="15" y="9" width="5" height="2">
<path d="M15.2773 9.39648H19.3266V10.5721H15.2773V9.39648Z" fill="white"/>
</mask>
<g mask="url(#mask12_2105_5555)">
<mask id="mask13_2105_5555" style="mask-type:luminance" maskUnits="userSpaceOnUse" x="8" y="9" width="18" height="2">
<path d="M8.81836 9.48242C8.58978 9.83244 8.37395 10.1973 8.2168 10.5386H25.2463C25.2372 10.2901 25.1208 9.98602 24.7198 9.71662C24.6545 9.62988 24.5963 9.55232 24.5443 9.48242H8.81836Z" fill="white"/>
</mask>
<g mask="url(#mask13_2105_5555)">
<path d="M16.2456 9.32422L15.293 10.7003L19.26 10.6738V9.32422H16.2456Z" fill="#231F20"/>
</g>
</g>
<mask id="mask14_2105_5555" style="mask-type:luminance" maskUnits="userSpaceOnUse" x="7" y="12" width="24" height="2">
<path d="M7.70117 12.6621H30.2984V13.8377H7.70117V12.6621Z" fill="white"/>
</mask>
<g mask="url(#mask14_2105_5555)">
<mask id="mask15_2105_5555" style="mask-type:luminance" maskUnits="userSpaceOnUse" x="7" y="5" width="24" height="25">
<path d="M14.7295 5.48633C14.6147 5.48684 14.5142 5.50419 14.4325 5.54807C13.8498 5.74655 12.8972 5.95779 12.8972 5.95779C12.8972 5.95779 12.5268 5.7991 11.7854 6.16953C11.0446 6.69916 10.8859 6.85784 10.8859 6.85784C10.8859 6.85784 10.6211 8.07577 9.82664 8.07577C9.3506 8.7105 8.29186 10.0871 8.02705 11.0397C7.49743 12.4158 7.70918 13.7394 8.29186 14.5333C9.13885 15.6982 9.87971 16.81 11.6793 16.4921C13.5325 16.0686 13.6911 16.0155 14.0616 16.0155C14.6438 16.0686 15.4377 16.6508 15.4377 16.6508C16.0204 16.6508 16.3377 16.8625 16.3377 16.8625C16.3377 16.8625 16.0729 18.3978 16.179 18.6096C16.3377 18.8744 17.2903 19.1785 17.3434 20.3229C17.3965 21.4679 17.7138 22.1031 17.7138 22.1031C17.7138 22.1031 17.6613 22.7384 17.1847 23.2675C16.7082 23.7971 17.5021 25.1732 17.82 25.4911C18.0317 26.0733 18.2434 26.9733 18.2965 27.4499C18.8501 27.979 18.8501 28.2438 19.1966 29.4612C19.1966 29.4612 19.4083 30.0965 20.4135 29.6199C21.6314 29.4612 21.9488 29.6199 22.5309 28.7729C23.4841 27.7673 23.7489 27.6616 23.8019 27.132C24.2249 26.3912 24.7545 26.1794 24.7545 26.1794C24.7545 25.5437 24.8076 24.9089 24.4897 24.7502C25.4954 24.2737 26.2893 23.7441 26.6603 23.5323C26.7659 22.7384 26.6072 20.6607 26.2893 20.3229C25.972 19.7739 26.0245 19.9857 26.7393 19.1387C27.6129 18.133 28.8833 16.7569 28.8833 16.7569C28.8833 16.7569 29.2543 16.1217 29.3599 15.4864C30.1008 14.6925 30.8809 13.2633 29.4058 13.7394C28.7777 14.0042 28.2481 14.4108 27.7185 14.0042C27.5072 13.3159 27.0307 13.0516 26.6072 13.0516C25.7602 11.8867 25.125 11.0397 25.125 11.0397C25.125 11.0397 25.5852 10.2989 24.7198 9.71669C24.1193 8.92225 24.1193 8.86919 24.1193 8.86919C24.1193 8.86919 24.6484 6.96397 22.6901 7.3344C21.3666 7.28133 19.8757 6.9109 19.5139 7.54615C19.1522 7.86402 18.6139 7.77728 18.3496 7.13235C17.873 6.85784 17.1317 7.11449 17.1317 7.11449C17.1317 7.11449 16.5117 6.75222 16.8143 6.32873C17.1163 5.74655 17.026 5.48174 16.2852 5.64042C15.9714 5.66287 15.6586 5.6144 15.3729 5.56592C15.1412 5.52715 14.928 5.48735 14.7484 5.48633H14.7295Z" fill="white"/>
</mask>
<g mask="url(#mask15_2105_5555)">
<path d="M6.45117 13.7712H31.2245V12.6777H6.45117V13.7712Z" fill="#319044"/>
</g>
</g>
<mask id="mask16_2105_5555" style="mask-type:luminance" maskUnits="userSpaceOnUse" x="12" y="12" width="7" height="2">
<path d="M12.665 12.6621H18.4123V13.8377H12.665V12.6621Z" fill="white"/>
</mask>
<g mask="url(#mask16_2105_5555)">
<mask id="mask17_2105_5555" style="mask-type:luminance" maskUnits="userSpaceOnUse" x="7" y="12" width="24" height="2">
<path d="M7.72363 12.6777C7.72925 13.0721 7.79302 13.4416 7.90375 13.7712H27.6299C27.3916 13.2553 26.9788 13.0517 26.6068 13.0517C26.5135 12.9226 26.4221 12.7981 26.3344 12.6777H7.72363ZM29.4055 13.7395C29.381 13.7502 29.3565 13.7605 29.332 13.7712H30.1963C30.1453 13.6911 30.0479 13.6446 29.8928 13.6446C29.7688 13.6446 29.6086 13.6737 29.4055 13.7395Z" fill="white"/>
</mask>
<g mask="url(#mask17_2105_5555)">
<path d="M14.0305 16.8042C14.0305 16.8042 13.9641 13.18 18.3154 11.7539L17.2526 10.8574C17.2526 10.8574 13.1218 11.9881 12.7355 17.0032C12.3487 21.9856 14.0305 16.8042 14.0305 16.8042Z" fill="#00512C"/>
</g>
</g>
<mask id="mask18_2105_5555" style="mask-type:luminance" maskUnits="userSpaceOnUse" x="7" y="12" width="8" height="2">
<path d="M7.70117 12.6621H14.7546V13.8377H7.70117V12.6621Z" fill="white"/>
</mask>
<g mask="url(#mask18_2105_5555)">
<mask id="mask19_2105_5555" style="mask-type:luminance" maskUnits="userSpaceOnUse" x="7" y="12" width="24" height="2">
<path d="M7.72363 12.6777C7.72925 13.0721 7.79302 13.4416 7.90375 13.7712H27.6299C27.3916 13.2553 26.9788 13.0517 26.6068 13.0517C26.5135 12.9226 26.4221 12.7981 26.3344 12.6777H7.72363ZM29.4055 13.7395C29.381 13.7502 29.3565 13.7605 29.332 13.7712H30.1963C30.1453 13.6911 30.0479 13.6446 29.8928 13.6446C29.7688 13.6446 29.6086 13.6737 29.4055 13.7395Z" fill="white"/>
</mask>
<g mask="url(#mask19_2105_5555)">
<path d="M6.37305 12.4883L6.40315 17.2794L12.6382 16.4824L14.6312 12.4964L6.37305 12.4883Z" fill="#B3A168"/>
</g>
</g>
<mask id="mask20_2105_5555" style="mask-type:luminance" maskUnits="userSpaceOnUse" x="21" y="12" width="10" height="2">
<path d="M21.1553 12.6621H30.2987V13.8377H21.1553V12.6621Z" fill="white"/>
</mask>
<g mask="url(#mask20_2105_5555)">
<mask id="mask21_2105_5555" style="mask-type:luminance" maskUnits="userSpaceOnUse" x="7" y="12" width="24" height="2">
<path d="M7.72363 12.6777C7.72925 13.0721 7.79302 13.4416 7.90375 13.7712H27.6299C27.3916 13.2553 26.9788 13.0517 26.6068 13.0517C26.5135 12.9226 26.4221 12.7981 26.3344 12.6777H7.72363ZM29.4055 13.7395C29.381 13.7502 29.3565 13.7605 29.332 13.7712H30.1963C30.1453 13.6911 30.0479 13.6446 29.8928 13.6446C29.7688 13.6446 29.6086 13.6737 29.4055 13.7395Z" fill="white"/>
</mask>
<g mask="url(#mask21_2105_5555)">
<path d="M21.1631 14.1925H45.9364V12.4883H21.1631V14.1925Z" fill="#B3A168"/>
</g>
</g>
<mask id="mask22_2105_5555" style="mask-type:luminance" maskUnits="userSpaceOnUse" x="21" y="12" width="3" height="2">
<path d="M21.1553 12.6621H23.7677V13.8377H21.1553V12.6621Z" fill="white"/>
</mask>
<g mask="url(#mask22_2105_5555)">
<mask id="mask23_2105_5555" style="mask-type:luminance" maskUnits="userSpaceOnUse" x="21" y="12" width="10" height="2">
<path d="M21.1631 12.6777V13.7712H27.6303C27.392 13.2553 26.9792 13.0517 26.6073 13.0517C26.5139 12.9226 26.4226 12.7981 26.3348 12.6777H21.1631ZM29.4059 13.7395C29.3814 13.7502 29.3569 13.7605 29.3324 13.7712H30.1968C30.1457 13.6911 30.0483 13.6446 29.8932 13.6446C29.7692 13.6446 29.609 13.6737 29.4059 13.7395Z" fill="white"/>
</mask>
<g mask="url(#mask23_2105_5555)">
<path d="M18.8471 10.1602C18.8471 10.1602 23.7632 12.3526 23.7632 16.6039C23.7632 20.8552 16.124 23.114 16.124 23.114L18.8471 10.1602Z" fill="#7D7246"/>
</g>
</g>
<mask id="mask24_2105_5555" style="mask-type:luminance" maskUnits="userSpaceOnUse" x="7" y="11" width="24" height="2">
<path d="M7.70117 11.0947H30.2984V12.2703H7.70117V11.0947Z" fill="white"/>
</mask>
<g mask="url(#mask24_2105_5555)">
<mask id="mask25_2105_5555" style="mask-type:luminance" maskUnits="userSpaceOnUse" x="7" y="5" width="24" height="25">
<path d="M14.7295 5.48633C14.6147 5.48684 14.5142 5.50419 14.4325 5.54807C13.8498 5.74655 12.8972 5.95779 12.8972 5.95779C12.8972 5.95779 12.5268 5.7991 11.7854 6.16953C11.0446 6.69916 10.8859 6.85784 10.8859 6.85784C10.8859 6.85784 10.6211 8.07577 9.82664 8.07577C9.3506 8.7105 8.29186 10.0871 8.02705 11.0397C7.49743 12.4158 7.70918 13.7394 8.29186 14.5333C9.13885 15.6982 9.87971 16.81 11.6793 16.4921C13.5325 16.0686 13.6911 16.0155 14.0616 16.0155C14.6438 16.0686 15.4377 16.6508 15.4377 16.6508C16.0204 16.6508 16.3377 16.8625 16.3377 16.8625C16.3377 16.8625 16.0729 18.3978 16.179 18.6096C16.3377 18.8744 17.2903 19.1785 17.3434 20.3229C17.3965 21.4679 17.7138 22.1031 17.7138 22.1031C17.7138 22.1031 17.6613 22.7384 17.1847 23.2675C16.7082 23.7971 17.5021 25.1732 17.82 25.4911C18.0317 26.0733 18.2434 26.9733 18.2965 27.4499C18.8501 27.979 18.8501 28.2438 19.1966 29.4612C19.1966 29.4612 19.4083 30.0965 20.4135 29.6199C21.6314 29.4612 21.9488 29.6199 22.5309 28.7729C23.4841 27.7673 23.7489 27.6616 23.8019 27.132C24.2249 26.3912 24.7545 26.1794 24.7545 26.1794C24.7545 25.5437 24.8076 24.9089 24.4897 24.7502C25.4954 24.2737 26.2893 23.7441 26.6603 23.5323C26.7659 22.7384 26.6072 20.6607 26.2893 20.3229C25.972 19.7739 26.0245 19.9857 26.7393 19.1387C27.6129 18.133 28.8833 16.7569 28.8833 16.7569C28.8833 16.7569 29.2543 16.1217 29.3599 15.4864C30.1008 14.6925 30.8809 13.2633 29.4058 13.7394C28.7777 14.0042 28.2481 14.4108 27.7185 14.0042C27.5072 13.3159 27.0307 13.0516 26.6072 13.0516C25.7602 11.8867 25.125 11.0397 25.125 11.0397C25.125 11.0397 25.5852 10.2989 24.7198 9.71669C24.1193 8.92225 24.1193 8.86919 24.1193 8.86919C24.1193 8.86919 24.6484 6.96397 22.6901 7.3344C21.3666 7.28133 19.8757 6.9109 19.5139 7.54615C19.1522 7.86402 18.6139 7.77728 18.3496 7.13235C17.873 6.85784 17.1317 7.11449 17.1317 7.11449C17.1317 7.11449 16.5117 6.75222 16.8143 6.32873C17.1163 5.74655 17.026 5.48174 16.2852 5.64042C15.9714 5.66287 15.6586 5.6144 15.3729 5.56592C15.1412 5.52715 14.928 5.48735 14.7484 5.48633H14.7295Z" fill="white"/>
</mask>
<g mask="url(#mask25_2105_5555)">
<path d="M6.37305 11.1016L6.4506 12.1547H31.2239L31.1464 11.1016H6.37305Z" fill="#319044"/>
</g>
</g>
<mask id="mask26_2105_5555" style="mask-type:luminance" maskUnits="userSpaceOnUse" x="7" y="11" width="9" height="2">
<path d="M7.70117 11.0947H15.669V12.2703H7.70117V11.0947Z" fill="white"/>
</mask>
<g mask="url(#mask26_2105_5555)">
<mask id="mask27_2105_5555" style="mask-type:luminance" maskUnits="userSpaceOnUse" x="7" y="11" width="19" height="2">
<path d="M8.00308 11.1016C7.87093 11.4597 7.78878 11.8139 7.75 12.1552H25.951C25.5622 11.6271 25.2775 11.2449 25.1709 11.1016H8.00308Z" fill="white"/>
</mask>
<g mask="url(#mask27_2105_5555)">
<path d="M5.84082 10.916L5.87143 12.5105H15.5608L15.5301 10.916H5.84082Z" fill="#B3A168"/>
</g>
</g>
<mask id="mask28_2105_5555" style="mask-type:luminance" maskUnits="userSpaceOnUse" x="18" y="11" width="8" height="2">
<path d="M18.6729 11.0947H25.9876V12.2703H18.6729V11.0947Z" fill="white"/>
</mask>
<g mask="url(#mask28_2105_5555)">
<mask id="mask29_2105_5555" style="mask-type:luminance" maskUnits="userSpaceOnUse" x="7" y="11" width="19" height="2">
<path d="M8.00308 11.1016C7.87093 11.4597 7.78878 11.8139 7.75 12.1552H25.951C25.5622 11.6271 25.2775 11.2449 25.1709 11.1016H8.00308Z" fill="white"/>
</mask>
<g mask="url(#mask29_2105_5555)">
<path d="M18.7383 10.8188L18.8189 12.5158L42.6192 12.4352L27.9914 10.5361L18.7383 10.8188Z" fill="#B3A168"/>
</g>
</g>
<mask id="mask30_2105_5555" style="mask-type:luminance" maskUnits="userSpaceOnUse" x="18" y="11" width="6" height="2">
<path d="M18.6729 11.0947H23.767V12.2703H18.6729V11.0947Z" fill="white"/>
</mask>
<g mask="url(#mask30_2105_5555)">
<mask id="mask31_2105_5555" style="mask-type:luminance" maskUnits="userSpaceOnUse" x="18" y="11" width="8" height="2">
<path d="M18.751 11.1016L18.801 12.1552H25.9509C25.5621 11.6271 25.2774 11.2449 25.1707 11.1016H18.751Z" fill="white"/>
</mask>
<g mask="url(#mask31_2105_5555)">
<path d="M18.8462 10.1611C18.8462 10.1611 23.7623 12.3536 23.7623 16.6049C23.7623 20.8562 16.123 23.115 16.123 23.115L18.8462 10.1611Z" fill="#7D7246"/>
</g>
</g>
<mask id="mask32_2105_5555" style="mask-type:luminance" maskUnits="userSpaceOnUse" x="12" y="11" width="7" height="2">
<path d="M12.665 11.0947H18.4123V12.2703H12.665V11.0947Z" fill="white"/>
</mask>
<g mask="url(#mask32_2105_5555)">
<mask id="mask33_2105_5555" style="mask-type:luminance" maskUnits="userSpaceOnUse" x="7" y="11" width="19" height="2">
<path d="M8.00308 11.1016C7.87093 11.4597 7.78878 11.8139 7.75 12.1552H25.951C25.5622 11.6271 25.2775 11.2449 25.1709 11.1016H8.00308Z" fill="white"/>
</mask>
<g mask="url(#mask33_2105_5555)">
<path d="M14.0305 16.8042C14.0305 16.8042 13.9641 13.18 18.3154 11.7539L17.2526 10.8574C17.2526 10.8574 13.1218 11.9881 12.7355 17.0032C12.3487 21.9856 14.0305 16.8042 14.0305 16.8042Z" fill="#00512C"/>
</g>
</g>
<mask id="mask34_2105_5555" style="mask-type:luminance" maskUnits="userSpaceOnUse" x="7" y="14" width="24" height="2">
<path d="M7.70117 14.2295H30.2984V15.5357H7.70117V14.2295Z" fill="white"/>
</mask>
<g mask="url(#mask34_2105_5555)">
<mask id="mask35_2105_5555" style="mask-type:luminance" maskUnits="userSpaceOnUse" x="7" y="5" width="24" height="25">
<path d="M14.7295 5.48633C14.6147 5.48684 14.5142 5.50419 14.4325 5.54807C13.8498 5.74655 12.8972 5.95779 12.8972 5.95779C12.8972 5.95779 12.5268 5.7991 11.7854 6.16953C11.0446 6.69916 10.8859 6.85784 10.8859 6.85784C10.8859 6.85784 10.6211 8.07577 9.82664 8.07577C9.3506 8.7105 8.29186 10.0871 8.02705 11.0397C7.49743 12.4158 7.70918 13.7394 8.29186 14.5333C9.13885 15.6982 9.87971 16.81 11.6793 16.4921C13.5325 16.0686 13.6911 16.0155 14.0616 16.0155C14.6438 16.0686 15.4377 16.6508 15.4377 16.6508C16.0204 16.6508 16.3377 16.8625 16.3377 16.8625C16.3377 16.8625 16.0729 18.3978 16.179 18.6096C16.3377 18.8744 17.2903 19.1785 17.3434 20.3229C17.3965 21.4679 17.7138 22.1031 17.7138 22.1031C17.7138 22.1031 17.6613 22.7384 17.1847 23.2675C16.7082 23.7971 17.5021 25.1732 17.82 25.4911C18.0317 26.0733 18.2434 26.9733 18.2965 27.4499C18.8501 27.979 18.8501 28.2438 19.1966 29.4612C19.1966 29.4612 19.4083 30.0965 20.4135 29.6199C21.6314 29.4612 21.9488 29.6199 22.5309 28.7729C23.4841 27.7673 23.7489 27.6616 23.8019 27.132C24.2249 26.3912 24.7545 26.1794 24.7545 26.1794C24.7545 25.5437 24.8076 24.9089 24.4897 24.7502C25.4954 24.2737 26.2893 23.7441 26.6603 23.5323C26.7659 22.7384 26.6072 20.6607 26.2893 20.3229C25.972 19.7739 26.0245 19.9857 26.7393 19.1387C27.6129 18.133 28.8833 16.7569 28.8833 16.7569C28.8833 16.7569 29.2543 16.1217 29.3599 15.4864C30.1008 14.6925 30.8809 13.2633 29.4058 13.7394C28.7777 14.0042 28.2481 14.4108 27.7185 14.0042C27.5072 13.3159 27.0307 13.0516 26.6072 13.0516C25.7602 11.8867 25.125 11.0397 25.125 11.0397C25.125 11.0397 25.5852 10.2989 24.7198 9.71669C24.1193 8.92225 24.1193 8.86919 24.1193 8.86919C24.1193 8.86919 24.6484 6.96397 22.6901 7.3344C21.3666 7.28133 19.8757 6.9109 19.5139 7.54615C19.1522 7.86402 18.6139 7.77728 18.3496 7.13235C17.873 6.85784 17.1317 7.11449 17.1317 7.11449C17.1317 7.11449 16.5117 6.75222 16.8143 6.32873C17.1163 5.74655 17.026 5.48174 16.2852 5.64042C15.9714 5.66287 15.6586 5.6144 15.3729 5.56592C15.1412 5.52715 14.928 5.48735 14.7484 5.48633H14.7295Z" fill="white"/>
</mask>
<g mask="url(#mask35_2105_5555)">
<path d="M6.45117 15.425H31.2245V14.3418H6.45117V15.425Z" fill="#319044"/>
</g>
</g>
<mask id="mask36_2105_5555" style="mask-type:luminance" maskUnits="userSpaceOnUse" x="8" y="14" width="6" height="2">
<path d="M8.09277 14.2295H13.1869V15.5357H8.09277V14.2295Z" fill="white"/>
</mask>
<g mask="url(#mask36_2105_5555)">
<mask id="mask37_2105_5555" style="mask-type:luminance" maskUnits="userSpaceOnUse" x="8" y="14" width="23" height="2">
<path d="M8.16406 14.3428C8.20437 14.4091 8.24621 14.4729 8.29111 14.5336C8.51612 14.8433 8.73399 15.1495 8.96615 15.4255H29.4148C29.7066 15.1015 29.9954 14.6892 30.1418 14.3428H8.16406Z" fill="white"/>
</mask>
<g mask="url(#mask37_2105_5555)">
<path d="M3.37109 14.0908L3.40171 15.6853H13.091L13.0604 14.0908H3.37109Z" fill="#B3A168"/>
</g>
</g>
<mask id="mask38_2105_5555" style="mask-type:luminance" maskUnits="userSpaceOnUse" x="12" y="14" width="7" height="2">
<path d="M12.665 14.2295H18.4123V15.5357H12.665V14.2295Z" fill="white"/>
</mask>
<g mask="url(#mask38_2105_5555)">
<mask id="mask39_2105_5555" style="mask-type:luminance" maskUnits="userSpaceOnUse" x="8" y="14" width="23" height="2">
<path d="M8.16504 14.3428C8.20535 14.4091 8.24719 14.4729 8.29209 14.5336C8.5171 14.8433 8.73497 15.1495 8.96713 15.4255H29.4157C29.7076 15.1015 29.9964 14.6892 30.1428 14.3428H8.16504Z" fill="white"/>
</mask>
<g mask="url(#mask39_2105_5555)">
<path d="M14.0315 16.8042C14.0315 16.8042 13.9651 13.18 18.3164 11.7539L17.2536 10.8574C17.2536 10.8574 13.1227 11.9881 12.7365 17.0032C12.3497 21.9856 14.0315 16.8042 14.0315 16.8042Z" fill="#00512C"/>
</g>
</g>
<mask id="mask40_2105_5555" style="mask-type:luminance" maskUnits="userSpaceOnUse" x="21" y="14" width="10" height="2">
<path d="M21.9385 14.2295H30.1675V15.5357H21.9385V14.2295Z" fill="white"/>
</mask>
<g mask="url(#mask40_2105_5555)">
<mask id="mask41_2105_5555" style="mask-type:luminance" maskUnits="userSpaceOnUse" x="8" y="14" width="23" height="2">
<path d="M8.16406 14.3428C8.20437 14.4091 8.24621 14.4729 8.29111 14.5336C8.51612 14.8433 8.73399 15.1495 8.96615 15.4255H29.4148C29.7066 15.1015 29.9954 14.6892 30.1418 14.3428H8.16406Z" fill="white"/>
</mask>
<g mask="url(#mask41_2105_5555)">
<path d="M21.9561 15.6688H42.6271V14.1738H21.9561V15.6688Z" fill="#B3A168"/>
</g>
</g>
<mask id="mask42_2105_5555" style="mask-type:luminance" maskUnits="userSpaceOnUse" x="21" y="14" width="3" height="2">
<path d="M21.9385 14.2295H23.7672V15.5357H21.9385V14.2295Z" fill="white"/>
</mask>
<g mask="url(#mask42_2105_5555)">
<mask id="mask43_2105_5555" style="mask-type:luminance" maskUnits="userSpaceOnUse" x="21" y="14" width="10" height="2">
<path d="M21.9561 14.3428V15.4255H29.4146C29.7065 15.1015 29.9953 14.6887 30.1417 14.3428H21.9561Z" fill="white"/>
</mask>
<g mask="url(#mask43_2105_5555)">
<path d="M18.8462 10.1611C18.8462 10.1611 23.7623 12.3536 23.7623 16.6049C23.7623 20.8562 16.123 23.115 16.123 23.115L18.8462 10.1611Z" fill="#7D7246"/>
</g>
</g>
<mask id="mask44_2105_5555" style="mask-type:luminance" maskUnits="userSpaceOnUse" x="7" y="17" width="24" height="2">
<path d="M7.70117 17.4951H30.2984V18.6707H7.70117V17.4951Z" fill="white"/>
</mask>
<g mask="url(#mask44_2105_5555)">
<mask id="mask45_2105_5555" style="mask-type:luminance" maskUnits="userSpaceOnUse" x="7" y="5" width="24" height="25">
<path d="M14.7295 5.48633C14.6147 5.48684 14.5142 5.50419 14.4325 5.54807C13.8498 5.74655 12.8972 5.95779 12.8972 5.95779C12.8972 5.95779 12.5268 5.7991 11.7854 6.16953C11.0446 6.69916 10.8859 6.85784 10.8859 6.85784C10.8859 6.85784 10.6211 8.07577 9.82664 8.07577C9.3506 8.7105 8.29186 10.0871 8.02705 11.0397C7.49743 12.4158 7.70918 13.7394 8.29186 14.5333C9.13885 15.6982 9.87971 16.81 11.6793 16.4921C13.5325 16.0686 13.6911 16.0155 14.0616 16.0155C14.6438 16.0686 15.4377 16.6508 15.4377 16.6508C16.0204 16.6508 16.3377 16.8625 16.3377 16.8625C16.3377 16.8625 16.0729 18.3978 16.179 18.6096C16.3377 18.8744 17.2903 19.1785 17.3434 20.3229C17.3965 21.4679 17.7138 22.1031 17.7138 22.1031C17.7138 22.1031 17.6613 22.7384 17.1847 23.2675C16.7082 23.7971 17.5021 25.1732 17.82 25.4911C18.0317 26.0733 18.2434 26.9733 18.2965 27.4499C18.8501 27.979 18.8501 28.2438 19.1966 29.4612C19.1966 29.4612 19.4083 30.0965 20.4135 29.6199C21.6314 29.4612 21.9488 29.6199 22.5309 28.7729C23.4841 27.7673 23.7489 27.6616 23.8019 27.132C24.2249 26.3912 24.7545 26.1794 24.7545 26.1794C24.7545 25.5437 24.8076 24.9089 24.4897 24.7502C25.4954 24.2737 26.2893 23.7441 26.6603 23.5323C26.7659 22.7384 26.6072 20.6607 26.2893 20.3229C25.972 19.7739 26.0245 19.9857 26.7393 19.1387C27.6129 18.133 28.8833 16.7569 28.8833 16.7569C28.8833 16.7569 29.2543 16.1217 29.3599 15.4864C30.1008 14.6925 30.8809 13.2633 29.4058 13.7394C28.7777 14.0042 28.2481 14.4108 27.7185 14.0042C27.5072 13.3159 27.0307 13.0516 26.6072 13.0516C25.7602 11.8867 25.125 11.0397 25.125 11.0397C25.125 11.0397 25.5852 10.2989 24.7198 9.71669C24.1193 8.92225 24.1193 8.86919 24.1193 8.86919C24.1193 8.86919 24.6484 6.96397 22.6901 7.3344C21.3666 7.28133 19.8757 6.9109 19.5139 7.54615C19.1522 7.86402 18.6139 7.77728 18.3496 7.13235C17.873 6.85784 17.1317 7.11449 17.1317 7.11449C17.1317 7.11449 16.5117 6.75222 16.8143 6.32873C17.1163 5.74655 17.026 5.48174 16.2852 5.64042C15.9714 5.66287 15.6586 5.6144 15.3729 5.56592C15.1412 5.52715 14.928 5.48735 14.7484 5.48633H14.7295Z" fill="white"/>
</mask>
<g mask="url(#mask45_2105_5555)">
<path d="M6.4506 17.5264L6.37305 18.6198H31.1464L31.2239 17.5264H6.4506Z" fill="#319044"/>
</g>
</g>
<mask id="mask46_2105_5555" style="mask-type:luminance" maskUnits="userSpaceOnUse" x="21" y="17" width="8" height="2">
<path d="M21.9385 17.4951H28.2082V18.6707H21.9385V17.4951Z" fill="white"/>
</mask>
<g mask="url(#mask46_2105_5555)">
<mask id="mask47_2105_5555" style="mask-type:luminance" maskUnits="userSpaceOnUse" x="16" y="17" width="13" height="2">
<path d="M16.2355 17.5264C16.1748 17.9703 16.1197 18.4922 16.1783 18.6096C16.1804 18.6132 16.1829 18.6167 16.1855 18.6203H27.1943C27.5315 18.2407 27.8836 17.8509 28.1785 17.5264H16.2355Z" fill="white"/>
</mask>
<g mask="url(#mask47_2105_5555)">
<path d="M22.0273 18.7393H42.627V17.3652H22.0273V18.7393Z" fill="#B3A168"/>
</g>
</g>
<mask id="mask48_2105_5555" style="mask-type:luminance" maskUnits="userSpaceOnUse" x="21" y="17" width="3" height="2">
<path d="M21.9385 17.4951H23.7672V18.6707H21.9385V17.4951Z" fill="white"/>
</mask>
<g mask="url(#mask48_2105_5555)">
<mask id="mask49_2105_5555" style="mask-type:luminance" maskUnits="userSpaceOnUse" x="22" y="17" width="7" height="2">
<path d="M22.0283 17.5264V18.6203H27.1949C27.5322 18.2407 27.8843 17.8509 28.1792 17.5264H22.0283Z" fill="white"/>
</mask>
<g mask="url(#mask49_2105_5555)">
<path d="M18.8471 10.1602C18.8471 10.1602 23.7632 12.3526 23.7632 16.6039C23.7632 20.8552 16.124 23.114 16.124 23.114L18.8471 10.1602Z" fill="#7D7246"/>
</g>
</g>
<mask id="mask50_2105_5555" style="mask-type:luminance" maskUnits="userSpaceOnUse" x="7" y="15" width="24" height="3">
<path d="M7.70117 15.9277H30.2984V17.1033H7.70117V15.9277Z" fill="white"/>
</mask>
<g mask="url(#mask50_2105_5555)">
<mask id="mask51_2105_5555" style="mask-type:luminance" maskUnits="userSpaceOnUse" x="7" y="5" width="24" height="25">
<path d="M14.7295 5.48633C14.6147 5.48684 14.5142 5.50419 14.4325 5.54807C13.8498 5.74655 12.8972 5.95779 12.8972 5.95779C12.8972 5.95779 12.5268 5.7991 11.7854 6.16953C11.0446 6.69916 10.8859 6.85784 10.8859 6.85784C10.8859 6.85784 10.6211 8.07577 9.82664 8.07577C9.3506 8.7105 8.29186 10.0871 8.02705 11.0397C7.49743 12.4158 7.70918 13.7394 8.29186 14.5333C9.13885 15.6982 9.87971 16.81 11.6793 16.4921C13.5325 16.0686 13.6911 16.0155 14.0616 16.0155C14.6438 16.0686 15.4377 16.6508 15.4377 16.6508C16.0204 16.6508 16.3377 16.8625 16.3377 16.8625C16.3377 16.8625 16.0729 18.3978 16.179 18.6096C16.3377 18.8744 17.2903 19.1785 17.3434 20.3229C17.3965 21.4679 17.7138 22.1031 17.7138 22.1031C17.7138 22.1031 17.6613 22.7384 17.1847 23.2675C16.7082 23.7971 17.5021 25.1732 17.82 25.4911C18.0317 26.0733 18.2434 26.9733 18.2965 27.4499C18.8501 27.979 18.8501 28.2438 19.1966 29.4612C19.1966 29.4612 19.4083 30.0965 20.4135 29.6199C21.6314 29.4612 21.9488 29.6199 22.5309 28.7729C23.4841 27.7673 23.7489 27.6616 23.8019 27.132C24.2249 26.3912 24.7545 26.1794 24.7545 26.1794C24.7545 25.5437 24.8076 24.9089 24.4897 24.7502C25.4954 24.2737 26.2893 23.7441 26.6603 23.5323C26.7659 22.7384 26.6072 20.6607 26.2893 20.3229C25.972 19.7739 26.0245 19.9857 26.7393 19.1387C27.6129 18.133 28.8833 16.7569 28.8833 16.7569C28.8833 16.7569 29.2543 16.1217 29.3599 15.4864C30.1008 14.6925 30.8809 13.2633 29.4058 13.7394C28.7777 14.0042 28.2481 14.4108 27.7185 14.0042C27.5072 13.3159 27.0307 13.0516 26.6072 13.0516C25.7602 11.8867 25.125 11.0397 25.125 11.0397C25.125 11.0397 25.5852 10.2989 24.7198 9.71669C24.1193 8.92225 24.1193 8.86919 24.1193 8.86919C24.1193 8.86919 24.6484 6.96397 22.6901 7.3344C21.3666 7.28133 19.8757 6.9109 19.5139 7.54615C19.1522 7.86402 18.6139 7.77728 18.3496 7.13235C17.873 6.85784 17.1317 7.11449 17.1317 7.11449C17.1317 7.11449 16.5117 6.75222 16.8143 6.32873C17.1163 5.74655 17.026 5.48174 16.2852 5.64042C15.9714 5.66287 15.6586 5.6144 15.3729 5.56592C15.1412 5.52715 14.928 5.48735 14.7484 5.48633H14.7295Z" fill="white"/>
</mask>
<g mask="url(#mask51_2105_5555)">
<path d="M6.45117 17.0421H31.2245V15.9512H6.45117V17.0421Z" fill="#319044"/>
</g>
</g>
<mask id="mask52_2105_5555" style="mask-type:luminance" maskUnits="userSpaceOnUse" x="9" y="15" width="4" height="3">
<path d="M9.39941 15.9277H12.6649V17.1033H9.39941V15.9277Z" fill="white"/>
</mask>
<g mask="url(#mask52_2105_5555)">
<mask id="mask53_2105_5555" style="mask-type:luminance" maskUnits="userSpaceOnUse" x="9" y="15" width="21" height="3">
<path d="M9.47949 15.9512C10.0224 16.4104 10.6913 16.667 11.6791 16.4925C13.5323 16.069 13.691 16.016 14.0614 16.016C14.6436 16.069 15.4375 16.6512 15.4375 16.6512C16.0202 16.6512 16.3375 16.863 16.3375 16.863C16.3375 16.863 16.3258 16.9318 16.3079 17.0421H28.6214C28.7836 16.865 28.8831 16.7573 28.8831 16.7573C28.8831 16.7573 29.0923 16.3986 29.2408 15.9512H9.47949Z" fill="white"/>
</mask>
<g mask="url(#mask53_2105_5555)">
<path d="M2.90625 15.6191L2.93635 17.2136H12.6257L12.5956 15.6191H2.90625Z" fill="#B3A168"/>
</g>
</g>
<mask id="mask54_2105_5555" style="mask-type:luminance" maskUnits="userSpaceOnUse" x="22" y="15" width="8" height="3">
<path d="M22.4609 15.9277H29.2532V17.1033H22.4609V15.9277Z" fill="white"/>
</mask>
<g mask="url(#mask54_2105_5555)">
<mask id="mask55_2105_5555" style="mask-type:luminance" maskUnits="userSpaceOnUse" x="9" y="15" width="21" height="3">
<path d="M9.47949 15.9512C10.0224 16.4104 10.6913 16.667 11.6791 16.4925C13.5323 16.069 13.691 16.016 14.0614 16.016C14.6436 16.069 15.4375 16.6512 15.4375 16.6512C16.0202 16.6512 16.3375 16.863 16.3375 16.863C16.3375 16.863 16.3258 16.9318 16.3079 17.0421H28.6214C28.7836 16.865 28.8831 16.7573 28.8831 16.7573C28.8831 16.7573 29.0923 16.3986 29.2408 15.9512H9.47949Z" fill="white"/>
</mask>
<g mask="url(#mask55_2105_5555)">
<path d="M22.4863 17.1702H42.6283V15.8701H22.4863V17.1702Z" fill="#B3A168"/>
</g>
</g>
<mask id="mask56_2105_5555" style="mask-type:luminance" maskUnits="userSpaceOnUse" x="22" y="15" width="2" height="3">
<path d="M22.4609 15.9277H23.7671V17.1033H22.4609V15.9277Z" fill="white"/>
</mask>
<g mask="url(#mask56_2105_5555)">
<mask id="mask57_2105_5555" style="mask-type:luminance" maskUnits="userSpaceOnUse" x="22" y="15" width="8" height="3">
<path d="M22.4854 15.9512V17.0421H28.6209C28.7832 16.865 28.8827 16.7573 28.8827 16.7573C28.8827 16.7573 29.0918 16.3986 29.2403 15.9512H22.4854Z" fill="white"/>
</mask>
<g mask="url(#mask57_2105_5555)">
<path d="M18.8462 10.1611C18.8462 10.1611 23.7623 12.3536 23.7623 16.6049C23.7623 20.8562 16.123 23.115 16.123 23.115L18.8462 10.1611Z" fill="#7D7246"/>
</g>
</g>
<mask id="mask58_2105_5555" style="mask-type:luminance" maskUnits="userSpaceOnUse" x="12" y="15" width="7" height="3">
<path d="M12.665 15.9277H18.4123V17.1033H12.665V15.9277Z" fill="white"/>
</mask>
<g mask="url(#mask58_2105_5555)">
<mask id="mask59_2105_5555" style="mask-type:luminance" maskUnits="userSpaceOnUse" x="9" y="15" width="21" height="3">
<path d="M9.47949 15.9512C10.0224 16.4104 10.6913 16.667 11.6791 16.4925C13.5323 16.069 13.691 16.016 14.0614 16.016C14.6436 16.069 15.4375 16.6512 15.4375 16.6512C16.0202 16.6512 16.3375 16.863 16.3375 16.863C16.3375 16.863 16.3258 16.9318 16.3079 17.0421H28.6214C28.7836 16.865 28.8831 16.7573 28.8831 16.7573C28.8831 16.7573 29.0923 16.3986 29.2408 15.9512H9.47949Z" fill="white"/>
</mask>
<g mask="url(#mask59_2105_5555)">
<path d="M14.0305 16.8042C14.0305 16.8042 13.9641 13.18 18.3154 11.7539L17.2526 10.8574C17.2526 10.8574 13.1218 11.9881 12.7355 17.0032C12.3487 21.9856 14.0305 16.8042 14.0305 16.8042Z" fill="#00512C"/>
</g>
</g>
<mask id="mask60_2105_5555" style="mask-type:luminance" maskUnits="userSpaceOnUse" x="7" y="18" width="24" height="3">
<path d="M7.70117 18.9316H30.2984V20.1072H7.70117V18.9316Z" fill="white"/>
</mask>
<g mask="url(#mask60_2105_5555)">
<mask id="mask61_2105_5555" style="mask-type:luminance" maskUnits="userSpaceOnUse" x="7" y="5" width="24" height="25">
<path d="M14.7295 5.48633C14.6147 5.48684 14.5142 5.50419 14.4325 5.54807C13.8498 5.74655 12.8972 5.95779 12.8972 5.95779C12.8972 5.95779 12.5268 5.7991 11.7854 6.16953C11.0446 6.69916 10.8859 6.85784 10.8859 6.85784C10.8859 6.85784 10.6211 8.07577 9.82664 8.07577C9.3506 8.7105 8.29186 10.0871 8.02705 11.0397C7.49743 12.4158 7.70918 13.7394 8.29186 14.5333C9.13885 15.6982 9.87971 16.81 11.6793 16.4921C13.5325 16.0686 13.6911 16.0155 14.0616 16.0155C14.6438 16.0686 15.4377 16.6508 15.4377 16.6508C16.0204 16.6508 16.3377 16.8625 16.3377 16.8625C16.3377 16.8625 16.0729 18.3978 16.179 18.6096C16.3377 18.8744 17.2903 19.1785 17.3434 20.3229C17.3965 21.4679 17.7138 22.1031 17.7138 22.1031C17.7138 22.1031 17.6613 22.7384 17.1847 23.2675C16.7082 23.7971 17.5021 25.1732 17.82 25.4911C18.0317 26.0733 18.2434 26.9733 18.2965 27.4499C18.8501 27.979 18.8501 28.2438 19.1966 29.4612C19.1966 29.4612 19.4083 30.0965 20.4135 29.6199C21.6314 29.4612 21.9488 29.6199 22.5309 28.7729C23.4841 27.7673 23.7489 27.6616 23.8019 27.132C24.2249 26.3912 24.7545 26.1794 24.7545 26.1794C24.7545 25.5437 24.8076 24.9089 24.4897 24.7502C25.4954 24.2737 26.2893 23.7441 26.6603 23.5323C26.7659 22.7384 26.6072 20.6607 26.2893 20.3229C25.972 19.7739 26.0245 19.9857 26.7393 19.1387C27.6129 18.133 28.8833 16.7569 28.8833 16.7569C28.8833 16.7569 29.2543 16.1217 29.3599 15.4864C30.1008 14.6925 30.8809 13.2633 29.4058 13.7394C28.7777 14.0042 28.2481 14.4108 27.7185 14.0042C27.5072 13.3159 27.0307 13.0516 26.6072 13.0516C25.7602 11.8867 25.125 11.0397 25.125 11.0397C25.125 11.0397 25.5852 10.2989 24.7198 9.71669C24.1193 8.92225 24.1193 8.86919 24.1193 8.86919C24.1193 8.86919 24.6484 6.96397 22.6901 7.3344C21.3666 7.28133 19.8757 6.9109 19.5139 7.54615C19.1522 7.86402 18.6139 7.77728 18.3496 7.13235C17.873 6.85784 17.1317 7.11449 17.1317 7.11449C17.1317 7.11449 16.5117 6.75222 16.8143 6.32873C17.1163 5.74655 17.026 5.48174 16.2852 5.64042C15.9714 5.66287 15.6586 5.6144 15.3729 5.56592C15.1412 5.52715 14.928 5.48735 14.7484 5.48633H14.7295Z" fill="white"/>
</mask>
<g mask="url(#mask61_2105_5555)">
<path d="M6.28906 18.9414L6.45081 19.992H31.2242L31.0629 18.9414H6.28906Z" fill="#319044"/>
</g>
</g>
<mask id="mask62_2105_5555" style="mask-type:luminance" maskUnits="userSpaceOnUse" x="20" y="18" width="8" height="3">
<path d="M20.1104 18.9316H27.0332V20.1072H20.1104V18.9316Z" fill="white"/>
</mask>
<g mask="url(#mask62_2105_5555)">
<mask id="mask63_2105_5555" style="mask-type:luminance" maskUnits="userSpaceOnUse" x="16" y="18" width="11" height="2">
<path d="M16.5713 18.9414C16.8468 19.1542 17.1795 19.4618 17.2999 19.9915H26.1137C26.0596 19.8078 26.2336 19.7389 26.7397 19.1389C26.7958 19.0746 26.8535 19.0082 26.9127 18.9414H16.5713Z" fill="white"/>
</mask>
<g mask="url(#mask63_2105_5555)">
<path d="M21.5265 18.6182L20.1494 20.1912H42.6282V19.4973L21.5265 18.6182Z" fill="#B3A168"/>
</g>
</g>
<mask id="mask64_2105_5555" style="mask-type:luminance" maskUnits="userSpaceOnUse" x="20" y="18" width="4" height="3">
<path d="M20.2402 18.9316H23.767V20.1072H20.2402V18.9316Z" fill="white"/>
</mask>
<g mask="url(#mask64_2105_5555)">
<mask id="mask65_2105_5555" style="mask-type:luminance" maskUnits="userSpaceOnUse" x="20" y="18" width="7" height="2">
<path d="M21.2427 18.9414L20.3232 19.9915H26.1129C26.0588 19.8078 26.2333 19.7389 26.7389 19.1389C26.795 19.0746 26.8527 19.0082 26.9119 18.9414H21.2427Z" fill="white"/>
</mask>
<g mask="url(#mask65_2105_5555)">
<path d="M18.8462 10.1611C18.8462 10.1611 23.7623 12.3536 23.7623 16.6049C23.7623 20.8562 16.123 23.115 16.123 23.115L18.8462 10.1611Z" fill="#7D7246"/>
</g>
</g>
<mask id="mask66_2105_5555" style="mask-type:luminance" maskUnits="userSpaceOnUse" x="7" y="22" width="24" height="2">
<path d="M7.70117 22.0664H30.2984V23.242H7.70117V22.0664Z" fill="white"/>
</mask>
<g mask="url(#mask66_2105_5555)">
<mask id="mask67_2105_5555" style="mask-type:luminance" maskUnits="userSpaceOnUse" x="7" y="5" width="24" height="25">
<path d="M14.7295 5.48633C14.6147 5.48684 14.5142 5.50419 14.4325 5.54807C13.8498 5.74655 12.8972 5.95779 12.8972 5.95779C12.8972 5.95779 12.5268 5.7991 11.7854 6.16953C11.0446 6.69916 10.8859 6.85784 10.8859 6.85784C10.8859 6.85784 10.6211 8.07577 9.82664 8.07577C9.3506 8.7105 8.29186 10.0871 8.02705 11.0397C7.49743 12.4158 7.70918 13.7394 8.29186 14.5333C9.13885 15.6982 9.87971 16.81 11.6793 16.4921C13.5325 16.0686 13.6911 16.0155 14.0616 16.0155C14.6438 16.0686 15.4377 16.6508 15.4377 16.6508C16.0204 16.6508 16.3377 16.8625 16.3377 16.8625C16.3377 16.8625 16.0729 18.3978 16.179 18.6096C16.3377 18.8744 17.2903 19.1785 17.3434 20.3229C17.3965 21.4679 17.7138 22.1031 17.7138 22.1031C17.7138 22.1031 17.6613 22.7384 17.1847 23.2675C16.7082 23.7971 17.5021 25.1732 17.82 25.4911C18.0317 26.0733 18.2434 26.9733 18.2965 27.4499C18.8501 27.979 18.8501 28.2438 19.1966 29.4612C19.1966 29.4612 19.4083 30.0965 20.4135 29.6199C21.6314 29.4612 21.9488 29.6199 22.5309 28.7729C23.4841 27.7673 23.7489 27.6616 23.8019 27.132C24.2249 26.3912 24.7545 26.1794 24.7545 26.1794C24.7545 25.5437 24.8076 24.9089 24.4897 24.7502C25.4954 24.2737 26.2893 23.7441 26.6603 23.5323C26.7659 22.7384 26.6072 20.6607 26.2893 20.3229C25.972 19.7739 26.0245 19.9857 26.7393 19.1387C27.6129 18.133 28.8833 16.7569 28.8833 16.7569C28.8833 16.7569 29.2543 16.1217 29.3599 15.4864C30.1008 14.6925 30.8809 13.2633 29.4058 13.7394C28.7777 14.0042 28.2481 14.4108 27.7185 14.0042C27.5072 13.3159 27.0307 13.0516 26.6072 13.0516C25.7602 11.8867 25.125 11.0397 25.125 11.0397C25.125 11.0397 25.5852 10.2989 24.7198 9.71669C24.1193 8.92225 24.1193 8.86919 24.1193 8.86919C24.1193 8.86919 24.6484 6.96397 22.6901 7.3344C21.3666 7.28133 19.8757 6.9109 19.5139 7.54615C19.1522 7.86402 18.6139 7.77728 18.3496 7.13235C17.873 6.85784 17.1317 7.11449 17.1317 7.11449C17.1317 7.11449 16.5117 6.75222 16.8143 6.32873C17.1163 5.74655 17.026 5.48174 16.2852 5.64042C15.9714 5.66287 15.6586 5.6144 15.3729 5.56592C15.1412 5.52715 14.928 5.48735 14.7484 5.48633H14.7295Z" fill="white"/>
</mask>
<g mask="url(#mask67_2105_5555)">
<path d="M6.38574 23.1431H31.1591V22.0869H6.38574V23.1431Z" fill="#B3A168"/>
</g>
</g>
<mask id="mask68_2105_5555" style="mask-type:luminance" maskUnits="userSpaceOnUse" x="18" y="22" width="6" height="2">
<path d="M18.4121 22.0664H23.6369V23.242H18.4121V22.0664Z" fill="white"/>
</mask>
<g mask="url(#mask68_2105_5555)">
<mask id="mask69_2105_5555" style="mask-type:luminance" maskUnits="userSpaceOnUse" x="17" y="22" width="10" height="2">
<path d="M17.706 22.0869C17.7106 22.0976 17.7132 22.1027 17.7132 22.1027C17.7132 22.1027 17.6683 22.6436 17.2871 23.1431H26.6882C26.6984 22.8375 26.6887 22.463 26.6611 22.0869H17.706Z" fill="white"/>
</mask>
<g mask="url(#mask69_2105_5555)">
<path d="M19.0462 21.1875C19.0462 21.1875 24.8256 23.6453 23.2312 28.5614C21.6367 28.8267 21.7035 24.3765 21.7035 24.3765L18.4482 21.6528L19.0462 21.1875Z" fill="#7D7246"/>
</g>
</g>
<mask id="mask70_2105_5555" style="mask-type:luminance" maskUnits="userSpaceOnUse" x="17" y="22" width="3" height="2">
<path d="M17.2363 22.0664H19.065V23.242H17.2363V22.0664Z" fill="white"/>
</mask>
<g mask="url(#mask70_2105_5555)">
<mask id="mask71_2105_5555" style="mask-type:luminance" maskUnits="userSpaceOnUse" x="17" y="22" width="10" height="2">
<path d="M17.706 22.0869C17.7106 22.0976 17.7132 22.1027 17.7132 22.1027C17.7132 22.1027 17.6683 22.6436 17.2871 23.1431H26.6882C26.6984 22.8375 26.6887 22.463 26.6611 22.0869H17.706Z" fill="white"/>
</mask>
<g mask="url(#mask71_2105_5555)">
<path d="M-4.82715 22.0928L-2.96786 23.8301H18.9813V22.0928H-4.82715Z" fill="#231F20"/>
</g>
</g>
<mask id="mask72_2105_5555" style="mask-type:luminance" maskUnits="userSpaceOnUse" x="7" y="20" width="24" height="2">
<path d="M7.70117 20.499H30.2984V21.6746H7.70117V20.499Z" fill="white"/>
</mask>
<g mask="url(#mask72_2105_5555)">
<mask id="mask73_2105_5555" style="mask-type:luminance" maskUnits="userSpaceOnUse" x="7" y="5" width="24" height="25">
<path d="M14.7295 5.48633C14.6147 5.48684 14.5142 5.50419 14.4325 5.54807C13.8498 5.74655 12.8972 5.95779 12.8972 5.95779C12.8972 5.95779 12.5268 5.7991 11.7854 6.16953C11.0446 6.69916 10.8859 6.85784 10.8859 6.85784C10.8859 6.85784 10.6211 8.07577 9.82664 8.07577C9.3506 8.7105 8.29186 10.0871 8.02705 11.0397C7.49743 12.4158 7.70918 13.7394 8.29186 14.5333C9.13885 15.6982 9.87971 16.81 11.6793 16.4921C13.5325 16.0686 13.6911 16.0155 14.0616 16.0155C14.6438 16.0686 15.4377 16.6508 15.4377 16.6508C16.0204 16.6508 16.3377 16.8625 16.3377 16.8625C16.3377 16.8625 16.0729 18.3978 16.179 18.6096C16.3377 18.8744 17.2903 19.1785 17.3434 20.3229C17.3965 21.4679 17.7138 22.1031 17.7138 22.1031C17.7138 22.1031 17.6613 22.7384 17.1847 23.2675C16.7082 23.7971 17.5021 25.1732 17.82 25.4911C18.0317 26.0733 18.2434 26.9733 18.2965 27.4499C18.8501 27.979 18.8501 28.2438 19.1966 29.4612C19.1966 29.4612 19.4083 30.0965 20.4135 29.6199C21.6314 29.4612 21.9488 29.6199 22.5309 28.7729C23.4841 27.7673 23.7489 27.6616 23.8019 27.132C24.2249 26.3912 24.7545 26.1794 24.7545 26.1794C24.7545 25.5437 24.8076 24.9089 24.4897 24.7502C25.4954 24.2737 26.2893 23.7441 26.6603 23.5323C26.7659 22.7384 26.6072 20.6607 26.2893 20.3229C25.972 19.7739 26.0245 19.9857 26.7393 19.1387C27.6129 18.133 28.8833 16.7569 28.8833 16.7569C28.8833 16.7569 29.2543 16.1217 29.3599 15.4864C30.1008 14.6925 30.8809 13.2633 29.4058 13.7394C28.7777 14.0042 28.2481 14.4108 27.7185 14.0042C27.5072 13.3159 27.0307 13.0516 26.6072 13.0516C25.7602 11.8867 25.125 11.0397 25.125 11.0397C25.125 11.0397 25.5852 10.2989 24.7198 9.71669C24.1193 8.92225 24.1193 8.86919 24.1193 8.86919C24.1193 8.86919 24.6484 6.96397 22.6901 7.3344C21.3666 7.28133 19.8757 6.9109 19.5139 7.54615C19.1522 7.86402 18.6139 7.77728 18.3496 7.13235C17.873 6.85784 17.1317 7.11449 17.1317 7.11449C17.1317 7.11449 16.5117 6.75222 16.8143 6.32873C17.1163 5.74655 17.026 5.48174 16.2852 5.64042C15.9714 5.66287 15.6586 5.6144 15.3729 5.56592C15.1412 5.52715 14.928 5.48735 14.7484 5.48633H14.7295Z" fill="white"/>
</mask>
<g mask="url(#mask73_2105_5555)">
<path d="M6.38574 21.5672H31.1591V20.5166H6.38574V21.5672Z" fill="#319044"/>
</g>
</g>
<mask id="mask74_2105_5555" style="mask-type:luminance" maskUnits="userSpaceOnUse" x="18" y="20" width="9" height="2">
<path d="M18.543 20.499H26.6414V21.6746H18.543V20.499Z" fill="white"/>
</mask>
<g mask="url(#mask74_2105_5555)">
<mask id="mask75_2105_5555" style="mask-type:luminance" maskUnits="userSpaceOnUse" x="17" y="20" width="10" height="2">
<path d="M17.3555 20.5166C17.3881 20.9534 17.4585 21.3059 17.5284 21.5672H26.6131C26.5631 21.1396 26.4897 20.7528 26.3978 20.5166H17.3555Z" fill="white"/>
</mask>
<g mask="url(#mask75_2105_5555)">
<path d="M18.6935 20.3545L18.6572 21.6097H27.3899L27.4261 20.3545H18.6935Z" fill="#B3A168"/>
</g>
</g>
<mask id="mask76_2105_5555" style="mask-type:luminance" maskUnits="userSpaceOnUse" x="18" y="20" width="6" height="2">
<path d="M18.543 20.499H23.7678V21.6746H18.543V20.499Z" fill="white"/>
</mask>
<g mask="url(#mask76_2105_5555)">
<mask id="mask77_2105_5555" style="mask-type:luminance" maskUnits="userSpaceOnUse" x="18" y="20" width="9" height="2">
<path d="M18.6893 20.5166L18.6592 21.5672H26.6132C26.5632 21.1396 26.4897 20.7528 26.3979 20.5166H18.6893Z" fill="white"/>
</mask>
<g mask="url(#mask77_2105_5555)">
<path d="M18.8471 10.1602C18.8471 10.1602 23.7632 12.3526 23.7632 16.6039C23.7632 20.8552 16.124 23.114 16.124 23.114L18.8471 10.1602Z" fill="#7D7246"/>
</g>
</g>
<mask id="mask78_2105_5555" style="mask-type:luminance" maskUnits="userSpaceOnUse" x="7" y="23" width="24" height="2">
<path d="M7.70117 23.6338H30.2984V24.8094H7.70117V23.6338Z" fill="white"/>
</mask>
<g mask="url(#mask78_2105_5555)">
<mask id="mask79_2105_5555" style="mask-type:luminance" maskUnits="userSpaceOnUse" x="7" y="5" width="24" height="25">
<path d="M14.7295 5.48633C14.6147 5.48684 14.5142 5.50419 14.4325 5.54807C13.8498 5.74655 12.8972 5.95779 12.8972 5.95779C12.8972 5.95779 12.5268 5.7991 11.7854 6.16953C11.0446 6.69916 10.8859 6.85784 10.8859 6.85784C10.8859 6.85784 10.6211 8.07577 9.82664 8.07577C9.3506 8.7105 8.29186 10.0871 8.02705 11.0397C7.49743 12.4158 7.70918 13.7394 8.29186 14.5333C9.13885 15.6982 9.87971 16.81 11.6793 16.4921C13.5325 16.0686 13.6911 16.0155 14.0616 16.0155C14.6438 16.0686 15.4377 16.6508 15.4377 16.6508C16.0204 16.6508 16.3377 16.8625 16.3377 16.8625C16.3377 16.8625 16.0729 18.3978 16.179 18.6096C16.3377 18.8744 17.2903 19.1785 17.3434 20.3229C17.3965 21.4679 17.7138 22.1031 17.7138 22.1031C17.7138 22.1031 17.6613 22.7384 17.1847 23.2675C16.7082 23.7971 17.5021 25.1732 17.82 25.4911C18.0317 26.0733 18.2434 26.9733 18.2965 27.4499C18.8501 27.979 18.8501 28.2438 19.1966 29.4612C19.1966 29.4612 19.4083 30.0965 20.4135 29.6199C21.6314 29.4612 21.9488 29.6199 22.5309 28.7729C23.4841 27.7673 23.7489 27.6616 23.8019 27.132C24.2249 26.3912 24.7545 26.1794 24.7545 26.1794C24.7545 25.5437 24.8076 24.9089 24.4897 24.7502C25.4954 24.2737 26.2893 23.7441 26.6603 23.5323C26.7659 22.7384 26.6072 20.6607 26.2893 20.3229C25.972 19.7739 26.0245 19.9857 26.7393 19.1387C27.6129 18.133 28.8833 16.7569 28.8833 16.7569C28.8833 16.7569 29.2543 16.1217 29.3599 15.4864C30.1008 14.6925 30.8809 13.2633 29.4058 13.7394C28.7777 14.0042 28.2481 14.4108 27.7185 14.0042C27.5072 13.3159 27.0307 13.0516 26.6072 13.0516C25.7602 11.8867 25.125 11.0397 25.125 11.0397C25.125 11.0397 25.5852 10.2989 24.7198 9.71669C24.1193 8.92225 24.1193 8.86919 24.1193 8.86919C24.1193 8.86919 24.6484 6.96397 22.6901 7.3344C21.3666 7.28133 19.8757 6.9109 19.5139 7.54615C19.1522 7.86402 18.6139 7.77728 18.3496 7.13235C17.873 6.85784 17.1317 7.11449 17.1317 7.11449C17.1317 7.11449 16.5117 6.75222 16.8143 6.32873C17.1163 5.74655 17.026 5.48174 16.2852 5.64042C15.9714 5.66287 15.6586 5.6144 15.3729 5.56592C15.1412 5.52715 14.928 5.48735 14.7484 5.48633H14.7295Z" fill="white"/>
</mask>
<g mask="url(#mask79_2105_5555)">
<path d="M6.38574 24.7196H31.1591V23.7021H6.38574V24.7196Z" fill="#B3A168"/>
</g>
</g>
<mask id="mask80_2105_5555" style="mask-type:luminance" maskUnits="userSpaceOnUse" x="18" y="23" width="6" height="2">
<path d="M18.4121 23.6338H23.6369V24.8094H18.4121V23.6338Z" fill="white"/>
</mask>
<g mask="url(#mask80_2105_5555)">
<mask id="mask81_2105_5555" style="mask-type:luminance" maskUnits="userSpaceOnUse" x="17" y="23" width="10" height="2">
<path d="M17.0363 23.7021C17.0307 24.0119 17.1588 24.3874 17.32 24.7196H24.5541C25.3225 24.3501 25.9623 23.9547 26.3761 23.7021H17.0363Z" fill="white"/>
</mask>
<g mask="url(#mask81_2105_5555)">
<path d="M19.0462 21.1875C19.0462 21.1875 24.8256 23.6453 23.2312 28.5614C21.6367 28.8267 21.7035 24.3765 21.7035 24.3765L18.4482 21.6528L19.0462 21.1875Z" fill="#7D7246"/>
</g>
</g>
<mask id="mask82_2105_5555" style="mask-type:luminance" maskUnits="userSpaceOnUse" x="16" y="23" width="6" height="2">
<path d="M16.9756 23.6338H21.4167V24.8094H16.9756V23.6338Z" fill="white"/>
</mask>
<g mask="url(#mask82_2105_5555)">
<mask id="mask83_2105_5555" style="mask-type:luminance" maskUnits="userSpaceOnUse" x="17" y="23" width="10" height="2">
<path d="M17.0363 23.7021C17.0307 24.0119 17.1588 24.3874 17.32 24.7196H24.5541C25.3225 24.3501 25.9623 23.9547 26.3761 23.7021H17.0363Z" fill="white"/>
</mask>
<g mask="url(#mask83_2105_5555)">
<path d="M-0.0107422 24.9609H21.3303V23.668H-0.0107422V24.9609Z" fill="#231F20"/>
</g>
</g>
<mask id="mask84_2105_5555" style="mask-type:luminance" maskUnits="userSpaceOnUse" x="7" y="25" width="24" height="2">
<path d="M7.70117 25.2012H30.2984V26.3768H7.70117V25.2012Z" fill="white"/>
</mask>
<g mask="url(#mask84_2105_5555)">
<mask id="mask85_2105_5555" style="mask-type:luminance" maskUnits="userSpaceOnUse" x="7" y="5" width="24" height="25">
<path d="M14.7295 5.48633C14.6147 5.48684 14.5142 5.50419 14.4325 5.54807C13.8498 5.74655 12.8972 5.95779 12.8972 5.95779C12.8972 5.95779 12.5268 5.7991 11.7854 6.16953C11.0446 6.69916 10.8859 6.85784 10.8859 6.85784C10.8859 6.85784 10.6211 8.07577 9.82664 8.07577C9.3506 8.7105 8.29186 10.0871 8.02705 11.0397C7.49743 12.4158 7.70918 13.7394 8.29186 14.5333C9.13885 15.6982 9.87971 16.81 11.6793 16.4921C13.5325 16.0686 13.6911 16.0155 14.0616 16.0155C14.6438 16.0686 15.4377 16.6508 15.4377 16.6508C16.0204 16.6508 16.3377 16.8625 16.3377 16.8625C16.3377 16.8625 16.0729 18.3978 16.179 18.6096C16.3377 18.8744 17.2903 19.1785 17.3434 20.3229C17.3965 21.4679 17.7138 22.1031 17.7138 22.1031C17.7138 22.1031 17.6613 22.7384 17.1847 23.2675C16.7082 23.7971 17.5021 25.1732 17.82 25.4911C18.0317 26.0733 18.2434 26.9733 18.2965 27.4499C18.8501 27.979 18.8501 28.2438 19.1966 29.4612C19.1966 29.4612 19.4083 30.0965 20.4135 29.6199C21.6314 29.4612 21.9488 29.6199 22.5309 28.7729C23.4841 27.7673 23.7489 27.6616 23.8019 27.132C24.2249 26.3912 24.7545 26.1794 24.7545 26.1794C24.7545 25.5437 24.8076 24.9089 24.4897 24.7502C25.4954 24.2737 26.2893 23.7441 26.6603 23.5323C26.7659 22.7384 26.6072 20.6607 26.2893 20.3229C25.972 19.7739 26.0245 19.9857 26.7393 19.1387C27.6129 18.133 28.8833 16.7569 28.8833 16.7569C28.8833 16.7569 29.2543 16.1217 29.3599 15.4864C30.1008 14.6925 30.8809 13.2633 29.4058 13.7394C28.7777 14.0042 28.2481 14.4108 27.7185 14.0042C27.5072 13.3159 27.0307 13.0516 26.6072 13.0516C25.7602 11.8867 25.125 11.0397 25.125 11.0397C25.125 11.0397 25.5852 10.2989 24.7198 9.71669C24.1193 8.92225 24.1193 8.86919 24.1193 8.86919C24.1193 8.86919 24.6484 6.96397 22.6901 7.3344C21.3666 7.28133 19.8757 6.9109 19.5139 7.54615C19.1522 7.86402 18.6139 7.77728 18.3496 7.13235C17.873 6.85784 17.1317 7.11449 17.1317 7.11449C17.1317 7.11449 16.5117 6.75222 16.8143 6.32873C17.1163 5.74655 17.026 5.48174 16.2852 5.64042C15.9714 5.66287 15.6586 5.6144 15.3729 5.56592C15.1412 5.52715 14.928 5.48735 14.7484 5.48633H14.7295Z" fill="white"/>
</mask>
<g mask="url(#mask85_2105_5555)">
<path d="M6.38574 26.2954H31.1591V25.2178H6.38574V26.2954Z" fill="#B3A168"/>
</g>
</g>
<mask id="mask86_2105_5555" style="mask-type:luminance" maskUnits="userSpaceOnUse" x="18" y="25" width="6" height="2">
<path d="M18.4121 25.2012H23.6369V26.3768H18.4121V25.2012Z" fill="white"/>
</mask>
<g mask="url(#mask86_2105_5555)">
<mask id="mask87_2105_5555" style="mask-type:luminance" maskUnits="userSpaceOnUse" x="17" y="25" width="8" height="2">
<path d="M17.6045 25.2178C17.6851 25.3372 17.7606 25.4326 17.8193 25.4913C17.904 25.7244 17.9887 26.0081 18.0632 26.2954H24.5493C24.6733 26.2117 24.7539 26.1796 24.7539 26.1796C24.7539 25.8331 24.7697 25.4867 24.7324 25.2178H17.6045Z" fill="white"/>
</mask>
<g mask="url(#mask87_2105_5555)">
<path d="M19.0462 21.1875C19.0462 21.1875 24.8256 23.6453 23.2312 28.5614C21.6367 28.8267 21.7035 24.3765 21.7035 24.3765L18.4482 21.6528L19.0462 21.1875Z" fill="#7D7246"/>
</g>
</g>
<mask id="mask88_2105_5555" style="mask-type:luminance" maskUnits="userSpaceOnUse" x="17" y="25" width="6" height="2">
<path d="M17.498 25.2012H22.2004V26.3768H17.498V25.2012Z" fill="white"/>
</mask>
<g mask="url(#mask88_2105_5555)">
<mask id="mask89_2105_5555" style="mask-type:luminance" maskUnits="userSpaceOnUse" x="17" y="25" width="8" height="2">
<path d="M17.6055 25.2178C17.6861 25.3372 17.7616 25.4326 17.8203 25.4913C17.905 25.7244 17.9897 26.0081 18.0642 26.2954H24.5503C24.6742 26.2117 24.7549 26.1796 24.7549 26.1796C24.7549 25.8331 24.7707 25.4867 24.7334 25.2178H17.6055Z" fill="white"/>
</mask>
<g mask="url(#mask89_2105_5555)">
<path d="M-2.19336 26.2949H22.0856V25.002H-2.19336V26.2949Z" fill="#231F20"/>
</g>
</g>
<mask id="mask90_2105_5555" style="mask-type:luminance" maskUnits="userSpaceOnUse" x="7" y="28" width="24" height="2">
<path d="M7.70117 28.9893H30.2984V29.9036H7.70117V28.9893Z" fill="white"/>
</mask>
<g mask="url(#mask90_2105_5555)">
<mask id="mask91_2105_5555" style="mask-type:luminance" maskUnits="userSpaceOnUse" x="7" y="5" width="24" height="25">
<path d="M14.7295 5.48633C14.6147 5.48684 14.5142 5.50419 14.4325 5.54807C13.8498 5.74655 12.8972 5.95779 12.8972 5.95779C12.8972 5.95779 12.5268 5.7991 11.7854 6.16953C11.0446 6.69916 10.8859 6.85784 10.8859 6.85784C10.8859 6.85784 10.6211 8.07577 9.82664 8.07577C9.3506 8.7105 8.29186 10.0871 8.02705 11.0397C7.49743 12.4158 7.70918 13.7394 8.29186 14.5333C9.13885 15.6982 9.87971 16.81 11.6793 16.4921C13.5325 16.0686 13.6911 16.0155 14.0616 16.0155C14.6438 16.0686 15.4377 16.6508 15.4377 16.6508C16.0204 16.6508 16.3377 16.8625 16.3377 16.8625C16.3377 16.8625 16.0729 18.3978 16.179 18.6096C16.3377 18.8744 17.2903 19.1785 17.3434 20.3229C17.3965 21.4679 17.7138 22.1031 17.7138 22.1031C17.7138 22.1031 17.6613 22.7384 17.1847 23.2675C16.7082 23.7971 17.5021 25.1732 17.82 25.4911C18.0317 26.0733 18.2434 26.9733 18.2965 27.4499C18.8501 27.979 18.8501 28.2438 19.1966 29.4612C19.1966 29.4612 19.4083 30.0965 20.4135 29.6199C21.6314 29.4612 21.9488 29.6199 22.5309 28.7729C23.4841 27.7673 23.7489 27.6616 23.8019 27.132C24.2249 26.3912 24.7545 26.1794 24.7545 26.1794C24.7545 25.5437 24.8076 24.9089 24.4897 24.7502C25.4954 24.2737 26.2893 23.7441 26.6603 23.5323C26.7659 22.7384 26.6072 20.6607 26.2893 20.3229C25.972 19.7739 26.0245 19.9857 26.7393 19.1387C27.6129 18.133 28.8833 16.7569 28.8833 16.7569C28.8833 16.7569 29.2543 16.1217 29.3599 15.4864C30.1008 14.6925 30.8809 13.2633 29.4058 13.7394C28.7777 14.0042 28.2481 14.4108 27.7185 14.0042C27.5072 13.3159 27.0307 13.0516 26.6072 13.0516C25.7602 11.8867 25.125 11.0397 25.125 11.0397C25.125 11.0397 25.5852 10.2989 24.7198 9.71669C24.1193 8.92225 24.1193 8.86919 24.1193 8.86919C24.1193 8.86919 24.6484 6.96397 22.6901 7.3344C21.3666 7.28133 19.8757 6.9109 19.5139 7.54615C19.1522 7.86402 18.6139 7.77728 18.3496 7.13235C17.873 6.85784 17.1317 7.11449 17.1317 7.11449C17.1317 7.11449 16.5117 6.75222 16.8143 6.32873C17.1163 5.74655 17.026 5.48174 16.2852 5.64042C15.9714 5.66287 15.6586 5.6144 15.3729 5.56592C15.1412 5.52715 14.928 5.48735 14.7484 5.48633H14.7295Z" fill="white"/>
</mask>
<g mask="url(#mask91_2105_5555)">
<path d="M6.38574 29.7877H31.1591V29.0938H6.38574V29.7877Z" fill="#00AEEF"/>
</g>
</g>
<mask id="mask92_2105_5555" style="mask-type:luminance" maskUnits="userSpaceOnUse" x="20" y="6" width="11" height="2">
<path d="M20.7637 6.26172H30.2989V7.04544H20.7637V6.26172Z" fill="white"/>
</mask>
<g mask="url(#mask92_2105_5555)">
<mask id="mask93_2105_5555" style="mask-type:luminance" maskUnits="userSpaceOnUse" x="7" y="5" width="24" height="25">
<path d="M14.7295 5.48633C14.6147 5.48684 14.5142 5.50419 14.4325 5.54807C13.8498 5.74655 12.8972 5.95779 12.8972 5.95779C12.8972 5.95779 12.5268 5.7991 11.7854 6.16953C11.0446 6.69916 10.8859 6.85784 10.8859 6.85784C10.8859 6.85784 10.6211 8.07577 9.82664 8.07577C9.3506 8.7105 8.29186 10.0871 8.02705 11.0397C7.49743 12.4158 7.70918 13.7394 8.29186 14.5333C9.13885 15.6982 9.87971 16.81 11.6793 16.4921C13.5325 16.0686 13.6911 16.0155 14.0616 16.0155C14.6438 16.0686 15.4377 16.6508 15.4377 16.6508C16.0204 16.6508 16.3377 16.8625 16.3377 16.8625C16.3377 16.8625 16.0729 18.3978 16.179 18.6096C16.3377 18.8744 17.2903 19.1785 17.3434 20.3229C17.3965 21.4679 17.7138 22.1031 17.7138 22.1031C17.7138 22.1031 17.6613 22.7384 17.1847 23.2675C16.7082 23.7971 17.5021 25.1732 17.82 25.4911C18.0317 26.0733 18.2434 26.9733 18.2965 27.4499C18.8501 27.979 18.8501 28.2438 19.1966 29.4612C19.1966 29.4612 19.4083 30.0965 20.4135 29.6199C21.6314 29.4612 21.9488 29.6199 22.5309 28.7729C23.4841 27.7673 23.7489 27.6616 23.8019 27.132C24.2249 26.3912 24.7545 26.1794 24.7545 26.1794C24.7545 25.5437 24.8076 24.9089 24.4897 24.7502C25.4954 24.2737 26.2893 23.7441 26.6603 23.5323C26.7659 22.7384 26.6072 20.6607 26.2893 20.3229C25.972 19.7739 26.0245 19.9857 26.7393 19.1387C27.6129 18.133 28.8833 16.7569 28.8833 16.7569C28.8833 16.7569 29.2543 16.1217 29.3599 15.4864C30.1008 14.6925 30.8809 13.2633 29.4058 13.7394C28.7777 14.0042 28.2481 14.4108 27.7185 14.0042C27.5072 13.3159 27.0307 13.0516 26.6072 13.0516C25.7602 11.8867 25.125 11.0397 25.125 11.0397C25.125 11.0397 25.5852 10.2989 24.7198 9.71669C24.1193 8.92225 24.1193 8.86919 24.1193 8.86919C24.1193 8.86919 24.6484 6.96397 22.6901 7.3344C21.3666 7.28133 19.8757 6.9109 19.5139 7.54615C19.1522 7.86402 18.6139 7.77728 18.3496 7.13235C17.873 6.85784 17.1317 7.11449 17.1317 7.11449C17.1317 7.11449 16.5117 6.75222 16.8143 6.32873C17.1163 5.74655 17.026 5.48174 16.2852 5.64042C15.9714 5.66287 15.6586 5.6144 15.3729 5.56592C15.1412 5.52715 14.928 5.48735 14.7484 5.48633H14.7295Z" fill="white"/>
</mask>
<g mask="url(#mask93_2105_5555)">
<path d="M20.8379 7.02251H42.6284V6.3291H20.8379V7.02251Z" fill="#15234F"/>
</g>
</g>
<mask id="mask94_2105_5555" style="mask-type:luminance" maskUnits="userSpaceOnUse" x="17" y="26" width="14" height="2">
<path d="M17.7588 26.7686H30.2983V27.9441H17.7588V26.7686Z" fill="white"/>
</mask>
<g mask="url(#mask94_2105_5555)">
<mask id="mask95_2105_5555" style="mask-type:luminance" maskUnits="userSpaceOnUse" x="7" y="5" width="24" height="25">
<path d="M14.7285 5.48633C14.6137 5.48684 14.5132 5.50419 14.4315 5.54807C13.8489 5.74655 12.8963 5.95779 12.8963 5.95779C12.8963 5.95779 12.5258 5.7991 11.7845 6.16953C11.0436 6.69916 10.8849 6.85784 10.8849 6.85784C10.8849 6.85784 10.6201 8.07577 9.82567 8.07577C9.34962 8.7105 8.29089 10.0871 8.02608 11.0397C7.49645 12.4158 7.7082 13.7394 8.29089 14.5333C9.13787 15.6982 9.87873 16.81 11.6783 16.4921C13.5315 16.0686 13.6902 16.0155 14.0606 16.0155C14.6428 16.0686 15.4367 16.6508 15.4367 16.6508C16.0194 16.6508 16.3368 16.8625 16.3368 16.8625C16.3368 16.8625 16.0719 18.3978 16.1781 18.6096C16.3368 18.8744 17.2894 19.1785 17.3424 20.3229C17.3955 21.4679 17.7129 22.1031 17.7129 22.1031C17.7129 22.1031 17.6603 22.7384 17.1837 23.2675C16.7072 23.7971 17.5011 25.1732 17.819 25.4911C18.0307 26.0733 18.2425 26.9733 18.2955 27.4499C18.8491 27.979 18.8491 28.2438 19.1956 29.4612C19.1956 29.4612 19.4073 30.0965 20.4125 29.6199C21.6304 29.4612 21.9478 29.6199 22.53 28.7729C23.4831 27.7673 23.7479 27.6616 23.801 27.132C24.2239 26.3912 24.7536 26.1794 24.7536 26.1794C24.7536 25.5437 24.8066 24.9089 24.4887 24.7502C25.4944 24.2737 26.2883 23.7441 26.6593 23.5323C26.7649 22.7384 26.6062 20.6607 26.2883 20.3229C25.971 19.7739 26.0235 19.9857 26.7384 19.1387C27.6119 18.133 28.8824 16.7569 28.8824 16.7569C28.8824 16.7569 29.2533 16.1217 29.3589 15.4864C30.0998 14.6925 30.8799 13.2633 29.4048 13.7394C28.7767 14.0042 28.2471 14.4108 27.7175 14.0042C27.5063 13.3159 27.0297 13.0516 26.6062 13.0516C25.7592 11.8867 25.124 11.0397 25.124 11.0397C25.124 11.0397 25.5842 10.2989 24.7189 9.71669C24.1183 8.92225 24.1183 8.86919 24.1183 8.86919C24.1183 8.86919 24.6474 6.96397 22.6892 7.3344C21.3656 7.28133 19.8747 6.9109 19.513 7.54615C19.1512 7.86402 18.6129 7.77728 18.3486 7.13235C17.872 6.85784 17.1307 7.11449 17.1307 7.11449C17.1307 7.11449 16.5107 6.75222 16.8133 6.32873C17.1154 5.74655 17.0251 5.48174 16.2842 5.64042C15.9704 5.66287 15.6576 5.6144 15.3719 5.56592C15.1403 5.52715 14.927 5.48735 14.7474 5.48633H14.7285Z" fill="white"/>
</mask>
<g mask="url(#mask95_2105_5555)">
<path d="M17.873 27.8984H42.6469V26.8203H17.873V27.8984Z" fill="#B3A168"/>
</g>
</g>
<mask id="mask96_2105_5555" style="mask-type:luminance" maskUnits="userSpaceOnUse" x="18" y="26" width="6" height="2">
<path d="M18.4121 26.7686H23.5063V27.9441H18.4121V26.7686Z" fill="white"/>
</mask>
<g mask="url(#mask96_2105_5555)">
<mask id="mask97_2105_5555" style="mask-type:luminance" maskUnits="userSpaceOnUse" x="18" y="26" width="7" height="2">
<path d="M18.1885 26.8203C18.2395 27.0606 18.2778 27.2816 18.2966 27.4494C18.4671 27.6122 18.5849 27.75 18.6768 27.8984H23.3893C23.6653 27.6086 23.7704 27.4438 23.8021 27.1316C23.8684 27.0152 23.9373 26.9116 24.0067 26.8203H18.1885Z" fill="white"/>
</mask>
<g mask="url(#mask97_2105_5555)">
<path d="M19.0472 21.1875C19.0472 21.1875 24.8093 23.7045 23.2153 28.6201C21.3637 29.3686 21.7045 24.3765 21.7045 24.3765L18.4492 21.6528L19.0472 21.1875Z" fill="#7D7246"/>
</g>
</g>
<mask id="mask98_2105_5555" style="mask-type:luminance" maskUnits="userSpaceOnUse" x="18" y="26" width="5" height="2">
<path d="M18.1504 26.7686H22.4608V27.9441H18.1504V26.7686Z" fill="white"/>
</mask>
<g mask="url(#mask98_2105_5555)">
<mask id="mask99_2105_5555" style="mask-type:luminance" maskUnits="userSpaceOnUse" x="18" y="26" width="7" height="2">
<path d="M18.1875 26.8203C18.2385 27.0606 18.2768 27.2816 18.2957 27.4494C18.4661 27.6122 18.584 27.75 18.6758 27.8984H23.3883C23.6643 27.6086 23.7694 27.4438 23.8011 27.1316C23.8674 27.0152 23.9363 26.9116 24.0057 26.8203H18.1875Z" fill="white"/>
</mask>
<g mask="url(#mask99_2105_5555)">
<path d="M17.1445 28.133H22.4596V26.585H17.1445V28.133Z" fill="#231F20"/>
</g>
</g>
<mask id="mask100_2105_5555" style="mask-type:luminance" maskUnits="userSpaceOnUse" x="17" y="28" width="14" height="2">
<path d="M17.7588 28.3359H30.2983V29.9034H17.7588V28.3359Z" fill="white"/>
</mask>
<g mask="url(#mask100_2105_5555)">
<mask id="mask101_2105_5555" style="mask-type:luminance" maskUnits="userSpaceOnUse" x="7" y="5" width="24" height="25">
<path d="M14.7285 5.48633C14.6137 5.48684 14.5132 5.50419 14.4315 5.54807C13.8489 5.74655 12.8963 5.95779 12.8963 5.95779C12.8963 5.95779 12.5258 5.7991 11.7845 6.16953C11.0436 6.69916 10.8849 6.85784 10.8849 6.85784C10.8849 6.85784 10.6201 8.07577 9.82567 8.07577C9.34962 8.7105 8.29089 10.0871 8.02608 11.0397C7.49645 12.4158 7.7082 13.7394 8.29089 14.5333C9.13787 15.6982 9.87873 16.81 11.6783 16.4921C13.5315 16.0686 13.6902 16.0155 14.0606 16.0155C14.6428 16.0686 15.4367 16.6508 15.4367 16.6508C16.0194 16.6508 16.3368 16.8625 16.3368 16.8625C16.3368 16.8625 16.0719 18.3978 16.1781 18.6096C16.3368 18.8744 17.2894 19.1785 17.3424 20.3229C17.3955 21.4679 17.7129 22.1031 17.7129 22.1031C17.7129 22.1031 17.6603 22.7384 17.1837 23.2675C16.7072 23.7971 17.5011 25.1732 17.819 25.4911C18.0307 26.0733 18.2425 26.9733 18.2955 27.4499C18.8491 27.979 18.8491 28.2438 19.1956 29.4612C19.1956 29.4612 19.4073 30.0965 20.4125 29.6199C21.6304 29.4612 21.9478 29.6199 22.53 28.7729C23.4831 27.7673 23.7479 27.6616 23.801 27.132C24.2239 26.3912 24.7536 26.1794 24.7536 26.1794C24.7536 25.5437 24.8066 24.9089 24.4887 24.7502C25.4944 24.2737 26.2883 23.7441 26.6593 23.5323C26.7649 22.7384 26.6062 20.6607 26.2883 20.3229C25.971 19.7739 26.0235 19.9857 26.7384 19.1387C27.6119 18.133 28.8824 16.7569 28.8824 16.7569C28.8824 16.7569 29.2533 16.1217 29.3589 15.4864C30.0998 14.6925 30.8799 13.2633 29.4048 13.7394C28.7767 14.0042 28.2471 14.4108 27.7175 14.0042C27.5063 13.3159 27.0297 13.0516 26.6062 13.0516C25.7592 11.8867 25.124 11.0397 25.124 11.0397C25.124 11.0397 25.5842 10.2989 24.7189 9.71669C24.1183 8.92225 24.1183 8.86919 24.1183 8.86919C24.1183 8.86919 24.6474 6.96397 22.6892 7.3344C21.3656 7.28133 19.8747 6.9109 19.513 7.54615C19.1512 7.86402 18.6129 7.77728 18.3486 7.13235C17.872 6.85784 17.1307 7.11449 17.1307 7.11449C17.1307 7.11449 16.5107 6.75222 16.8133 6.32873C17.1154 5.74655 17.0251 5.48174 16.2842 5.64042C15.9704 5.66287 15.6576 5.6144 15.3719 5.56592C15.1403 5.52715 14.927 5.48735 14.7474 5.48633H14.7285Z" fill="white"/>
</mask>
<g mask="url(#mask101_2105_5555)">
<path d="M17.8535 31.2252H42.6269V28.3965H17.8535V31.2252Z" fill="#231F20"/>
</g>
</g>
<mask id="mask102_2105_5555" style="mask-type:luminance" maskUnits="userSpaceOnUse" x="18" y="28" width="5" height="1">
<path d="M18.8037 28.3359H22.9835V28.7278H18.8037V28.3359Z" fill="white"/>
</mask>
<g mask="url(#mask102_2105_5555)">
<mask id="mask103_2105_5555" style="mask-type:luminance" maskUnits="userSpaceOnUse" x="18" y="28" width="5" height="2">
<path d="M18.8945 28.3965C18.9777 28.6542 19.0604 28.9848 19.1961 29.4613C19.1961 29.4613 19.4078 30.0966 20.413 29.62C21.6309 29.4613 21.9483 29.62 22.5305 28.773C22.6657 28.6307 22.7866 28.5067 22.8953 28.3965H18.8945Z" fill="white"/>
</mask>
<g mask="url(#mask103_2105_5555)">
<path d="M19.0453 21.1875C19.0453 21.1875 24.8073 23.7045 23.2134 28.6201C21.3617 29.3686 21.7026 24.3765 21.7026 24.3765L18.4473 21.6528L19.0453 21.1875Z" fill="#7D7246"/>
</g>
</g>
<mask id="mask104_2105_5555" style="mask-type:luminance" maskUnits="userSpaceOnUse" x="7" y="5" width="23" height="24">
<path d="M7.72363 5.48633H29.1228V28.4668H7.72363V5.48633Z" fill="white"/>
</mask>
<g mask="url(#mask104_2105_5555)">
<path d="M12.8652 6.17514C13.2448 7.42113 14.3612 9.92179 17.2114 10.9295C22.626 12.8439 24.8807 17.8371 17.4772 21.5898" stroke="white" stroke-width="1.21385"/>
</g>
<mask id="mask105_2105_5555" style="mask-type:luminance" maskUnits="userSpaceOnUse" x="7" y="5" width="20" height="17">
<path d="M7.72363 5.48633H26.9023V21.8052H7.72363V5.48633Z" fill="white"/>
</mask>
<g mask="url(#mask105_2105_5555)">
<path d="M21.5583 7.16085C21.0267 8.30428 19.8669 9.79621 17.3397 10.6692C14.6477 11.5994 12.4777 13.9347 12.4395 16.4277" stroke="white" stroke-width="0.933671"/>
</g>
<mask id="mask106_2105_5555" style="mask-type:luminance" maskUnits="userSpaceOnUse" x="14" y="19" width="11" height="12">
<path d="M14.8857 19.7148H24.421V30.514H14.8857V19.7148Z" fill="white"/>
</mask>
<g mask="url(#mask106_2105_5555)">
<path d="M17.6396 22.4122C17.6396 22.4122 23.8329 25.1461 20.8704 29.5703" stroke="white" stroke-width="0.468664"/>
</g>
<mask id="mask107_2105_5555" style="mask-type:luminance" maskUnits="userSpaceOnUse" x="10" y="14" width="20" height="17">
<path d="M10.9668 14.8818H29.2536V30.5139H10.9668V14.8818Z" fill="white"/>
</mask>
<g mask="url(#mask107_2105_5555)">
<path d="M17.8867 21.8448C19.5128 22.6198 21.9308 24.2311 22.2589 26.6328C22.3956 27.6349 22.2166 28.8044 21.3476 29.9355" stroke="#319044" stroke-width="1.21385"/>
</g>
<mask id="mask108_2105_5555" style="mask-type:luminance" maskUnits="userSpaceOnUse" x="7" y="5" width="23" height="24">
<path d="M7.72363 5.48633H29.384V28.8587H7.72363V5.48633Z" fill="white"/>
</mask>
<g mask="url(#mask108_2105_5555)">
<path d="M13.0674 6.10858C13.447 7.35458 14.6358 9.83942 17.7263 10.9073C22.5337 12.5682 25.4803 18.0047 17.5625 21.7789C17.5028 21.8075 17.4416 21.8366 17.3794 21.8672" stroke="#231F20" stroke-width="1.21385"/>
</g>
<mask id="mask109_2105_5555" style="mask-type:luminance" maskUnits="userSpaceOnUse" x="7" y="5" width="22" height="19">
<path d="M7.72363 5.48633H28.8616V23.3726H7.72363V5.48633Z" fill="white"/>
</mask>
<g mask="url(#mask109_2105_5555)">
<path d="M21.9125 7.30405C21.3309 8.51688 20.1384 10.066 17.7016 10.9078C14.9703 11.8513 12.8396 14.0136 12.961 16.3975" stroke="#319044" stroke-width="1.21385"/>
</g>
</g>
</g>
<path d="M47.5214 10.6719H46.7135C46.6088 10.6719 46.5714 10.6083 46.6013 10.4811L48.5537 3.64761C48.5911 3.52044 48.6809 3.45685 48.823 3.45685H49.9451C50.0947 3.45685 50.1845 3.52044 50.2144 3.64761L52.1669 10.4811C52.1968 10.6083 52.1556 10.6719 52.0434 10.6719H51.2468C51.1794 10.6719 51.1308 10.6607 51.1009 10.6382C51.0784 10.6083 51.0597 10.5559 51.0448 10.4811L50.6184 9.02241H48.1498L47.7234 10.4811C47.6935 10.6083 47.6262 10.6719 47.5214 10.6719ZM49.3616 4.53406L48.3742 8.12474H50.4052L49.4065 4.53406H49.3616ZM54.8919 4.94923H55.8344C55.9691 4.94923 56.0364 5.00907 56.0364 5.12876V5.71225C56.0364 5.83942 55.9691 5.903 55.8344 5.903H54.8919C54.8171 5.903 54.7797 5.94041 54.7797 6.01521V10.4811C54.7797 10.6083 54.7123 10.6719 54.5777 10.6719H53.8708C53.7436 10.6719 53.68 10.6083 53.68 10.4811V6.01521C53.68 5.94041 53.6389 5.903 53.5566 5.903H52.9619C52.8347 5.903 52.7711 5.83942 52.7711 5.71225V5.12876C52.7711 5.06144 52.7823 5.01655 52.8048 4.99411C52.8347 4.96419 52.8871 4.94923 52.9619 4.94923H53.5566C53.6389 4.94923 53.68 4.91182 53.68 4.83702V4.51161C53.68 3.95805 53.8222 3.53166 54.1064 3.23243C54.3907 2.93321 54.8058 2.7836 55.3519 2.7836H55.8456C55.9728 2.7836 56.0364 2.84344 56.0364 2.96313V3.54662C56.0364 3.67379 55.9728 3.73737 55.8456 3.73737H55.509C55.2397 3.73737 55.049 3.8047 54.9368 3.93935C54.832 4.06652 54.7797 4.27598 54.7797 4.56772V4.83702C54.7797 4.91182 54.8171 4.94923 54.8919 4.94923ZM57.8201 10.6719H57.1132C56.986 10.6719 56.9224 10.6083 56.9224 10.4811V5.13998C56.9224 5.01281 56.986 4.94923 57.1132 4.94923H57.8201C57.9473 4.94923 58.0108 5.01281 58.0108 5.13998V5.56638H58.0557C58.1305 5.37936 58.2727 5.22975 58.4821 5.11754C58.6991 5.00533 58.9384 4.94923 59.2003 4.94923H59.6154C59.7426 4.94923 59.8062 5.01281 59.8062 5.13998V5.72347C59.8062 5.8656 59.7426 5.92544 59.6154 5.903H58.9422C58.3213 5.903 58.0108 6.24337 58.0108 6.9241V10.4811C58.0108 10.6083 57.9473 10.6719 57.8201 10.6719ZM60.7371 3.99545V2.97435C60.7371 2.85466 60.7969 2.79482 60.9166 2.79482H61.646C61.7657 2.79482 61.8255 2.85466 61.8255 2.97435V3.99545C61.8255 4.12262 61.7657 4.18621 61.646 4.18621H60.9166C60.7969 4.18621 60.7371 4.12262 60.7371 3.99545ZM60.7371 10.4811V5.13998C60.7371 5.01281 60.7969 4.94923 60.9166 4.94923H61.6347C61.7619 4.94923 61.8255 5.01281 61.8255 5.13998V10.4811C61.8255 10.5559 61.8105 10.6083 61.7806 10.6382C61.7582 10.6607 61.7133 10.6719 61.646 10.6719H60.9278C60.8007 10.6719 60.7371 10.6083 60.7371 10.4811ZM66.7784 9.90886V10.4923C66.7784 10.612 66.7111 10.6719 66.5764 10.6719H64.9269C64.3734 10.6719 63.9432 10.5185 63.6365 10.2118C63.3373 9.90512 63.1877 9.47872 63.1877 8.93264V6.68846C63.1877 6.1349 63.3373 5.70851 63.6365 5.40928C63.9432 5.10258 64.3734 4.94923 64.9269 4.94923H66.5764C66.7111 4.94923 66.7784 5.01281 66.7784 5.13998V5.72347C66.7784 5.84316 66.7111 5.903 66.5764 5.903H65.084C64.5454 5.903 64.2761 6.17978 64.2761 6.73335V8.88776C64.2761 9.44132 64.5454 9.7181 65.084 9.7181H66.5764C66.7111 9.7181 66.7784 9.78169 66.7784 9.90886ZM69.9121 10.6719H69.4745C68.9209 10.6719 68.4908 10.5185 68.1841 10.2118C67.8848 9.90512 67.7352 9.47872 67.7352 8.93264V6.68846C67.7352 6.1349 67.8848 5.70851 68.1841 5.40928C68.4908 5.10258 68.9209 4.94923 69.4745 4.94923H71.9879C72.1226 4.94923 72.1899 5.01281 72.1899 5.13998V10.4811C72.1899 10.6083 72.1226 10.6719 71.9879 10.6719H71.281C71.1538 10.6719 71.0903 10.6083 71.0903 10.4811V10.0772H71.0454C70.8658 10.4736 70.4881 10.6719 69.9121 10.6719ZM71.0903 8.76433V6.01521C71.0903 5.94041 71.0491 5.903 70.9668 5.903H69.6315C69.0929 5.903 68.8236 6.17978 68.8236 6.73335V8.88776C68.8236 9.44132 69.0929 9.7181 69.6315 9.7181H70.1701C70.7836 9.7181 71.0903 9.40018 71.0903 8.76433ZM74.487 10.6719H73.7801C73.6529 10.6719 73.5894 10.6083 73.5894 10.4811V5.13998C73.5894 5.01281 73.6529 4.94923 73.7801 4.94923H74.487C74.6142 4.94923 74.6778 5.01281 74.6778 5.13998V5.54393H74.7227C74.9022 5.14746 75.28 4.94923 75.856 4.94923H76.3497C76.8958 4.94923 77.3147 5.09884 77.6064 5.39806C77.8982 5.69729 78.044 6.12742 78.044 6.68846V10.4811C78.044 10.6083 77.9767 10.6719 77.8421 10.6719H77.1352C77.008 10.6719 76.9444 10.6083 76.9444 10.4811V6.73335C76.9444 6.17978 76.6714 5.903 76.1253 5.903H75.5979C74.9845 5.903 74.6778 6.22093 74.6778 6.85678V10.4811C74.6778 10.6083 74.6142 10.6719 74.487 10.6719ZM83.0697 10.6719H82.3628C82.2356 10.6719 82.172 10.6083 82.172 10.4811V3.64761C82.172 3.52044 82.2356 3.45685 82.3628 3.45685H85.0333C85.5794 3.45685 86.0058 3.6102 86.3125 3.91691C86.6192 4.21613 86.7726 4.64252 86.7726 5.19609V6.36306C86.7726 6.90914 86.6192 7.33553 86.3125 7.64224C86.0058 7.94894 85.5794 8.10229 85.0333 8.10229H83.3951C83.3053 8.10229 83.2604 8.1397 83.2604 8.2145V10.4811C83.2604 10.6083 83.1969 10.6719 83.0697 10.6719ZM83.3839 7.1373H84.8762C85.4074 7.1373 85.6729 6.86052 85.6729 6.30695V5.24097C85.6729 4.68741 85.4074 4.41063 84.8762 4.41063H83.3839C83.3016 4.41063 83.2604 4.44803 83.2604 4.52283V7.02509C83.2604 7.0999 83.3016 7.1373 83.3839 7.1373ZM90.0527 10.6719H89.6151C89.0615 10.6719 88.6314 10.5185 88.3247 10.2118C88.0254 9.90512 87.8758 9.47872 87.8758 8.93264V6.68846C87.8758 6.1349 88.0254 5.70851 88.3247 5.40928C88.6314 5.10258 89.0615 4.94923 89.6151 4.94923H92.1285C92.2632 4.94923 92.3305 5.01281 92.3305 5.13998V10.4811C92.3305 10.6083 92.2632 10.6719 92.1285 10.6719H91.4216C91.2944 10.6719 91.2309 10.6083 91.2309 10.4811V10.0772H91.186C91.0064 10.4736 90.6287 10.6719 90.0527 10.6719ZM91.2309 8.76433V6.01521C91.2309 5.94041 91.1897 5.903 91.1074 5.903H89.7721C89.2335 5.903 88.9642 6.17978 88.9642 6.73335V8.88776C88.9642 9.44132 89.2335 9.7181 89.7721 9.7181H90.3107C90.9242 9.7181 91.2309 9.40018 91.2309 8.76433ZM93.8983 5.903H93.3597C93.2849 5.903 93.2325 5.89178 93.2026 5.86934C93.1801 5.83942 93.1689 5.79079 93.1689 5.72347V5.13998C93.1689 5.01281 93.2325 4.94923 93.3597 4.94923H93.8983C93.9731 4.94923 94.0105 4.91182 94.0105 4.83702V3.82714C94.0105 3.69997 94.0778 3.63639 94.2125 3.63639H94.9194C95.0465 3.63639 95.1101 3.69997 95.1101 3.82714V4.83702C95.1101 4.91182 95.1513 4.94923 95.2336 4.94923H96.2771C96.4117 4.94923 96.4791 5.01281 96.4791 5.13998V5.72347C96.4791 5.84316 96.4117 5.903 96.2771 5.903H95.2336C95.1513 5.903 95.1101 5.94041 95.1101 6.01521V8.89898C95.1101 9.44506 95.3906 9.7181 95.9517 9.7181H96.3893C96.524 9.7181 96.5913 9.78169 96.5913 9.90886V10.4923C96.5913 10.612 96.524 10.6719 96.3893 10.6719H95.7834C95.2298 10.6719 94.7959 10.5223 94.4818 10.223C94.1676 9.92382 94.0105 9.50116 94.0105 8.95508V6.01521C94.0105 5.94041 93.9731 5.903 93.8983 5.903ZM98.5615 10.6719H97.8546C97.7274 10.6719 97.6638 10.6083 97.6638 10.4811V2.97435C97.6638 2.84718 97.7274 2.7836 97.8546 2.7836H98.5615C98.6887 2.7836 98.7523 2.84718 98.7523 2.97435V5.54393H98.7971C98.9767 5.14746 99.3544 4.94923 99.9305 4.94923H100.424C100.97 4.94923 101.389 5.09884 101.681 5.39806C101.973 5.69729 102.119 6.12742 102.119 6.68846V10.4811C102.119 10.6083 102.051 10.6719 101.917 10.6719H101.21C101.082 10.6719 101.019 10.6083 101.019 10.4811V6.73335C101.019 6.17978 100.746 5.903 100.2 5.903H99.6724C99.059 5.903 98.7523 6.22093 98.7523 6.85678V10.4811C98.7523 10.6083 98.6887 10.6719 98.5615 10.6719ZM106.075 10.6719H105.088C104.534 10.6719 104.104 10.5185 103.797 10.2118C103.498 9.90512 103.348 9.47872 103.348 8.93264V6.68846C103.348 6.1349 103.498 5.70851 103.797 5.40928C104.104 5.10258 104.534 4.94923 105.088 4.94923H106.075C106.621 4.94923 107.047 5.10258 107.354 5.40928C107.668 5.70851 107.825 6.1349 107.825 6.68846V8.93264C107.825 9.47872 107.668 9.90512 107.354 10.2118C107.047 10.5185 106.621 10.6719 106.075 10.6719ZM105.245 9.7181H105.929C106.468 9.7181 106.737 9.44506 106.737 8.89898V6.72213C106.737 6.17604 106.468 5.903 105.929 5.903H105.245C104.96 5.903 104.755 5.97033 104.628 6.10498C104.5 6.23215 104.437 6.43786 104.437 6.72213V8.89898C104.437 9.18324 104.5 9.3927 104.628 9.52735C104.755 9.65452 104.96 9.7181 105.245 9.7181ZM111.202 10.3914H110.697C110.158 10.3914 109.743 10.2417 109.451 9.94252C109.167 9.63581 109.025 9.20568 109.025 8.65212V6.68846C109.025 6.1349 109.178 5.70851 109.485 5.40928C109.792 5.10258 110.218 4.94923 110.764 4.94923H113.278C113.412 4.94923 113.48 5.01281 113.48 5.13998V10.6943C113.48 11.2404 113.323 11.6631 113.008 11.9623C112.702 12.269 112.275 12.4223 111.729 12.4223H109.62C109.493 12.4223 109.429 12.3625 109.429 12.2428V11.6593C109.429 11.5321 109.493 11.4686 109.62 11.4686H111.561C112.107 11.4686 112.38 11.1918 112.38 10.6382V9.78543H112.335C112.148 10.1894 111.77 10.3914 111.202 10.3914ZM112.38 8.4838V6.01521C112.38 5.94041 112.339 5.903 112.257 5.903H110.921C110.39 5.903 110.125 6.17978 110.125 6.73335V8.59601C110.125 9.14958 110.39 9.42636 110.921 9.42636H111.46C112.073 9.42636 112.38 9.11217 112.38 8.4838ZM118.929 10.6719H116.506C115.952 10.6719 115.522 10.5185 115.215 10.2118C114.916 9.90512 114.766 9.47872 114.766 8.93264V6.68846C114.766 6.1349 114.916 5.70851 115.215 5.40928C115.522 5.10258 115.952 4.94923 116.506 4.94923H117.426C117.979 4.94923 118.41 5.10258 118.716 5.40928C119.023 5.70851 119.176 6.1349 119.176 6.68846V8.11352C119.176 8.24817 119.109 8.31549 118.974 8.31549H115.967C115.885 8.31549 115.844 8.35289 115.844 8.4277V8.9102C115.844 9.45628 116.117 9.72932 116.663 9.72932H118.929C119.064 9.72932 119.131 9.79665 119.131 9.9313V10.4923C119.131 10.612 119.064 10.6719 118.929 10.6719ZM115.967 7.55247H117.976C118.05 7.55247 118.088 7.51507 118.088 7.44026V6.72213C118.088 6.43786 118.024 6.23215 117.897 6.10498C117.77 5.97033 117.564 5.903 117.28 5.903H116.663C116.379 5.903 116.173 5.97033 116.046 6.10498C115.918 6.23215 115.855 6.43786 115.855 6.72213V7.44026C115.855 7.51507 115.892 7.55247 115.967 7.55247ZM121.31 10.6719H120.603C120.476 10.6719 120.412 10.6083 120.412 10.4811V5.13998C120.412 5.01281 120.476 4.94923 120.603 4.94923H121.31C121.437 4.94923 121.501 5.01281 121.501 5.13998V5.54393H121.546C121.725 5.14746 122.103 4.94923 122.679 4.94923H123.173C123.719 4.94923 124.138 5.09884 124.429 5.39806C124.721 5.69729 124.867 6.12742 124.867 6.68846V10.4811C124.867 10.6083 124.8 10.6719 124.665 10.6719H123.958C123.831 10.6719 123.767 10.6083 123.767 10.4811V6.73335C123.767 6.17978 123.494 5.903 122.948 5.903H122.421C121.808 5.903 121.501 6.22093 121.501 6.85678V10.4811C121.501 10.6083 121.437 10.6719 121.31 10.6719Z" fill="#111322"/>
<path d="M48.3405 20.5433H49.9227C50.4613 20.5433 50.7306 20.2665 50.7306 19.713V16.0662C50.7306 15.5126 50.4613 15.2358 49.9227 15.2358H48.3405C48.2583 15.2358 48.2171 15.2732 48.2171 15.348V20.4199C48.2171 20.5022 48.2583 20.5433 48.3405 20.5433ZM47.1287 21.3063V14.4728C47.1287 14.3456 47.1923 14.282 47.3194 14.282H50.0798C50.6259 14.282 51.0523 14.4354 51.359 14.7421C51.6731 15.0413 51.8302 15.4677 51.8302 16.0213V19.7578C51.8302 20.3039 51.6731 20.7303 51.359 21.037C51.0523 21.3437 50.6259 21.4971 50.0798 21.4971H47.3194C47.1923 21.4971 47.1287 21.4335 47.1287 21.3063ZM55.3052 21.4971H54.8676C54.314 21.4971 53.8839 21.3437 53.5772 21.037C53.278 20.7303 53.1284 20.3039 53.1284 19.7578V17.5137C53.1284 16.9601 53.278 16.5337 53.5772 16.2345C53.8839 15.9278 54.314 15.7744 54.8676 15.7744H57.3811C57.5157 15.7744 57.583 15.838 57.583 15.9652V21.3063C57.583 21.4335 57.5157 21.4971 57.3811 21.4971H56.6742C56.547 21.4971 56.4834 21.4335 56.4834 21.3063V20.9024H56.4385C56.259 21.2988 55.8812 21.4971 55.3052 21.4971ZM56.4834 19.5895V16.8404C56.4834 16.7656 56.4423 16.7282 56.36 16.7282H55.0247C54.4861 16.7282 54.2168 17.005 54.2168 17.5585V19.713C54.2168 20.2665 54.4861 20.5433 55.0247 20.5433H55.5633C56.1767 20.5433 56.4834 20.2254 56.4834 19.5895ZM59.1508 16.7282H58.6122C58.5374 16.7282 58.485 16.717 58.4551 16.6945C58.4327 16.6646 58.4215 16.616 58.4215 16.5487V15.9652C58.4215 15.838 58.485 15.7744 58.6122 15.7744H59.1508C59.2256 15.7744 59.263 15.737 59.263 15.6622V14.6523C59.263 14.5252 59.3303 14.4616 59.465 14.4616H60.1719C60.2991 14.4616 60.3627 14.5252 60.3627 14.6523V15.6622C60.3627 15.737 60.4038 15.7744 60.4861 15.7744H61.5296C61.6643 15.7744 61.7316 15.838 61.7316 15.9652V16.5487C61.7316 16.6684 61.6643 16.7282 61.5296 16.7282H60.4861C60.4038 16.7282 60.3627 16.7656 60.3627 16.8404V19.7242C60.3627 20.2703 60.6432 20.5433 61.2042 20.5433H61.6418C61.7765 20.5433 61.8438 20.6069 61.8438 20.7341V21.3175C61.8438 21.4372 61.7765 21.4971 61.6418 21.4971H61.0359C60.4824 21.4971 60.0485 21.3475 59.7343 21.0482C59.4201 20.749 59.263 20.3264 59.263 19.7803V16.8404C59.263 16.7656 59.2256 16.7282 59.1508 16.7282ZM64.981 21.4971H64.5434C63.9898 21.4971 63.5597 21.3437 63.253 21.037C62.9538 20.7303 62.8042 20.3039 62.8042 19.7578V17.5137C62.8042 16.9601 62.9538 16.5337 63.253 16.2345C63.5597 15.9278 63.9898 15.7744 64.5434 15.7744H67.0569C67.1915 15.7744 67.2589 15.838 67.2589 15.9652V21.3063C67.2589 21.4335 67.1915 21.4971 67.0569 21.4971H66.35C66.2228 21.4971 66.1592 21.4335 66.1592 21.3063V20.9024H66.1143C65.9348 21.2988 65.557 21.4971 64.981 21.4971ZM66.1592 19.5895V16.8404C66.1592 16.7656 66.1181 16.7282 66.0358 16.7282H64.7005C64.1619 16.7282 63.8926 17.005 63.8926 17.5585V19.713C63.8926 20.2665 64.1619 20.5433 64.7005 20.5433H65.2391C65.8525 20.5433 66.1592 20.2254 66.1592 19.5895ZM71.3096 19.7466V19.4549C71.3096 19.3277 71.3732 19.2641 71.5003 19.2641H72.2185C72.3457 19.2641 72.4092 19.3277 72.4092 19.4549V19.6568C72.4092 19.971 72.4766 20.1992 72.6112 20.3413C72.7533 20.476 72.9852 20.5433 73.3069 20.5433H74.0812C74.4028 20.5433 74.6347 20.4722 74.7768 20.3301C74.919 20.1805 74.99 19.9411 74.99 19.612V19.3539C74.99 19.1145 74.8965 18.9275 74.7095 18.7928C74.53 18.6507 74.3056 18.5609 74.0363 18.5235C73.767 18.4787 73.4715 18.4188 73.1498 18.344C72.8282 18.2692 72.5327 18.1832 72.2634 18.0859C71.9941 17.9887 71.7659 17.8054 71.5789 17.5361C71.3994 17.2668 71.3096 16.9227 71.3096 16.5038V16.0325C71.3096 15.4864 71.4629 15.06 71.7696 14.7533C72.0838 14.4391 72.514 14.282 73.0601 14.282H74.2495C74.803 14.282 75.2332 14.4391 75.5399 14.7533C75.854 15.06 76.0111 15.4864 76.0111 16.0325V16.2794C76.0111 16.4065 75.9476 16.4701 75.8204 16.4701H75.1022C74.9751 16.4701 74.9115 16.4065 74.9115 16.2794V16.1335C74.9115 15.8118 74.8404 15.5837 74.6983 15.449C74.5636 15.3069 74.3355 15.2358 74.0138 15.2358H73.3069C72.9852 15.2358 72.7533 15.3106 72.6112 15.4602C72.4766 15.6024 72.4092 15.8492 72.4092 16.2008V16.5487C72.4092 16.8853 72.6524 17.1134 73.1386 17.2331C73.3555 17.2855 73.5912 17.3304 73.8455 17.3678C74.1073 17.4052 74.3692 17.4613 74.631 17.5361C74.8928 17.6109 75.1322 17.7119 75.3491 17.8391C75.566 17.9588 75.7418 18.1458 75.8765 18.4001C76.0111 18.647 76.0785 18.9499 76.0785 19.309V19.7466C76.0785 20.2927 75.9214 20.7228 75.6072 21.037C75.3005 21.3437 74.8741 21.4971 74.328 21.4971H73.0713C72.5252 21.4971 72.0951 21.3437 71.7809 21.037C71.4667 20.7228 71.3096 20.2927 71.3096 19.7466ZM78.3771 21.4971H77.6702C77.543 21.4971 77.4794 21.4335 77.4794 21.3063V13.7995C77.4794 13.6724 77.543 13.6088 77.6702 13.6088H78.3771C78.5043 13.6088 78.5678 13.6724 78.5678 13.7995V16.3691H78.6127C78.7923 15.9727 79.17 15.7744 79.746 15.7744H80.2397C80.7858 15.7744 81.2047 15.924 81.4965 16.2233C81.7882 16.5225 81.9341 16.9526 81.9341 17.5137V21.3063C81.9341 21.4335 81.8668 21.4971 81.7321 21.4971H81.0252C80.898 21.4971 80.8345 21.4335 80.8345 21.3063V17.5585C80.8345 17.005 80.5614 16.7282 80.0153 16.7282H79.4879C78.8745 16.7282 78.5678 17.0461 78.5678 17.682V21.3063C78.5678 21.4335 78.5043 21.4971 78.3771 21.4971ZM85.3408 21.4971H84.9032C84.3496 21.4971 83.9195 21.3437 83.6128 21.037C83.3135 20.7303 83.1639 20.3039 83.1639 19.7578V17.5137C83.1639 16.9601 83.3135 16.5337 83.6128 16.2345C83.9195 15.9278 84.3496 15.7744 84.9032 15.7744H87.4166C87.5513 15.7744 87.6186 15.838 87.6186 15.9652V21.3063C87.6186 21.4335 87.5513 21.4971 87.4166 21.4971H86.7097C86.5826 21.4971 86.519 21.4335 86.519 21.3063V20.9024H86.4741C86.2945 21.2988 85.9168 21.4971 85.3408 21.4971ZM86.519 19.5895V16.8404C86.519 16.7656 86.4778 16.7282 86.3955 16.7282H85.0603C84.5217 16.7282 84.2523 17.005 84.2523 17.5585V19.713C84.2523 20.2665 84.5217 20.5433 85.0603 20.5433H85.5989C86.2123 20.5433 86.519 20.2254 86.519 19.5895ZM89.9157 21.4971H89.2088C89.0816 21.4971 89.0181 21.4335 89.0181 21.3063V15.9652C89.0181 15.838 89.0816 15.7744 89.2088 15.7744H89.9157C90.0429 15.7744 90.1065 15.838 90.1065 15.9652V16.3916H90.1514C90.2262 16.2046 90.3683 16.0549 90.5778 15.9427C90.7947 15.8305 91.0341 15.7744 91.2959 15.7744H91.7111C91.8382 15.7744 91.9018 15.838 91.9018 15.9652V16.5487C91.9018 16.6908 91.8382 16.7506 91.7111 16.7282H91.0378C90.4169 16.7282 90.1065 17.0686 90.1065 17.7493V21.3063C90.1065 21.4335 90.0429 21.4971 89.9157 21.4971ZM92.8327 14.8206V13.7995C92.8327 13.6799 92.8926 13.62 93.0123 13.62H93.7416C93.8613 13.62 93.9211 13.6799 93.9211 13.7995V14.8206C93.9211 14.9478 93.8613 15.0114 93.7416 15.0114H93.0123C92.8926 15.0114 92.8327 14.9478 92.8327 14.8206ZM92.8327 21.3063V15.9652C92.8327 15.838 92.8926 15.7744 93.0123 15.7744H93.7304C93.8576 15.7744 93.9211 15.838 93.9211 15.9652V21.3063C93.9211 21.3811 93.9062 21.4335 93.8763 21.4634C93.8538 21.4858 93.8089 21.4971 93.7416 21.4971H93.0235C92.8963 21.4971 92.8327 21.4335 92.8327 21.3063ZM96.2932 21.4971H95.5863C95.4591 21.4971 95.3956 21.4335 95.3956 21.3063V15.9652C95.3956 15.838 95.4591 15.7744 95.5863 15.7744H96.2932C96.4204 15.7744 96.484 15.838 96.484 15.9652V16.3691H96.5289C96.7084 15.9727 97.0862 15.7744 97.6622 15.7744H98.1559C98.702 15.7744 99.1209 15.924 99.4126 16.2233C99.7044 16.5225 99.8502 16.9526 99.8502 17.5137V21.3063C99.8502 21.4335 99.7829 21.4971 99.6483 21.4971H98.9414C98.8142 21.4971 98.7506 21.4335 98.7506 21.3063V17.5585C98.7506 17.005 98.4776 16.7282 97.9315 16.7282H97.4041C96.7907 16.7282 96.484 17.0461 96.484 17.682V21.3063C96.484 21.4335 96.4204 21.4971 96.2932 21.4971ZM103.279 21.2165H102.774C102.236 21.2165 101.821 21.0669 101.529 20.7677C101.245 20.461 101.103 20.0309 101.103 19.4773V17.5137C101.103 16.9601 101.256 16.5337 101.563 16.2345C101.869 15.9278 102.296 15.7744 102.842 15.7744H105.355C105.49 15.7744 105.557 15.838 105.557 15.9652V21.5195C105.557 22.0656 105.4 22.4882 105.086 22.7875C104.779 23.0942 104.353 23.2475 103.807 23.2475H101.697C101.57 23.2475 101.506 23.1877 101.506 23.068V22.4845C101.506 22.3573 101.57 22.2938 101.697 22.2938H103.638C104.185 22.2938 104.458 22.017 104.458 21.4634V20.6106H104.413C104.226 21.0146 103.848 21.2165 103.279 21.2165ZM104.458 19.309V16.8404C104.458 16.7656 104.416 16.7282 104.334 16.7282H102.999C102.468 16.7282 102.202 17.005 102.202 17.5585V19.4212C102.202 19.9748 102.468 20.2516 102.999 20.2516H103.537C104.151 20.2516 104.458 19.9374 104.458 19.309ZM111.392 20.5321H112.009C112.428 20.5321 112.663 20.3413 112.716 19.9598L111.201 18.1981C110.767 18.2206 110.55 18.5123 110.55 19.0734V19.713C110.55 20.259 110.83 20.5321 111.392 20.5321ZM112.009 21.4971H111.234C110.688 21.4971 110.262 21.3475 109.955 21.0482C109.649 20.749 109.495 20.3264 109.495 19.7803V19.006C109.495 18.632 109.592 18.3029 109.787 18.0186C109.981 17.7343 110.266 17.5772 110.64 17.5473C110.333 17.1509 110.18 16.7132 110.18 16.2345V15.9988C110.18 15.4602 110.341 15.0413 110.662 14.7421C110.991 14.4354 111.433 14.282 111.986 14.282H112.323C112.869 14.282 113.295 14.4317 113.602 14.7309C113.909 15.0301 114.062 15.4528 114.062 15.9988V16.4365C114.062 16.5711 113.999 16.6384 113.871 16.6384H113.164C113.037 16.6384 112.974 16.5711 112.974 16.4365V16.0213C112.974 15.4827 112.723 15.2134 112.222 15.2134H112.087C111.564 15.2134 111.302 15.4827 111.302 16.0213V16.2569C111.302 16.5935 111.466 16.9451 111.795 17.3117L112.39 17.9962H114.96C115.087 17.9962 115.151 18.0635 115.151 18.1981V18.7704C115.151 18.8976 115.087 18.9612 114.96 18.9612H113.198L115.207 21.34C115.237 21.3699 115.244 21.4036 115.229 21.441C115.222 21.4784 115.195 21.4971 115.151 21.4971H114.253C114.103 21.4971 113.995 21.4522 113.927 21.3624L113.378 20.7116C113.206 21.2352 112.749 21.4971 112.009 21.4971Z" fill="#111322"/>
<path d="M47.5214 32.3281H46.7135C46.6088 32.3281 46.5714 32.2645 46.6013 32.1374L48.5537 25.3039C48.5911 25.1767 48.6809 25.1131 48.823 25.1131H49.9451C50.0947 25.1131 50.1845 25.1767 50.2144 25.3039L52.1669 32.1374C52.1968 32.2645 52.1556 32.3281 52.0434 32.3281H51.2468C51.1794 32.3281 51.1308 32.3169 51.1009 32.2945C51.0784 32.2645 51.0597 32.2122 51.0448 32.1374L50.6184 30.6787H48.1498L47.7234 32.1374C47.6935 32.2645 47.6262 32.3281 47.5214 32.3281ZM49.3616 26.1903L48.3742 29.781H50.4052L49.4065 26.1903H49.3616ZM54.0615 32.3281H53.3546C53.2274 32.3281 53.1639 32.2645 53.1639 32.1374V26.7962C53.1639 26.6691 53.2274 26.6055 53.3546 26.6055H54.0615C54.1887 26.6055 54.2523 26.6691 54.2523 26.7962V27.2226H54.2972C54.372 27.0356 54.5141 26.886 54.7236 26.7738C54.9405 26.6616 55.1799 26.6055 55.4417 26.6055H55.8569C55.984 26.6055 56.0476 26.6691 56.0476 26.7962V27.3797C56.0476 27.5218 55.984 27.5817 55.8569 27.5593H55.1836C54.5627 27.5593 54.2523 27.8996 54.2523 28.5804V32.1374C54.2523 32.2645 54.1887 32.3281 54.0615 32.3281ZM60.4009 31.5651V32.1486C60.4009 32.2683 60.3336 32.3281 60.1989 32.3281H58.5494C57.9959 32.3281 57.5657 32.1748 57.259 31.8681C56.9598 31.5614 56.8102 31.135 56.8102 30.5889V28.3447C56.8102 27.7912 56.9598 27.3648 57.259 27.0655C57.5657 26.7588 57.9959 26.6055 58.5494 26.6055H60.1989C60.3336 26.6055 60.4009 26.6691 60.4009 26.7962V27.3797C60.4009 27.4994 60.3336 27.5593 60.1989 27.5593H58.7065C58.1679 27.5593 57.8986 27.836 57.8986 28.3896V30.544C57.8986 31.0976 58.1679 31.3744 58.7065 31.3744H60.1989C60.3336 31.3744 60.4009 31.4379 60.4009 31.5651ZM62.3676 32.3281H61.6607C61.5335 32.3281 61.4699 32.2645 61.4699 32.1374V24.6306C61.4699 24.5034 61.5335 24.4398 61.6607 24.4398H62.3676C62.4948 24.4398 62.5584 24.5034 62.5584 24.6306V27.2002H62.6032C62.7828 26.8037 63.1605 26.6055 63.7366 26.6055H64.2303C64.7764 26.6055 65.1953 26.7551 65.487 27.0543C65.7788 27.3535 65.9246 27.7837 65.9246 28.3447V32.1374C65.9246 32.2645 65.8573 32.3281 65.7226 32.3281H65.0157C64.8886 32.3281 64.825 32.2645 64.825 32.1374V28.3896C64.825 27.836 64.5519 27.5593 64.0059 27.5593H63.4785C62.8651 27.5593 62.5584 27.8772 62.5584 28.513V32.1374C62.5584 32.2645 62.4948 32.3281 62.3676 32.3281ZM67.3228 25.6517V24.6306C67.3228 24.5109 67.3826 24.4511 67.5023 24.4511H68.2317C68.3513 24.4511 68.4112 24.5109 68.4112 24.6306V25.6517C68.4112 25.7789 68.3513 25.8425 68.2317 25.8425H67.5023C67.3826 25.8425 67.3228 25.7789 67.3228 25.6517ZM67.3228 32.1374V26.7962C67.3228 26.6691 67.3826 26.6055 67.5023 26.6055H68.2204C68.3476 26.6055 68.4112 26.6691 68.4112 26.7962V32.1374C68.4112 32.2122 68.3962 32.2645 68.3663 32.2945C68.3439 32.3169 68.299 32.3281 68.2317 32.3281H67.5135C67.3863 32.3281 67.3228 32.2645 67.3228 32.1374ZM69.5265 26.6055H70.2783C70.398 26.6055 70.4691 26.6691 70.4915 26.7962L71.6585 31.307H71.737L72.8816 26.7962C72.9115 26.6691 72.99 26.6055 73.1172 26.6055H73.8578C73.9924 26.6055 74.0373 26.6691 73.9924 26.7962L72.4776 32.1261C72.4477 32.2608 72.3654 32.3281 72.2308 32.3281H71.1536C71.0189 32.3281 70.9366 32.2608 70.9067 32.1261L69.3919 26.7962C69.362 26.6691 69.4068 26.6055 69.5265 26.6055ZM78.966 32.3281H76.5423C75.9887 32.3281 75.5586 32.1748 75.2519 31.8681C74.9527 31.5614 74.8031 31.135 74.8031 30.5889V28.3447C74.8031 27.7912 74.9527 27.3648 75.2519 27.0655C75.5586 26.7588 75.9887 26.6055 76.5423 26.6055H77.4624C78.016 26.6055 78.4461 26.7588 78.7528 27.0655C79.0595 27.3648 79.2129 27.7912 79.2129 28.3447V29.7698C79.2129 29.9044 79.1455 29.9717 79.0109 29.9717H76.0037C75.9214 29.9717 75.8803 30.0091 75.8803 30.0839V30.5664C75.8803 31.1125 76.1533 31.3856 76.6994 31.3856H78.966C79.1007 31.3856 79.168 31.4529 79.168 31.5875V32.1486C79.168 32.2683 79.1007 32.3281 78.966 32.3281ZM76.0037 29.2087H78.0122C78.087 29.2087 78.1244 29.1713 78.1244 29.0965V28.3784C78.1244 28.0941 78.0609 27.8884 77.9337 27.7612C77.8065 27.6266 77.6008 27.5593 77.3165 27.5593H76.6994C76.4151 27.5593 76.2094 27.6266 76.0822 27.7612C75.9551 27.8884 75.8915 28.0941 75.8915 28.3784V29.0965C75.8915 29.1713 75.9289 29.2087 76.0037 29.2087Z" fill="#111322"/>
<defs>
<filter id="filter0_dd_2105_5555" x="0" y="0" width="38" height="38" filterUnits="userSpaceOnUse" color-interpolation-filters="sRGB">
<feFlood flood-opacity="0" result="BackgroundImageFix"/>
<feColorMatrix in="SourceAlpha" type="matrix" values="0 0 0 0 0 0 0 0 0 0 0 0 0 0 0 0 0 0 127 0" result="hardAlpha"/>
<feOffset dy="1"/>
<feGaussianBlur stdDeviation="1"/>
<feColorMatrix type="matrix" values="0 0 0 0 0.0627451 0 0 0 0 0.0941176 0 0 0 0 0.156863 0 0 0 0.06 0"/>
<feBlend mode="normal" in2="BackgroundImageFix" result="effect1_dropShadow_2105_5555"/>
<feColorMatrix in="SourceAlpha" type="matrix" values="0 0 0 0 0 0 0 0 0 0 0 0 0 0 0 0 0 0 127 0" result="hardAlpha"/>
<feOffset dy="1"/>
<feGaussianBlur stdDeviation="1.5"/>
<feColorMatrix type="matrix" values="0 0 0 0 0.0627451 0 0 0 0 0.0941176 0 0 0 0 0.156863 0 0 0 0.1 0"/>
<feBlend mode="normal" in2="effect1_dropShadow_2105_5555" result="effect2_dropShadow_2105_5555"/>
<feBlend mode="normal" in="SourceGraphic" in2="effect2_dropShadow_2105_5555" result="shape"/>
</filter>
<clipPath id="clip0_2105_5555">
<rect x="3" y="2" width="32" height="32" rx="8" fill="white"/>
</clipPath>
</defs>
</svg>
